<svg width="211" height="63" viewBox="0 0 211 63" fill="none" xmlns="http://www.w3.org/2000/svg">
    <g clip-path="url(#clip0_3122_1070)">
        <path d="M203.513 62.4241H7.92698C3.86306 62.4241 0.555176 59.1086 0.555176 55.05V7.46669C0.555176 3.40651 3.86306 0.103516 7.92698 0.103516H203.513C207.575 0.103516 211 3.40651 211 7.46669V55.05C211 59.1086 207.575 62.4241 203.513 62.4241Z" fill="#A6A6A6"/>
        <path d="M209.491 55.0516C209.491 58.3484 206.819 61.0188 203.514 61.0188H7.92681C4.62361 61.0188 1.94238 58.3484 1.94238 55.0516V7.46522C1.94238 4.17002 4.62361 1.49023 7.92681 1.49023H203.513C206.819 1.49023 209.489 4.17002 209.489 7.46522L209.491 55.0516Z" fill="black"/>
        <path d="M47.52 30.9276C47.4748 25.9062 51.6338 23.4632 51.824 23.3495C49.4686 19.9172 45.8177 19.4482 44.5348 19.4108C41.4685 19.0883 38.4942 21.2446 36.9323 21.2446C35.3391 21.2446 32.9338 19.442 30.3415 19.4949C27.0055 19.5464 23.8847 21.4767 22.1731 24.4744C18.6407 30.5864 21.2752 39.5684 24.6594 44.5089C26.3524 46.9285 28.3305 49.63 30.9198 49.535C33.4529 49.4306 34.3991 47.9209 37.4561 47.9209C40.4849 47.9209 41.3734 49.535 44.0141 49.4742C46.7328 49.4306 48.4444 47.0437 50.0781 44.6023C52.0344 41.8291 52.8201 39.0979 52.8513 38.9577C52.7873 38.9358 47.5714 36.9463 47.52 30.9276Z" fill="white"/>
        <path d="M42.5315 16.1608C43.8939 14.4578 44.8261 12.1411 44.5674 9.79004C42.5954 9.87729 40.1293 11.1533 38.7092 12.8188C37.4528 14.2865 36.3304 16.692 36.6204 18.9543C38.8355 19.1194 41.1098 17.8372 42.5315 16.1608Z" fill="white"/>
        <path d="M84.1797 49.1872H80.6396L78.7003 43.0969H71.9599L70.1126 49.1872H66.666L73.3441 28.4531H77.4689L84.1797 49.1872ZM78.1158 40.5418L76.3621 35.1277C76.1766 34.5746 75.8289 33.2721 75.3161 31.2217H75.2537C75.0495 32.1036 74.7206 33.4061 74.2685 35.1277L72.546 40.5418H78.1158Z" fill="white"/>
        <path d="M101.354 41.5281C101.354 44.0708 100.666 46.0806 99.2912 47.5561C98.0597 48.8695 96.5305 49.5254 94.7051 49.5254C92.7347 49.5254 91.3193 48.8181 90.4572 47.4034H90.3949V55.2792H87.0714V39.1584C87.0714 37.5599 87.0293 35.9193 86.9482 34.2366H89.8711L90.0566 36.6064H90.1189C91.2273 34.8209 92.9093 33.9297 95.1665 33.9297C96.9311 33.9297 98.4042 34.6261 99.5827 36.0205C100.764 37.4165 101.354 39.2519 101.354 41.5281ZM97.9678 41.6496C97.9678 40.1945 97.6404 38.9948 96.9826 38.0506C96.2639 37.066 95.299 36.5736 94.0893 36.5736C93.2694 36.5736 92.5242 36.8478 91.8586 37.3885C91.1914 37.9338 90.7549 38.6458 90.5507 39.5276C90.4479 39.9389 90.3964 40.2755 90.3964 40.5403V43.0332C90.3964 44.1207 90.73 45.0383 91.3972 45.7877C92.0644 46.5371 92.9311 46.9111 93.9974 46.9111C95.2491 46.9111 96.2234 46.4281 96.9202 45.4652C97.6186 44.5008 97.9678 43.2295 97.9678 41.6496Z" fill="white"/>
        <path d="M118.559 41.5281C118.559 44.0708 117.871 46.0806 116.495 47.5561C115.265 48.8695 113.735 49.5254 111.91 49.5254C109.94 49.5254 108.524 48.8181 107.664 47.4034H107.601V55.2792H104.278V39.1584C104.278 37.5599 104.236 35.9193 104.155 34.2366H107.078L107.263 36.6064H107.325C108.432 34.8209 110.114 33.9297 112.373 33.9297C114.136 33.9297 115.609 34.6261 116.791 36.0205C117.968 37.4165 118.559 39.2519 118.559 41.5281ZM115.173 41.6496C115.173 40.1945 114.844 38.9948 114.186 38.0506C113.467 37.066 112.506 36.5736 111.294 36.5736C110.473 36.5736 109.729 36.8478 109.062 37.3885C108.395 37.9338 107.96 38.6458 107.756 39.5276C107.654 39.9389 107.601 40.2755 107.601 40.5403V43.0332C107.601 44.1207 107.935 45.0383 108.599 45.7877C109.266 46.5356 110.133 46.9111 111.202 46.9111C112.454 46.9111 113.428 46.4281 114.125 45.4652C114.824 44.5008 115.173 43.2295 115.173 41.6496Z" fill="white"/>
        <path d="M137.795 43.3728C137.795 45.1364 137.182 46.5714 135.952 47.6791C134.601 48.8897 132.719 49.4942 130.301 49.4942C128.069 49.4942 126.279 49.0642 124.925 48.2026L125.695 45.434C127.154 46.3159 128.755 46.7583 130.499 46.7583C131.751 46.7583 132.725 46.4748 133.425 45.9108C134.122 45.3468 134.47 44.5896 134.47 43.6454C134.47 42.8041 134.183 42.0952 133.608 41.5203C133.036 40.9454 132.08 40.411 130.746 39.9171C127.113 38.5632 125.299 36.5798 125.299 33.9717C125.299 32.2672 125.935 30.8697 127.209 29.7822C128.477 28.6932 130.17 28.1494 132.287 28.1494C134.175 28.1494 135.743 28.4782 136.995 29.1341L136.164 31.8419C134.995 31.2062 133.673 30.8884 132.194 30.8884C131.025 30.8884 130.111 31.1766 129.456 31.75C128.903 32.2626 128.626 32.8873 128.626 33.6274C128.626 34.4469 128.942 35.1246 129.578 35.6575C130.131 36.1498 131.137 36.6827 132.596 37.2576C134.381 37.9758 135.692 38.8156 136.535 39.7784C137.375 40.7382 137.795 41.9394 137.795 43.3728Z" fill="white"/>
        <path d="M148.783 36.7298H145.12V43.9885C145.12 45.8348 145.765 46.7571 147.059 46.7571C147.653 46.7571 148.146 46.7057 148.535 46.6029L148.627 49.1253C147.973 49.3699 147.111 49.493 146.043 49.493C144.73 49.493 143.705 49.0926 142.964 48.2933C142.227 47.4925 141.856 46.1495 141.856 44.2628V36.7266H139.673V34.2338H141.856V31.4964L145.12 30.5117V34.2338H148.783V36.7298Z" fill="white"/>
        <path d="M165.312 41.5893C165.312 43.8874 164.654 45.7741 163.341 47.2495C161.965 48.7686 160.138 49.5258 157.861 49.5258C155.666 49.5258 153.918 48.7982 152.615 47.343C151.312 45.8878 150.66 44.0509 150.66 41.837C150.66 39.5202 151.33 37.6226 152.676 36.1471C154.018 34.6701 155.829 33.9316 158.107 33.9316C160.302 33.9316 162.068 34.6592 163.401 36.116C164.676 37.5291 165.312 39.3535 165.312 41.5893ZM161.864 41.6968C161.864 40.3179 161.569 39.1354 160.972 38.1492C160.275 36.9557 159.279 36.3606 157.988 36.3606C156.652 36.3606 155.638 36.9573 154.941 38.1492C154.344 39.137 154.049 40.3382 154.049 41.7591C154.049 43.1379 154.344 44.3205 154.941 45.3051C155.659 46.4986 156.663 47.0937 157.959 47.0937C159.228 47.0937 160.224 46.4861 160.942 45.274C161.555 44.2691 161.864 43.0741 161.864 41.6968Z" fill="white"/>
        <path d="M176.115 37.1579C175.786 37.0971 175.435 37.066 175.067 37.066C173.898 37.066 172.994 37.5069 172.358 38.3903C171.804 39.1693 171.527 40.154 171.527 41.3427V49.1873H168.205L168.236 38.9449C168.236 37.2218 168.194 35.6529 168.111 34.2382H171.006L171.128 37.0987H171.22C171.57 36.1156 172.124 35.3241 172.881 34.7305C173.622 34.1961 174.422 33.9297 175.284 33.9297C175.591 33.9297 175.868 33.9515 176.115 33.9904V37.1579Z" fill="white"/>
        <path d="M190.978 41.0043C190.978 41.5995 190.939 42.1012 190.856 42.5109H180.886C180.925 43.9879 181.407 45.1175 182.333 45.8965C183.173 46.5929 184.259 46.9419 185.594 46.9419C187.07 46.9419 188.417 46.7067 189.628 46.2346L190.149 48.5405C188.733 49.1574 187.062 49.4644 185.134 49.4644C182.814 49.4644 180.994 48.7819 179.668 47.4187C178.347 46.0554 177.684 44.2248 177.684 41.9282C177.684 39.6738 178.3 37.7964 179.533 36.2991C180.824 34.7006 182.568 33.9014 184.763 33.9014C186.919 33.9014 188.551 34.7006 189.659 36.2991C190.537 37.5689 190.978 39.1394 190.978 41.0043ZM187.809 40.1428C187.831 39.1581 187.614 38.3074 187.163 37.5892C186.588 36.6653 185.704 36.2041 184.515 36.2041C183.428 36.2041 182.545 36.6544 181.87 37.558C181.316 38.2763 180.987 39.1378 180.886 40.1412H187.809V40.1428Z" fill="white"/>
        <path d="M77.0169 15.6985C77.0169 17.5323 76.4666 18.9127 75.3676 19.8397C74.3497 20.6951 72.9031 21.1235 71.0294 21.1235C70.1003 21.1235 69.3053 21.083 68.6396 21.002V10.9824C69.5079 10.8422 70.4432 10.7705 71.4534 10.7705C73.2383 10.7705 74.5835 11.1585 75.4908 11.9343C76.5072 12.8115 77.0169 14.0657 77.0169 15.6985ZM75.2944 15.7437C75.2944 14.5549 74.9795 13.6435 74.3497 13.0078C73.7199 12.3737 72.8002 12.0559 71.589 12.0559C71.0746 12.0559 70.6365 12.0901 70.2733 12.1618V19.7789C70.4744 19.8101 70.8423 19.8241 71.377 19.8241C72.6272 19.8241 73.5921 19.4767 74.2718 18.7818C74.9514 18.0869 75.2944 17.0742 75.2944 15.7437Z" fill="white"/>
        <path d="M86.1503 17.3001C86.1503 18.4297 85.8276 19.3551 85.1823 20.0812C84.5057 20.8275 83.6094 21.1998 82.4901 21.1998C81.4114 21.1998 80.5525 20.843 79.9118 20.1263C79.2727 19.4112 78.9531 18.5091 78.9531 17.4216C78.9531 16.2843 79.282 15.351 79.943 14.6266C80.6039 13.9021 81.4925 13.5391 82.6117 13.5391C83.6905 13.5391 84.5572 13.8958 85.2135 14.611C85.837 15.3059 86.1503 16.2033 86.1503 17.3001ZM84.4559 17.3531C84.4559 16.6753 84.3093 16.0942 84.0178 15.6097C83.6749 15.0238 83.187 14.7309 82.5525 14.7309C81.8962 14.7309 81.3974 15.0238 81.0544 15.6097C80.7614 16.0942 80.6164 16.6847 80.6164 17.3827C80.6164 18.0604 80.7629 18.6416 81.0544 19.1261C81.4083 19.7119 81.9009 20.0048 82.5369 20.0048C83.1605 20.0048 83.6499 19.7072 84.0022 19.1105C84.3046 18.6166 84.4559 18.0308 84.4559 17.3531Z" fill="white"/>
        <path d="M98.3965 13.6885L96.0972 21.033H94.6007L93.6482 17.8437C93.4066 17.0476 93.2102 16.2561 93.0574 15.4708H93.0278C92.8859 16.2779 92.6895 17.0678 92.437 17.8437L91.4253 21.033H89.9116L87.7495 13.6885H89.4284L90.2593 17.18C90.4603 18.0057 90.6256 18.7925 90.7581 19.5373H90.7877C90.9093 18.9234 91.1104 18.1413 91.3941 17.1956L92.437 13.69H93.7682L94.7675 17.1208C95.0091 17.9574 95.2055 18.7629 95.3567 19.5388H95.4019C95.5126 18.7832 95.6794 17.9777 95.9007 17.1208L96.7924 13.69H98.3965V13.6885Z" fill="white"/>
        <path d="M106.865 21.0329H105.232V16.8263C105.232 15.53 104.739 14.8819 103.751 14.8819C103.266 14.8819 102.875 15.0595 102.571 15.4163C102.27 15.773 102.117 16.1937 102.117 16.6751V21.0313H100.484V15.7871C100.484 15.1421 100.463 14.4425 100.424 13.6853H101.86L101.936 14.8336H101.982C102.172 14.4768 102.455 14.1823 102.828 13.9471C103.271 13.6728 103.766 13.5342 104.309 13.5342C104.995 13.5342 105.565 13.7554 106.019 14.1995C106.583 14.7432 106.865 15.5549 106.865 16.6331V21.0329Z" fill="white"/>
        <path d="M111.371 21.0328H109.739V10.3184H111.371V21.0328Z" fill="white"/>
        <path d="M120.989 17.3001C120.989 18.4297 120.666 19.3551 120.021 20.0812C119.344 20.8275 118.446 21.1998 117.329 21.1998C116.248 21.1998 115.389 20.843 114.75 20.1263C114.111 19.4112 113.792 18.5091 113.792 17.4216C113.792 16.2843 114.12 15.351 114.781 14.6266C115.442 13.9021 116.331 13.5391 117.449 13.5391C118.529 13.5391 119.394 13.8958 120.052 14.611C120.675 15.3059 120.989 16.2033 120.989 17.3001ZM119.293 17.3531C119.293 16.6753 119.146 16.0942 118.855 15.6097C118.513 15.0238 118.024 14.7309 117.391 14.7309C116.733 14.7309 116.234 15.0238 115.893 15.6097C115.6 16.0942 115.455 16.6847 115.455 17.3827C115.455 18.0604 115.601 18.6416 115.893 19.1261C116.247 19.7119 116.739 20.0048 117.375 20.0048C117.999 20.0048 118.487 19.7072 118.839 19.1105C119.143 18.6166 119.293 18.0308 119.293 17.3531Z" fill="white"/>
        <path d="M128.896 21.0331H127.429L127.307 20.1871H127.262C126.76 20.8617 126.044 21.1998 125.115 21.1998C124.422 21.1998 123.86 20.977 123.438 20.5345C123.055 20.1326 122.863 19.6325 122.863 19.0389C122.863 18.1414 123.237 17.4575 123.99 16.9838C124.741 16.5102 125.798 16.2781 127.159 16.289V16.1519C127.159 15.1843 126.651 14.7013 125.633 14.7013C124.908 14.7013 124.269 14.8836 123.717 15.2451L123.385 14.1732C124.068 13.751 124.911 13.5391 125.906 13.5391C127.826 13.5391 128.79 14.5518 128.79 16.5772V19.2819C128.79 20.0157 128.825 20.6 128.896 21.0331ZM127.199 18.5091V17.3765C125.397 17.3453 124.496 17.8392 124.496 18.8566C124.496 19.2398 124.599 19.5265 124.81 19.7181C125.02 19.9098 125.288 20.0048 125.608 20.0048C125.966 20.0048 126.302 19.8911 126.607 19.6652C126.914 19.4377 127.103 19.1495 127.173 18.7958C127.19 18.7163 127.199 18.6197 127.199 18.5091Z" fill="white"/>
        <path d="M138.178 21.0328H136.729L136.652 19.8534H136.607C136.144 20.7508 135.355 21.1995 134.247 21.1995C133.362 21.1995 132.624 20.8521 132.04 20.1572C131.455 19.4623 131.164 18.5603 131.164 17.4525C131.164 16.2637 131.48 15.3009 132.116 14.5655C132.732 13.88 133.486 13.5372 134.384 13.5372C135.371 13.5372 136.061 13.8691 136.454 14.5343H136.485V10.3184H138.121V19.0541C138.121 19.7693 138.139 20.4283 138.178 21.0328ZM136.485 17.9355V16.7109C136.485 16.499 136.47 16.3276 136.44 16.1967C136.348 15.8041 136.15 15.4738 135.849 15.2074C135.545 14.941 135.179 14.807 134.757 14.807C134.147 14.807 133.67 15.0485 133.319 15.533C132.972 16.0176 132.796 16.6361 132.796 17.3917C132.796 18.1178 132.962 18.7067 133.298 19.1601C133.651 19.6431 134.128 19.8846 134.726 19.8846C135.262 19.8846 135.69 19.6836 136.016 19.2801C136.331 18.9077 136.485 18.459 136.485 17.9355Z" fill="white"/>
        <path d="M152.15 17.3001C152.15 18.4297 151.828 19.3551 151.182 20.0812C150.506 20.8275 149.611 21.1998 148.49 21.1998C147.413 21.1998 146.554 20.843 145.912 20.1263C145.273 19.4112 144.953 18.5091 144.953 17.4216C144.953 16.2843 145.282 15.351 145.943 14.6266C146.604 13.9021 147.492 13.5391 148.613 13.5391C149.69 13.5391 150.559 13.8958 151.213 14.611C151.837 15.3059 152.15 16.2033 152.15 17.3001ZM150.457 17.3531C150.457 16.6753 150.311 16.0942 150.019 15.6097C149.675 15.0238 149.189 14.7309 148.553 14.7309C147.898 14.7309 147.399 15.0238 147.054 15.6097C146.761 16.0942 146.616 16.6847 146.616 17.3827C146.616 18.0604 146.763 18.6416 147.054 19.1261C147.408 19.7119 147.901 20.0048 148.537 20.0048C149.16 20.0048 149.652 19.7072 150.004 19.1105C150.305 18.6166 150.457 18.0308 150.457 17.3531Z" fill="white"/>
        <path d="M160.935 21.0329H159.303V16.8263C159.303 15.53 158.81 14.8819 157.82 14.8819C157.335 14.8819 156.944 15.0595 156.642 15.4163C156.339 15.773 156.188 16.1937 156.188 16.6751V21.0313H154.553V15.7871C154.553 15.1421 154.534 14.4425 154.495 13.6853H155.929L156.006 14.8336H156.051C156.243 14.4768 156.526 14.1823 156.897 13.9471C157.342 13.6728 157.836 13.5342 158.38 13.5342C159.064 13.5342 159.635 13.7554 160.088 14.1995C160.654 14.7432 160.935 15.5549 160.935 16.6331V21.0329Z" fill="white"/>
        <path d="M171.929 14.9115H170.13V18.4794C170.13 19.3861 170.449 19.8395 171.082 19.8395C171.375 19.8395 171.618 19.8146 171.81 19.7632L171.852 21.0018C171.53 21.1233 171.106 21.1841 170.583 21.1841C169.938 21.1841 169.436 20.9878 169.073 20.5952C168.708 20.2025 168.527 19.5419 168.527 18.6149V14.9115H167.453V13.6885H168.527V12.3424L170.128 11.8594V13.6869H171.927V14.9115H171.929Z" fill="white"/>
        <path d="M180.577 21.0328H178.942V16.8573C178.942 15.5408 178.449 14.8818 177.463 14.8818C176.705 14.8818 176.188 15.2635 175.904 16.0269C175.855 16.1874 175.827 16.3837 175.827 16.6143V21.0313H174.195V10.3184H175.827V14.7447H175.859C176.373 13.9392 177.11 13.5372 178.066 13.5372C178.742 13.5372 179.302 13.7585 179.746 14.2025C180.3 14.7556 180.577 15.5782 180.577 16.6657V21.0328Z" fill="white"/>
        <path d="M189.499 17.0128C189.499 17.3057 189.477 17.5519 189.438 17.7529H184.539C184.561 18.4789 184.794 19.032 185.248 19.4153C185.663 19.758 186.197 19.9294 186.852 19.9294C187.577 19.9294 188.238 19.8141 188.833 19.582L189.089 20.7162C188.392 21.0185 187.572 21.1696 186.623 21.1696C185.485 21.1696 184.589 20.8346 183.94 20.1647C183.289 19.4947 182.966 18.5957 182.966 17.4677C182.966 16.36 183.267 15.4377 183.873 14.7023C184.506 13.917 185.362 13.5244 186.442 13.5244C187.499 13.5244 188.302 13.917 188.844 14.7023C189.282 15.3255 189.499 16.0967 189.499 17.0128ZM187.94 16.5906C187.953 16.106 187.845 15.6885 187.624 15.3364C187.34 14.883 186.908 14.6555 186.324 14.6555C185.79 14.6555 185.356 14.8768 185.023 15.3208C184.752 15.6745 184.592 16.0967 184.539 16.5906H187.94Z" fill="white"/>
    </g>
    <defs>
        <clipPath id="clip0_3122_1070">
            <rect width="210.445" height="62.3206" fill="white" transform="translate(0.555176 0.103516)"/>
        </clipPath>
    </defs>
</svg>
