<svg width="48" height="48" viewBox="0 0 48 48" fill="none" xmlns="http://www.w3.org/2000/svg">
<path d="M32.904 25.704C33.1225 25.4758 33.2938 25.2066 33.408 24.912C33.648 24.3277 33.648 23.6723 33.408 23.088C33.2938 22.7934 33.1225 22.5243 32.904 22.296L25.704 15.096C25.2521 14.6441 24.6391 14.3902 24 14.3902C23.3609 14.3902 22.7479 14.6441 22.296 15.096C21.8441 15.5479 21.5902 16.1609 21.5902 16.8C21.5902 17.4391 21.8441 18.0521 22.296 18.504L25.416 21.6H16.8C16.1635 21.6 15.553 21.8529 15.103 22.303C14.6529 22.753 14.4 23.3635 14.4 24C14.4 24.6365 14.6529 25.247 15.103 25.6971C15.553 26.1471 16.1635 26.4 16.8 26.4H25.416L22.296 29.496C22.0711 29.7191 21.8925 29.9846 21.7707 30.277C21.6488 30.5695 21.5861 30.8832 21.5861 31.2C21.5861 31.5168 21.6488 31.8305 21.7707 32.123C21.8925 32.4155 22.0711 32.6809 22.296 32.904C22.5191 33.129 22.7846 33.3075 23.077 33.4293C23.3695 33.5512 23.6832 33.6139 24 33.6139C24.3168 33.6139 24.6305 33.5512 24.923 33.4293C25.2155 33.3075 25.4809 33.129 25.704 32.904L32.904 25.704ZM48 24C48 19.2533 46.5924 14.6131 43.9553 10.6663C41.3181 6.71954 37.5698 3.6434 33.1844 1.8269C28.799 0.0103989 23.9734 -0.464881 19.3178 0.461164C14.6623 1.38721 10.3859 3.67299 7.02945 7.02945C3.67299 10.3859 1.38721 14.6623 0.461164 19.3178C-0.464881 23.9734 0.0103989 28.799 1.8269 33.1844C3.6434 37.5698 6.71954 41.3181 10.6663 43.9553C14.6131 46.5924 19.2533 48 24 48C30.3652 48 36.4697 45.4714 40.9706 40.9706C45.4714 36.4697 48 30.3652 48 24ZM4.80001 24C4.80001 20.2026 5.92607 16.4905 8.03579 13.3331C10.1455 10.1756 13.1441 7.71473 16.6525 6.26152C20.1608 4.80832 24.0213 4.4281 27.7457 5.16893C31.4702 5.90977 34.8913 7.73839 37.5765 10.4236C40.2616 13.1087 42.0902 16.5298 42.8311 20.2543C43.5719 23.9787 43.1917 27.8392 41.7385 31.3475C40.2853 34.8559 37.8244 37.8545 34.667 39.9642C31.5095 42.0739 27.7974 43.2 24 43.2C18.9079 43.2 14.0243 41.1772 10.4236 37.5765C6.82286 33.9758 4.80001 29.0922 4.80001 24Z" fill="currentColor"/>
</svg>
