<svg width="48" height="48" viewBox="0 0 48 48" fill="none" xmlns="http://www.w3.org/2000/svg">
<path d="M22.296 32.904C22.5242 33.1225 22.7934 33.2938 23.088 33.408C23.6723 33.648 24.3277 33.648 24.912 33.408C25.2066 33.2938 25.4757 33.1225 25.704 32.904L32.904 25.704C33.3559 25.2521 33.6098 24.6391 33.6098 24C33.6098 23.3609 33.3559 22.7479 32.904 22.296C32.4521 21.8441 31.8391 21.5902 31.2 21.5902C30.5609 21.5902 29.9479 21.8441 29.496 22.296L26.4 25.416L26.4 16.8C26.4 16.1635 26.1471 15.553 25.697 15.103C25.247 14.6529 24.6365 14.4 24 14.4C23.3635 14.4 22.753 14.6529 22.3029 15.1029C21.8529 15.553 21.6 16.1635 21.6 16.8L21.6 25.416L18.504 22.296C18.2809 22.0711 18.0154 21.8925 17.723 21.7707C17.4305 21.6488 17.1168 21.5861 16.8 21.5861C16.4832 21.5861 16.1695 21.6488 15.877 21.7707C15.5845 21.8925 15.3191 22.0711 15.096 22.296C14.871 22.5191 14.6925 22.7846 14.5707 23.077C14.4488 23.3695 14.3861 23.6832 14.3861 24C14.3861 24.3168 14.4488 24.6305 14.5707 24.923C14.6925 25.2155 14.871 25.4809 15.096 25.704L22.296 32.904ZM24 48C28.7467 48 33.3869 46.5924 37.3337 43.9553C41.2805 41.3181 44.3566 37.5698 46.1731 33.1844C47.9896 28.799 48.4649 23.9734 47.5388 19.3178C46.6128 14.6623 44.327 10.3859 40.9706 7.02945C37.6141 3.67299 33.3377 1.38721 28.6822 0.461163C24.0266 -0.464882 19.201 0.0103977 14.8156 1.8269C10.4302 3.6434 6.68188 6.71954 4.04473 10.6663C1.40758 14.6131 -8.41587e-07 19.2533 -1.04907e-06 24C-1.32731e-06 30.3652 2.52856 36.4697 7.02943 40.9706C11.5303 45.4714 17.6348 48 24 48ZM24 4.80001C27.7974 4.80001 31.5095 5.92607 34.6669 8.03579C37.8244 10.1455 40.2853 13.1441 41.7385 16.6525C43.1917 20.1608 43.5719 24.0213 42.8311 27.7457C42.0902 31.4702 40.2616 34.8913 37.5764 37.5765C34.8913 40.2616 31.4702 42.0902 27.7457 42.8311C24.0213 43.5719 20.1608 43.1917 16.6525 41.7385C13.1441 40.2853 10.1455 37.8244 8.03578 34.6669C5.92606 31.5095 4.8 27.7974 4.8 24C4.8 18.9078 6.82285 14.0243 10.4235 10.4236C14.0242 6.82286 18.9078 4.80001 24 4.80001Z" fill="currentColor"/>
</svg>
