<svg width="48" height="48" viewBox="0 0 48 48" fill="none" xmlns="http://www.w3.org/2000/svg">
<path d="M15.096 22.296C14.8775 22.5242 14.7062 22.7934 14.592 23.088C14.352 23.6723 14.352 24.3277 14.592 24.912C14.7062 25.2066 14.8775 25.4757 15.096 25.704L22.296 32.904C22.7479 33.3559 23.3609 33.6098 24 33.6098C24.6391 33.6098 25.2521 33.3559 25.704 32.904C26.1559 32.4521 26.4098 31.8391 26.4098 31.2C26.4098 30.5609 26.1559 29.9479 25.704 29.496L22.584 26.4L31.2 26.4C31.8365 26.4 32.447 26.1471 32.8971 25.697C33.3471 25.247 33.6 24.6365 33.6 24C33.6 23.3635 33.3471 22.753 32.8971 22.3029C32.447 21.8528 31.8365 21.6 31.2 21.6L22.584 21.6L25.704 18.504C25.9289 18.2809 26.1075 18.0154 26.2293 17.723C26.3512 17.4305 26.4139 17.1168 26.4139 16.8C26.4139 16.4832 26.3512 16.1695 26.2293 15.877C26.1075 15.5845 25.9289 15.3191 25.704 15.096C25.4809 14.871 25.2154 14.6925 24.923 14.5707C24.6305 14.4488 24.3168 14.3861 24 14.3861C23.6832 14.3861 23.3695 14.4488 23.077 14.5707C22.7845 14.6925 22.5191 14.871 22.296 15.096L15.096 22.296ZM2.09815e-06 24C1.68317e-06 28.7467 1.40758 33.3869 4.04473 37.3337C6.68189 41.2805 10.4302 44.3566 14.8156 46.1731C19.201 47.9896 24.0266 48.4649 28.6822 47.5388C33.3377 46.6128 37.6141 44.327 40.9706 40.9706C44.327 37.6141 46.6128 33.3377 47.5388 28.6822C48.4649 24.0266 47.9896 19.201 46.1731 14.8156C44.3566 10.4302 41.2805 6.68188 37.3337 4.04473C33.3869 1.40758 28.7467 -1.68317e-06 24 -2.09815e-06C17.6348 -2.65461e-06 11.5303 2.52856 7.02944 7.02943C2.52857 11.5303 2.65461e-06 17.6348 2.09815e-06 24ZM43.2 24C43.2 27.7974 42.0739 31.5095 39.9642 34.6669C37.8545 37.8244 34.8559 40.2853 31.3475 41.7385C27.8392 43.1917 23.9787 43.5719 20.2543 42.8311C16.5298 42.0902 13.1087 40.2616 10.4235 37.5764C7.73838 34.8913 5.90976 31.4702 5.16892 27.7457C4.42809 24.0213 4.80831 20.1608 6.26151 16.6525C7.71472 13.1441 10.1756 10.1455 13.3331 8.03578C16.4905 5.92606 20.2026 4.8 24 4.8C29.0922 4.8 33.9757 6.82285 37.5764 10.4235C41.1771 14.0242 43.2 18.9078 43.2 24Z" fill="currentColor"/>
</svg>
