<svg width="100%" height="100%" viewBox="0 0 55 55" fill="none" xmlns="http://www.w3.org/2000/svg">
<g clip-path="url(#clip0_5055_926)">
<path fill-rule="evenodd" clip-rule="evenodd" d="M37.1653 25.5254C33.4626 25.5254 33.5215 28.9629 33.5215 28.9629H40.5733C40.5733 28.9531 40.4555 25.5254 37.1653 25.5254Z" fill="currentColor"/>
<path fill-rule="evenodd" clip-rule="evenodd" d="M22.1084 23.2561C22.2655 21.6257 21.3128 20.4668 19.2798 20.4668C17.2468 20.4668 14.3789 20.4668 14.3789 20.4668V25.4855C14.3789 25.4855 18.8771 25.4855 19.6334 25.4855C20.3896 25.4855 21.9512 24.8963 22.1084 23.2561Z" fill="currentColor"/>
<path fill-rule="evenodd" clip-rule="evenodd" d="M53.38 12.0899C53.0363 9.28091 51.7497 6.67824 49.7363 4.69431C47.7229 2.71038 45.1006 1.46306 42.2917 1.14878C32.2934 0.0389498 22.2068 0.0389498 12.2086 1.14878C9.39972 1.46306 6.7774 2.71038 4.764 4.69431C2.75061 6.67824 1.47382 9.29073 1.12025 12.0899C-0.0583136 22.2059 -0.0583136 32.4301 1.12025 42.5559C1.464 45.3649 2.75061 47.9676 4.764 49.9515C6.7774 51.9354 9.39972 53.1827 12.2086 53.497C22.2068 54.6068 32.2934 54.6068 42.2917 53.497C45.1006 53.1827 47.7229 51.9354 49.7363 49.9515C51.7497 47.9676 53.0265 45.3551 53.38 42.5559C54.5488 32.4301 54.5488 22.2059 53.38 12.0899ZM32.6667 18.0908H41.3881V20.2809H32.6667V18.0908ZM21.1952 38.4702H9.60597V16.7256H20.2818C22.2756 16.7256 26.4202 17.2854 26.7738 21.4202C27.1274 25.5649 23.9059 26.5961 23.9059 26.5961C23.9059 26.5961 27.6479 27.4309 27.805 31.8899C27.9622 36.3586 24.505 37.9988 21.1952 38.4702ZM44.855 31.5854H33.5408C33.7667 34.5711 34.8961 35.4059 37.3417 35.5827C39.7872 35.7595 40.7792 33.6086 40.7792 33.6086H44.5702C42.7827 39.4622 36.605 39.0988 34.9747 38.6274C33.3443 38.1461 29.7202 36.6336 29.239 31.6934C28.7577 26.7533 31.5077 24.3274 32.7059 23.5318C33.9042 22.7363 37.9211 21.0667 41.7024 23.689C45.4836 26.3309 44.855 31.5854 44.855 31.5854Z" fill="currentColor"/>
<path fill-rule="evenodd" clip-rule="evenodd" d="M19.6824 28.7559C18.0521 28.7559 14.3887 28.7559 14.3887 28.7559V34.7666C14.3887 34.7666 18.5726 34.7666 19.8003 34.7666C21.028 34.7666 23.1887 34.0889 23.0217 31.7416C22.8646 29.3943 21.3128 28.7559 19.6824 28.7559Z" fill="currentColor"/>
</g>
<defs>
<clipPath id="clip0_5055_926">
<rect width="55" height="55" fill="currentColor"/>
</clipPath>
</defs>
</svg>
