<svg width="65" height="43" viewBox="0 0 65 43" fill="none" xmlns="http://www.w3.org/2000/svg">
<path d="M16.0592 33.3401C15.6504 33.3401 15.2387 33.1995 14.9027 32.9134L3.34195 23.0694C2.94317 22.7294 2.71387 22.233 2.71387 21.7086C2.71387 21.1852 2.94417 20.6887 3.34195 20.3487L14.9027 10.5047C15.6534 9.86466 16.781 9.95538 17.421 10.7061C18.0601 11.4578 17.9704 12.5854 17.2187 13.2244L7.25602 21.7086L17.2187 30.1927C17.9704 30.8327 18.0601 31.9603 17.421 32.711C17.0671 33.1268 16.5647 33.3401 16.0592 33.3401Z" fill="#104065" fill-opacity="0.3"/>
<path d="M2.6932 23.8304L2.69364 23.8308L14.2543 33.6747C14.2544 33.6747 14.2544 33.6748 14.2544 33.6748C14.7773 34.1201 15.4209 34.3401 16.0592 34.3401C16.8454 34.3401 17.6307 34.0074 18.1825 33.3593L18.1825 33.3592C19.1793 32.1883 19.0394 30.4296 17.867 29.4314C17.867 29.4313 17.867 29.4313 17.867 29.4313L8.79839 21.7086L17.8664 13.9863L17.2187 13.2244L17.867 13.9858L17.8666 13.9861C19.0401 12.9882 19.1786 11.2295 18.1829 10.0584L18.1829 10.0584L18.182 10.0573C17.1844 8.88727 15.4262 8.74475 14.2544 9.74333C14.2542 9.74347 14.2541 9.74361 14.2539 9.74374L2.69364 19.5873L2.69364 19.5873L2.69226 19.5885C2.07364 20.1172 1.71387 20.8908 1.71387 21.7086C1.71387 22.5259 2.0716 23.3005 2.6932 23.8304Z" stroke="#104065" stroke-opacity="0.3" stroke-width="2"/>
<path d="M49.6556 33.3401C49.1501 33.3401 48.6477 33.1268 48.2947 32.711C47.6547 31.9603 47.7454 30.8327 48.4961 30.1927L58.4588 21.7086L48.4961 13.2244C47.7454 12.5854 47.6547 11.4578 48.2947 10.7061C48.9338 9.95538 50.0624 9.86466 50.8121 10.5047L62.3728 20.3487C62.7716 20.6887 63.0009 21.1852 63.0009 21.7086C63.0009 22.233 62.7716 22.7294 62.3728 23.0694L50.8121 32.9134C50.4761 33.1995 50.0644 33.3401 49.6556 33.3401Z" fill="#104065" fill-opacity="0.3"/>
<path d="M56.9164 21.7086L47.8478 29.4314L47.8473 29.4317C46.6774 30.4292 46.5348 32.1871 47.533 33.3589C48.0843 34.0078 48.87 34.3401 49.6556 34.3401C50.2939 34.3401 50.9375 34.1201 51.4604 33.6747L63.0212 23.8308L63.0216 23.8304C63.6432 23.3005 64.0009 22.5259 64.0009 21.7086C64.0009 20.8919 63.643 20.1174 63.0216 19.5877L63.0212 19.5873L51.4614 9.74417C51.4612 9.744 51.461 9.74383 51.4608 9.74367C50.2899 8.74464 48.53 8.8871 47.5334 10.0578L56.9164 21.7086ZM56.9164 21.7086L47.8479 13.9859C47.8479 13.9858 47.8478 13.9858 47.8478 13.9858C46.6764 12.9885 46.5355 11.2298 47.5333 10.0579L56.9164 21.7086Z" stroke="#104065" stroke-opacity="0.3" stroke-width="2"/>
<path d="M28.765 40.7241C28.6423 40.7241 28.5187 40.7111 28.3941 40.6852C27.429 40.4818 26.8109 39.5337 27.0143 38.5687L34.2193 4.35992C34.4227 3.39486 35.3698 2.77674 36.3359 2.98012C37.3009 3.1835 37.9191 4.13062 37.7157 5.09667L30.5106 39.3054C30.3332 40.1469 29.5914 40.7241 28.765 40.7241Z" fill="#104065" fill-opacity="0.3"/>
<path d="M28.1879 41.6637L28.1905 41.6643C28.3795 41.7036 28.5714 41.7241 28.765 41.7241C30.0551 41.7241 31.2122 40.8246 31.4891 39.5118L31.4892 39.5115L38.6942 5.30277L38.6942 5.30268C39.0114 3.79613 38.0474 2.31884 36.5421 2.00162L36.5419 2.00157C35.0353 1.6844 33.5581 2.64845 33.2408 4.1537L33.2408 4.15382L26.0358 38.3625C25.7185 39.868 26.6825 41.3465 28.1879 41.6637Z" stroke="#104065" stroke-opacity="0.3" stroke-width="2"/>
</svg>
