<svg width="50" height="50" viewBox="0 0 50 50" fill="none" xmlns="http://www.w3.org/2000/svg">
<path d="M24.979 4.16602C13.479 4.16602 4.1665 13.4994 4.1665 24.9994C4.1665 36.4994 13.479 45.8327 24.979 45.8327C36.4998 45.8327 45.8332 36.4994 45.8332 24.9994C45.8332 13.4994 36.4998 4.16602 24.979 4.16602ZM24.9998 41.666C15.7915 41.666 8.33317 34.2077 8.33317 24.9994C8.33317 15.791 15.7915 8.33268 24.9998 8.33268C34.2082 8.33268 41.6665 15.791 41.6665 24.9994C41.6665 34.2077 34.2082 41.666 24.9998 41.666ZM26.0415 14.5827H22.9165V27.0827L33.854 33.6452L35.4165 31.0827L26.0415 25.5202V14.5827Z" fill="white"/>
</svg>
