<svg width="55" height="55" viewBox="0 0 55 55" fill="none" xmlns="http://www.w3.org/2000/svg">
<path fill-rule="evenodd" clip-rule="evenodd" d="M53.38 12.503C53.0363 9.69384 51.7497 7.09093 49.7363 5.10681C47.7229 3.12271 45.1006 1.87527 42.2917 1.56095C32.2934 0.451036 22.2068 0.451036 12.2086 1.56095C9.39972 1.87527 6.7774 3.12271 4.764 5.10681C2.75061 7.09093 1.47382 9.70366 1.12025 12.503C-0.0583136 22.62 -0.0583136 32.8451 1.12025 42.9719C1.464 45.7811 2.75061 48.384 4.764 50.3681C6.7774 52.3522 9.39972 53.5996 12.2086 53.9139C22.2068 55.0238 32.2934 55.0238 42.2917 53.9139C45.1006 53.5996 47.7229 52.3522 49.7363 50.3681C51.7497 48.384 53.0265 45.7713 53.38 42.9719C54.5488 32.8451 54.5488 22.62 53.38 12.503ZM39.3845 37.9919C38.3631 38.9447 37.3515 39.8975 36.1434 40.6243C34.3854 41.6753 32.4997 42.3432 30.4765 42.6183C27.9425 42.9719 25.4577 42.7754 23.0613 41.8914C18.789 40.3199 15.9113 37.3437 14.4086 33.0415C13.8881 31.5583 13.6327 29.8493 13.6327 27.5017C13.6425 25.5078 14.2024 23.013 15.5184 20.7144C17.3943 17.4436 20.1934 15.3318 23.8077 14.2906C25.8604 13.7014 27.9622 13.5442 30.0836 13.7898C33.0595 14.1433 35.7113 15.2434 37.9997 17.1981C38.4417 17.5713 38.8542 17.9741 39.2961 18.3571C39.3943 18.4455 39.3943 18.4946 39.3059 18.583C38.3434 19.5358 37.3908 20.4886 36.4381 21.4413C35.947 21.9325 35.4559 22.4236 34.9649 22.9146C34.8667 23.013 34.8175 22.9933 34.7292 22.9146C34.2283 22.4727 33.747 22.0111 33.197 21.6279C31.9595 20.7636 30.5845 20.2921 29.0917 20.1546C27.4809 20.0171 25.9193 20.2332 24.4461 20.9208C22.6095 21.7851 21.3131 23.1799 20.6256 25.0952C19.8693 27.207 19.8792 29.3384 20.7238 31.4208C21.7649 34.0041 23.7193 35.5756 26.4399 36.1356C28.5809 36.5775 30.6434 36.2829 32.5586 35.1926C33.089 34.8881 33.5604 34.5148 34.0122 34.1023C34.2479 33.8863 34.4934 33.6701 34.739 33.4442C34.8077 33.3853 34.847 33.3754 34.9158 33.4442C36.4086 34.9078 37.9015 36.3713 39.4042 37.8249C39.4336 37.8937 39.4533 37.933 39.3845 37.9919ZM32.8729 28.2482C32.8631 30.9494 30.6827 33.1103 27.972 33.1103C25.2908 33.1004 23.1104 30.9199 23.1104 28.2383C23.1104 25.5471 25.3006 23.3665 27.9917 23.3665C30.7417 23.3764 32.8827 25.606 32.8729 28.2482Z" fill="white"/>
</svg>
