<svg width="55" height="55" viewBox="0 0 55 55" fill="none" xmlns="http://www.w3.org/2000/svg">
<path d="M53.1625 14.2042C54.3 13.0667 54.3 11.2292 53.1625 10.0917L44.9083 1.8375C43.7708 0.7 41.9333 0.7 40.7958 1.8375L27.7 14.9333L16.3542 3.5875C14.0792 1.3125 10.375 1.3125 8.1 3.5875L2.55833 9.12917C0.283333 11.4042 0.283333 15.1083 2.55833 17.3833L13.9042 28.7292L0.75 41.8833V54.25H13.1167L26.3 41.0667L37.6458 52.4125C40.4167 55.1833 44.15 54.1625 45.9 52.4125L51.4417 46.8708C53.7167 44.5958 53.7167 40.8917 51.4417 38.6167L40.0958 27.2708L53.1625 14.2042ZM6.7 13.2417L12.2125 7.7L15.9167 11.4042L12.475 14.875L16.5875 18.9875L20.0583 15.5167L23.5583 19.0167L18.0167 24.5583L6.7 13.2417ZM39.4542 34.9417L35.9833 38.4125L40.0958 42.525L43.5667 39.0542L47.2708 42.7583L41.7292 48.3L30.3833 36.9542L35.925 31.4125L39.4542 34.9417ZM10.6958 48.4167H6.58333V44.3042L34.6125 16.275L38.4042 20.0667L38.725 20.3875L10.6958 48.4167ZM38.725 12.1333L42.8375 8.02083L46.95 12.1333L42.8375 16.2458L38.725 12.1333Z" fill="#104065" fill-opacity="0.3"/>
</svg>
