  <svg
    width="100%"
    height="100%"
    viewBox="0 0 50 50"
    fill="none"
    xmlns="http://www.w3.org/2000/svg"
  >
    <path
      fillRule="evenodd"
      clipRule="evenodd"
      d="M38.9205 0.770555C29.669 -0.259456 20.3319 -0.259456 11.0805 0.770555C8.47883 1.05548 6.04978 2.21107 4.18739 4.04987C2.325 5.88866 1.13854 8.30277 0.820464 10.9006C-0.269582 20.269 -0.269582 29.7322 0.820464 39.1006C1.13854 41.6983 2.325 44.1124 4.18739 45.9512C6.04978 47.79 8.47883 48.9456 11.0805 49.2306C15.7755 49.7534 20.4964 50.0105 25.2205 50.0006V33.1706H19.5705V26.6506H25.2205V21.7606C25.1058 20.6129 25.2428 19.4541 25.6221 18.3648C26.0013 17.2756 26.6135 16.2822 27.4161 15.4539C28.2187 14.6256 29.1923 13.9824 30.2691 13.569C31.3458 13.1556 32.4998 12.9821 33.6505 13.0606C35.3443 13.0506 37.0373 13.1408 38.7205 13.3306V19.2006H35.2605C32.5205 19.2006 32.0005 20.5006 32.0005 22.3906V26.5906H38.5205L37.6705 33.1106H32.0005V49.8106C34.3205 49.6772 36.6271 49.4839 38.9205 49.2306C41.5221 48.9456 43.9511 47.79 45.8135 45.9512C47.6759 44.1124 48.8624 41.6983 49.1805 39.1006C50.2705 29.7322 50.2705 20.269 49.1805 10.9006C48.8624 8.30277 47.6759 5.88866 45.8135 4.04987C43.9511 2.21107 41.5221 1.05548 38.9205 0.770555Z"
      fill="currentColor"
    />
  </svg>