<svg viewBox="0 0 64 64" xmlns="http://www.w3.org/2000/svg">
<clipPath id="n">
<path d="m959.4 500-279.6 279.7 279.6 279.7h-319.5l-279.7-279.7 279.7-279.7zm-319.5-479.3-519.3 519.3 159.8 159.8 679-679.1h-319.5z"/>
</clipPath>
<clipPath id="m">
<path d="m959.4 500-279.6 279.7 279.6 279.7h-319.5l-279.7-279.7 279.7-279.7zm-319.5-479.3-519.3 519.3 159.8 159.8 679-679.1h-319.5z"/>
</clipPath>
<clipPath id="l">
<path d="m959.4 500-279.6 279.7 279.6 279.7h-319.5l-279.7-279.7 279.7-279.7zm-319.5-479.3-519.3 519.3 159.8 159.8 679-679.1h-319.5z"/>
</clipPath>
<clipPath id="k">
<path d="m959.4 500-279.6 279.7 279.6 279.7h-319.5l-279.7-279.7 279.7-279.7zm-319.5-479.3-519.3 519.3 159.8 159.8 679-679.1h-319.5z"/>
</clipPath>
<linearGradient id="j" x1="566.64" x2="685.65" y1="970.34" y2="851.32" gradientUnits="userSpaceOnUse">
<stop stop-color="#1a237e" stop-opacity=".4" offset="0"/>
<stop stop-color="#1a237e" stop-opacity="0" offset="1"/>
</linearGradient>
<clipPath id="i">
<path d="m959.4 500-279.6 279.7 279.6 279.7h-319.5l-279.7-279.7 279.7-279.7zm-319.5-479.3-519.3 519.3 159.8 159.8 679-679.1h-319.5z"/>
</clipPath>
<radialGradient id="h" cx="7824.7" cy="-2856" r="5082.9" gradientTransform="matrix(.25 0 0 -.25 -1812 -622.5)" gradientUnits="userSpaceOnUse">
<stop stop-color="#fff" stop-opacity=".1" offset="0"/>
<stop stop-color="#fff" stop-opacity="0" offset="1"/>
</radialGradient>
<g transform="matrix(.061615 0 0 .061615 -1.4308 -1.2754)">
<g clip-path="url(#n)">
<path d="m360.3 779.7 159.7 159.8 439.4-439.5h-319.5z" fill="#39cefd"/>
</g>
<path d="m639.9 20.7h319.5l-679 679.1-159.8-159.8z" clip-path="url(#m)" fill="#39cefd"/>
<path d="m520 939.5 119.9 119.8h319.5l-279.6-279.6z" clip-path="url(#l)" fill="#03569b"/>
<path d="m757 857.4-77.2-77.7-159.8 159.8z" clip-path="url(#k)" fill="url(#j)"/>
<g clip-path="url(#i)">
<path d="m360.28 779.64 159.8-159.8 159.81 159.8-159.81 159.8z" fill="#16b9fd"/>
</g>
<path d="m959.4 500-279.6 279.7 279.6 279.7h-319.5l-279.7-279.7 279.7-279.7zm-319.5-479.3-519.3 519.3 159.8 159.8 679-679.1h-319.5z" fill="url(#h)"/>
</g>
</svg>
