<svg width="211" height="63" viewBox="0 0 211 63" fill="none" xmlns="http://www.w3.org/2000/svg">
    <path d="M202.651 62.4566H7.79425C3.50741 62.4566 0 58.9491 0 54.6623V7.89679C0 3.60995 3.50741 0.102539 7.79425 0.102539H202.651C206.937 0.102539 210.445 3.60995 210.445 7.89679V54.6623C210.445 58.9491 206.937 62.4566 202.651 62.4566Z" fill="black"/>
    <path d="M202.651 1.34962C206.267 1.34962 209.198 4.28026 209.198 7.89679V54.6623C209.198 58.2788 206.267 61.2095 202.651 61.2095H7.79425C4.17772 61.2095 1.24708 58.2788 1.24708 54.6623V7.89679C1.24708 4.28026 4.17772 1.34962 7.79425 1.34962H202.651ZM202.651 0.102539H7.79425C3.50741 0.102539 0 3.60995 0 7.89679V54.6623C0 58.9491 3.50741 62.4566 7.79425 62.4566H202.651C206.937 62.4566 210.445 58.9491 210.445 54.6623V7.89679C210.445 3.60995 206.937 0.102539 202.651 0.102539Z" fill="#A6A6A6"/>
    <path d="M73.9207 16.0658C73.9207 17.3753 73.531 18.4197 72.7516 19.1835C71.8786 20.1032 70.7251 20.5709 69.3221 20.5709C67.9659 20.5709 66.8279 20.1032 65.877 19.1679C64.9262 18.2326 64.4585 17.0635 64.4585 15.6917C64.4585 14.3043 64.9262 13.1508 65.877 12.2155C66.8279 11.2802 67.9659 10.8125 69.3221 10.8125C69.9924 10.8125 70.6315 10.9372 71.2395 11.2022C71.8475 11.4672 72.3307 11.8102 72.7048 12.2466L71.8786 13.0728C71.2551 12.3402 70.4133 11.966 69.3221 11.966C68.34 11.966 67.4827 12.309 66.7656 13.0105C66.0485 13.6964 65.69 14.6005 65.69 15.7073C65.69 16.8141 66.0485 17.7182 66.7656 18.4041C67.4827 19.09 68.34 19.4485 69.3221 19.4485C70.3665 19.4485 71.2395 19.1056 71.941 18.4041C72.3931 17.952 72.6581 17.3129 72.7204 16.5023H69.3221V15.3799H73.8584C73.8895 15.6138 73.9207 15.8476 73.9207 16.0658Z" fill="white" stroke="white" stroke-width="0.2" stroke-miterlimit="10"/>
    <path d="M81.1073 12.1682H76.8517V15.13H80.6865V16.2524H76.8517V19.2142H81.1073V20.3678H75.6514V11.0146H81.1073V12.1682V12.1682Z" fill="white" stroke="white" stroke-width="0.2" stroke-miterlimit="10"/>
    <path d="M86.1732 20.3678H84.9729V12.1682H82.354V11.0146H88.7765V12.1682H86.1576V20.3678H86.1732Z" fill="white" stroke="white" stroke-width="0.2" stroke-miterlimit="10"/>
    <path d="M93.437 20.3678V11.0146H94.6373V20.3678H93.437Z" fill="white" stroke="white" stroke-width="0.2" stroke-miterlimit="10"/>
    <path d="M99.9701 20.3678H98.7697V12.1682H96.1509V11.0146H102.573V12.1682H99.9545V20.3678H99.9701Z" fill="white" stroke="white" stroke-width="0.2" stroke-miterlimit="10"/>
    <path d="M114.747 19.1523C113.828 20.1032 112.69 20.5709 111.318 20.5709C109.946 20.5709 108.808 20.1032 107.888 19.1523C106.969 18.2015 106.517 17.0479 106.517 15.6917C106.517 14.3355 106.969 13.1664 107.888 12.2311C108.808 11.2802 109.946 10.8125 111.318 10.8125C112.674 10.8125 113.812 11.2802 114.747 12.2311C115.667 13.182 116.135 14.3355 116.135 15.6917C116.119 17.0635 115.667 18.217 114.747 19.1523ZM108.777 18.3729C109.463 19.0744 110.32 19.4174 111.318 19.4174C112.316 19.4174 113.173 19.0744 113.859 18.3729C114.545 17.6714 114.903 16.7829 114.903 15.6917C114.903 14.6005 114.56 13.712 113.859 13.0105C113.173 12.309 112.316 11.966 111.318 11.966C110.32 11.966 109.463 12.309 108.777 13.0105C108.091 13.712 107.733 14.6005 107.733 15.6917C107.733 16.7829 108.091 17.6714 108.777 18.3729Z" fill="white" stroke="white" stroke-width="0.2" stroke-miterlimit="10"/>
    <path d="M117.817 20.3678V11.0146H119.283L123.835 18.2945H123.881L123.835 16.4862V11.0146H125.035V20.3678H123.788L119.033 12.745H118.987L119.033 14.5532V20.3678H117.817Z" fill="white" stroke="white" stroke-width="0.2" stroke-miterlimit="10"/>
    <path d="M106.22 34.0082C102.557 34.0082 99.5637 36.7986 99.5637 40.6334C99.5637 44.4525 102.557 47.2585 106.22 47.2585C109.883 47.2585 112.876 44.4525 112.876 40.6334C112.876 36.7986 109.883 34.0082 106.22 34.0082ZM106.22 44.6552C104.209 44.6552 102.479 43.0028 102.479 40.6334C102.479 38.2483 104.209 36.6115 106.22 36.6115C108.231 36.6115 109.961 38.2483 109.961 40.6334C109.961 43.0028 108.215 44.6552 106.22 44.6552ZM91.6915 34.0082C88.0282 34.0082 85.0352 36.7986 85.0352 40.6334C85.0352 44.4525 88.0282 47.2585 91.6915 47.2585C95.3548 47.2585 98.3477 44.4525 98.3477 40.6334C98.3477 36.7986 95.3548 34.0082 91.6915 34.0082ZM91.6915 44.6552C89.6805 44.6552 87.9502 43.0028 87.9502 40.6334C87.9502 38.2483 89.6805 36.6115 91.6915 36.6115C93.7024 36.6115 95.4327 38.2483 95.4327 40.6334C95.4327 43.0028 93.7024 44.6552 91.6915 44.6552ZM74.4194 36.0503V38.8563H81.1536C80.951 40.4307 80.421 41.5998 79.626 42.3949C78.6439 43.3769 77.1162 44.4525 74.435 44.4525C70.2884 44.4525 67.046 41.1166 67.046 36.9701C67.046 32.8235 70.2884 29.4876 74.435 29.4876C76.6641 29.4876 78.3009 30.3605 79.5012 31.4985L81.481 29.5188C79.7974 27.9131 77.5683 26.6816 74.4194 26.6816C68.7452 26.6816 63.9751 31.2958 63.9751 36.9856C63.9751 42.6599 68.7452 47.2896 74.4194 47.2896C77.4903 47.2896 79.7974 46.292 81.6057 44.4058C83.4607 42.5507 84.0375 39.9319 84.0375 37.8274C84.0375 37.1727 83.9907 36.5648 83.8816 36.0659H74.4194V36.0503ZM145.051 38.2327C144.505 36.7518 142.822 34.0082 139.377 34.0082C135.963 34.0082 133.126 36.6895 133.126 40.6334C133.126 44.3434 135.932 47.2585 139.704 47.2585C142.744 47.2585 144.505 45.4034 145.222 44.3278L142.962 42.8157C142.214 43.9225 141.185 44.6552 139.704 44.6552C138.223 44.6552 137.163 43.9693 136.493 42.6443L145.363 38.981L145.051 38.2327ZM136.01 40.4463C135.932 37.8898 137.989 36.5803 139.47 36.5803C140.624 36.5803 141.606 37.1571 141.933 37.9833L136.01 40.4463ZM128.808 46.8688H131.723V27.3831H128.808V46.8688ZM124.038 35.4891H123.928C123.274 34.7097 122.027 34.0082 120.437 34.0082C117.116 34.0082 114.077 36.9233 114.077 40.6645C114.077 44.3746 117.116 47.2741 120.437 47.2741C122.011 47.2741 123.274 46.5726 123.928 45.762H124.022V46.7129C124.022 49.2538 122.666 50.61 120.483 50.61C118.706 50.61 117.6 49.3317 117.147 48.2561L114.607 49.3162C115.339 51.0777 117.272 53.2289 120.483 53.2289C123.897 53.2289 126.781 51.218 126.781 46.3232V34.4135H124.022V35.4891H124.038ZM120.686 44.6552C118.675 44.6552 116.992 42.9716 116.992 40.6645C116.992 38.3263 118.675 36.6271 120.686 36.6271C122.666 36.6271 124.225 38.3418 124.225 40.6645C124.24 42.9716 122.681 44.6552 120.686 44.6552ZM158.706 27.3831H151.738V46.8688H154.653V39.4798H158.722C161.949 39.4798 165.113 37.1415 165.113 33.4315C165.113 29.7214 161.918 27.3831 158.706 27.3831ZM158.769 36.7674H154.638V30.0799H158.769C160.951 30.0799 162.183 31.8882 162.183 33.4159C162.183 34.9436 160.951 36.7674 158.769 36.7674ZM176.758 33.9771C174.653 33.9771 172.471 34.9124 171.567 36.9545L174.155 38.0301C174.7 36.9545 175.729 36.5959 176.805 36.5959C178.301 36.5959 179.844 37.5001 179.86 39.1057V39.3083C179.33 39.0122 178.208 38.5601 176.82 38.5601C174.03 38.5601 171.208 40.0878 171.208 42.9405C171.208 45.5437 173.484 47.2273 176.041 47.2273C177.989 47.2273 179.081 46.3543 179.751 45.3255H179.844V46.8376H182.65V39.3707C182.666 35.91 180.078 33.9771 176.758 33.9771ZM176.399 44.6552C175.449 44.6552 174.123 44.1719 174.123 43.0028C174.123 41.5063 175.776 40.9295 177.21 40.9295C178.488 40.9295 179.096 41.2101 179.86 41.5843C179.642 43.3769 178.083 44.6552 176.399 44.6552ZM192.892 34.398L189.556 42.8469H189.463L186.002 34.398H182.869L188.06 46.214L185.098 52.7768H188.138L196.134 34.398H192.892ZM166.703 46.8688H169.618V27.3831H166.703V46.8688Z" fill="white"/>
    <path d="M16.2752 11.8572C15.8231 12.3404 15.5581 13.0887 15.5581 14.0396V48.5213C15.5581 49.4878 15.8231 50.2361 16.2752 50.7037L16.3843 50.8128L35.6985 31.5143V31.2804V31.0466L16.3843 11.748L16.2752 11.8572Z" fill="url(#paint0_linear_3122_1103)"/>
    <path d="M42.1368 37.9522L35.6987 31.5141V31.2803V31.0465L42.1368 24.6084L42.2771 24.6863L49.8999 29.0199C52.0822 30.2514 52.0822 32.2779 49.8999 33.525L42.2771 37.8586L42.1368 37.9522Z" fill="url(#paint1_linear_3122_1103)"/>
    <path d="M42.2756 37.8586L35.6972 31.2803L16.2739 50.7035C16.991 51.4674 18.1757 51.5609 19.5163 50.7971L42.2756 37.8586Z" fill="url(#paint2_linear_3122_1103)"/>
    <path d="M42.277 24.7021L19.5022 11.7636C18.1616 10.9998 16.9768 11.0933 16.2598 11.8571L35.6986 31.2804L42.277 24.7021Z" fill="url(#paint3_linear_3122_1103)"/>
    <path opacity="0.2" d="M42.1353 37.7178L19.5007 50.5783C18.2381 51.2954 17.1001 51.2486 16.383 50.5939L16.2739 50.703L16.383 50.8121C17.1157 51.4668 18.2381 51.5136 19.5007 50.7965L42.2756 37.8581L42.1353 37.7178Z" fill="black"/>
    <path opacity="0.12" d="M16.2747 50.4851C15.8226 50.0019 15.5576 49.2536 15.5576 48.3027V48.5366C15.5576 49.5031 15.8226 50.2513 16.2747 50.719L16.3838 50.6098L16.2747 50.4851Z" fill="black"/>
    <path opacity="0.12" d="M49.8993 33.3068L42.1206 37.7183L42.2609 37.8586L49.8837 33.525C50.9749 32.9015 51.5205 32.0909 51.5205 31.2803C51.4425 32.0129 50.8969 32.7456 49.8993 33.3068Z" fill="black"/>
    <path opacity="0.25" d="M19.5025 11.981L49.9 29.2531C50.8821 29.8142 51.4433 30.5313 51.5368 31.2796C51.5368 30.469 50.9912 29.6428 49.9 29.0348L19.5025 11.7628C17.3201 10.5313 15.543 11.5601 15.543 14.0543V14.2881C15.543 11.7783 17.3356 10.7495 19.5025 11.981Z" fill="white"/>
    <defs>
        <linearGradient id="paint0_linear_3122_1103" x1="33.9833" y1="13.6806" x2="7.822" y2="39.8418" gradientUnits="userSpaceOnUse">
            <stop stop-color="#00A0FF"/>
            <stop offset="0.00657445" stop-color="#00A1FF"/>
            <stop offset="0.2601" stop-color="#00BEFF"/>
            <stop offset="0.5122" stop-color="#00D2FF"/>
            <stop offset="0.7604" stop-color="#00DFFF"/>
            <stop offset="1" stop-color="#00E3FF"/>
        </linearGradient>
        <linearGradient id="paint1_linear_3122_1103" x1="52.7438" y1="31.2825" x2="15.0245" y2="31.2825" gradientUnits="userSpaceOnUse">
            <stop stop-color="#FFE000"/>
            <stop offset="0.4087" stop-color="#FFBD00"/>
            <stop offset="0.7754" stop-color="#FFA500"/>
            <stop offset="1" stop-color="#FF9C00"/>
        </linearGradient>
        <linearGradient id="paint2_linear_3122_1103" x1="38.7011" y1="34.8595" x2="3.22432" y2="70.3363" gradientUnits="userSpaceOnUse">
            <stop stop-color="#FF3A44"/>
            <stop offset="1" stop-color="#C31162"/>
        </linearGradient>
        <linearGradient id="paint3_linear_3122_1103" x1="11.3764" y1="0.378073" x2="27.2183" y2="16.2199" gradientUnits="userSpaceOnUse">
            <stop stop-color="#32A071"/>
            <stop offset="0.0685" stop-color="#2DA771"/>
            <stop offset="0.4762" stop-color="#15CF74"/>
            <stop offset="0.8009" stop-color="#06E775"/>
            <stop offset="1" stop-color="#00F076"/>
        </linearGradient>
    </defs>
</svg>
