  <svg
    width="100%"
    height="100%"
    viewBox="0 0 50 50"
    fill="none"
    xmlns="http://www.w3.org/2000/svg"
  >
    <path
      fillRule="evenodd"
      clipRule="evenodd"
      d="M11.0805 0.770555C20.3319 -0.259456 29.669 -0.259456 38.9205 0.770555C41.5221 1.05548 43.9511 2.21107 45.8135 4.04987C47.6759 5.88866 48.8624 8.30277 49.1805 10.9006C50.2705 20.269 50.2705 29.7322 49.1805 39.1006C48.8624 41.6983 47.6759 44.1124 45.8135 45.9512C43.9511 47.79 41.5221 48.9456 38.9205 49.2306C29.669 50.2606 20.3319 50.2606 11.0805 49.2306C8.47883 48.9456 6.04979 47.79 4.1874 45.9512C2.32501 44.1124 1.13854 41.6983 0.820464 39.1006C-0.269582 29.7322 -0.269582 20.269 0.820464 10.9006C1.13854 8.30277 2.32501 5.88866 4.1874 4.04987C6.04979 2.21107 8.47883 1.05548 11.0805 0.770555ZM40.8005 14.0806C41.2698 15.364 41.5298 16.7146 41.5705 18.0806C41.6705 19.8506 41.6705 20.4206 41.6705 24.9506C41.6705 27.7406 41.6705 29.0306 41.6005 30.0206C41.6005 30.6406 41.6005 31.1406 41.6005 31.8206C41.5652 33.2034 41.3051 34.5713 40.8305 35.8706C40.4095 36.9826 39.7508 37.9894 38.9005 38.8206C38.0737 39.6714 37.0652 40.3244 35.9505 40.7306C34.6548 41.221 33.2854 41.4881 31.9005 41.5206C30.1305 41.6206 29.5605 41.6206 25.0305 41.6206C20.5005 41.6206 19.9305 41.6206 18.1605 41.5206C16.7924 41.4825 15.4403 41.2155 14.1605 40.7306C13.0477 40.3204 12.0401 39.668 11.2105 38.8206C10.3596 37.9938 9.70663 36.9853 9.30046 35.8706C8.81002 34.5749 8.5429 33.2055 8.51046 31.8206C8.41046 30.0506 8.41046 29.4806 8.41046 24.9506C8.41046 20.4206 8.41046 19.8506 8.51046 18.0806C8.5485 16.7125 8.81553 15.3604 9.30046 14.0806C9.70663 12.9658 10.3596 11.9573 11.2105 11.1306C12.0401 10.2831 13.0477 9.6307 14.1605 9.22056C15.4403 8.73562 16.7924 8.46859 18.1605 8.43056C19.9305 8.33056 20.5005 8.33056 25.0305 8.33056C29.5605 8.33056 30.1305 8.33056 31.9005 8.43056C33.2854 8.46299 34.6548 8.73011 35.9505 9.22056C37.0652 9.62672 38.0737 10.2797 38.9005 11.1306C39.7378 11.9665 40.3857 12.9725 40.8005 14.0806ZM38.0005 34.7706C38.358 33.7752 38.5506 32.728 38.5705 31.6706C38.6505 30.0006 38.6705 29.3806 38.6705 25.0006C38.6705 20.6206 38.6705 20.0006 38.5705 18.3306C38.5623 17.2524 38.3695 16.1836 38.0005 15.1706C37.7231 14.4733 37.2964 13.8453 36.7505 13.3306C36.1965 12.7375 35.5116 12.2821 34.7505 12.0006C33.7551 11.643 32.7079 11.4505 31.6505 11.4306C29.9805 11.3306 29.3605 11.3306 24.9805 11.3306C22.2705 11.3306 20.9805 11.3306 20.0305 11.4006C19.4305 11.4006 18.9505 11.4006 18.3105 11.4006C17.2323 11.4087 16.1635 11.6015 15.1505 11.9706C14.4498 12.2785 13.8226 12.7318 13.3105 13.3006C12.7354 13.8145 12.2871 14.4545 12.0005 15.1706C11.6203 16.1812 11.4206 17.2508 11.4105 18.3306C11.3105 20.0006 11.3105 20.6206 11.3105 25.0006C11.3105 27.7106 11.3105 29.0006 11.3805 29.9506C11.3805 30.5506 11.3805 31.0306 11.3805 31.6706C11.4169 32.755 11.6437 33.8246 12.0505 34.8306C12.309 35.5558 12.7297 36.2125 13.2805 36.7506C13.8171 37.2937 14.4607 37.7193 15.1705 38.0006C16.2105 38.3512 17.3031 38.5203 18.4005 38.5006C20.0705 38.6006 20.6805 38.6006 25.0705 38.6006C29.4605 38.6006 30.0705 38.6006 31.7305 38.5006C32.7891 38.4923 33.8382 38.2994 34.8305 37.9306C35.555 37.6609 36.2107 37.234 36.7505 36.6806C37.3069 36.1472 37.7344 35.494 38.0005 34.7706ZM20.2505 17.9006C21.953 16.758 24.0095 16.2654 26.0449 16.5124C28.0803 16.7595 29.9592 17.7298 31.339 19.2464C32.7188 20.763 33.5077 22.725 33.5618 24.7747C33.6158 26.8243 32.9315 28.8252 31.6336 30.4125C30.3357 31.9997 28.5106 33.0677 26.491 33.4217C24.4714 33.7758 22.3918 33.3922 20.6314 32.3411C18.871 31.2899 17.5469 29.6411 16.9006 27.6952C16.2543 25.7494 16.3288 23.6361 17.1105 21.7406C17.7557 20.179 18.8481 18.843 20.2505 17.9006ZM21.9205 29.6106C22.6772 30.1192 23.5479 30.4328 24.4552 30.5236C25.3624 30.6143 26.278 30.4793 27.1205 30.1306C28.4728 29.5591 29.549 28.4829 30.1205 27.1306C30.5263 26.1575 30.647 25.089 30.4687 24.0499C30.2903 23.0108 29.8202 22.0438 29.1131 21.2617C28.406 20.4796 27.4911 19.9147 26.4752 19.6329C25.4592 19.351 24.3841 19.3638 23.3751 19.6698C22.3662 19.9758 21.465 20.5624 20.7768 21.3611C20.0886 22.1598 19.6416 23.1378 19.4881 24.1809C19.3346 25.2239 19.4808 26.2892 19.9097 27.2523C20.3386 28.2155 21.0325 29.0368 21.9105 29.6206L21.9205 29.6106ZM32.7905 14.4406C33.1908 14.1762 33.6728 14.0646 34.1486 14.126C34.6244 14.1874 35.0623 14.4178 35.3824 14.7752C35.7024 15.1326 35.8834 15.5931 35.8922 16.0728C35.901 16.5524 35.7371 17.0193 35.4304 17.3882C35.1237 17.7571 34.6946 18.0034 34.2213 18.0823C33.7481 18.1612 33.2623 18.0673 32.8525 17.8179C32.4427 17.5684 32.1363 17.1799 31.989 16.7233C31.8418 16.2667 31.8636 15.7724 32.0505 15.3306C32.204 14.9674 32.4615 14.6578 32.7905 14.4406Z"
      fill="currentColor"
    />
  </svg>