<svg width="50" height="50" viewBox="0 0 50 50" fill="none" xmlns="http://www.w3.org/2000/svg">
<path d="M24.981 6C14.493 6 6 14.512 6 25C6 35.488 14.493 44 24.981 44C35.488 44 44 35.488 44 25C44 14.512 35.488 6 24.981 6ZM38.148 17.4H32.543C31.935 15.025 31.061 12.745 29.921 10.636C33.417 11.833 36.324 14.265 38.148 17.4ZM25 9.876C26.577 12.156 27.812 14.683 28.629 17.4H21.371C22.188 14.683 23.423 12.156 25 9.876ZM10.294 28.8C9.99 27.584 9.8 26.311 9.8 25C9.8 23.689 9.99 22.416 10.294 21.2H16.716C16.564 22.454 16.45 23.708 16.45 25C16.45 26.292 16.564 27.546 16.716 28.8H10.294ZM11.852 32.6H17.457C18.065 34.975 18.939 37.255 20.079 39.364C16.583 38.167 13.676 35.754 11.852 32.6ZM17.457 17.4H11.852C13.676 14.246 16.583 11.833 20.079 10.636C18.939 12.745 18.065 15.025 17.457 17.4ZM25 40.124C23.423 37.844 22.188 35.317 21.371 32.6H28.629C27.812 35.317 26.577 37.844 25 40.124ZM29.446 28.8H20.554C20.383 27.546 20.25 26.292 20.25 25C20.25 23.708 20.383 22.435 20.554 21.2H29.446C29.617 22.435 29.75 23.708 29.75 25C29.75 26.292 29.617 27.546 29.446 28.8ZM29.921 39.364C31.061 37.255 31.935 34.975 32.543 32.6H38.148C36.324 35.735 33.417 38.167 29.921 39.364ZM33.284 28.8C33.436 27.546 33.55 26.292 33.55 25C33.55 23.708 33.436 22.454 33.284 21.2H39.706C40.01 22.416 40.2 23.689 40.2 25C40.2 26.311 40.01 27.584 39.706 28.8H33.284Z" fill="white"/>
</svg>
