  <svg
    width="100%"
    height="100%"
    viewBox="0 0 50 50"
    fill="none"
    xmlns="http://www.w3.org/2000/svg"
  >
    <path
      fillRule="evenodd"
      clipRule="evenodd"
      d="M11.0805 0.770555C20.3319 -0.259456 29.669 -0.259456 38.9205 0.770555C41.5221 1.05548 43.9511 2.21107 45.8135 4.04987C47.6759 5.88866 48.8624 8.30277 49.1805 10.9006C50.2705 20.269 50.2705 29.7322 49.1805 39.1006C48.8624 41.6983 47.6759 44.1124 45.8135 45.9512C43.9511 47.79 41.5221 48.9456 38.9205 49.2306C29.669 50.2606 20.3319 50.2606 11.0805 49.2306C8.47884 48.9456 6.04979 47.79 4.1874 45.9512C2.32501 44.1124 1.13854 41.6983 0.820464 39.1006C-0.269582 29.7322 -0.269582 20.269 0.820464 10.9006C1.13854 8.30277 2.32501 5.88866 4.1874 4.04987C6.04979 2.21107 8.47884 1.05548 11.0805 0.770555ZM10.9105 16.2606C11.4267 16.7046 12.0444 17.0145 12.709 17.1628C13.3736 17.3111 14.0645 17.2931 14.7205 17.1106C15.1944 16.9714 15.6315 16.729 16.0005 16.4006C16.3611 16.0831 16.6478 15.6906 16.8405 15.2506C17.0391 14.8141 17.1414 14.3401 17.1405 13.8606C17.14 13.3793 17.0382 12.9036 16.8418 12.4643C16.6454 12.0249 16.3587 11.6318 16.0005 11.3106C15.6426 10.9903 15.2196 10.7515 14.7605 10.6106C14.3034 10.4589 13.8183 10.4111 13.3405 10.4706C12.8956 10.4697 12.455 10.5577 12.0446 10.7294C11.6341 10.9011 11.2622 11.1531 10.9505 11.4706C10.6336 11.7848 10.3821 12.1586 10.2105 12.5706C10.0388 12.9825 9.95046 13.4243 9.95046 13.8706C9.95046 14.3168 10.0388 14.7586 10.2105 15.1706C10.3821 15.5825 10.6336 15.9563 10.9505 16.2706L10.9105 16.2606ZM16.5605 39.5506V20.0006H10.0005V39.5506H16.5605ZM40.0905 39.5506H33.5605V29.0506C33.5605 26.4206 32.6305 24.7106 30.2605 24.7106C29.5422 24.7219 28.8444 24.9522 28.2605 25.3706C27.6641 25.7959 27.2108 26.3922 26.9605 27.0806C26.7914 27.5893 26.7202 28.1254 26.7505 28.6606V39.5306H20.2205V20.0006H26.7505V22.7606C27.3419 21.732 28.2033 20.8847 29.2414 20.3101C30.2795 19.7355 31.4548 19.4556 32.6405 19.5006C36.9805 19.5006 40.1405 22.3006 40.1405 28.3206L40.0905 39.5506Z"
      fill="currentColor"
    />
  </svg>