<svg width="53" height="53" viewBox="0 0 53 53" fill="none" xmlns="http://www.w3.org/2000/svg">
<path d="M39.836 35.4643C38.7939 34.4201 37.3793 33.8333 35.9042 33.8333L35.0875 33.0458C37.9458 29.7208 39.6667 25.4042 39.6667 20.7083C39.6667 10.2375 31.1792 1.75 20.7083 1.75C10.2375 1.75 1.75 10.2375 1.75 20.7083C1.75 31.1792 10.2375 39.6667 20.7083 39.6667C25.4042 39.6667 29.7208 37.9458 33.0458 35.0875L33.8333 35.9042C33.8333 37.3793 34.4201 38.7939 35.4643 39.836L46.2416 50.5918C47.4432 51.791 49.3892 51.79 50.5896 50.5896C51.79 49.3892 51.791 47.4432 50.5918 46.2416L39.836 35.4643ZM20.7083 33.8333C13.4458 33.8333 7.58333 27.9708 7.58333 20.7083C7.58333 13.4458 13.4458 7.58333 20.7083 7.58333C27.9708 7.58333 33.8333 13.4458 33.8333 20.7083C33.8333 27.9708 27.9708 33.8333 20.7083 33.8333Z" fill="#104065" fill-opacity="0.3"/>
<path fill-rule="evenodd" clip-rule="evenodd" d="M33.8333 35.9042L33.0458 35.0875C29.7208 37.9458 25.4042 39.6667 20.7083 39.6667C10.2375 39.6667 1.75 31.1792 1.75 20.7083C1.75 10.2375 10.2375 1.75 20.7083 1.75C31.1792 1.75 39.6667 10.2375 39.6667 20.7083C39.6667 25.4042 37.9458 29.7208 35.0875 33.0458L35.9042 33.8333C37.3793 33.8333 38.7939 34.4201 39.836 35.4643L50.5918 46.2416C51.791 47.4432 51.79 49.3892 50.5896 50.5896C49.3892 51.79 47.4432 51.791 46.2416 50.5918L35.4643 39.836C34.4201 38.7939 33.8333 37.3793 33.8333 35.9042ZM36.5255 32.8628C39.1248 29.4892 40.6667 25.2683 40.6667 20.7083C40.6667 9.68521 31.7314 0.75 20.7083 0.75C9.68521 0.75 0.75 9.68521 0.75 20.7083C0.75 31.7314 9.68521 40.6667 20.7083 40.6667C25.2683 40.6667 29.4892 39.1248 32.8628 36.5255C33.0068 38.0382 33.6732 39.4613 34.7579 40.5438L45.5352 51.2996C47.1274 52.8886 49.706 52.8874 51.2967 51.2967C52.8874 49.706 52.8886 47.1274 51.2996 45.5352L40.5438 34.7579C39.4613 33.6732 38.0382 33.0068 36.5255 32.8628ZM8.58333 20.7083C8.58333 27.4185 13.9981 32.8333 20.7083 32.8333C27.4185 32.8333 32.8333 27.4185 32.8333 20.7083C32.8333 13.9981 27.4185 8.58333 20.7083 8.58333C13.9981 8.58333 8.58333 13.9981 8.58333 20.7083ZM7.58333 20.7083C7.58333 27.9708 13.4458 33.8333 20.7083 33.8333C27.9708 33.8333 33.8333 27.9708 33.8333 20.7083C33.8333 13.4458 27.9708 7.58333 20.7083 7.58333C13.4458 7.58333 7.58333 13.4458 7.58333 20.7083Z" fill="#104065" fill-opacity="0.3"/>
</svg>
