<svg width="50" height="50" viewBox="0 0 50 50" fill="none" xmlns="http://www.w3.org/2000/svg">
<path d="M39.5053 22.1881L38.7354 22.7718L38.8191 23.7343C38.8566 24.1655 38.875 24.5732 38.875 24.9994C38.875 25.4263 38.8565 25.8057 38.8064 26.1897L38.675 27.1969L39.4845 27.8106L43.3491 30.7402C43.4897 30.8523 43.5262 31.0362 43.4389 31.1936C43.4382 31.1948 43.4375 31.1961 43.4368 31.1973L39.548 37.9142L39.5445 37.9203L39.541 37.9265C39.4598 38.0694 39.2901 38.1194 39.1561 38.0611L39.1483 38.0578L39.1405 38.0544L34.6613 36.1586L33.7673 35.7802L32.973 36.3383C32.278 36.8268 31.5555 37.2517 30.8059 37.5991L29.9261 38.0068L29.8053 38.9689L29.2011 43.7814L29.2 43.7909C29.1805 43.9532 29.0306 44.0827 28.875 44.0827H21.1042C20.9486 44.0827 20.7987 43.9532 20.7793 43.7908L20.7781 43.7814L20.1739 38.9689L20.0531 38.0068L19.1733 37.5991C18.4237 37.2517 17.7012 36.8268 17.0062 36.3383L16.2119 35.7802L15.3179 36.1586L10.8388 38.0544L10.8309 38.0578L10.8231 38.0611C10.6892 38.1194 10.5195 38.0694 10.4383 37.9265L10.4347 37.9203L10.4312 37.9142L6.54242 31.1973C6.54171 31.1961 6.541 31.1948 6.54031 31.1936C6.44388 31.0196 6.50683 30.8328 6.61253 30.7535L6.61255 30.7535L6.61972 30.7481L10.4947 27.8106L11.2647 27.2269L11.181 26.2644C11.1435 25.8332 11.125 25.4255 11.125 24.9994C11.125 24.5721 11.1436 24.1666 11.1803 23.762L11.2682 22.7953L10.4947 22.2089L6.63011 19.2793C6.48936 19.167 6.45298 18.9829 6.54066 18.8253L10.4324 12.0825L10.4324 12.0825L10.4383 12.0722C10.5195 11.9293 10.6892 11.8793 10.8231 11.9376L10.8309 11.941L10.8388 11.9443L15.3179 13.8401L16.2119 14.2185L17.0062 13.6604C17.7012 13.1719 18.4237 12.747 19.1733 12.3996L20.0531 11.9919L20.1739 11.0298L20.7781 6.21734L20.7781 6.21734L20.7792 6.20785C20.7974 6.05623 20.9378 5.91602 21.125 5.91602H28.8959C29.0514 5.91602 29.2013 6.04547 29.2208 6.20785L29.2208 6.20786L29.222 6.21733L29.8262 11.0298L29.9469 11.9919L30.8267 12.3996C31.5763 12.747 32.2988 13.1719 32.9939 13.6604L33.7882 14.2185L34.6821 13.8401L39.1613 11.9443L39.1692 11.941L39.177 11.9376C39.3109 11.8793 39.4806 11.9293 39.5618 12.0722L39.5653 12.0784L39.5689 12.0845L43.4576 18.8014C43.4584 18.8026 43.4591 18.8039 43.4598 18.8052C43.5562 18.9791 43.4932 19.1659 43.3875 19.2452L43.3803 19.2506L39.5053 22.1881Z" stroke="white" stroke-width="3.5"/>
<path d="M25.0832 30.5404C22.0288 30.5404 19.5415 28.053 19.5415 24.9987C19.5415 21.9444 22.0288 19.457 25.0832 19.457C28.1375 19.457 30.6248 21.9444 30.6248 24.9987C30.6248 28.053 28.1375 30.5404 25.0832 30.5404Z" stroke="white" stroke-width="3.5" stroke-linejoin="round"/>
</svg>
