<svg width="59" height="51" viewBox="0 0 59 51" fill="none" xmlns="http://www.w3.org/2000/svg">
<path d="M6.66634 41.4993V39.6035C6.66634 38.6118 7.13301 37.6785 7.86217 37.241C12.7913 34.2952 18.4205 32.7493 24.1663 32.7493C24.2538 32.7493 24.3122 32.7493 24.3997 32.7785C24.6913 30.7368 25.2747 28.7827 26.1205 27.0035C25.4788 26.9452 24.8372 26.916 24.1663 26.916C17.108 26.916 10.5163 28.8702 4.88717 32.2243C2.32051 33.741 0.833008 36.5993 0.833008 39.6035V47.3327H27.8413C26.6163 45.5827 25.6538 43.5993 25.0122 41.4993H6.66634Z" fill="#104065" fill-opacity="0.3"/>
<path d="M24.1667 23.9993C30.6125 23.9993 35.8333 18.7785 35.8333 12.3327C35.8333 5.88685 30.6125 0.666016 24.1667 0.666016C17.7208 0.666016 12.5 5.88685 12.5 12.3327C12.5 18.7785 17.7208 23.9993 24.1667 23.9993ZM24.1667 6.49935C27.375 6.49935 30 9.12435 30 12.3327C30 15.541 27.375 18.166 24.1667 18.166C20.9583 18.166 18.3333 15.541 18.3333 12.3327C18.3333 9.12435 20.9583 6.49935 24.1667 6.49935Z" fill="#104065" fill-opacity="0.3"/>
<path d="M55.5201 35.6654C55.5201 35.0237 55.4326 34.4404 55.3451 33.8279L58.6701 30.882L55.7535 25.8362L51.5243 27.2654C50.591 26.4779 49.541 25.8654 48.3743 25.4279L47.4993 21.082H41.666L40.791 25.4279C39.6243 25.8654 38.5743 26.4779 37.641 27.2654L33.4118 25.8362L30.4951 30.882L33.8201 33.8279C33.7326 34.4404 33.6451 35.0237 33.6451 35.6654C33.6451 36.307 33.7326 36.8904 33.8201 37.5029L30.4951 40.4487L33.4118 45.4945L37.641 44.0654C38.5743 44.8529 39.6243 45.4654 40.791 45.9029L41.666 50.2487H47.4993L48.3743 45.9029C49.541 45.4654 50.591 44.8529 51.5243 44.0654L55.7535 45.4945L58.6701 40.4487L55.3451 37.5029C55.4326 36.8904 55.5201 36.307 55.5201 35.6654ZM44.5826 41.4987C41.3743 41.4987 38.7493 38.8737 38.7493 35.6654C38.7493 32.457 41.3743 29.832 44.5826 29.832C47.791 29.832 50.416 32.457 50.416 35.6654C50.416 38.8737 47.791 41.4987 44.5826 41.4987Z" fill="#104065" fill-opacity="0.3"/>
</svg>
