  <svg
    width="100%"
    height="100%"
    viewBox="0 0 50 50"
    fill="none"
    xmlns="http://www.w3.org/2000/svg"
  >
    <path
      fillRule="evenodd"
      clipRule="evenodd"
      d="M38.9205 0.769071C29.6685 -0.251149 20.3324 -0.251149 11.0804 0.769071C8.47881 1.05399 6.0498 2.20959 4.18741 4.04838C2.32502 5.88718 1.13854 8.30129 0.820464 10.8991C-0.269582 20.2675 -0.269582 29.7307 0.820464 39.0991C1.13854 41.6969 2.32502 44.111 4.18741 45.9498C6.0498 47.7886 8.47881 48.9441 11.0804 49.2291C20.3319 50.2591 29.6691 50.2591 38.9205 49.2291C41.5221 48.9441 43.9511 47.7886 45.8135 45.9498C47.6759 44.111 48.8624 41.6969 49.1805 39.0991C50.2705 29.7307 50.2705 20.2675 49.1805 10.8991C48.8624 8.30129 47.6759 5.88718 45.8135 4.04838C43.9511 2.20959 41.5221 1.05399 38.9205 0.769071ZM33.5705 37.9991C33.7446 37.8179 33.8806 37.6037 33.9705 37.3691L38.5804 12.3691C38.5804 10.7091 36.4505 11.7091 36.4505 11.7091L10.5504 22.6291C10.5504 22.6291 9.32047 23.0791 9.42047 23.9091C9.52047 24.7391 10.5204 25.1291 10.5204 25.1291L17.0005 27.5291L32.6505 16.8491C32.6505 16.8491 33.5504 16.2591 33.5204 16.8491C33.5204 16.8491 33.6805 16.9591 33.1905 17.4391C32.7005 17.9191 20.9105 29.3291 20.9105 29.3291V29.4791L20.1104 37.1391C20.2209 37.1854 20.3414 37.2026 20.4604 37.1891C20.5847 37.1688 20.7017 37.1172 20.8004 37.0391L25.0005 32.8991L31.5605 38.3091C31.7706 38.4358 32.0063 38.5144 32.2505 38.5391C32.4917 38.5609 32.7347 38.5267 32.9604 38.4391C33.1949 38.3413 33.4037 38.1907 33.5705 37.9991Z"
      fill="currentColor"
    />
  </svg>