  <svg
    width="100%"
    height="100%"
    viewBox="0 0 50 50"
    fill="none"
    xmlns="http://www.w3.org/2000/svg"
  >
    <path
      fillRule="evenodd"
      clipRule="evenodd"
      d="M38.9205 0.770555C29.6691 -0.259456 20.3319 -0.259456 11.0804 0.770555C8.47881 1.05548 6.0498 2.21107 4.18741 4.04987C2.32502 5.88866 1.13854 8.30277 0.820464 10.9006C-0.269582 20.269 -0.269582 29.7322 0.820464 39.1006C1.13854 41.6983 2.32502 44.1124 4.18741 45.9512C6.0498 47.79 8.47881 48.9456 11.0804 49.2306C20.3319 50.2606 29.6691 50.2606 38.9205 49.2306C41.5221 48.9456 43.9511 47.79 45.8135 45.9512C47.6759 44.1124 48.8624 41.6983 49.1805 39.1006C50.2705 29.7322 50.2705 20.269 49.1805 10.9006C48.8624 8.30277 47.6759 5.88866 45.8135 4.04987C43.9511 2.21107 41.5221 1.05548 38.9205 0.770555ZM37.6805 16.4806C38.9516 16.3238 40.1941 15.9871 41.3705 15.4806C40.5236 16.7373 39.4644 17.837 38.2404 18.7306V19.5406C38.2599 21.908 37.8008 24.255 36.8905 26.4406C35.9628 28.636 34.6024 30.6222 32.8905 32.2806C31.204 33.9568 29.2021 35.2824 27.0005 36.1806C24.2686 37.2623 21.3211 37.6883 18.3947 37.4243C15.4683 37.1603 12.6446 36.2137 10.1505 34.6606C10.6683 34.7204 11.1892 34.7505 11.7104 34.7506C14.5724 34.7458 17.3529 33.7967 19.6205 32.0506C18.2894 32.0247 16.9983 31.5919 15.9205 30.8106C14.8492 30.0361 14.0481 28.9448 13.6305 27.6906C14.0307 27.754 14.4352 27.7875 14.8405 27.7906C15.4202 27.7897 15.9966 27.7021 16.5504 27.5306C15.1112 27.2495 13.8101 26.4879 12.8604 25.3706C11.9213 24.2488 11.4048 22.8335 11.4005 21.3706V21.2906C12.291 21.7797 13.2849 22.0504 14.3004 22.0806C13.4317 21.5026 12.7148 20.724 12.2104 19.8106C11.7139 18.8889 11.4561 17.8575 11.4604 16.8106C11.4638 15.6935 11.7604 14.597 12.3205 13.6306C13.9354 15.5848 15.9418 17.179 18.2104 18.3106C20.4905 19.4414 22.9786 20.0915 25.5204 20.2206C25.192 18.8651 25.3293 17.4385 25.9105 16.1706C26.4918 14.8855 27.4838 13.8302 28.7305 13.1706C29.9881 12.5186 31.4227 12.2906 32.8205 12.5206C34.2151 12.7464 35.4954 13.4287 36.4604 14.4606C37.8826 14.2036 39.2515 13.7101 40.5105 13.0006C40.0194 14.4649 39.0139 15.7013 37.6805 16.4806Z"
      fill="currentColor"
    />
  </svg>