<svg width="100%" height="100%" viewBox="0 0 50 51" fill="none" xmlns="http://www.w3.org/2000/svg">
    <path fill="currentColor" fill-rule="evenodd" clip-rule="evenodd" d="M11.08 0.770555C20.3314 -0.259456 29.6686 -0.259456 38.92 0.770555C41.521 1.0572 43.949 2.21336 45.8111 4.05183C47.6732 5.8903 48.8602 8.30345 49.18 10.9006C50.27 20.269 50.27 29.7322 49.18 39.1006C48.8602 41.6977 47.6732 44.1108 45.8111 45.9493C43.949 47.7878 41.521 48.9439 38.92 49.2306C29.6686 50.2606 20.3314 50.2606 11.08 49.2306C8.47898 48.9439 6.0509 47.7878 4.18884 45.9493C2.32678 44.1108 1.13976 41.6977 0.819976 39.1006C-0.27007 29.7322 -0.27007 20.269 0.819976 10.9006C1.13976 8.30345 2.32678 5.8903 4.18884 4.05183C6.0509 2.21336 8.47898 1.0572 11.08 0.770555ZM33.66 28.5406C32.1581 28.4868 30.7221 27.9103 29.6 26.9106L29.9 25.4906C30.17 23.9806 31.03 21.4406 33.65 21.4406C34.5654 21.489 35.4274 21.8868 36.0583 22.5519C36.6892 23.217 37.0408 24.0988 37.0408 25.0156C37.0408 25.9323 36.6892 26.8141 36.0583 27.4792C35.4274 28.1443 34.5654 28.5421 33.65 28.5906L33.66 28.5406ZM33.66 17.7706C30.31 17.7706 27.66 19.9506 26.66 23.5406C25.1021 21.1314 23.9061 18.5068 23.11 15.7506H19.5V25.1606C19.453 26.0213 19.078 26.8313 18.4521 27.424C17.8262 28.0167 16.997 28.347 16.135 28.347C15.273 28.347 14.4437 28.0167 13.8178 27.424C13.1919 26.8313 12.8169 26.0213 12.77 25.1606V15.7506H9.15997V25.1606C9.15997 27.0171 9.89748 28.7975 11.2102 30.1103C12.523 31.4231 14.3035 32.1606 16.16 32.1606C18.0165 32.1606 19.797 31.4231 21.1097 30.1103C22.4225 28.7975 23.16 27.0171 23.16 25.1606V23.5806C23.8691 25.0909 24.7409 26.5194 25.76 27.8406L23.55 38.2506H27.25L28.85 30.7006C30.2988 31.6553 31.9949 32.1662 33.73 32.1706C35.6395 32.1706 37.4709 31.412 38.8211 30.0617C40.1714 28.7115 40.93 26.8801 40.93 24.9706C40.93 23.061 40.1714 21.2296 38.8211 19.8794C37.4709 18.5291 35.6395 17.7706 33.73 17.7706H33.66Z" />
</svg>
