<svg width="211" height="63" viewBox="0 0 211 63" fill="none" xmlns="http://www.w3.org/2000/svg">
<g clip-path="url(#clip0_3525_766)">
<path d="M203.513 62.4221H7.92698C3.86306 62.4221 0.555176 59.1067 0.555176 55.048V7.46474C0.555176 3.40455 3.86306 0.101562 7.92698 0.101562H203.513C207.575 0.101562 211 3.40455 211 7.46474V55.048C211 59.1067 207.575 62.4221 203.513 62.4221Z" fill="#A6A6A6"/>
<path d="M209.491 55.0497C209.491 58.3465 206.819 61.0169 203.514 61.0169H7.92675C4.62355 61.0169 1.94232 58.3465 1.94232 55.0497V7.46327C1.94232 4.16807 4.62355 1.48828 7.92675 1.48828H203.513C206.819 1.48828 209.489 4.16807 209.489 7.46327L209.491 55.0497Z" fill="black"/>
<path d="M47.5202 30.9247C47.475 25.9032 51.634 23.4603 51.8242 23.3465C49.4688 19.9142 45.818 19.4453 44.535 19.4079C41.4688 19.0854 38.4945 21.2417 36.9325 21.2417C35.3394 21.2417 32.9341 19.439 30.3417 19.492C27.0058 19.5434 23.8849 21.4738 22.1733 24.4714C18.641 30.5835 21.2754 39.5655 24.6597 44.5059C26.3526 46.9255 28.3308 49.6271 30.92 49.5321C33.4532 49.4277 34.3994 47.918 37.4563 47.918C40.4851 47.918 41.3737 49.5321 44.0144 49.4713C46.733 49.4277 48.4446 47.0408 50.0783 44.5994C52.0347 41.8261 52.8203 39.0949 52.8515 38.9547C52.7876 38.9329 47.5717 36.9433 47.5202 30.9247Z" fill="white"/>
<path d="M42.5318 16.1578C43.8943 14.4549 44.8264 12.1382 44.5677 9.78711C42.5957 9.87436 40.1296 11.1504 38.7095 12.8159C37.4531 14.2835 36.3307 16.6891 36.6207 18.9513C38.8358 19.1165 41.1101 17.8343 42.5318 16.1578Z" fill="white"/>
<path d="M84.1798 49.1852H80.6397L78.7005 43.095H71.96L70.1128 49.1852H66.6661L73.3443 28.4512H77.469L84.1798 49.1852ZM78.1159 40.5398L76.3622 35.1257C76.1767 34.5726 75.8291 33.2701 75.3162 31.2198H75.2538C75.0496 32.1016 74.7207 33.4041 74.2687 35.1257L72.5461 40.5398H78.1159V40.5398Z" fill="white"/>
<path d="M101.354 41.5242C101.354 44.0669 100.666 46.0767 99.2913 47.5522C98.0598 48.8656 96.5306 49.5215 94.7051 49.5215C92.7348 49.5215 91.3193 48.8142 90.4573 47.3995H90.3949V55.2752H87.0715V39.1545C87.0715 37.556 87.0294 35.9154 86.9483 34.2327H89.8711L90.0566 36.6024H90.119C91.2273 34.817 92.9093 33.9258 95.1666 33.9258C96.9312 33.9258 98.4043 34.6222 99.5828 36.0166C100.764 37.4126 101.354 39.248 101.354 41.5242ZM97.9678 41.6457C97.9678 40.1906 97.6405 38.9909 96.9826 38.0467C96.264 37.0621 95.2991 36.5697 94.0894 36.5697C93.2694 36.5697 92.5243 36.8439 91.8587 37.3846C91.1915 37.9299 90.755 38.6419 90.5508 39.5237C90.4479 39.935 90.3965 40.2716 90.3965 40.5364V43.0293C90.3965 44.1168 90.7301 45.0344 91.3973 45.7838C92.0644 46.5332 92.9312 46.9072 93.9974 46.9072C95.2492 46.9072 96.2235 46.4242 96.9203 45.4613C97.6186 44.4969 97.9678 43.2256 97.9678 41.6457Z" fill="white"/>
<path d="M118.559 41.5242C118.559 44.0669 117.871 46.0767 116.495 47.5522C115.265 48.8656 113.736 49.5215 111.91 49.5215C109.94 49.5215 108.524 48.8142 107.664 47.3995H107.602V55.2752H104.278V39.1545C104.278 37.556 104.236 35.9154 104.155 34.2327H107.078L107.263 36.6024H107.326C108.432 34.817 110.114 33.9258 112.373 33.9258C114.136 33.9258 115.609 34.6222 116.791 36.0166C117.968 37.4126 118.559 39.248 118.559 41.5242ZM115.173 41.6457C115.173 40.1906 114.844 38.9909 114.186 38.0467C113.467 37.0621 112.506 36.5697 111.294 36.5697C110.473 36.5697 109.729 36.8439 109.062 37.3846C108.395 37.9299 107.96 38.6419 107.756 39.5237C107.655 39.935 107.602 40.2716 107.602 40.5364V43.0293C107.602 44.1168 107.935 45.0344 108.599 45.7838C109.266 46.5317 110.133 46.9072 111.202 46.9072C112.454 46.9072 113.428 46.4242 114.125 45.4613C114.824 44.4969 115.173 43.2256 115.173 41.6457Z" fill="white"/>
<path d="M137.795 43.3698C137.795 45.1335 137.182 46.5684 135.952 47.6762C134.601 48.8868 132.719 49.4913 130.301 49.4913C128.069 49.4913 126.28 49.0613 124.925 48.1997L125.695 45.4311C127.154 46.3129 128.755 46.7554 130.499 46.7554C131.751 46.7554 132.725 46.4719 133.425 45.9079C134.122 45.3438 134.47 44.5867 134.47 43.6425C134.47 42.8012 134.183 42.0923 133.608 41.5174C133.036 40.9425 132.08 40.4081 130.746 39.9142C127.114 38.5603 125.299 36.5769 125.299 33.9688C125.299 32.2643 125.935 30.8668 127.209 29.7793C128.478 28.6902 130.171 28.1465 132.287 28.1465C134.175 28.1465 135.743 28.4752 136.995 29.1311L136.164 31.839C134.995 31.2033 133.673 30.8855 132.194 30.8855C131.025 30.8855 130.111 31.1737 129.457 31.7471C128.903 32.2596 128.626 32.8844 128.626 33.6245C128.626 34.444 128.942 35.1217 129.578 35.6546C130.132 36.1469 131.137 36.6797 132.596 37.2546C134.381 37.9729 135.692 38.8127 136.535 39.7755C137.376 40.7352 137.795 41.9365 137.795 43.3698Z" fill="white"/>
<path d="M148.783 36.7258H145.12V43.9846C145.12 45.8309 145.765 46.7532 147.059 46.7532C147.653 46.7532 148.146 46.7018 148.535 46.599L148.627 49.1214C147.973 49.366 147.111 49.4891 146.043 49.4891C144.73 49.4891 143.705 49.0887 142.964 48.2894C142.227 47.4886 141.856 46.1456 141.856 44.2589V36.7227H139.673V34.2299H141.856V31.4925L145.12 30.5078V34.2299H148.783V36.7258Z" fill="white"/>
<path d="M165.312 41.5854C165.312 43.8834 164.654 45.7702 163.341 47.2456C161.965 48.7647 160.138 49.5219 157.86 49.5219C155.666 49.5219 153.918 48.7943 152.615 47.3391C151.312 45.8839 150.66 44.047 150.66 41.8331C150.66 39.5163 151.33 37.6187 152.676 36.1432C154.018 34.6662 155.829 33.9277 158.107 33.9277C160.302 33.9277 162.068 34.6553 163.401 36.1121C164.676 37.5252 165.312 39.3496 165.312 41.5854ZM161.864 41.6929C161.864 40.314 161.569 39.1315 160.972 38.1453C160.275 36.9518 159.279 36.3567 157.988 36.3567C156.652 36.3567 155.638 36.9534 154.941 38.1453C154.344 39.1331 154.049 40.3343 154.049 41.7552C154.049 43.134 154.344 44.3166 154.941 45.3012C155.659 46.4947 156.663 47.0898 157.959 47.0898C159.228 47.0898 160.224 46.4822 160.942 45.2701C161.555 44.2652 161.864 43.0702 161.864 41.6929Z" fill="white"/>
<path d="M176.115 37.154C175.786 37.0932 175.435 37.0621 175.067 37.0621C173.898 37.0621 172.994 37.503 172.358 38.3864C171.805 39.1654 171.527 40.15 171.527 41.3388V49.1834H168.205L168.236 38.941C168.236 37.2179 168.194 35.6489 168.112 34.2343H171.006L171.128 37.0948H171.22C171.571 36.1117 172.124 35.3202 172.882 34.7266C173.622 34.1922 174.422 33.9258 175.284 33.9258C175.591 33.9258 175.868 33.9476 176.115 33.9865V37.154Z" fill="white"/>
<path d="M190.978 41.0014C190.978 41.5966 190.939 42.0983 190.857 42.508H180.886C180.925 43.985 181.407 45.1146 182.333 45.8936C183.173 46.59 184.26 46.939 185.594 46.939C187.07 46.939 188.417 46.7037 189.628 46.2317L190.149 48.5375C188.733 49.1545 187.062 49.4614 185.134 49.4614C182.815 49.4614 180.994 48.779 179.669 47.4158C178.347 46.0525 177.684 44.2218 177.684 41.9253C177.684 39.6709 178.3 37.7935 179.533 36.2962C180.824 34.6977 182.568 33.8984 184.763 33.8984C186.919 33.8984 188.551 34.6977 189.659 36.2962C190.537 37.566 190.978 39.1365 190.978 41.0014ZM187.809 40.1398C187.831 39.1552 187.614 38.3045 187.164 37.5863C186.589 36.6624 185.705 36.2012 184.515 36.2012C183.429 36.2012 182.545 36.6514 181.87 37.5551C181.317 38.2733 180.988 39.1349 180.886 40.1383H187.809V40.1398Z" fill="white"/>
<path d="M77.0167 15.6956C77.0167 17.5294 76.4665 18.9098 75.3675 19.8368C74.3495 20.6921 72.9029 21.1206 71.0292 21.1206C70.1001 21.1206 69.3051 21.0801 68.6395 20.9991V10.9795C69.5077 10.8392 70.4431 10.7676 71.4532 10.7676C73.2381 10.7676 74.5834 11.1555 75.4906 11.9314C76.507 12.8086 77.0167 14.0628 77.0167 15.6956ZM75.2942 15.7408C75.2942 14.552 74.9793 13.6406 74.3495 13.0049C73.7198 12.3708 72.8 12.0529 71.5888 12.0529C71.0744 12.0529 70.6364 12.0872 70.2731 12.1589V19.776C70.4742 19.8072 70.8421 19.8212 71.3768 19.8212C72.627 19.8212 73.5919 19.4738 74.2716 18.7789C74.9513 18.084 75.2942 17.0713 75.2942 15.7408Z" fill="white"/>
<path d="M86.1503 17.2982C86.1503 18.4277 85.8276 19.3532 85.1822 20.0792C84.5057 20.8255 83.6093 21.1979 82.4901 21.1979C81.4114 21.1979 80.5524 20.8411 79.9118 20.1244C79.2726 19.4093 78.9531 18.5072 78.9531 17.4197C78.9531 16.2823 79.282 15.3491 79.9429 14.6246C80.6039 13.9001 81.4924 13.5371 82.6117 13.5371C83.6904 13.5371 84.5571 13.8939 85.2134 14.609C85.8369 15.3039 86.1503 16.2013 86.1503 17.2982ZM84.4558 17.3511C84.4558 16.6734 84.3093 16.0923 84.0178 15.6077C83.6748 15.0219 83.1869 14.729 82.5524 14.729C81.8962 14.729 81.3973 15.0219 81.0544 15.6077C80.7613 16.0923 80.6164 16.6827 80.6164 17.3807C80.6164 18.0585 80.7629 18.6396 81.0544 19.1241C81.4082 19.71 81.9008 20.0029 82.5369 20.0029C83.1604 20.0029 83.6499 19.7053 84.0022 19.1086C84.3046 18.6147 84.4558 18.0289 84.4558 17.3511Z" fill="white"/>
<path d="M98.3962 13.6855L96.0969 21.03H94.6004L93.648 17.8408C93.4063 17.0446 93.2099 16.2532 93.0571 15.4679H93.0275C92.8857 16.275 92.6893 17.0649 92.4367 17.8408L91.425 21.03H89.9114L87.7493 13.6855H89.4281L90.259 17.1771C90.4601 18.0028 90.6253 18.7896 90.7578 19.5343H90.7875C90.9091 18.9205 91.1101 18.1384 91.3939 17.1926L92.4367 13.6871H93.768L94.7672 17.1179C95.0088 17.9545 95.2052 18.76 95.3565 19.5359H95.4017C95.5123 18.7803 95.6791 17.9748 95.9005 17.1179L96.7922 13.6871H98.3962V13.6855Z" fill="white"/>
<path d="M106.865 21.03H105.232V16.8233C105.232 15.5271 104.739 14.8789 103.751 14.8789C103.266 14.8789 102.875 15.0565 102.571 15.4133C102.27 15.7701 102.117 16.1908 102.117 16.6722V21.0284H100.483V15.7841C100.483 15.1391 100.463 14.4396 100.424 13.6824H101.86L101.936 14.8306H101.982C102.172 14.4738 102.455 14.1794 102.828 13.9441C103.271 13.6699 103.766 13.5312 104.309 13.5312C104.995 13.5312 105.565 13.7525 106.019 14.1965C106.583 14.7403 106.865 15.552 106.865 16.6301V21.03V21.03Z" fill="white"/>
<path d="M111.371 21.0309H109.739V10.3164H111.371V21.0309Z" fill="white"/>
<path d="M120.989 17.2982C120.989 18.4277 120.666 19.3532 120.021 20.0792C119.344 20.8255 118.446 21.1979 117.328 21.1979C116.248 21.1979 115.389 20.8411 114.75 20.1244C114.111 19.4093 113.791 18.5072 113.791 17.4197C113.791 16.2823 114.12 15.3491 114.781 14.6246C115.442 13.9001 116.331 13.5371 117.448 13.5371C118.529 13.5371 119.394 13.8939 120.052 14.609C120.675 15.3039 120.989 16.2013 120.989 17.2982ZM119.293 17.3511C119.293 16.6734 119.146 16.0923 118.855 15.6077C118.513 15.0219 118.024 14.729 117.391 14.729C116.733 14.729 116.234 15.0219 115.893 15.6077C115.6 16.0923 115.455 16.6827 115.455 17.3807C115.455 18.0585 115.601 18.6396 115.893 19.1241C116.247 19.71 116.739 20.0029 117.375 20.0029C117.999 20.0029 118.487 19.7053 118.839 19.1086C119.143 18.6147 119.293 18.0289 119.293 17.3511Z" fill="white"/>
<path d="M128.896 21.0312H127.429L127.307 20.1852H127.262C126.76 20.8598 126.044 21.1979 125.115 21.1979C124.422 21.1979 123.86 20.9751 123.438 20.5326C123.055 20.1306 122.863 19.6305 122.863 19.0369C122.863 18.1395 123.237 17.4555 123.99 16.9819C124.741 16.5082 125.798 16.2761 127.159 16.287V16.1499C127.159 15.1824 126.651 14.6994 125.633 14.6994C124.908 14.6994 124.269 14.8817 123.717 15.2431L123.385 14.1712C124.068 13.749 124.911 13.5371 125.906 13.5371C127.826 13.5371 128.79 14.5498 128.79 16.5752V19.2799C128.79 20.0138 128.825 20.598 128.896 21.0312ZM127.199 18.5072V17.3745C125.397 17.3433 124.496 17.8372 124.496 18.8546C124.496 19.2379 124.599 19.5246 124.81 19.7162C125.02 19.9078 125.288 20.0029 125.608 20.0029C125.966 20.0029 126.302 19.8891 126.607 19.6632C126.914 19.4358 127.103 19.1475 127.173 18.7938C127.19 18.7144 127.199 18.6178 127.199 18.5072Z" fill="white"/>
<path d="M138.178 21.0309H136.729L136.652 19.8515H136.607C136.144 20.7489 135.355 21.1976 134.247 21.1976C133.362 21.1976 132.624 20.8501 132.04 20.1553C131.455 19.4604 131.164 18.5583 131.164 17.4506C131.164 16.2618 131.48 15.2989 132.116 14.5636C132.732 13.878 133.486 13.5353 134.384 13.5353C135.371 13.5353 136.061 13.8671 136.454 14.5324H136.485V10.3164H138.121V19.0522C138.121 19.7673 138.139 20.4264 138.178 21.0309ZM136.485 17.9335V16.7089C136.485 16.4971 136.47 16.3257 136.44 16.1948C136.348 15.8022 136.15 15.4719 135.849 15.2055C135.545 14.939 135.179 14.805 134.757 14.805C134.147 14.805 133.67 15.0465 133.319 15.5311C132.972 16.0156 132.796 16.6342 132.796 17.3898C132.796 18.1158 132.962 18.7048 133.298 19.1581C133.651 19.6411 134.128 19.8826 134.726 19.8826C135.262 19.8826 135.69 19.6816 136.016 19.2781C136.331 18.9057 136.485 18.457 136.485 17.9335Z" fill="white"/>
<path d="M152.15 17.2982C152.15 18.4277 151.828 19.3532 151.182 20.0792C150.506 20.8255 149.611 21.1979 148.49 21.1979C147.413 21.1979 146.554 20.8411 145.912 20.1244C145.273 19.4093 144.953 18.5072 144.953 17.4197C144.953 16.2823 145.282 15.3491 145.943 14.6246C146.604 13.9001 147.492 13.5371 148.613 13.5371C149.69 13.5371 150.559 13.8939 151.213 14.609C151.837 15.3039 152.15 16.2013 152.15 17.2982ZM150.457 17.3511C150.457 16.6734 150.311 16.0923 150.019 15.6077C149.675 15.0219 149.189 14.729 148.553 14.729C147.898 14.729 147.399 15.0219 147.054 15.6077C146.761 16.0923 146.616 16.6827 146.616 17.3807C146.616 18.0585 146.763 18.6396 147.054 19.1241C147.408 19.71 147.901 20.0029 148.537 20.0029C149.16 20.0029 149.652 19.7053 150.004 19.1086C150.305 18.6147 150.457 18.0289 150.457 17.3511Z" fill="white"/>
<path d="M160.935 21.03H159.302V16.8233C159.302 15.5271 158.81 14.8789 157.82 14.8789C157.335 14.8789 156.944 15.0565 156.641 15.4133C156.339 15.7701 156.188 16.1908 156.188 16.6722V21.0284H154.553V15.7841C154.553 15.1391 154.534 14.4396 154.495 13.6824H155.929L156.005 14.8306H156.051C156.242 14.4738 156.526 14.1794 156.897 13.9441C157.341 13.6699 157.836 13.5312 158.38 13.5312C159.064 13.5312 159.634 13.7525 160.088 14.1965C160.654 14.7403 160.935 15.552 160.935 16.6301V21.03V21.03Z" fill="white"/>
<path d="M171.929 14.9096H170.13V18.4774C170.13 19.3842 170.449 19.8376 171.082 19.8376C171.375 19.8376 171.618 19.8126 171.81 19.7612L171.852 20.9999C171.53 21.1214 171.106 21.1821 170.583 21.1821C169.938 21.1821 169.436 20.9858 169.073 20.5932C168.708 20.2006 168.527 19.54 168.527 18.613V14.9096H167.453V13.6865H168.527V12.3404L170.128 11.8574V13.685H171.927V14.9096H171.929Z" fill="white"/>
<path d="M180.577 21.0309H178.942V16.8554C178.942 15.5389 178.449 14.8798 177.463 14.8798C176.705 14.8798 176.187 15.2615 175.904 16.025C175.855 16.1854 175.827 16.3818 175.827 16.6123V21.0293H174.195V10.3164H175.827V14.7427H175.859C176.373 13.9372 177.11 13.5353 178.066 13.5353C178.742 13.5353 179.302 13.7565 179.746 14.2005C180.3 14.7536 180.577 15.5763 180.577 16.6638V21.0309V21.0309Z" fill="white"/>
<path d="M189.499 17.0118C189.499 17.3047 189.477 17.5509 189.438 17.7519H184.538C184.56 18.4779 184.794 19.031 185.248 19.4143C185.662 19.7571 186.197 19.9284 186.852 19.9284C187.576 19.9284 188.237 19.8131 188.833 19.581L189.089 20.7152C188.392 21.0175 187.572 21.1686 186.622 21.1686C185.484 21.1686 184.588 20.8336 183.94 20.1637C183.288 19.4937 182.965 18.5948 182.965 17.4668C182.965 16.359 183.266 15.4367 183.873 14.7013C184.506 13.9161 185.361 13.5234 186.442 13.5234C187.499 13.5234 188.301 13.9161 188.844 14.7013C189.282 15.3245 189.499 16.0957 189.499 17.0118ZM187.94 16.5896C187.952 16.1051 187.845 15.6875 187.623 15.3354C187.34 14.882 186.908 14.6546 186.323 14.6546C185.79 14.6546 185.355 14.8758 185.023 15.3198C184.752 15.6735 184.591 16.0957 184.538 16.5896H187.94Z" fill="white"/>
</g>
<defs>
<clipPath id="clip0_3525_766">
<rect width="210.445" height="62.3206" fill="white" transform="translate(0.555176 0.101562)"/>
</clipPath>
</defs>
</svg>
