<svg width="124" height="94" viewBox="0 0 124 94" fill="none" xmlns="http://www.w3.org/2000/svg">
<path d="M33.7539 74.8901C32.7516 74.8821 31.7447 74.5293 30.9265 73.8211L2.77248 49.455C1.80132 48.6135 1.24884 47.3916 1.25917 46.1057C1.26948 44.8223 1.84397 43.6094 2.82608 42.7836L31.368 18.873C33.2214 17.3184 35.9845 17.5631 37.5391 19.4165C39.0913 21.2723 38.8491 24.0354 36.9933 25.5876L12.3969 46.1952L36.659 67.1953C38.4896 68.7795 38.6875 71.5462 37.1057 73.3744C36.2296 74.3869 34.9933 74.9001 33.7539 74.8901Z" fill="#104065"/>
<path d="M89.7167 75.3397C88.4773 75.3298 87.2494 74.7967 86.3922 73.7703C84.8375 71.9169 85.0822 69.1538 86.9356 67.5992L111.532 46.9916L87.2698 25.9915C85.4416 24.4097 85.2414 21.643 86.8256 19.8124C88.4074 17.9842 91.1766 17.784 93.0023 19.3682L121.156 43.7342C122.128 44.5757 122.68 45.7976 122.67 47.0811C122.659 48.3669 122.087 49.5799 121.103 50.4056L92.5609 74.3162C91.7314 75.0112 90.719 75.3478 89.7167 75.3397Z" fill="#104065"/>
<path d="M51.5545 93.1393C51.2539 93.1369 50.951 93.1027 50.6459 93.0367C48.2835 92.5189 46.7865 90.1819 47.3042 87.8195L65.6455 4.07877C66.1632 1.71637 68.4978 0.219355 70.8626 0.737091C73.225 1.25481 74.722 3.58938 74.2043 5.95423L55.863 89.695C55.4113 91.7548 53.5811 93.1556 51.5545 93.1393Z" fill="#104065"/>
</svg>
