<svg width="80" height="80" viewBox="0 0 80 80" fill="none" xmlns="http://www.w3.org/2000/svg">
    <path d="M40.0002 55.0502C48.3121 55.0502 55.0502 48.3121 55.0502 40.0002C55.0502 31.6883 48.3121 24.9502 40.0002 24.9502C31.6883 24.9502 24.9502 31.6883 24.9502 40.0002C24.9502 48.3121 31.6883 55.0502 40.0002 55.0502Z" stroke="#FFD702" stroke-width="5" stroke-linecap="round" stroke-linejoin="round"/>
    <path d="M72 43.75V36.25C72 35.7196 71.7893 35.2109 71.4142 34.8358C71.0391 34.4607 70.5304 34.25 70 34.25H65.6C64.9394 31.3123 63.7755 28.511 62.16 25.97L65.28 22.85C65.466 22.6643 65.6135 22.4437 65.7141 22.2009C65.8148 21.9581 65.8666 21.6978 65.8666 21.435C65.8666 21.1722 65.8148 20.9119 65.7141 20.6691C65.6135 20.4263 65.466 20.2058 65.28 20.02L59.97 14.72C59.5953 14.3475 59.0884 14.1384 58.56 14.1384C58.0316 14.1384 57.5247 14.3475 57.15 14.72L54.03 17.84C51.4881 16.2263 48.6871 15.0626 45.75 14.4V10C45.75 9.46957 45.5393 8.96086 45.1642 8.58578C44.7891 8.21071 44.2804 8 43.75 8H36.25C35.7196 8 35.2109 8.21071 34.8358 8.58578C34.4607 8.96086 34.25 9.46957 34.25 10V14.4C31.3116 15.0585 28.51 16.2225 25.97 17.84L22.85 14.72C22.6643 14.534 22.4437 14.3865 22.2009 14.2859C21.9581 14.1852 21.6978 14.1334 21.435 14.1334C21.1722 14.1334 20.9119 14.1852 20.6691 14.2859C20.4263 14.3865 20.2058 14.534 20.02 14.72L14.72 20.02C14.534 20.2058 14.3865 20.4263 14.2859 20.6691C14.1852 20.9119 14.1334 21.1722 14.1334 21.435C14.1334 21.6978 14.1852 21.9581 14.2859 22.2009C14.3865 22.4437 14.534 22.6643 14.72 22.85L17.84 25.97C16.2245 28.511 15.0607 31.3123 14.4 34.25H10C9.46957 34.25 8.96086 34.4607 8.58578 34.8358C8.21071 35.2109 8 35.7196 8 36.25V43.75C8 44.2804 8.21071 44.7891 8.58578 45.1642C8.96086 45.5393 9.46957 45.75 10 45.75H14.4C15.0564 48.6891 16.2205 51.4911 17.84 54.03L14.72 57.15C14.534 57.3357 14.3865 57.5563 14.2859 57.7991C14.1852 58.0419 14.1334 58.3022 14.1334 58.565C14.1334 58.8278 14.1852 59.0881 14.2859 59.3309C14.3865 59.5737 14.534 59.7942 14.72 59.98L20.02 65.28C20.2058 65.466 20.4263 65.6135 20.6691 65.7141C20.9119 65.8148 21.1722 65.8666 21.435 65.8666C21.6978 65.8666 21.9581 65.8148 22.2009 65.7141C22.4437 65.6135 22.6643 65.466 22.85 65.28L25.97 62.16C28.51 63.7775 31.3116 64.9415 34.25 65.6V70C34.25 70.5304 34.4607 71.0391 34.8358 71.4142C35.2109 71.7893 35.7196 72 36.25 72H43.75C44.2804 72 44.7891 71.7893 45.1642 71.4142C45.5393 71.0391 45.75 70.5304 45.75 70V65.6C48.6871 64.9374 51.4881 63.7737 54.03 62.16L57.15 65.28C57.5247 65.6525 58.0316 65.8616 58.56 65.8616C59.0884 65.8616 59.5953 65.6525 59.97 65.28L65.28 59.98C65.466 59.7942 65.6135 59.5737 65.7141 59.3309C65.8148 59.0881 65.8666 58.8278 65.8666 58.565C65.8666 58.3022 65.8148 58.0419 65.7141 57.7991C65.6135 57.5563 65.466 57.3357 65.28 57.15L62.16 54.03C63.7755 51.489 64.9394 48.6877 65.6 45.75H70C70.5304 45.75 71.0391 45.5393 71.4142 45.1642C71.7893 44.7891 72 44.2804 72 43.75Z" stroke="#FFD702" stroke-width="5" stroke-linecap="round" stroke-linejoin="round"/>
</svg>
