<svg width="53" height="41" viewBox="0 0 53 41" fill="none" xmlns="http://www.w3.org/2000/svg">
<g opacity="0.3">
<path d="M14.2375 32.4315C13.8014 32.4315 13.3621 32.2816 13.0037 31.9763L0.670073 21.4743C0.24463 21.1116 0 20.5819 0 20.0224C0 19.464 0.245693 18.9344 0.670073 18.5717L13.0037 8.0696C13.8046 7.38677 15.0075 7.48355 15.6903 8.28445C16.3721 9.08641 16.2764 10.2894 15.4744 10.9711L4.8458 20.0224L15.4744 29.0737C16.2764 29.7566 16.3721 30.9595 15.6903 31.7604C15.3128 32.2039 14.7767 32.4315 14.2375 32.4315Z" fill="#104065"/>
<path d="M38.5856 32.4315C38.0464 32.4315 37.5103 32.2039 37.1338 31.7604C36.451 30.9595 36.5478 29.7566 37.3487 29.0737L47.9773 20.0224L37.3487 10.9711C36.5478 10.2894 36.451 9.08641 37.1338 8.28445C37.8156 7.48355 39.0196 7.38677 39.8194 8.0696L52.153 18.5717C52.5785 18.9344 52.8231 19.464 52.8231 20.0224C52.8231 20.5819 52.5785 21.1116 52.153 21.4743L39.8194 31.9763C39.461 32.2816 39.0217 32.4315 38.5856 32.4315Z" fill="#104065"/>
<path d="M22.0457 40.3084C21.9149 40.3084 21.783 40.2946 21.6501 40.267C20.6205 40.05 19.961 39.0385 20.178 38.0089L27.8647 1.51334C28.0817 0.483765 29.0921 -0.175672 30.1228 0.0413039C31.1523 0.25828 31.8118 1.26871 31.5948 2.29934L23.9081 38.7949C23.7188 39.6926 22.9274 40.3084 22.0457 40.3084Z" fill="#104065"/>
</g>
</svg>
