<svg width="60" height="90" viewBox="0 0 60 90" fill="none" xmlns="http://www.w3.org/2000/svg">
    <g clip-path="url(#clip0_2937_715)">
        <path d="M30 45C30 41.0218 31.5804 37.2064 34.3934 34.3934C37.2064 31.5804 41.0218 30 45 30C48.9782 30 52.7936 31.5804 55.6066 34.3934C58.4196 37.2064 60 41.0218 60 45C60 48.9782 58.4196 52.7936 55.6066 55.6066C52.7936 58.4196 48.9782 60 45 60C41.0218 60 37.2064 58.4196 34.3934 55.6066C31.5804 52.7936 30 48.9782 30 45Z" fill="#1ABCFE"/>
        <path d="M0 75C0 71.0218 1.58035 67.2064 4.3934 64.3934C7.20644 61.5804 11.0218 60 15 60H30V75C30 78.9782 28.4196 82.7936 25.6066 85.6066C22.7936 88.4196 18.9782 90 15 90C11.0218 90 7.20644 88.4196 4.3934 85.6066C1.58035 82.7936 0 78.9782 0 75H0Z" fill="#0ACF83"/>
        <path d="M30 0V30H45C48.9782 30 52.7936 28.4196 55.6066 25.6066C58.4196 22.7936 60 18.9782 60 15C60 11.0218 58.4196 7.20644 55.6066 4.3934C52.7936 1.58035 48.9782 0 45 0L30 0Z" fill="#FF7262"/>
        <path d="M0 15C0 18.9782 1.58035 22.7936 4.3934 25.6066C7.20644 28.4196 11.0218 30 15 30H30V0H15C11.0218 0 7.20644 1.58035 4.3934 4.3934C1.58035 7.20644 0 11.0218 0 15H0Z" fill="#F24E1E"/>
        <path d="M0 45C0 48.9782 1.58035 52.7936 4.3934 55.6066C7.20644 58.4196 11.0218 60 15 60H30V30H15C11.0218 30 7.20644 31.5804 4.3934 34.3934C1.58035 37.2064 0 41.0218 0 45H0Z" fill="#A259FF"/>
    </g>
    <defs>
        <clipPath id="clip0_2937_715">
            <rect width="60" height="90" fill="white"/>
        </clipPath>
    </defs>
</svg>