<svg width="62" height="46" viewBox="0 0 62 46" fill="none" xmlns="http://www.w3.org/2000/svg">
<g opacity="0.3">
<path d="M18.8948 9.86157C13.9139 9.86157 9.86133 13.9141 9.86133 18.895C9.86133 23.876 13.9139 27.9285 18.8948 27.9285C23.8757 27.9285 27.9283 23.876 27.9283 18.895C27.9283 13.9141 23.8757 9.86157 18.8948 9.86157ZM18.8948 25.6701C15.1591 25.6701 12.1197 22.6307 12.1197 18.895C12.1197 15.1593 15.1591 12.1199 18.8948 12.1199C22.6305 12.1199 25.6699 15.1593 25.6699 18.895C25.6699 22.6307 22.6305 25.6701 18.8948 25.6701Z" fill="#104065"/>
<path d="M36.9008 14.5922L33.9963 13.9608C33.7437 13.1875 33.4309 12.4333 33.0616 11.7067L34.6695 9.20559C34.9567 8.7587 34.8935 8.17198 34.5181 7.79659L29.9933 3.27179C29.6179 2.89641 29.0312 2.83326 28.5843 3.12043L26.0832 4.72835C25.3567 4.35902 24.6024 4.0462 23.8292 3.79364L23.1978 0.889161C23.085 0.370196 22.6255 0 22.0944 0H15.6955C15.1645 0 14.7049 0.370196 14.5922 0.889161L13.9608 3.79364C13.1875 4.0462 12.4333 4.35902 11.7067 4.72835L9.20559 3.12043C8.7587 2.83326 8.17198 2.89641 7.79659 3.27179L3.27179 7.79659C2.89641 8.17198 2.83326 8.7587 3.12043 9.20559L4.72835 11.7067C4.35902 12.4333 4.0462 13.1875 3.79364 13.9608L0.889161 14.5922C0.370196 14.7052 0 15.1645 0 15.6955V22.0944C0 22.6255 0.370196 23.0847 0.889161 23.1978L3.79364 23.8292C4.0462 24.6024 4.35902 25.3567 4.72835 26.0832L3.12043 28.5843C2.83326 29.0312 2.89641 29.6179 3.27179 29.9933L7.79659 34.5181C8.17198 34.8935 8.7587 34.9567 9.20559 34.6695L11.7067 33.0616C12.4333 33.4309 13.1875 33.7437 13.9608 33.9963L14.5922 36.9008C14.7049 37.4197 15.1645 37.7899 15.6955 37.7899H22.0944C22.6255 37.7899 23.085 37.4197 23.1978 36.9008L23.8292 33.9963C24.6024 33.7437 25.3567 33.4309 26.0832 33.0616L28.5843 34.6695C29.0312 34.9567 29.6179 34.8938 29.9933 34.5181L34.5181 29.9933C34.8935 29.6179 34.9567 29.0312 34.6695 28.5843L33.0616 26.0832C33.4309 25.3567 33.7437 24.6024 33.9963 23.8292L36.9008 23.1978C37.4197 23.0847 37.7899 22.6255 37.7899 22.0944V15.6955C37.7899 15.1645 37.4197 14.7052 36.9008 14.5922ZM35.5316 21.1842L32.8684 21.7631C32.4593 21.8522 32.1329 22.1601 32.0205 22.5632C31.7278 23.6129 31.3069 24.6281 30.7695 25.5804C30.5636 25.9451 30.5763 26.3937 30.8029 26.746L32.2776 29.0399L29.0402 32.2776L26.746 30.8029C26.3937 30.5763 25.9451 30.5636 25.5807 30.7695C24.6281 31.3069 23.6129 31.7278 22.5632 32.0205C22.1601 32.1329 21.8522 32.4593 21.7631 32.8684L21.1842 35.5316H16.6057L16.0268 32.8684C15.9377 32.4593 15.6298 32.1329 15.2267 32.0205C14.177 31.7278 13.1618 31.3069 12.2095 30.7695C11.8448 30.5636 11.3962 30.5766 11.0439 30.8029L8.75005 32.2776L5.51257 29.0399L6.98701 26.746C7.21362 26.3937 7.2266 25.9451 7.02074 25.5804C6.48332 24.6281 6.06238 23.6129 5.76946 22.5632C5.65701 22.1601 5.33093 21.8522 4.92181 21.7631L2.25837 21.1842V16.6057L4.92152 16.0268C5.33064 15.9377 5.65701 15.6298 5.76946 15.2267C6.0621 14.177 6.48303 13.1618 7.02045 12.2095C7.22631 11.8448 7.21362 11.3962 6.98701 11.0439L5.51228 8.75005L8.74976 5.51228L11.0439 6.98701C11.3962 7.21362 11.8448 7.22631 12.2092 7.02045C13.1618 6.48303 14.177 6.0621 15.2267 5.76946C15.6298 5.65701 15.9377 5.33064 16.0268 4.92152L16.6057 2.25837H21.1842L21.7631 4.92152C21.8522 5.33064 22.1601 5.65701 22.5632 5.76946C23.6129 6.0621 24.6281 6.48303 25.5804 7.02045C25.9451 7.22631 26.3937 7.21334 26.746 6.98701L29.0399 5.51228L32.2774 8.75005L30.8029 11.0439C30.5763 11.3962 30.5633 11.8448 30.7692 12.2095C31.3069 13.1618 31.7275 14.177 32.0205 15.2267C32.1329 15.6298 32.459 15.9377 32.8681 16.0268L35.5316 16.6057V21.1842Z" fill="#104065"/>
<path d="M45.2091 26.4764C42.3509 27.3984 40.7755 30.4739 41.6974 33.3321C42.6193 36.1904 45.6949 37.7658 48.5531 36.8438C51.4113 35.9219 52.9867 32.8464 52.0648 29.9882C51.1429 27.1299 48.0673 25.5545 45.2091 26.4764ZM48.1351 35.5479C45.9914 36.2394 43.6847 35.0578 42.9933 32.9141C42.3019 30.7705 43.4834 28.4638 45.6271 27.7724C47.7708 27.0809 50.0774 28.2625 50.7689 30.4061C51.4603 32.5498 50.2787 34.8565 48.1351 35.5479Z" fill="#104065"/>
<path d="M56.4167 25.8585L54.6332 26.0338C54.3451 25.6368 54.026 25.2619 53.6796 24.9133L54.1394 23.1805C54.2214 22.8709 54.0766 22.5459 53.7917 22.4L50.3578 20.641C50.0729 20.495 49.7245 20.5674 49.5212 20.8149L48.3836 22.2005C47.8983 22.1231 47.4076 22.0832 46.9171 22.0813L46.0172 20.5315C45.8565 20.2546 45.5243 20.1272 45.2195 20.2255L41.5476 21.4099C41.2429 21.5082 41.0477 21.8057 41.0791 22.1243L41.2543 23.9079C40.8573 24.1959 40.4824 24.515 40.1339 24.8614L38.401 24.4017C38.0915 24.3196 37.7665 24.4645 37.6205 24.7493L35.8615 28.1833C35.7156 28.4682 35.788 28.8166 36.0355 29.0199L37.4211 30.1575C37.3436 30.6428 37.3037 31.1335 37.3019 31.6239L35.7521 32.5238C35.4752 32.6847 35.3478 33.0168 35.4461 33.3216L36.6304 36.9934C36.7287 37.2982 37.0262 37.4932 37.3449 37.462L39.1284 37.2868C39.4165 37.6837 39.7356 38.0586 40.082 38.4072L39.6223 40.14C39.5402 40.4496 39.685 40.7746 39.9699 40.9205L43.4039 42.6795C43.6888 42.8255 44.0371 42.7531 44.2404 42.5056L45.378 41.12C45.8633 41.1974 46.354 41.2374 46.8445 41.2392L47.7444 42.789C47.9051 43.0659 48.2374 43.1933 48.5421 43.095L52.214 41.9106C52.5187 41.8123 52.7139 41.5148 52.6826 41.1962L52.5073 39.4126C52.9043 39.1246 53.2792 38.8055 53.6278 38.4591L55.3606 38.9188C55.6702 39.0009 55.9952 38.8562 56.1411 38.5712L57.9001 35.1372C58.046 34.8523 57.9737 34.5039 57.7262 34.3006L56.3406 33.163C56.418 32.6777 56.4579 32.187 56.4597 31.6966L58.0095 30.7967C58.2864 30.6358 58.4138 30.3037 58.3156 29.9989L57.1312 26.3271C57.0329 26.0223 56.7355 25.8273 56.4167 25.8585ZM56.8512 29.8946L55.4301 30.7198C55.2118 30.8466 55.0815 31.0837 55.0916 31.3358C55.118 31.9924 55.0643 32.6528 54.9322 33.2987C54.8816 33.5461 54.9719 33.8012 55.1671 33.9614L56.438 35.0048L55.1795 37.4619L53.5901 37.0403C53.3459 36.9755 53.0862 37.0512 52.9151 37.2368C52.468 37.7215 51.9634 38.1509 51.4151 38.5132C51.2047 38.6523 51.0884 38.8966 51.113 39.1478L51.2737 40.7832L48.6464 41.6306L47.8213 40.2095C47.6945 39.9913 47.4574 39.861 47.2053 39.871C46.5487 39.8974 45.8883 39.8438 45.2423 39.7116C44.9949 39.661 44.7399 39.7515 44.5796 39.9466L43.5363 41.2174L41.0793 39.9587L41.5008 38.3695C41.5656 38.1254 41.49 37.8655 41.3044 37.6944C40.8197 37.2474 40.3903 36.7427 40.0279 36.1946C39.8888 35.9841 39.6447 35.8678 39.3934 35.8924L37.7579 36.0531L36.9105 33.4259L38.3315 32.6007C38.5498 32.4739 38.6801 32.2368 38.67 31.9847C38.6436 31.3281 38.6973 30.6677 38.8294 30.0218C38.8801 29.7744 38.7897 29.5193 38.5945 29.3591L37.3237 28.3157L38.5822 25.8586L40.1716 26.2802C40.4157 26.345 40.6755 26.2693 40.8465 26.0837C41.2936 25.599 41.7983 25.1696 42.3465 24.8073C42.557 24.6682 42.6733 24.4239 42.6487 24.1727L42.4879 22.5373L45.1152 21.6899L45.9403 23.111C46.0672 23.3292 46.3043 23.4595 46.5564 23.4495C47.2129 23.4231 47.8734 23.4767 48.5193 23.6089C48.7667 23.6595 49.0217 23.569 49.182 23.3739L50.2253 22.1031L52.6824 23.3618L52.2608 24.951C52.196 25.1951 52.2716 25.455 52.4572 25.6261C52.9421 26.0731 53.3713 26.5778 53.7337 27.1259C53.8728 27.3364 54.117 27.4527 54.3682 27.4281L56.0037 27.2674L56.8512 29.8946Z" fill="#104065"/>
</g>
</svg>
