<svg width="148" height="148" viewBox="0 0 148 148" fill="none" xmlns="http://www.w3.org/2000/svg">
<path d="M39.5545 72.5632C32.7576 79.4221 32.8081 90.5328 39.667 97.3297C46.526 104.127 57.6366 104.076 64.4335 97.2172C71.2304 90.3582 71.18 79.2476 64.321 72.4507C57.4621 65.6538 46.3514 65.7042 39.5545 72.5632ZM61.3236 94.1354C56.226 99.2796 47.893 99.3175 42.7488 94.2198C37.6046 89.1221 37.5667 80.7891 42.6644 75.6449C47.7621 70.5007 56.095 70.4629 61.2393 75.5606C66.3835 80.6582 66.4213 88.9912 61.3236 94.1354Z" fill="#104065"/>
<path d="M70.639 54.2233L65.8061 57.3613C64.3966 56.6539 62.9311 56.0554 61.4267 55.5726L60.1767 49.9453C59.9531 48.9401 59.059 48.2264 58.0299 48.2311L45.6245 48.2874C44.5953 48.2921 43.7077 49.0139 43.4934 50.0211L42.2945 55.6595C40.7945 56.156 39.3345 56.7677 37.9315 57.4879L33.0703 54.3939C32.2018 53.841 31.0649 53.9687 30.3402 54.7L21.6084 63.5115C20.8837 64.2428 20.7664 65.3808 21.3272 66.2443L24.4652 71.0772C23.7578 72.4866 23.1593 73.9521 22.6765 75.4566L17.0493 76.7066C16.044 76.9301 15.3303 77.8242 15.335 78.8534L15.3914 91.2588C15.396 92.2879 16.1178 93.1755 17.1251 93.3899L22.7634 94.5887C23.2599 96.0887 23.8716 97.5487 24.5918 98.9517L21.4979 103.813C20.9453 104.682 21.0726 105.818 21.8039 106.543L30.6154 115.275C31.3467 116 32.4844 116.116 33.3482 115.556L38.1811 112.418C39.5905 113.125 41.056 113.724 42.5605 114.207L43.8105 119.834C44.034 120.839 44.9281 121.553 45.9573 121.548L58.3627 121.492C59.3918 121.487 60.2794 120.765 60.4938 119.758L61.6926 114.12C63.1927 113.623 64.6526 113.012 66.0556 112.291L70.9168 115.385C71.7853 115.938 72.9222 115.811 73.6469 115.079L82.3787 106.268C83.1034 105.537 83.2208 104.398 82.66 103.535L79.522 98.7022C80.2294 97.2927 80.8278 95.8272 81.3107 94.3227L86.9379 93.0727C87.9431 92.8492 88.6572 91.9555 88.6522 90.9259L88.5958 78.5206C88.5911 77.4914 87.8693 76.6038 86.8621 76.3894L81.2238 75.1906C80.7273 73.6906 80.1155 72.2306 79.3954 70.8276L82.4893 65.9664C83.0418 65.0975 82.9146 63.961 82.1832 63.2363L73.3717 54.5045C72.6404 53.7798 71.5028 53.6629 70.639 54.2233ZM77.8481 65.1041L75.0112 69.5614C74.5756 70.2464 74.5542 71.116 74.9558 71.8209C76.0021 73.6563 76.8256 75.6212 77.4036 77.6608C77.6249 78.442 78.26 79.0367 79.0544 79.2054L84.2255 80.3048L84.2662 89.1811L79.1049 90.3279C78.3121 90.5038 77.6824 91.1042 77.4686 91.887C76.9088 93.9321 76.1031 95.9044 75.0736 97.7493C74.6785 98.4578 74.7077 99.3272 75.1495 100.008L78.0268 104.439L71.7791 110.744L67.3218 107.907C66.6369 107.472 65.7672 107.45 65.0624 107.852C63.2269 108.898 61.262 109.722 59.2225 110.3C58.4413 110.521 57.847 111.156 57.6779 111.95L56.5785 117.122L47.7021 117.162L46.5554 112.001C46.3795 111.208 45.7794 110.578 44.9963 110.364C42.9515 109.804 40.9792 108.999 39.1339 107.97C38.4255 107.575 37.5565 107.603 36.8755 108.045L32.4438 110.923L26.1391 104.675L28.976 100.218C29.4116 99.5329 29.4329 98.6633 29.0313 97.9585C27.9851 96.123 27.1616 94.1581 26.5836 92.1185C26.3623 91.3374 25.7272 90.7427 24.9328 90.5739L19.7617 89.4746L19.7209 80.5982L24.8822 79.4515C25.6751 79.2756 26.3047 78.6751 26.5186 77.8924C27.0784 75.8472 27.884 73.8749 28.9135 72.03C29.3087 71.3215 29.2795 70.4522 28.8377 69.7712L25.9604 65.3399L32.2081 59.0351L36.6654 61.8721C37.3503 62.3076 38.2199 62.329 38.9248 61.9274C40.7602 60.8812 42.7252 60.0577 44.7647 59.4797C45.5459 59.2583 46.1402 58.6229 46.3093 57.8289L47.4087 52.6577L56.2851 52.6178L57.4318 57.7783C57.6077 58.5712 58.2078 59.2012 58.9909 59.4154C61.036 59.9745 63.0079 60.7805 64.8532 61.8096C65.5617 62.2048 66.4307 62.1759 67.1116 61.7341L71.5434 58.8565L77.8481 65.1041Z" fill="#104065"/>
<mask id="path-3-inside-1" fill="white">
<path d="M98.3415 58.9996C95.7108 64.1936 97.7962 70.5599 102.99 73.1907C108.184 75.8214 114.55 73.736 117.181 68.5421C119.812 63.3482 117.726 56.9819 112.533 54.3511C107.339 51.7203 100.972 53.8057 98.3415 58.9996ZM114.826 67.3493C112.853 71.2447 108.078 72.8088 104.183 70.8357C100.287 68.8626 98.7234 64.0879 100.696 60.1925C102.67 56.297 107.444 54.7329 111.34 56.706C115.235 58.6791 116.799 63.4538 114.826 67.3493Z"/>
</mask>
<path d="M98.3415 58.9996C95.7108 64.1936 97.7962 70.5599 102.99 73.1907C108.184 75.8214 114.55 73.736 117.181 68.5421C119.812 63.3482 117.726 56.9819 112.533 54.3511C107.339 51.7203 100.972 53.8057 98.3415 58.9996ZM114.826 67.3493C112.853 71.2447 108.078 72.8088 104.183 70.8357C100.287 68.8626 98.7234 64.0879 100.696 60.1925C102.67 56.297 107.444 54.7329 111.34 56.706C115.235 58.6791 116.799 63.4538 114.826 67.3493Z" fill="#104065"/>
<path d="M89.4206 54.4811C84.2943 64.6019 88.3507 76.9853 98.4716 82.1116L107.509 64.2697C107.381 64.2049 107.287 64.1044 107.235 63.9434C107.182 63.7823 107.198 63.6463 107.262 63.5182L89.4206 54.4811ZM98.4716 82.1116C108.592 87.2379 120.976 83.1814 126.102 73.0606L108.26 64.0235C108.195 64.1516 108.095 64.2448 107.934 64.2975C107.773 64.3503 107.637 64.3346 107.509 64.2697L98.4716 82.1116ZM126.102 73.0606C131.228 62.9398 127.172 50.5565 117.051 45.4302L108.014 63.272C108.142 63.3369 108.235 63.4373 108.288 63.5984C108.341 63.7594 108.325 63.8955 108.26 64.0235L126.102 73.0606ZM117.051 45.4302C106.93 40.3039 94.5469 44.3603 89.4206 54.4811L107.262 63.5182C107.327 63.3901 107.428 63.297 107.589 63.2442C107.75 63.1915 107.886 63.2071 108.014 63.272L117.051 45.4302ZM105.905 62.8307C106.428 61.7993 107.67 61.3924 108.701 61.9148L99.6644 79.7566C108.487 84.2252 119.278 80.6902 123.747 71.8678L105.905 62.8307ZM108.701 61.9148C109.733 62.4372 110.14 63.6796 109.617 64.711L91.7756 55.6739C87.307 64.4962 90.842 75.288 99.6644 79.7566L108.701 61.9148ZM109.617 64.711C109.095 65.7424 107.853 66.1494 106.821 65.6269L115.858 47.7851C107.036 43.3165 96.2442 46.8516 91.7756 55.6739L109.617 64.711ZM106.821 65.6269C105.79 65.1045 105.383 63.8622 105.905 62.8307L123.747 71.8678C128.216 63.0455 124.681 52.2537 115.858 47.7851L106.821 65.6269Z" fill="#104065" mask="url(#path-3-inside-1)"/>
<mask id="path-5-inside-2" fill="white">
<path d="M112.785 42.7222L110.593 45.4174C109.653 45.2724 108.701 45.2002 107.749 45.2016L105.99 42.2039C105.675 41.6684 105.03 41.4243 104.441 41.6175L97.3324 43.946C96.7427 44.1391 96.367 44.7176 96.4304 45.3353L96.7861 48.7926C96.0172 49.3552 95.2927 49.9764 94.6209 50.6493L91.2587 49.7737C90.658 49.6171 90.0292 49.9008 89.7487 50.4546L86.369 57.1271C86.0885 57.6809 86.2318 58.3557 86.7135 58.7473L89.4087 60.9398C89.2636 61.8795 89.1914 62.8312 89.1928 63.7839L86.1951 65.5427C85.6596 65.8571 85.4156 66.5022 85.6088 67.0919L87.9372 74.2001C88.1304 74.7898 88.7088 75.1656 89.3265 75.1022L92.7838 74.7465C93.3464 75.5154 93.9677 76.2399 94.6406 76.9117L93.7649 80.2739C93.6087 80.8747 93.8921 81.5033 94.4459 81.7838L101.118 85.1635C101.672 85.444 102.347 85.3006 102.739 84.8191L104.931 82.1239C105.871 82.269 106.822 82.3411 107.775 82.3398L109.534 85.3375C109.848 85.8729 110.493 86.117 111.083 85.9238L118.191 83.5954C118.781 83.4022 119.157 82.8238 119.093 82.2061L118.738 78.7487C119.507 78.1862 120.231 77.5649 120.903 76.892L124.265 77.7676C124.866 77.9242 125.495 77.6405 125.775 77.0867L129.155 70.4142C129.435 69.8604 129.292 69.1857 128.81 68.794L126.115 66.6015C126.26 65.6618 126.332 64.7101 126.331 63.7574L129.329 61.9986C129.864 61.6843 130.109 61.0393 129.915 60.4494L127.587 53.3412C127.393 52.7515 126.815 52.3758 126.197 52.4392L122.74 52.7948C122.177 52.026 121.556 51.3014 120.883 50.6296L121.759 47.2675C121.915 46.6666 121.632 46.038 121.078 45.7575L114.405 42.3778C113.852 42.0973 113.177 42.2408 112.785 42.7222ZM118.936 47.6317L118.133 50.7145C118.01 51.1882 118.159 51.6912 118.52 52.0213C119.46 52.8809 120.296 53.856 121.005 54.9194C121.277 55.3267 121.751 55.5504 122.238 55.5002L125.409 55.1739L127.075 60.26L124.326 61.8733C123.903 62.121 123.653 62.5821 123.675 63.0708C123.733 64.348 123.635 65.6289 123.386 66.8781C123.291 67.3578 123.468 67.8513 123.848 68.1602L126.319 70.1705L123.901 74.9448L120.818 74.1419C120.344 74.0187 119.841 74.1674 119.511 74.5283C118.652 75.4684 117.677 76.3046 116.613 77.0138C116.206 77.2854 115.982 77.76 116.032 78.247L116.359 81.4178L111.272 83.0836L109.659 80.3346C109.412 79.9122 108.951 79.6617 108.462 79.6838C107.185 79.7412 105.904 79.6439 104.654 79.3949C104.175 79.2993 103.681 79.4767 103.372 79.8563L101.362 82.3278L96.5878 79.9096L97.3907 76.8268C97.5139 76.3531 97.3652 75.8502 97.0043 75.52C96.0642 74.6604 95.228 73.6853 94.5188 72.6219C94.2472 72.2146 93.7727 71.9909 93.2856 72.0412L90.1148 72.3674L88.4485 67.2814L91.198 65.6681C91.6204 65.4204 91.8705 64.9593 91.8484 64.4705C91.7911 63.1933 91.8883 61.9124 92.1376 60.6632C92.2333 60.1836 92.0556 59.6901 91.676 59.3811L89.2047 57.3708L91.6229 52.5966L94.7058 53.3995C95.1794 53.5227 95.6824 53.374 96.0125 53.013C96.8721 52.073 97.8473 51.2367 98.9106 50.5275C99.3179 50.256 99.5413 49.7813 99.4914 49.2944L99.1652 46.1235L104.251 44.4577L105.865 47.2067C106.112 47.6291 106.573 47.8796 107.062 47.8576C108.339 47.7999 109.62 47.8974 110.869 48.1464C111.349 48.242 111.842 48.0646 112.151 47.6851L114.162 45.2135L118.936 47.6317Z"/>
</mask>
<path d="M112.785 42.7222L110.593 45.4174C109.653 45.2724 108.701 45.2002 107.749 45.2016L105.99 42.2039C105.675 41.6684 105.03 41.4243 104.441 41.6175L97.3324 43.946C96.7427 44.1391 96.367 44.7176 96.4304 45.3353L96.7861 48.7926C96.0172 49.3552 95.2927 49.9764 94.6209 50.6493L91.2587 49.7737C90.658 49.6171 90.0292 49.9008 89.7487 50.4546L86.369 57.1271C86.0885 57.6809 86.2318 58.3557 86.7135 58.7473L89.4087 60.9398C89.2636 61.8795 89.1914 62.8312 89.1928 63.7839L86.1951 65.5427C85.6596 65.8571 85.4156 66.5022 85.6088 67.0919L87.9372 74.2001C88.1304 74.7898 88.7088 75.1656 89.3265 75.1022L92.7838 74.7465C93.3464 75.5154 93.9677 76.2399 94.6406 76.9117L93.7649 80.2739C93.6087 80.8747 93.8921 81.5033 94.4459 81.7838L101.118 85.1635C101.672 85.444 102.347 85.3006 102.739 84.8191L104.931 82.1239C105.871 82.269 106.822 82.3411 107.775 82.3398L109.534 85.3375C109.848 85.8729 110.493 86.117 111.083 85.9238L118.191 83.5954C118.781 83.4022 119.157 82.8238 119.093 82.2061L118.738 78.7487C119.507 78.1862 120.231 77.5649 120.903 76.892L124.265 77.7676C124.866 77.9242 125.495 77.6405 125.775 77.0867L129.155 70.4142C129.435 69.8604 129.292 69.1857 128.81 68.794L126.115 66.6015C126.26 65.6618 126.332 64.7101 126.331 63.7574L129.329 61.9986C129.864 61.6843 130.109 61.0393 129.915 60.4494L127.587 53.3412C127.393 52.7515 126.815 52.3758 126.197 52.4392L122.74 52.7948C122.177 52.026 121.556 51.3014 120.883 50.6296L121.759 47.2675C121.915 46.6666 121.632 46.038 121.078 45.7575L114.405 42.3778C113.852 42.0973 113.177 42.2408 112.785 42.7222ZM118.936 47.6317L118.133 50.7145C118.01 51.1882 118.159 51.6912 118.52 52.0213C119.46 52.8809 120.296 53.856 121.005 54.9194C121.277 55.3267 121.751 55.5504 122.238 55.5002L125.409 55.1739L127.075 60.26L124.326 61.8733C123.903 62.121 123.653 62.5821 123.675 63.0708C123.733 64.348 123.635 65.6289 123.386 66.8781C123.291 67.3578 123.468 67.8513 123.848 68.1602L126.319 70.1705L123.901 74.9448L120.818 74.1419C120.344 74.0187 119.841 74.1674 119.511 74.5283C118.652 75.4684 117.677 76.3046 116.613 77.0138C116.206 77.2854 115.982 77.76 116.032 78.247L116.359 81.4178L111.272 83.0836L109.659 80.3346C109.412 79.9122 108.951 79.6617 108.462 79.6838C107.185 79.7412 105.904 79.6439 104.654 79.3949C104.175 79.2993 103.681 79.4767 103.372 79.8563L101.362 82.3278L96.5878 79.9096L97.3907 76.8268C97.5139 76.3531 97.3652 75.8502 97.0043 75.52C96.0642 74.6604 95.228 73.6853 94.5188 72.6219C94.2472 72.2146 93.7727 71.9909 93.2856 72.0412L90.1148 72.3674L88.4485 67.2814L91.198 65.6681C91.6204 65.4204 91.8705 64.9593 91.8484 64.4705C91.7911 63.1933 91.8883 61.9124 92.1376 60.6632C92.2333 60.1836 92.0556 59.6901 91.676 59.3811L89.2047 57.3708L91.6229 52.5966L94.7058 53.3995C95.1794 53.5227 95.6824 53.374 96.0125 53.013C96.8721 52.073 97.8473 51.2367 98.9106 50.5275C99.3179 50.256 99.5413 49.7813 99.4914 49.2944L99.1652 46.1235L104.251 44.4577L105.865 47.2067C106.112 47.6291 106.573 47.8796 107.062 47.8576C108.339 47.7999 109.62 47.8974 110.869 48.1464C111.349 48.242 111.842 48.0646 112.151 47.6851L114.162 45.2135L118.936 47.6317Z" fill="#104065"/>
<path d="M110.593 45.4174L109.067 55.3004L114.733 56.1749L118.35 51.7279L110.593 45.4174ZM107.749 45.2016L99.1236 50.2621L102.027 55.2099L107.763 55.2016L107.749 45.2016ZM105.99 42.2039L114.615 37.1434L114.614 37.1415L105.99 42.2039ZM104.441 41.6175L101.328 32.1144L101.328 32.1144L104.441 41.6175ZM97.3324 43.946L94.2195 34.4428L94.2195 34.4428L97.3324 43.946ZM96.4304 45.3353L86.4827 46.3565L86.4829 46.3586L96.4304 45.3353ZM96.7861 48.7926L102.691 56.8631L107.321 53.4757L106.734 47.7693L96.7861 48.7926ZM94.6209 50.6493L92.1005 60.3265L97.648 61.7713L101.698 57.7144L94.6209 50.6493ZM91.2587 49.7737L88.7368 59.4505L88.7384 59.4509L91.2587 49.7737ZM86.7135 58.7473L93.0239 50.9899L93.0227 50.9889L86.7135 58.7473ZM89.4087 60.9398L99.2916 62.4653L100.166 56.7998L95.7191 53.1824L89.4087 60.9398ZM89.1928 63.7839L94.2533 72.409L99.2011 69.506L99.1928 63.7694L89.1928 63.7839ZM86.1951 65.5427L81.1346 56.9177L81.1328 56.9188L86.1951 65.5427ZM85.6088 67.0919L76.1056 70.2049L76.1056 70.2049L85.6088 67.0919ZM87.9372 74.2001L78.4341 77.3131L78.4341 77.3131L87.9372 74.2001ZM89.3265 75.1022L90.3477 85.0499L90.3498 85.0497L89.3265 75.1022ZM92.7838 74.7465L100.854 68.8416L97.467 64.2119L91.7605 64.799L92.7838 74.7465ZM94.6406 76.9117L104.318 79.432L105.763 73.8846L101.706 69.8346L94.6406 76.9117ZM93.7649 80.2739L84.0878 77.7535L84.0868 77.7571L93.7649 80.2739ZM102.739 84.8191L110.494 91.1325L110.496 91.1296L102.739 84.8191ZM104.931 82.1239L106.457 72.241L100.791 71.3665L97.1736 75.8134L104.931 82.1239ZM107.775 82.3398L116.4 77.2793L113.497 72.3315L107.761 72.3398L107.775 82.3398ZM109.534 85.3375L100.909 90.398L100.91 90.3998L109.534 85.3375ZM111.083 85.9238L114.196 95.427L114.196 95.427L111.083 85.9238ZM118.191 83.5954L121.304 93.0985L121.304 93.0985L118.191 83.5954ZM119.093 82.2061L129.041 81.1849L129.041 81.1828L119.093 82.2061ZM118.738 78.7487L112.833 70.6783L108.203 74.0656L108.79 79.7721L118.738 78.7487ZM120.903 76.892L123.423 67.2148L117.876 65.77L113.826 69.827L120.903 76.892ZM124.265 77.7676L126.787 68.0909L126.785 68.0905L124.265 77.7676ZM128.81 68.794L122.5 76.5515L122.501 76.5525L128.81 68.794ZM126.115 66.6015L116.232 65.0761L115.358 70.7415L119.805 74.359L126.115 66.6015ZM126.331 63.7574L121.27 55.1324L116.323 58.0354L116.331 63.7719L126.331 63.7574ZM129.329 61.9986L134.389 70.6236L134.391 70.6226L129.329 61.9986ZM129.915 60.4494L120.412 63.5623L120.413 63.566L129.915 60.4494ZM127.587 53.3412L137.09 50.2283L127.587 53.3412ZM126.197 52.4392L125.176 42.4915L125.174 42.4917L126.197 52.4392ZM122.74 52.7948L114.67 58.6997L118.057 63.3294L123.763 62.7424L122.74 52.7948ZM120.883 50.6296L111.206 48.1093L109.761 53.6567L113.818 57.7068L120.883 50.6296ZM121.759 47.2675L131.436 49.7878L131.437 49.7842L121.759 47.2675ZM118.936 47.6317L128.613 50.1521L130.645 42.3526L123.455 38.7108L118.936 47.6317ZM118.133 50.7145L108.456 48.1941L108.455 48.1976L118.133 50.7145ZM118.52 52.0213L111.77 59.3999L111.771 59.4012L118.52 52.0213ZM121.005 54.9194L129.325 49.3716L129.325 49.371L121.005 54.9194ZM122.238 55.5002L121.215 45.5527L121.213 45.5529L122.238 55.5002ZM125.409 55.1739L134.912 52.0606L132.403 44.4015L124.385 45.2264L125.409 55.1739ZM127.075 60.26L132.136 68.8848L139.088 64.8059L136.578 57.1466L127.075 60.26ZM124.326 61.8733L129.384 70.4995L129.387 70.4981L124.326 61.8733ZM123.675 63.0708L133.665 62.6229L133.665 62.6175L123.675 63.0708ZM123.386 66.8781L113.58 64.9211L113.579 64.9229L123.386 66.8781ZM123.848 68.1602L117.535 75.9155L117.537 75.9177L123.848 68.1602ZM126.319 70.1705L135.24 74.6891L138.882 67.4991L132.63 62.4131L126.319 70.1705ZM123.901 74.9448L121.38 84.6219L129.18 86.6533L132.822 79.4633L123.901 74.9448ZM120.818 74.1419L123.338 64.4647L123.335 64.4638L120.818 74.1419ZM119.511 74.5283L112.133 67.7788L112.131 67.7802L119.511 74.5283ZM116.613 77.0138L122.161 85.3337L122.162 85.3334L116.613 77.0138ZM116.032 78.247L106.085 79.2668L106.085 79.2705L116.032 78.247ZM116.359 81.4178L119.471 90.9211L127.131 88.4123L126.306 80.3943L116.359 81.4178ZM111.272 83.0836L102.648 88.1447L106.726 95.0952L114.385 92.5869L111.272 83.0836ZM109.659 80.3346L101.033 85.3931L101.035 85.3957L109.659 80.3346ZM108.462 79.6838L108.911 89.6737L108.912 89.6736L108.462 79.6838ZM104.654 79.3949L102.699 89.2019L102.7 89.2021L104.654 79.3949ZM103.372 79.8563L95.6173 73.5431L95.6149 73.546L103.372 79.8563ZM101.362 82.3278L96.8435 91.2488L104.034 94.8906L109.12 88.6381L101.362 82.3278ZM96.5878 79.9096L86.9106 77.3893L84.8793 85.1888L92.0693 88.8306L96.5878 79.9096ZM97.3907 76.8268L107.068 79.3472L107.069 79.3438L97.3907 76.8268ZM97.0043 75.52L103.754 68.1414L103.752 68.1401L97.0043 75.52ZM94.5188 72.6219L86.1988 78.1698L86.1992 78.1703L94.5188 72.6219ZM93.2856 72.0412L94.3092 81.9886L94.3112 81.9884L93.2856 72.0412ZM90.1148 72.3674L80.6118 75.4808L83.121 83.1398L91.1383 82.3149L90.1148 72.3674ZM88.4485 67.2814L83.3877 58.6565L76.4362 62.7355L78.9455 70.3948L88.4485 67.2814ZM91.198 65.6681L86.1395 57.0419L86.1372 57.0432L91.198 65.6681ZM91.8484 64.4705L81.8584 64.9185L81.8586 64.9238L91.8484 64.4705ZM92.1376 60.6632L101.944 62.6203L101.945 62.6185L92.1376 60.6632ZM91.676 59.3811L97.9892 51.6259L97.9865 51.6236L91.676 59.3811ZM89.2047 57.3708L80.2838 52.8523L76.642 60.0422L82.8943 65.1283L89.2047 57.3708ZM91.6229 52.5966L94.1433 42.9194L86.3438 40.888L82.702 48.078L91.6229 52.5966ZM94.7058 53.3995L92.1854 63.0767L92.1888 63.0775L94.7058 53.3995ZM96.0125 53.013L103.391 59.7625L103.392 59.7612L96.0125 53.013ZM98.9106 50.5275L93.3628 42.2076L93.3622 42.208L98.9106 50.5275ZM99.4914 49.2944L109.439 48.2745L109.439 48.2708L99.4914 49.2944ZM99.1652 46.1235L96.0526 36.6203L88.3927 39.1291L89.2177 47.1471L99.1652 46.1235ZM104.251 44.4577L112.876 39.3966L108.797 32.4461L101.139 34.9544L104.251 44.4577ZM105.865 47.2067L114.491 42.1482L114.489 42.1457L105.865 47.2067ZM107.062 47.8576L107.512 57.8475L107.514 57.8474L107.062 47.8576ZM110.869 48.1464L112.825 38.3394L112.824 38.3393L110.869 48.1464ZM112.151 47.6851L119.907 53.9983L119.909 53.9953L112.151 47.6851ZM114.162 45.2135L118.68 36.2926L111.49 32.6507L106.404 38.9032L114.162 45.2135ZM105.028 36.4117L102.835 39.1069L118.35 51.7279L120.543 49.0327L105.028 36.4117ZM112.118 35.5345C110.667 35.3105 109.201 35.1995 107.734 35.2016L107.763 55.2016C108.202 55.2009 108.639 55.2342 109.067 55.3004L112.118 35.5345ZM116.374 40.1411L114.615 37.1434L97.3648 47.2644L99.1236 50.2621L116.374 40.1411ZM114.614 37.1415C111.919 32.5506 106.388 30.4567 101.328 32.1144L107.554 51.1206C103.673 52.392 99.4321 50.7862 97.3659 47.2662L114.614 37.1415ZM101.328 32.1144L94.2195 34.4428L100.445 53.4491L107.554 51.1206L101.328 32.1144ZM94.2195 34.4428C89.1591 36.1005 85.9391 41.0608 86.4827 46.3565L106.378 44.314C106.795 48.3744 104.326 52.1778 100.445 53.4491L94.2195 34.4428ZM86.4829 46.3586L86.8386 49.8159L106.734 47.7693L106.378 44.3119L86.4829 46.3586ZM90.8812 40.7221C89.6976 41.5882 88.5809 42.5454 87.5438 43.5843L101.698 57.7144C102.004 57.4074 102.337 57.1221 102.691 56.8631L90.8812 40.7221ZM97.1412 40.9722L93.779 40.0965L88.7384 59.4509L92.1005 60.3265L97.1412 40.9722ZM93.7806 40.0969C88.6237 38.7529 83.2326 41.1883 80.8278 45.9361L98.6697 54.9732C96.8259 58.6134 92.6923 60.4813 88.7368 59.4505L93.7806 40.0969ZM80.8278 45.9361L77.4481 52.6086L95.29 61.6457L98.6697 54.9732L80.8278 45.9361ZM77.4481 52.6086C75.0433 57.3564 76.2696 63.1435 80.4042 66.5058L93.0227 50.9889C96.1941 53.5679 97.1338 58.0055 95.29 61.6457L77.4481 52.6086ZM80.403 66.5048L83.0982 68.6972L95.7191 53.1824L93.0239 50.9899L80.403 66.5048ZM79.5257 59.4143C79.3017 60.8652 79.1907 62.3318 79.1928 63.7984L99.1928 63.7694C99.1922 63.3307 99.2255 62.8939 99.2916 62.4653L79.5257 59.4143ZM84.1323 55.1589L81.1346 56.9177L91.2556 74.1678L94.2533 72.409L84.1323 55.1589ZM81.1328 56.9188C76.5418 59.6137 74.448 65.1445 76.1056 70.2049L95.1119 63.979C96.3832 67.86 94.7774 72.1004 91.2574 74.1667L81.1328 56.9188ZM76.1056 70.2049L78.4341 77.3131L97.4403 71.0872L95.1119 63.979L76.1056 70.2049ZM78.4341 77.3131C80.0917 82.3735 85.0521 85.5935 90.3477 85.0499L88.3053 65.1544C92.3656 64.7376 96.169 67.2062 97.4403 71.0872L78.4341 77.3131ZM90.3498 85.0497L93.8072 84.694L91.7605 64.799L88.3032 65.1547L90.3498 85.0497ZM84.7134 80.6514C85.5794 81.835 86.5366 82.9517 87.5756 83.9888L101.706 69.8346C101.399 69.5282 101.113 69.1957 100.854 68.8416L84.7134 80.6514ZM84.9634 74.3914L84.0878 77.7535L103.442 82.7942L104.318 79.432L84.9634 74.3914ZM84.0868 77.7571C82.7476 82.907 85.1759 88.2981 89.9273 90.7048L98.9644 72.8629C102.608 74.7086 104.47 78.8425 103.443 82.7907L84.0868 77.7571ZM89.9273 90.7048L96.5998 94.0845L105.637 76.2426L98.9644 72.8629L89.9273 90.7048ZM96.5998 94.0845C101.351 96.4911 107.134 95.2591 110.494 91.1325L94.9835 78.5058C97.559 75.3421 101.993 74.397 105.637 76.2426L96.5998 94.0845ZM110.496 91.1296L112.688 88.4344L97.1736 75.8134L94.9811 78.5086L110.496 91.1296ZM103.406 92.0069C104.856 92.2308 106.323 92.3419 107.79 92.3397L107.761 72.3398C107.322 72.3404 106.885 72.3071 106.457 72.241L103.406 92.0069ZM99.1501 87.4003L100.909 90.398L118.159 80.277L116.4 77.2793L99.1501 87.4003ZM100.91 90.3998C103.605 94.9908 109.136 97.0846 114.196 95.427L107.97 76.4207C111.851 75.1494 116.092 76.7551 118.158 80.2751L100.91 90.3998ZM114.196 95.427L121.304 93.0985L115.078 74.0923L107.97 76.4207L114.196 95.427ZM121.304 93.0985C126.365 91.4409 129.585 86.4805 129.041 81.1849L109.146 83.2273C108.729 79.167 111.197 75.3636 115.078 74.0923L121.304 93.0985ZM129.041 81.1828L128.685 77.7254L108.79 79.7721L109.146 83.2294L129.041 81.1828ZM124.643 86.8192C125.826 85.9532 126.943 84.9959 127.98 83.957L113.826 69.827C113.519 70.1339 113.187 70.4192 112.833 70.6783L124.643 86.8192ZM118.383 86.5692L121.745 87.4448L126.785 68.0905L123.423 67.2148L118.383 86.5692ZM121.743 87.4444C126.9 88.7884 132.291 86.353 134.696 81.6052L116.854 72.5682C118.698 68.928 122.831 67.06 126.787 68.0909L121.743 87.4444ZM134.696 81.6052L138.076 74.9328L120.234 65.8957L116.854 72.5682L134.696 81.6052ZM138.076 74.9328C140.48 70.185 139.254 64.3979 135.12 61.0356L122.501 76.5525C119.33 73.9735 118.39 69.5359 120.234 65.8957L138.076 74.9328ZM135.121 61.0366L132.426 58.8441L119.805 74.359L122.5 76.5515L135.121 61.0366ZM135.998 68.127C136.222 66.6761 136.333 65.2096 136.331 63.7429L116.331 63.7719C116.332 64.2106 116.298 64.6475 116.232 65.0761L135.998 68.127ZM131.391 72.3825L134.389 70.6236L124.268 53.3735L121.27 55.1324L131.391 72.3825ZM134.391 70.6226C138.978 67.9298 141.079 62.3996 139.417 57.3328L120.413 63.566C119.138 59.6789 120.75 55.4387 124.266 53.3746L134.391 70.6226ZM139.418 57.3364L137.09 50.2283L118.083 56.4542L120.412 63.5623L139.418 57.3364ZM137.09 50.2283C135.432 45.1678 130.472 41.9478 125.176 42.4915L127.219 62.3869C123.158 62.8037 119.355 60.3352 118.083 56.4542L137.09 50.2283ZM125.174 42.4917L121.717 42.8473L123.763 62.7424L127.221 62.3867L125.174 42.4917ZM130.81 46.89C129.944 45.7063 128.987 44.5897 127.948 43.5525L113.818 57.7068C114.125 58.0132 114.41 58.3456 114.67 58.6997L130.81 46.89ZM130.56 53.15L131.436 49.7878L112.082 44.7471L111.206 48.1093L130.56 53.15ZM131.437 49.7842C132.776 44.6343 130.348 39.2432 125.596 36.8366L116.559 54.6784C112.916 52.8328 111.054 48.6989 112.081 44.7507L131.437 49.7842ZM125.596 36.8366L118.924 33.4569L109.887 51.2987L116.559 54.6784L125.596 36.8366ZM118.924 33.4569C114.173 31.0502 108.39 32.2822 105.03 36.4089L120.54 49.0356C117.965 52.1993 113.531 53.1444 109.887 51.2987L118.924 33.4569ZM109.259 45.1113L108.456 48.1941L127.81 53.2349L128.613 50.1521L109.259 45.1113ZM108.455 48.1976C107.4 52.2542 108.672 56.5663 111.77 59.3999L125.269 44.6427C127.645 46.816 128.62 50.1222 127.811 53.2315L108.455 48.1976ZM111.771 59.4012C112.113 59.7139 112.423 60.0736 112.685 60.4678L129.325 49.371C128.169 47.6385 126.806 46.0479 125.268 44.6414L111.771 59.4012ZM112.685 60.4672C115.012 63.957 119.082 65.8786 123.264 65.4475L121.213 45.5529C124.42 45.2222 127.541 46.6963 129.325 49.3716L112.685 60.4672ZM123.262 65.4477L126.433 65.1214L124.385 45.2264L121.215 45.5527L123.262 65.4477ZM115.906 58.2873L117.572 63.3733L136.578 57.1466L134.912 52.0606L115.906 58.2873ZM122.015 51.6351L119.265 53.2484L129.387 70.4981L132.136 68.8848L122.015 51.6351ZM119.267 53.2471C115.642 55.3729 113.495 59.3303 113.686 63.5241L133.665 62.6175C133.811 65.8339 132.165 68.8691 129.384 70.4995L119.267 53.2471ZM113.685 63.5188C113.707 63.9934 113.67 64.4667 113.58 64.9211L133.193 68.8351C133.601 66.7911 133.759 64.7026 133.665 62.6229L113.685 63.5188ZM113.579 64.9229C112.758 69.0402 114.284 73.2692 117.535 75.9155L130.161 60.405C132.653 62.4333 133.823 65.6754 133.193 68.8333L113.579 64.9229ZM117.537 75.9177L120.009 77.928L132.63 62.4131L130.158 60.4028L117.537 75.9177ZM117.398 65.652L114.98 70.4262L132.822 79.4633L135.24 74.6891L117.398 65.652ZM126.421 65.2676L123.338 64.4647L118.298 83.819L121.38 84.6219L126.421 65.2676ZM123.335 64.4638C119.278 63.4088 114.966 64.681 112.133 67.7788L126.89 81.2778C124.717 83.6537 121.41 84.6285 118.301 83.8199L123.335 64.4638ZM112.131 67.7802C111.819 68.1222 111.459 68.4313 111.065 68.6942L122.162 85.3334C123.894 84.1779 125.485 82.8146 126.891 81.2764L112.131 67.7802ZM111.065 68.6938C107.571 71.0238 105.657 75.0943 106.085 79.2668L125.98 77.2271C126.308 80.4258 124.841 83.547 122.161 85.3337L111.065 68.6938ZM106.085 79.2705L106.411 82.4413L126.306 80.3943L125.98 77.2234L106.085 79.2705ZM113.246 71.9145L108.16 73.5804L114.385 92.5869L119.471 90.9211L113.246 71.9145ZM119.897 78.0225L118.284 75.2735L101.035 85.3957L102.648 88.1447L119.897 78.0225ZM118.286 75.2761C116.162 71.6545 112.208 69.5049 108.012 69.6939L108.912 89.6736C105.694 89.8186 102.661 88.1699 101.033 85.3931L118.286 75.2761ZM108.012 69.6939C107.539 69.7151 107.065 69.6788 106.609 69.5878L102.7 89.2021C104.742 89.6091 106.83 89.7672 108.911 89.6737L108.012 69.6939ZM106.61 69.588C102.496 68.7678 98.2659 70.2895 95.6173 73.5431L111.128 86.1695C109.097 88.664 105.853 89.8308 102.699 89.2019L106.61 69.588ZM95.6149 73.546L93.6044 76.0176L109.12 88.6381L111.13 86.1665L95.6149 73.546ZM105.881 73.4069L101.106 70.9887L92.0693 88.8306L96.8435 91.2488L105.881 73.4069ZM106.265 82.43L107.068 79.3472L87.7135 74.3064L86.9106 77.3893L106.265 82.43ZM107.069 79.3438C108.124 75.2871 106.852 70.975 103.754 68.1414L90.2548 82.8987C87.8788 80.7253 86.904 77.4192 87.7127 74.3099L107.069 79.3438ZM103.752 68.1401C103.41 67.8274 103.101 67.4678 102.838 67.0735L86.1992 78.1703C87.3547 79.9029 88.718 81.4934 90.2562 82.8999L103.752 68.1401ZM102.839 67.0741C100.512 63.5843 96.4418 61.6627 92.26 62.0939L94.3112 81.9884C91.1036 82.3191 87.9827 80.845 86.1988 78.1698L102.839 67.0741ZM92.2621 62.0937L89.0912 62.4199L91.1383 82.3149L94.3092 81.9886L92.2621 62.0937ZM99.6178 69.254L97.9515 64.168L78.9455 70.3948L80.6118 75.4808L99.6178 69.254ZM93.5093 75.9062L96.2588 74.2929L86.1372 57.0432L83.3877 58.6565L93.5093 75.9062ZM96.2565 74.2943C99.8816 72.1685 102.028 68.211 101.838 64.0172L81.8586 64.9238C81.7127 61.7075 83.3591 58.6723 86.1395 57.0419L96.2565 74.2943ZM101.838 64.0226C101.817 63.5479 101.854 63.0746 101.944 62.6203L82.331 58.7062C81.9231 60.7503 81.7652 62.8388 81.8584 64.9185L101.838 64.0226ZM101.945 62.6185C102.765 58.5012 101.24 54.2721 97.9892 51.6259L85.3628 67.1363C82.8713 65.1081 81.701 61.8659 82.3306 58.708L101.945 62.6185ZM97.9865 51.6236L95.5152 49.6133L82.8943 65.1283L85.3656 67.1386L97.9865 51.6236ZM98.1257 61.8893L100.544 57.1151L82.702 48.078L80.2838 52.8523L98.1257 61.8893ZM89.1025 62.2737L92.1854 63.0767L97.2262 43.7223L94.1433 42.9194L89.1025 62.2737ZM92.1888 63.0775C96.2454 64.1325 100.558 62.8603 103.391 59.7625L88.6339 46.2636C90.8073 43.8876 94.1134 42.9128 97.2227 43.7214L92.1888 63.0775ZM103.392 59.7612C103.705 59.4192 104.065 59.11 104.459 58.8471L93.3622 42.208C91.6297 43.3634 90.0391 44.7268 88.6326 46.2649L103.392 59.7612ZM104.458 58.8475C107.953 56.5176 109.867 52.447 109.439 48.2745L89.5436 50.3142C89.2156 47.1156 90.6832 43.9944 93.3628 42.2076L104.458 58.8475ZM109.439 48.2708L109.113 45.1L89.2177 47.1471L89.5439 50.3179L109.439 48.2708ZM102.278 55.6268L107.364 53.961L101.139 34.9544L96.0526 36.6203L102.278 55.6268ZM95.6267 49.5188L97.2398 52.2678L114.489 42.1457L112.876 39.3966L95.6267 49.5188ZM97.2383 52.2652C99.3621 55.8869 103.316 58.0364 107.512 57.8475L106.612 37.8677C109.83 37.7228 112.862 39.3714 114.491 42.1482L97.2383 52.2652ZM107.514 57.8474C107.984 57.8261 108.457 57.8623 108.915 57.9535L112.824 38.3393C110.783 37.9325 108.694 37.7736 106.611 37.8678L107.514 57.8474ZM108.914 57.9534C113.028 58.7735 117.258 57.2519 119.907 53.9983L104.396 41.3719C106.427 38.8774 109.67 37.7106 112.825 38.3394L108.914 57.9534ZM119.909 53.9953L121.919 51.5238L106.404 38.9032L104.394 41.3748L119.909 53.9953ZM109.643 54.1344L114.417 56.5526L123.455 38.7108L118.68 36.2926L109.643 54.1344Z" fill="#104065" mask="url(#path-5-inside-2)"/>
</svg>
