<svg width="152" height="153" viewBox="0 0 152 153" fill="none" xmlns="http://www.w3.org/2000/svg">
<path d="M40.7218 74.2155C33.6905 81.311 33.7427 92.8047 40.8382 99.836C47.9336 106.867 59.4274 106.815 66.4587 99.7196C73.49 92.6242 73.4378 81.1304 66.3423 74.0991C59.2468 67.0679 47.7531 67.1201 40.7218 74.2155ZM63.2416 96.5316C57.9681 101.853 49.3478 101.892 44.0262 96.6189C38.7046 91.3455 38.6654 82.7252 43.9389 77.4036C49.2124 72.0819 57.8327 72.0428 63.1543 77.3163C68.4759 82.5897 68.515 91.21 63.2416 96.5316Z" fill="#104065"/>
<path d="M72.8778 55.2436L67.8783 58.4898C66.4202 57.758 64.9042 57.139 63.3478 56.6394L62.0547 50.8182C61.8235 49.7783 60.8986 49.04 59.8339 49.0448L47.0007 49.1031C45.9361 49.108 45.0179 49.8546 44.7961 50.8966L43.556 56.7294C42.0042 57.243 40.4939 57.8758 39.0425 58.6208L34.0137 55.4202C33.1153 54.8482 31.9392 54.9803 31.1895 55.7368L22.1566 64.8522C21.4069 65.6087 21.2855 66.7859 21.8656 67.6791L25.1118 72.6787C24.38 74.1368 23.7609 75.6528 23.2614 77.2091L17.4402 78.5022C16.4003 78.7335 15.662 79.6584 15.6668 80.7231L15.7251 93.5562C15.7299 94.6209 16.4766 95.5391 17.5186 95.7608L23.3513 97.001C23.865 98.5527 24.4978 100.063 25.2428 101.514L22.0422 106.543C21.4706 107.442 21.6022 108.618 22.3588 109.367L31.4741 118.4C32.2307 119.15 33.4075 119.271 34.3011 118.691L39.3007 115.445C40.7587 116.177 42.2747 116.796 43.8311 117.296L45.1242 123.117C45.3555 124.157 46.2804 124.895 47.345 124.89L60.1782 124.832C61.2428 124.827 62.161 124.08 62.3828 123.038L63.623 117.206C65.1747 116.692 66.6851 116.059 68.1364 115.314L73.1653 118.515C74.0637 119.087 75.2398 118.955 75.9895 118.198L85.0224 109.083C85.7721 108.326 85.8935 107.149 85.3133 106.256L82.0671 101.256C82.7989 99.7982 83.418 98.2822 83.9175 96.7258L89.7388 95.4327C90.7787 95.2015 91.5174 94.277 91.5121 93.2119L91.4538 80.3788C91.449 79.3141 90.7023 78.3959 89.6604 78.1741L83.8276 76.934C83.314 75.3822 82.6811 73.8719 81.9361 72.4205L85.1368 67.3917C85.7084 66.4929 85.5767 65.3172 84.8202 64.5675L75.7048 55.5346C74.9483 54.7849 73.7714 54.6639 72.8778 55.2436ZM80.3355 66.4997L77.4008 71.1107C76.9502 71.8193 76.9281 72.7189 77.3435 73.448C78.4258 75.3468 79.2777 77.3795 79.8757 79.4893C80.1046 80.2974 80.7616 80.9127 81.5834 81.0872L86.9328 82.2245L86.975 91.4069L81.6357 92.5932C80.8155 92.7752 80.1641 93.3963 79.943 94.2061C79.3638 96.3217 78.5304 98.3621 77.4654 100.271C77.0566 101.003 77.0868 101.903 77.5439 102.607L80.5204 107.191L74.0573 113.714L69.4462 110.779C68.7377 110.328 67.8381 110.306 67.1089 110.722C65.2102 111.804 63.1775 112.656 61.0676 113.254C60.2595 113.483 59.6447 114.14 59.4698 114.961L58.3325 120.311L49.15 120.352L47.9638 115.014C47.7818 114.194 47.161 113.542 46.3509 113.32C44.2356 112.741 42.1953 111.908 40.2864 110.843C39.5535 110.435 38.6545 110.464 37.9501 110.921L33.3655 113.898L26.8434 107.435L29.7781 102.824C30.2288 102.116 30.2508 101.216 29.8354 100.487C28.7531 98.5882 27.9012 96.5555 27.3033 94.4456C27.0743 93.6375 26.4173 93.0223 25.5955 92.8478L20.2461 91.7105L20.204 82.528L25.5433 81.3418C26.3634 81.1598 27.0148 80.5386 27.236 79.7289C27.8151 77.6132 28.6485 75.5729 29.7135 73.6644C30.1224 72.9315 30.0921 72.0321 29.6351 71.3277L26.6586 66.7435L33.1217 60.2214L37.7327 63.1562C38.4413 63.6068 39.3409 63.6289 40.07 63.2134C41.9688 62.1311 44.0014 61.2792 46.1113 60.6813C46.9194 60.4523 47.5342 59.7949 47.7092 58.9735L48.8465 53.6241L58.0289 53.5828L59.2152 58.9213C59.3972 59.7414 60.0179 60.3932 60.8281 60.6148C62.9437 61.1932 64.9836 62.027 66.8926 63.0916C67.6255 63.5004 68.5244 63.4705 69.2289 63.0135L73.8134 60.0366L80.3355 66.4997Z" fill="#104065"/>
<mask id="path-3-inside-1_2528_1195" fill="white">
<path d="M101.536 60.1851C98.8148 65.5581 100.972 72.1439 106.345 74.8654C111.718 77.5869 118.304 75.4296 121.026 70.0566C123.747 64.6835 121.59 58.0977 116.217 55.3762C110.844 52.6547 104.258 54.812 101.536 60.1851ZM118.589 68.8226C116.548 72.8524 111.609 74.4704 107.579 72.4293C103.549 70.3882 101.931 65.4488 103.972 61.419C106.014 57.3892 110.953 55.7712 114.983 57.8124C119.013 59.8535 120.631 64.7929 118.589 68.8226Z"/>
</mask>
<path d="M101.536 60.1851C98.8148 65.5581 100.972 72.1439 106.345 74.8654C111.718 77.5869 118.304 75.4296 121.026 70.0566C123.747 64.6835 121.59 58.0977 116.217 55.3762C110.844 52.6547 104.258 54.812 101.536 60.1851ZM118.589 68.8226C116.548 72.8524 111.609 74.4704 107.579 72.4293C103.549 70.3882 101.931 65.4488 103.972 61.419C106.014 57.3892 110.953 55.7712 114.983 57.8124C119.013 59.8535 120.631 64.7929 118.589 68.8226Z" fill="#104065"/>
<path d="M92.6154 55.6665C87.3984 65.9665 91.5267 78.5693 101.827 83.7864L110.864 65.9445C110.418 65.7185 110.231 65.1498 110.457 64.7036L92.6154 55.6665ZM101.827 83.7864C112.127 89.0034 124.729 84.875 129.946 74.5751L112.105 65.538C111.879 65.9842 111.31 66.1705 110.864 65.9445L101.827 83.7864ZM129.946 74.5751C135.163 64.2752 131.035 51.6723 120.735 46.4553L111.698 64.2971C112.144 64.5231 112.331 65.0919 112.105 65.538L129.946 74.5751ZM120.735 46.4553C110.435 41.2383 97.8324 45.3666 92.6154 55.6665L110.457 64.7036C110.683 64.2575 111.252 64.0712 111.698 64.2971L120.735 46.4553ZM109.668 64.3041C110.123 63.407 111.201 63.054 112.098 63.5084L103.061 81.3502C112.017 85.8868 122.974 82.2978 127.51 73.3412L109.668 64.3041ZM112.098 63.5084C112.995 63.9628 113.348 65.0404 112.893 65.9376L95.0516 56.9005C90.5149 65.8571 94.1039 76.8136 103.061 81.3502L112.098 63.5084ZM112.893 65.9376C112.439 66.8347 111.361 67.1877 110.464 66.7333L119.501 48.8915C110.545 44.3548 99.5882 47.9438 95.0516 56.9005L112.893 65.9376ZM110.464 66.7333C109.567 66.2789 109.214 65.2012 109.668 64.3041L127.51 73.3412C132.047 64.3845 128.458 53.4281 119.501 48.8915L110.464 66.7333Z" fill="#104065" mask="url(#path-3-inside-1_2528_1195)"/>
<mask id="path-5-inside-2_2528_1195" fill="white">
<path d="M116.478 43.3469L114.21 46.1351C113.238 45.985 112.253 45.9104 111.268 45.9118L109.448 42.8107C109.123 42.2568 108.456 42.0043 107.846 42.2041L100.492 44.6128C99.8824 44.8127 99.4937 45.4111 99.5593 46.0501L99.9273 49.6266C99.1319 50.2086 98.3823 50.8513 97.6874 51.5474L94.2093 50.6415C93.5878 50.4796 92.9374 50.7731 92.6472 51.346L89.151 58.2485C88.8608 58.8214 89.0091 59.5195 89.5073 59.9246L92.2954 62.1927C92.1454 63.1648 92.0707 64.1493 92.0721 65.1349L88.9711 66.9544C88.4171 67.2795 88.1647 67.9469 88.3645 68.557L90.7732 75.9103C90.973 76.5203 91.5715 76.909 92.2104 76.8434L95.787 76.4755C96.3689 77.2709 97.0116 78.0204 97.7078 78.7153L96.8019 82.1935C96.6403 82.815 96.9335 83.4653 97.5063 83.7555L104.409 87.2517C104.982 87.5419 105.68 87.3935 106.085 86.8954L108.353 84.1073C109.325 84.2574 110.31 84.332 111.295 84.3306L113.115 87.4317C113.44 87.9856 114.107 88.2381 114.717 88.0382L122.071 85.6295C122.681 85.4297 123.069 84.8313 123.004 84.1923L122.636 80.6157C123.431 80.0338 124.181 79.3911 124.876 78.695L128.354 79.6008C128.975 79.7628 129.626 79.4693 129.916 78.8964L133.412 71.9938C133.702 71.4209 133.554 70.7229 133.056 70.3177L130.268 68.0497C130.418 67.0775 130.492 66.093 130.491 65.1075L133.592 63.288C134.146 62.9628 134.399 62.2956 134.199 61.6854L131.79 54.3321C131.59 53.722 130.992 53.3334 130.353 53.3989L126.776 53.7669C126.194 52.9715 125.551 52.222 124.855 51.527L125.761 48.0489C125.923 47.4273 125.63 46.777 125.057 46.4869L118.154 42.9906C117.581 42.7005 116.884 42.8489 116.478 43.3469ZM122.841 48.4257L122.01 51.6148C121.883 52.1048 122.037 52.6251 122.41 52.9667C123.383 53.8559 124.248 54.8646 124.981 55.9647C125.262 56.386 125.753 56.6175 126.257 56.5655L129.537 56.228L131.261 61.4894L128.417 63.1584C127.98 63.4146 127.721 63.8916 127.744 64.3972C127.803 65.7184 127.702 67.0435 127.445 68.3358C127.346 68.832 127.529 69.3425 127.922 69.6621L130.479 71.7417L127.977 76.6806L124.788 75.85C124.298 75.7226 123.778 75.8764 123.436 76.2497C122.547 77.2222 121.538 78.0873 120.438 78.821C120.017 79.1019 119.786 79.5929 119.837 80.0966L120.175 83.3768L114.913 85.1001L113.244 82.2563C112.988 81.8193 112.511 81.5602 112.005 81.583C110.684 81.6424 109.359 81.5418 108.067 81.2842C107.571 81.1853 107.06 81.3688 106.741 81.7614L104.661 84.3182L99.7221 81.8167L100.553 78.6275C100.68 78.1375 100.526 77.6172 100.153 77.2757C99.1805 76.3865 98.3154 75.3777 97.5818 74.2777C97.3008 73.8563 96.8099 73.6249 96.3061 73.6768L93.0259 74.0144L91.3022 68.7529L94.1464 67.084C94.5834 66.8278 94.8422 66.3508 94.8193 65.8452C94.76 64.5239 94.8606 63.1989 95.1185 61.9066C95.2174 61.4104 95.0336 60.8999 94.641 60.5802L92.0845 58.5006L94.5861 53.5618L97.7752 54.3924C98.2652 54.5198 98.7855 54.366 99.127 53.9926C100.016 53.0201 101.025 52.155 102.125 51.4214C102.546 51.1404 102.778 50.6494 102.726 50.1457L102.388 46.8655L107.65 45.1423L109.319 47.9861C109.575 48.423 110.052 48.6821 110.558 48.6594C111.879 48.5996 113.204 48.7005 114.496 48.9581C114.992 49.0571 115.503 48.8736 115.822 48.4809L117.902 45.9241L122.841 48.4257Z"/>
</mask>
<path d="M116.478 43.3469L114.21 46.1351C113.238 45.985 112.253 45.9104 111.268 45.9118L109.448 42.8107C109.123 42.2568 108.456 42.0043 107.846 42.2041L100.492 44.6128C99.8824 44.8127 99.4937 45.4111 99.5593 46.0501L99.9273 49.6266C99.1319 50.2086 98.3823 50.8513 97.6874 51.5474L94.2093 50.6415C93.5878 50.4796 92.9374 50.7731 92.6472 51.346L89.151 58.2485C88.8608 58.8214 89.0091 59.5195 89.5073 59.9246L92.2954 62.1927C92.1454 63.1648 92.0707 64.1493 92.0721 65.1349L88.9711 66.9544C88.4171 67.2795 88.1647 67.9469 88.3645 68.557L90.7732 75.9103C90.973 76.5203 91.5715 76.909 92.2104 76.8434L95.787 76.4755C96.3689 77.2709 97.0116 78.0204 97.7078 78.7153L96.8019 82.1935C96.6403 82.815 96.9335 83.4653 97.5063 83.7555L104.409 87.2517C104.982 87.5419 105.68 87.3935 106.085 86.8954L108.353 84.1073C109.325 84.2574 110.31 84.332 111.295 84.3306L113.115 87.4317C113.44 87.9856 114.107 88.2381 114.717 88.0382L122.071 85.6295C122.681 85.4297 123.069 84.8313 123.004 84.1923L122.636 80.6157C123.431 80.0338 124.181 79.3911 124.876 78.695L128.354 79.6008C128.975 79.7628 129.626 79.4693 129.916 78.8964L133.412 71.9938C133.702 71.4209 133.554 70.7229 133.056 70.3177L130.268 68.0497C130.418 67.0775 130.492 66.093 130.491 65.1075L133.592 63.288C134.146 62.9628 134.399 62.2956 134.199 61.6854L131.79 54.3321C131.59 53.722 130.992 53.3334 130.353 53.3989L126.776 53.7669C126.194 52.9715 125.551 52.222 124.855 51.527L125.761 48.0489C125.923 47.4273 125.63 46.777 125.057 46.4869L118.154 42.9906C117.581 42.7005 116.884 42.8489 116.478 43.3469ZM122.841 48.4257L122.01 51.6148C121.883 52.1048 122.037 52.6251 122.41 52.9667C123.383 53.8559 124.248 54.8646 124.981 55.9647C125.262 56.386 125.753 56.6175 126.257 56.5655L129.537 56.228L131.261 61.4894L128.417 63.1584C127.98 63.4146 127.721 63.8916 127.744 64.3972C127.803 65.7184 127.702 67.0435 127.445 68.3358C127.346 68.832 127.529 69.3425 127.922 69.6621L130.479 71.7417L127.977 76.6806L124.788 75.85C124.298 75.7226 123.778 75.8764 123.436 76.2497C122.547 77.2222 121.538 78.0873 120.438 78.821C120.017 79.1019 119.786 79.5929 119.837 80.0966L120.175 83.3768L114.913 85.1001L113.244 82.2563C112.988 81.8193 112.511 81.5602 112.005 81.583C110.684 81.6424 109.359 81.5418 108.067 81.2842C107.571 81.1853 107.06 81.3688 106.741 81.7614L104.661 84.3182L99.7221 81.8167L100.553 78.6275C100.68 78.1375 100.526 77.6172 100.153 77.2757C99.1805 76.3865 98.3154 75.3777 97.5818 74.2777C97.3008 73.8563 96.8099 73.6249 96.3061 73.6768L93.0259 74.0144L91.3022 68.7529L94.1464 67.084C94.5834 66.8278 94.8422 66.3508 94.8193 65.8452C94.76 64.5239 94.8606 63.1989 95.1185 61.9066C95.2174 61.4104 95.0336 60.8999 94.641 60.5802L92.0845 58.5006L94.5861 53.5618L97.7752 54.3924C98.2652 54.5198 98.7855 54.366 99.127 53.9926C100.016 53.0201 101.025 52.155 102.125 51.4214C102.546 51.1404 102.778 50.6494 102.726 50.1457L102.388 46.8655L107.65 45.1423L109.319 47.9861C109.575 48.423 110.052 48.6821 110.558 48.6594C111.879 48.5996 113.204 48.7005 114.496 48.9581C114.992 49.0571 115.503 48.8736 115.822 48.4809L117.902 45.9241L122.841 48.4257Z" fill="#104065"/>
<path d="M114.21 46.1351L112.685 56.018L118.35 56.8925L121.967 52.4455L114.21 46.1351ZM111.268 45.9118L102.643 50.9723L105.546 55.9201L111.282 55.9118L111.268 45.9118ZM109.448 42.8107L118.073 37.7502L118.072 37.7484L109.448 42.8107ZM107.846 42.2041L104.733 32.701L104.733 32.701L107.846 42.2041ZM100.492 44.6128L97.3795 35.1097L97.3795 35.1097L100.492 44.6128ZM99.5593 46.0501L89.6116 47.0713L89.6118 47.0734L99.5593 46.0501ZM99.9273 49.6266L105.832 57.6971L110.462 54.3097L109.875 48.6033L99.9273 49.6266ZM97.6874 51.5474L95.167 61.2246L100.714 62.6694L104.765 58.6124L97.6874 51.5474ZM94.2093 50.6415L91.6874 60.3183L91.6889 60.3187L94.2093 50.6415ZM89.5073 59.9246L95.8178 52.1672L95.8165 52.1662L89.5073 59.9246ZM92.2954 62.1927L102.178 63.7182L103.053 58.0527L98.6059 54.4352L92.2954 62.1927ZM92.0721 65.1349L97.1326 73.7599L102.08 70.8569L102.072 65.1204L92.0721 65.1349ZM88.9711 66.9544L83.9106 58.3293L83.9087 58.3304L88.9711 66.9544ZM88.3645 68.557L78.8614 71.6699L78.8614 71.6699L88.3645 68.557ZM90.7732 75.9103L81.2701 79.0232L81.2701 79.0232L90.7732 75.9103ZM92.2104 76.8434L93.2316 86.7911L93.2338 86.7909L92.2104 76.8434ZM95.787 76.4755L103.857 70.5706L100.47 65.9409L94.7637 66.528L95.787 76.4755ZM97.7078 78.7153L107.385 81.2357L108.83 75.6882L104.773 71.6382L97.7078 78.7153ZM96.8019 82.1935L87.1247 79.6731L87.1238 79.6767L96.8019 82.1935ZM106.085 86.8954L113.84 93.2088L113.842 93.2059L106.085 86.8954ZM108.353 84.1073L109.879 74.2243L104.213 73.3499L100.596 77.7968L108.353 84.1073ZM111.295 84.3306L119.92 79.2701L117.017 74.3223L111.281 74.3306L111.295 84.3306ZM113.115 87.4317L104.49 92.4922L104.491 92.494L113.115 87.4317ZM114.717 88.0382L117.83 97.5414L117.83 97.5414L114.717 88.0382ZM122.071 85.6295L125.184 95.1326L125.184 95.1326L122.071 85.6295ZM123.004 84.1923L132.951 83.1711L132.951 83.169L123.004 84.1923ZM122.636 80.6157L116.731 72.5453L112.101 75.9326L112.688 81.6391L122.636 80.6157ZM124.876 78.695L127.396 69.0178L121.849 67.573L117.799 71.63L124.876 78.695ZM128.354 79.6008L130.876 69.924L130.874 69.9236L128.354 79.6008ZM133.056 70.3177L126.745 78.0752L126.747 78.0762L133.056 70.3177ZM130.268 68.0497L120.385 66.5242L119.51 72.1896L123.957 75.8071L130.268 68.0497ZM130.491 65.1075L125.43 56.4824L120.483 59.3854L120.491 65.122L130.491 65.1075ZM133.592 63.288L138.653 71.913L138.654 71.912L133.592 63.288ZM134.199 61.6854L124.695 64.7983L124.697 64.802L134.199 61.6854ZM131.79 54.3321L141.293 51.2191L131.79 54.3321ZM130.353 53.3989L129.331 43.4512L129.329 43.4514L130.353 53.3989ZM126.776 53.7669L118.706 59.6717L122.093 64.3014L127.799 63.7144L126.776 53.7669ZM124.855 51.527L115.178 49.0067L113.733 54.5541L117.79 58.6041L124.855 51.527ZM125.761 48.0489L135.438 50.5692L135.439 50.5657L125.761 48.0489ZM122.841 48.4257L132.518 50.9461L134.549 43.1466L127.36 39.5048L122.841 48.4257ZM122.01 51.6148L112.333 49.0944L112.332 49.0979L122.01 51.6148ZM122.41 52.9667L115.661 60.3453L115.662 60.3465L122.41 52.9667ZM124.981 55.9647L133.301 50.4169L133.301 50.4163L124.981 55.9647ZM126.257 56.5655L125.233 46.618L125.231 46.6182L126.257 56.5655ZM129.537 56.228L139.04 53.1146L136.531 45.4556L128.514 46.2805L129.537 56.228ZM131.261 61.4894L136.322 70.1143L143.273 66.0353L140.764 58.376L131.261 61.4894ZM128.417 63.1584L133.475 71.7846L133.477 71.7832L128.417 63.1584ZM127.744 64.3972L137.734 63.9492L137.734 63.9439L127.744 64.3972ZM127.445 68.3358L117.638 66.3787L117.638 66.3805L127.445 68.3358ZM127.922 69.6621L121.609 77.4173L121.612 77.4196L127.922 69.6621ZM130.479 71.7417L139.4 76.2603L143.041 69.0703L136.789 63.9843L130.479 71.7417ZM127.977 76.6806L125.457 86.3578L133.256 88.3891L136.898 81.1991L127.977 76.6806ZM124.788 75.85L127.308 66.1728L127.305 66.1719L124.788 75.85ZM123.436 76.2497L116.057 69.5003L116.056 69.5016L123.436 76.2497ZM120.438 78.821L125.986 87.1409L125.986 87.1405L120.438 78.821ZM119.837 80.0966L109.889 81.1165L109.89 81.1202L119.837 80.0966ZM120.175 83.3768L123.287 92.8801L130.947 90.3713L130.122 82.3533L120.175 83.3768ZM114.913 85.1001L106.288 90.1612L110.367 97.1117L118.026 94.6034L114.913 85.1001ZM113.244 82.2563L104.618 87.3148L104.62 87.3174L113.244 82.2563ZM112.005 81.583L112.455 91.5729L112.455 91.5729L112.005 81.583ZM108.067 81.2842L106.112 91.0912L106.112 91.0914L108.067 81.2842ZM106.741 81.7614L98.9855 75.4482L98.9832 75.4512L106.741 81.7614ZM104.661 84.3182L100.142 93.2392L107.333 96.8811L112.419 90.6285L104.661 84.3182ZM99.7221 81.8167L90.045 79.2963L88.0136 87.0958L95.2036 90.7376L99.7221 81.8167ZM100.553 78.6275L110.23 81.1479L110.231 81.1445L100.553 78.6275ZM100.153 77.2757L106.902 69.8971L106.901 69.8958L100.153 77.2757ZM97.5818 74.2777L89.2618 79.8255L89.2622 79.8261L97.5818 74.2777ZM96.3061 73.6768L97.3296 83.6243L97.3317 83.6241L96.3061 73.6768ZM93.0259 74.0144L83.5229 77.1277L86.0322 84.7868L94.0494 83.9618L93.0259 74.0144ZM91.3022 68.7529L86.2413 60.1281L79.2898 64.207L81.7992 71.8663L91.3022 68.7529ZM94.1464 67.084L89.0879 58.4578L89.0856 58.4591L94.1464 67.084ZM94.8193 65.8452L84.8293 66.2931L84.8295 66.2985L94.8193 65.8452ZM95.1185 61.9066L104.925 63.8636L104.925 63.8618L95.1185 61.9066ZM94.641 60.5802L100.954 52.825L100.951 52.8228L94.641 60.5802ZM92.0845 58.5006L83.1636 53.9821L79.5218 61.1721L85.774 66.2581L92.0845 58.5006ZM94.5861 53.5618L97.1064 43.8846L89.3069 41.8532L85.6651 49.0432L94.5861 53.5618ZM97.7752 54.3924L95.2548 64.0695L95.2582 64.0704L97.7752 54.3924ZM99.127 53.9926L106.506 60.7421L106.507 60.7407L99.127 53.9926ZM102.125 51.4214L96.5772 43.1014L96.5767 43.1018L102.125 51.4214ZM102.726 50.1457L112.674 49.1258L112.673 49.1222L102.726 50.1457ZM102.388 46.8655L99.2758 37.3623L91.6159 39.8711L92.4409 47.8891L102.388 46.8655ZM107.65 45.1423L116.275 40.0812L112.196 33.1306L104.537 35.639L107.65 45.1423ZM109.319 47.9861L117.945 42.9276L117.943 42.925L109.319 47.9861ZM110.558 48.6594L111.008 58.6492L111.009 58.6492L110.558 48.6594ZM114.496 48.9581L116.451 39.1511L116.451 39.151L114.496 48.9581ZM115.822 48.4809L123.578 54.7941L123.58 54.7912L115.822 48.4809ZM117.902 45.9241L122.421 37.0032L115.23 33.3613L110.144 39.6138L117.902 45.9241ZM108.721 37.0364L106.453 39.8246L121.967 52.4455L124.236 49.6574L108.721 37.0364ZM115.736 36.2521C114.252 36.0231 112.753 35.9096 111.253 35.9118L111.282 55.9118C111.754 55.9111 112.224 55.9469 112.685 56.018L115.736 36.2521ZM119.893 40.8513L118.073 37.7502L100.823 47.8712L102.643 50.9723L119.893 40.8513ZM118.072 37.7484C115.367 33.1389 109.814 31.0367 104.733 32.701L110.959 51.7073C107.098 52.9719 102.88 51.3746 100.824 47.873L118.072 37.7484ZM104.733 32.701L97.3795 35.1097L103.605 54.116L110.959 51.7073L104.733 32.701ZM97.3795 35.1097C92.2987 36.774 89.0658 41.7543 89.6116 47.0713L109.507 45.0288C109.922 49.0679 107.466 52.8513 103.605 54.116L97.3795 35.1097ZM89.6118 47.0734L89.9797 50.65L109.875 48.6033L109.507 45.0267L89.6118 47.0734ZM94.0224 41.5562C92.8122 42.4416 91.6706 43.4202 90.6102 44.4824L104.765 58.6124C105.094 58.2823 105.452 57.9756 105.832 57.6971L94.0224 41.5562ZM100.208 41.8702L96.7296 40.9644L91.6889 60.3187L95.167 61.2246L100.208 41.8702ZM96.7312 40.9648C91.5535 39.6154 86.1408 42.0606 83.7263 46.8274L101.568 55.8645C99.734 59.4856 95.6222 61.3438 91.6874 60.3183L96.7312 40.9648ZM83.7263 46.8274L80.2301 53.73L98.0719 62.7671L101.568 55.8645L83.7263 46.8274ZM80.2301 53.73C77.8156 58.4969 79.0468 64.3073 83.1981 67.6831L95.8165 52.1662C98.9713 54.7316 99.906 59.146 98.0719 62.7671L80.2301 53.73ZM83.1968 67.6821L85.9849 69.9501L98.6059 54.4352L95.8178 52.1672L83.1968 67.6821ZM82.4125 60.6672C82.1835 62.1505 82.07 63.6499 82.0722 65.1494L102.072 65.1204C102.071 64.6488 102.107 64.1792 102.178 63.7182L82.4125 60.6672ZM87.0116 56.5098L83.9106 58.3293L94.0316 75.5794L97.1326 73.7599L87.0116 56.5098ZM83.9087 58.3304C79.2993 61.0362 77.197 66.5892 78.8614 71.6699L97.8676 65.444C99.1323 69.3047 97.5349 73.5229 94.0334 75.5783L83.9087 58.3304ZM78.8614 71.6699L81.2701 79.0232L100.276 72.7973L97.8676 65.444L78.8614 71.6699ZM81.2701 79.0232C82.9344 84.104 87.9147 87.3369 93.2316 86.7911L91.1892 66.8957C95.2282 66.481 99.0117 68.9366 100.276 72.7973L81.2701 79.0232ZM93.2338 86.7909L96.8103 86.423L94.7637 66.528L91.1871 66.8959L93.2338 86.7909ZM87.7165 82.3803C88.602 83.5905 89.5806 84.7321 90.6428 85.7925L104.773 71.6382C104.443 71.3087 104.136 70.9512 103.857 70.5706L87.7165 82.3803ZM88.0306 76.195L87.1247 79.6731L106.479 84.7138L107.385 81.2357L88.0306 76.195ZM87.1238 79.6767C85.7792 84.8473 88.2173 90.2601 92.9878 92.6764L102.025 74.8346C105.65 76.6706 107.501 80.7828 106.48 84.7102L87.1238 79.6767ZM92.9878 92.6764L99.8904 96.1726L108.927 78.3308L102.025 74.8346L92.9878 92.6764ZM99.8904 96.1726C104.661 98.589 110.467 97.352 113.84 93.2088L98.3299 80.5821C100.892 77.435 105.303 76.4948 108.927 78.3308L99.8904 96.1726ZM113.842 93.2059L116.11 90.4178L100.596 77.7968L98.3275 80.585L113.842 93.2059ZM106.828 93.9903C108.311 94.2192 109.81 94.3327 111.31 94.3306L111.281 74.3306C110.809 74.3313 110.34 74.2955 109.879 74.2243L106.828 93.9903ZM102.67 89.3911L104.49 92.4922L121.74 82.3712L119.92 79.2701L102.67 89.3911ZM104.491 92.494C107.197 97.1034 112.75 99.2057 117.83 97.5414L111.604 78.5351C115.465 77.2705 119.683 78.8678 121.739 82.3693L104.491 92.494ZM117.83 97.5414L125.184 95.1326L118.958 76.1264L111.604 78.5351L117.83 97.5414ZM125.184 95.1326C130.264 93.4683 133.497 88.488 132.951 83.1711L113.056 85.2135C112.641 81.1745 115.097 77.391 118.958 76.1264L125.184 95.1326ZM132.951 83.169L132.583 79.5924L112.688 81.6391L113.056 85.2156L132.951 83.169ZM128.541 88.6862C129.751 87.8008 130.893 86.8221 131.953 85.76L117.799 71.63C117.469 71.9601 117.112 72.2668 116.731 72.5453L128.541 88.6862ZM122.355 88.3721L125.833 89.278L130.874 69.9236L127.396 69.0178L122.355 88.3721ZM125.832 89.2776C131.01 90.6269 136.422 88.1818 138.837 83.4149L120.995 74.3778C122.829 70.7567 126.941 68.8986 130.876 69.924L125.832 89.2776ZM138.837 83.4149L142.333 76.5123L124.491 67.4753L120.995 74.3778L138.837 83.4149ZM142.333 76.5123C144.747 71.7455 143.516 65.9351 139.365 62.5593L126.747 78.0762C123.592 75.5107 122.657 71.0964 124.491 67.4753L142.333 76.5123ZM139.366 62.5603L136.578 60.2922L123.957 75.8071L126.745 78.0752L139.366 62.5603ZM140.151 69.5751C140.38 68.0919 140.493 66.5925 140.491 65.093L120.491 65.122C120.492 65.5936 120.456 66.0632 120.385 66.5242L140.151 69.5751ZM135.551 73.7325L138.653 71.913L128.532 54.6629L125.43 56.4824L135.551 73.7325ZM138.654 71.912C143.26 69.2084 145.369 63.656 143.701 58.5688L124.697 64.802C123.428 60.9352 125.032 56.7173 128.53 54.664L138.654 71.912ZM143.702 58.5724L141.293 51.2191L122.287 57.445L124.695 64.7983L143.702 58.5724ZM141.293 51.2191C139.629 46.1384 134.648 42.9054 129.331 43.4512L131.374 63.3467C127.335 63.7613 123.551 61.3057 122.287 57.445L141.293 51.2191ZM129.329 43.4514L125.753 43.8194L127.799 63.7144L131.376 63.3465L129.329 43.4514ZM134.847 47.862C133.961 46.6518 132.982 45.5102 131.92 44.4499L117.79 58.6041C118.12 58.9337 118.427 59.2911 118.706 59.6717L134.847 47.862ZM134.533 54.0474L135.438 50.5692L116.084 45.5285L115.178 49.0067L134.533 54.0474ZM135.439 50.5657C136.784 45.395 134.346 39.9823 129.575 37.5659L120.538 55.4078C116.913 53.5718 115.062 49.4596 116.083 45.5321L135.439 50.5657ZM129.575 37.5659L122.673 34.0697L113.636 51.9115L120.538 55.4078L129.575 37.5659ZM122.673 34.0697C117.902 31.6534 112.096 32.8903 108.723 37.0336L124.233 49.6603C121.671 52.8074 117.26 53.7475 113.636 51.9115L122.673 34.0697ZM113.164 45.9053L112.333 49.0944L131.688 54.1352L132.518 50.9461L113.164 45.9053ZM112.332 49.0979C111.273 53.1708 112.55 57.5003 115.661 60.3453L129.16 45.588C131.523 47.75 132.493 51.0388 131.688 54.1318L112.332 49.0979ZM115.662 60.3465C116.036 60.6889 116.374 61.0822 116.662 61.5131L133.301 50.4163C132.121 48.6471 130.729 47.0229 129.158 45.5868L115.662 60.3465ZM116.661 61.5125C118.998 65.0164 123.084 66.9457 127.283 66.5128L125.231 46.6182C128.422 46.2892 131.527 47.7557 133.301 50.4169L116.661 61.5125ZM127.281 66.513L130.561 66.1755L128.514 46.2805L125.233 46.618L127.281 66.513ZM120.034 59.3414L121.758 64.6028L140.764 58.376L139.04 53.1146L120.034 59.3414ZM126.2 52.8645L123.356 54.5335L133.477 71.7832L136.322 70.1143L126.2 52.8645ZM123.358 54.5321C119.718 56.6665 117.563 60.6398 117.754 64.8505L137.734 63.9439C137.879 67.1434 136.241 70.1627 133.475 71.7846L123.358 54.5321ZM117.754 64.8451C117.777 65.3638 117.737 65.8813 117.638 66.3787L137.251 70.2928C137.668 68.2057 137.829 66.073 137.734 63.9492L117.754 64.8451ZM117.638 66.3805C116.813 70.5144 118.345 74.7605 121.609 77.4173L134.235 61.9069C136.714 63.9245 137.878 67.1496 137.252 70.291L117.638 66.3805ZM121.612 77.4196L124.168 79.4992L136.789 63.9843L134.233 61.9046L121.612 77.4196ZM121.558 67.2232L119.056 72.162L136.898 81.1991L139.4 76.2603L121.558 67.2232ZM130.497 67.0034L127.308 66.1728L122.268 85.5272L125.457 86.3578L130.497 67.0034ZM127.305 66.1719C123.232 65.1127 118.902 66.39 116.057 69.5003L130.815 82.9992C128.653 85.3628 125.364 86.3324 122.271 85.5281L127.305 66.1719ZM116.056 69.5016C115.714 69.876 115.321 70.214 114.89 70.5014L125.986 87.1405C127.756 85.9606 129.38 84.5685 130.816 82.9979L116.056 69.5016ZM114.89 70.501C111.382 72.8403 109.46 76.9272 109.889 81.1165L129.785 79.0768C130.111 82.2587 128.651 85.3635 125.986 87.1409L114.89 70.501ZM109.89 81.1202L110.227 84.4004L130.122 82.3533L129.785 79.0731L109.89 81.1202ZM117.062 73.8736L111.801 75.5968L118.026 94.6034L123.287 92.8801L117.062 73.8736ZM123.538 80.039L121.869 77.1952L104.62 87.3174L106.288 90.1612L123.538 80.039ZM121.871 77.1978C119.738 73.5616 115.768 71.4034 111.555 71.5931L112.455 91.5729C109.254 91.717 106.238 90.077 104.618 87.3148L121.871 77.1978ZM111.556 71.5931C111.039 71.6164 110.521 71.5766 110.022 71.4771L106.112 91.0914C108.198 91.507 110.33 91.6684 112.455 91.5729L111.556 71.5931ZM110.022 71.4772C105.892 70.6538 101.645 72.1815 98.9855 75.4482L114.496 88.0747C112.476 90.5561 109.249 91.7168 106.112 91.0912L110.022 71.4772ZM98.9832 75.4512L96.9034 78.008L112.419 90.6285L114.498 88.0717L98.9832 75.4512ZM109.18 75.3973L104.241 72.8957L95.2036 90.7376L100.142 93.2392L109.18 75.3973ZM109.399 84.3371L110.23 81.1479L90.8756 76.1071L90.045 79.2963L109.399 84.3371ZM110.231 81.1445C111.29 77.0715 110.013 72.7421 106.902 69.8971L93.4035 84.6543C91.04 82.4924 90.0703 79.2035 90.8747 76.1106L110.231 81.1445ZM106.901 69.8958C106.527 69.5535 106.189 69.1602 105.901 68.7293L89.2622 79.8261C90.4421 81.5953 91.8343 83.2195 93.4049 84.6556L106.901 69.8958ZM105.902 68.7298C103.565 65.226 99.479 63.2967 95.2805 63.7296L97.3317 83.6241C94.1409 83.9531 91.0363 82.4867 89.2618 79.8255L105.902 68.7298ZM95.2825 63.7294L92.0024 64.0669L94.0494 83.9618L97.3296 83.6243L95.2825 63.7294ZM102.529 70.901L100.805 65.6396L81.7992 71.8663L83.5229 77.1277L102.529 70.901ZM96.363 77.3778L99.2073 75.7089L89.0856 58.4591L86.2413 60.1281L96.363 77.3778ZM99.205 75.7102C102.845 73.5759 105 69.6025 104.809 65.3918L84.8295 66.2985C84.6844 63.099 86.3222 60.0797 89.0879 58.4578L99.205 75.7102ZM104.809 65.3972C104.786 64.8785 104.826 64.3611 104.925 63.8636L85.3119 59.9496C84.8954 62.0367 84.7341 64.1694 84.8293 66.2931L104.809 65.3972ZM104.925 63.8618C105.75 59.728 104.218 55.4819 100.954 52.825L88.3278 68.3355C85.8493 66.3179 84.6852 63.0927 85.3115 59.9514L104.925 63.8618ZM100.951 52.8228L98.3949 50.7432L85.774 66.2581L88.3305 68.3377L100.951 52.8228ZM101.005 63.0192L103.507 58.0803L85.6651 49.0432L83.1636 53.9821L101.005 63.0192ZM92.0657 63.2389L95.2548 64.0695L100.296 44.7152L97.1064 43.8846L92.0657 63.2389ZM95.2582 64.0704C99.3312 65.1297 103.661 63.8523 106.506 60.7421L91.7484 47.2431C93.9104 44.8796 97.1992 43.9099 100.292 44.7143L95.2582 64.0704ZM106.507 60.7407C106.849 60.3663 107.243 60.0283 107.673 59.741L96.5767 43.1018C94.8075 44.2817 93.1833 45.6739 91.7471 47.2445L106.507 60.7407ZM107.673 59.7413C111.181 57.402 113.103 53.3151 112.674 49.1258L92.778 51.1656C92.4518 47.9837 93.9117 44.8788 96.5772 43.1014L107.673 59.7413ZM112.673 49.1222L112.336 45.842L92.4409 47.8891L92.7784 51.1692L112.673 49.1222ZM105.501 56.3688L110.762 54.6455L104.537 35.639L99.2758 37.3623L105.501 56.3688ZM99.0252 50.2033L100.694 53.0472L117.943 42.925L116.275 40.0812L99.0252 50.2033ZM100.693 53.0446C102.825 56.6808 106.795 58.839 111.008 58.6492L110.108 38.6695C113.309 38.5253 116.325 40.1653 117.945 42.9276L100.693 53.0446ZM111.009 58.6492C111.524 58.6259 112.041 58.6654 112.542 58.7653L116.451 39.151C114.367 38.7357 112.234 38.5734 110.106 38.6696L111.009 58.6492ZM112.541 58.7651C116.671 59.5885 120.918 58.0608 123.578 54.7941L108.067 42.1677C110.087 39.6863 113.314 38.5256 116.451 39.1511L112.541 58.7651ZM123.58 54.7912L125.66 52.2344L110.144 39.6138L108.065 42.1706L123.58 54.7912ZM113.384 54.845L118.322 57.3466L127.36 39.5048L122.421 37.0032L113.384 54.845Z" fill="#104065" mask="url(#path-5-inside-2_2528_1195)"/>
</svg>
