<svg width="50" height="50" viewBox="0 0 50 50" fill="none" xmlns="http://www.w3.org/2000/svg">
<path d="M39.7622 22.0221L38.9922 22.6057L39.0759 23.5683C39.1134 23.9995 39.1319 24.4072 39.1319 24.8333C39.1319 25.2603 39.1133 25.6397 39.0632 26.0237L38.9318 27.0309L39.7413 27.6446L43.606 30.5742C43.7465 30.6863 43.783 30.8702 43.6957 31.0276C43.695 31.0288 43.6944 31.0301 43.6937 31.0313L39.8049 37.7482L39.8013 37.7543L39.7978 37.7605C39.7166 37.9034 39.5469 37.9534 39.413 37.8951L39.4052 37.8917L39.3973 37.8884L34.9182 35.9926L34.0242 35.6142L33.2299 36.1723C32.5348 36.6607 31.8123 37.0857 31.0627 37.433L30.183 37.8407L30.0622 38.8028L29.458 43.6153L29.4568 43.6248C29.4373 43.7872 29.2874 43.9167 29.1319 43.9167H21.361C21.2055 43.9167 21.0556 43.7872 21.0361 43.6248L21.0349 43.6154L20.4307 38.8028L20.31 37.8407L19.4302 37.433C18.6806 37.0857 17.9581 36.6607 17.263 36.1723L16.4687 35.6142L15.5748 35.9926L11.0956 37.8884L11.0877 37.8917L11.0799 37.8951C10.946 37.9534 10.7763 37.9034 10.6951 37.7605L10.6916 37.7543L10.688 37.7482L6.79925 31.0313C6.79854 31.0301 6.79784 31.0288 6.79715 31.0276C6.70071 30.8536 6.76366 30.6668 6.86937 30.5875L6.86938 30.5875L6.87655 30.5821L10.7516 27.6446L11.5215 27.0609L11.4378 26.0984C11.4003 25.6672 11.3819 25.2595 11.3819 24.8333C11.3819 24.4061 11.4004 24.0006 11.4372 23.5959L11.5251 22.6293L10.7516 22.0429L6.88695 19.1133C6.7462 19.001 6.70982 18.8169 6.7975 18.6593L10.6892 11.9165L10.6892 11.9165L10.6951 11.9062C10.7763 11.7633 10.946 11.7133 11.0799 11.7715L11.0877 11.7749L11.0956 11.7783L15.5748 13.6741L16.4687 14.0525L17.263 13.4943C17.9581 13.0059 18.6806 12.581 19.4302 12.2336L20.31 11.8259L20.4307 10.8638L21.0349 6.05132L21.0349 6.05132L21.0361 6.04184C21.0543 5.89022 21.1946 5.75 21.3819 5.75H29.1527C29.3083 5.75 29.4582 5.87945 29.4777 6.04184L29.4776 6.04184L29.4788 6.05132L30.083 10.8638L30.2038 11.8259L31.0836 12.2336C31.8332 12.581 32.5557 13.0059 33.2507 13.4943L34.045 14.0525L34.939 13.6741L39.4181 11.7783L39.426 11.7749L39.4338 11.7715C39.5677 11.7133 39.7374 11.7633 39.8186 11.9062L39.8222 11.9123L39.8257 11.9185L43.7145 18.6354C43.7152 18.6366 43.7159 18.6378 43.7166 18.6391C43.813 18.8131 43.7501 18.9999 43.6444 19.0791L43.6372 19.0846L39.7622 22.0221Z" stroke="white" stroke-width="3.5"/>
<path d="M25.0832 30.5404C22.0288 30.5404 19.5415 28.053 19.5415 24.9987C19.5415 21.9444 22.0288 19.457 25.0832 19.457C28.1375 19.457 30.6248 21.9444 30.6248 24.9987C30.6248 28.053 28.1375 30.5404 25.0832 30.5404Z" stroke="white" stroke-width="3.5" stroke-linejoin="round"/>
</svg>
