<svg width="50" height="50" viewBox="0 0 50 50" fill="none" xmlns="http://www.w3.org/2000/svg">
<path d="M24.9791 4.16602C13.4791 4.16602 4.16663 13.4994 4.16663 24.9994C4.16663 36.4994 13.4791 45.8327 24.9791 45.8327C36.5 45.8327 45.8333 36.4994 45.8333 24.9994C45.8333 13.4994 36.5 4.16602 24.9791 4.16602ZM25 41.666C15.7916 41.666 8.33329 34.2077 8.33329 24.9994C8.33329 15.791 15.7916 8.33268 25 8.33268C34.2083 8.33268 41.6666 15.791 41.6666 24.9994C41.6666 34.2077 34.2083 41.666 25 41.666ZM26.0416 14.5827H22.9166V27.0827L33.8541 33.6452L35.4166 31.0827L26.0416 25.5202V14.5827Z" fill="white"/>
</svg>
