<svg xmlns="http://www.w3.org/2000/svg" width="133" height="24" viewBox="0 0 133 24" fill="none"><style>.a{fill:#FFD702;}.b{fill:white;}</style><path d="M16.6 0C13.4 0 10.8 2.4 10.8 5.4V8.6C12.1 8.8 14.7 9.2 16.6 9.2 18.5 9.2 21.1 8.8 22.5 8.6V5.4C22.5 2.4 19.9 0 16.6 0ZM22.5 11.9C21.1 12.2 18.5 12.6 16.6 12.6 14.7 12.6 12.1 12.2 10.8 11.9V18C10.8 21 13.4 23.5 16.6 23.5 19.9 23.5 22.5 21 22.5 18V11.9ZM10.8 18.3V15C12.1 15.2 14.7 15.7 16.6 15.7 18.5 15.7 21.1 15.2 22.5 15V18.3C21.1 18.6 18.5 19 16.6 19 14.7 19 12.1 18.6 10.8 18.3Z" class="a"/><path d="M25.4 6.3C24.9 6.8 24.9 7.7 25.4 8.2L28.2 10.9 28.2 11C28.2 11 28.2 11 28.2 11 28.2 11 28.3 11.1 28.3 11.1 28.4 11.2 28.6 11.4 28.7 11.6 29 12.1 29.2 12.5 29.2 12.7 29.2 13 29 13.4 28.7 13.8 28.6 14 28.4 14.2 28.3 14.3 28.3 14.4 28.2 14.4 28.2 14.5 28.2 14.5 28.2 14.5 28.2 14.5L28.2 14.5 25.4 17.2C24.9 17.8 24.9 18.6 25.4 19.2 26 19.7 26.8 19.7 27.4 19.2L30.1 16.4 30.1 16.4 32.8 13.7C33.4 13.2 33.4 12.3 32.8 11.8L30.1 9 27.4 6.3C26.8 5.7 26 5.7 25.4 6.3Z" class="b"/><path d="M7.8 6.3C8.4 6.8 8.4 7.7 7.8 8.2L5.1 10.9 5.1 11C5.1 11 5.1 11 5.1 11 5 11 5 11.1 4.9 11.1 4.8 11.2 4.7 11.4 4.6 11.6 4.2 12.1 4.1 12.5 4.1 12.7 4.1 13 4.2 13.4 4.6 13.8 4.7 14 4.8 14.2 4.9 14.3 5 14.4 5 14.4 5.1 14.5 5.1 14.5 5.1 14.5 5.1 14.5L5.1 14.5 7.8 17.2C8.4 17.8 8.4 18.6 7.8 19.2 7.3 19.7 6.4 19.7 5.9 19.2L3.1 16.4 3.1 16.4 0.4 13.7C-0.1 13.2-0.1 12.3 0.4 11.8L3.1 9 5.9 6.3C6.4 5.7 7.3 5.7 7.8 6.3Z" class="b"/><path d="M46.5 12.1C46.5 12.4 46.7 12.6 47.1 12.8 47.5 12.9 48 13.1 48.6 13.2 49.2 13.4 49.8 13.6 50.4 13.8 51 14.1 51.5 14.5 51.9 15.1 52.4 15.6 52.6 16.3 52.6 17.2 52.6 18.5 52.1 19.6 51.1 20.3 50.1 20.9 48.9 21.3 47.4 21.3 44.8 21.3 43 20.3 42.1 18.3L45.3 16.5C45.6 17.5 46.3 17.9 47.4 17.9 48.3 17.9 48.8 17.7 48.8 17.2 48.8 16.9 48.5 16.7 48.1 16.6 47.7 16.4 47.2 16.2 46.6 16.1 46 15.9 45.4 15.7 44.8 15.5 44.2 15.2 43.7 14.8 43.3 14.3 42.9 13.7 42.7 13 42.7 12.2 42.7 11 43.1 10 44 9.2 45 8.5 46.1 8.2 47.5 8.2 48.5 8.2 49.5 8.4 50.3 8.9 51.2 9.3 51.8 10 52.4 10.8L49.2 12.5C48.8 11.8 48.2 11.5 47.5 11.5 46.8 11.5 46.5 11.7 46.5 12.1Z" class="b"/><path d="M65.4 19.4C64.1 20.6 62.6 21.3 60.8 21.3 58.9 21.3 57.4 20.6 56.1 19.4 54.8 18.1 54.2 16.6 54.2 14.7 54.2 12.9 54.8 11.3 56.1 10.1 57.4 8.8 58.9 8.2 60.8 8.2 62.6 8.2 64.1 8.8 65.4 10.1 66.7 11.3 67.3 12.9 67.3 14.7 67.3 16.6 66.7 18.1 65.4 19.4ZM58.7 16.8C59.3 17.4 60 17.7 60.8 17.7 61.6 17.7 62.2 17.4 62.8 16.8 63.3 16.3 63.6 15.6 63.6 14.7 63.6 13.9 63.3 13.2 62.8 12.6 62.2 12.1 61.6 11.8 60.8 11.8 60 11.8 59.3 12.1 58.7 12.6 58.2 13.2 57.9 13.9 57.9 14.7 57.9 15.6 58.2 16.3 58.7 16.8Z" class="b"/><path d="M76.8 6.8C75.2 6.7 74.4 7.2 74.4 8.5H76.8V12.1H74.4V20.9H70.7V12.1H69.1V8.5H70.7C70.7 6.7 71.2 5.4 72.2 4.5 73.2 3.5 74.7 3.1 76.8 3.2V6.8Z" class="b"/><path d="M87.1 12.1H84.6V16.5C84.6 17 84.8 17.3 85.1 17.4 85.5 17.6 86.2 17.6 87.1 17.6V20.9C84.7 21.2 83.1 20.9 82.2 20.3 81.3 19.5 80.8 18.3 80.8 16.5V12.1H78.9V8.5H80.8V6.2L84.6 5.1V8.5H87.1V12.1Z" class="b"/><path d="M97.6 7.8C99.2 7.8 100.6 8.4 101.8 9.7 102.9 11 103.5 12.5 103.5 14.4 103.5 16.2 102.9 17.7 101.8 19 100.6 20.3 99.2 20.9 97.6 20.9 96 20.9 94.7 20.4 93.9 19.4V20.6H90.1V3.2H93.9V9.3C94.7 8.3 96 7.8 97.6 7.8ZM94.7 16.6C95.2 17.1 96 17.4 96.8 17.4 97.7 17.4 98.4 17.1 98.9 16.6 99.5 16 99.8 15.3 99.8 14.4 99.8 13.4 99.5 12.7 98.9 12.2 98.4 11.6 97.7 11.3 96.8 11.3 96 11.3 95.2 11.6 94.7 12.2 94.1 12.7 93.9 13.4 93.9 14.4 93.9 15.3 94.1 16 94.7 16.6Z" class="a"/><path d="M109.3 15.8C109.7 17 110.7 17.6 112.3 17.6 113.3 17.6 114.1 17.3 114.6 16.6L117.6 18.4C116.4 20.1 114.6 20.9 112.2 20.9 110.1 20.9 108.5 20.3 107.2 19 106 17.8 105.4 16.2 105.4 14.4 105.4 12.5 106 10.9 107.2 9.7 108.4 8.4 110 7.8 111.9 7.8 113.7 7.8 115.2 8.4 116.4 9.7 117.6 10.9 118.2 12.5 118.2 14.4 118.2 14.9 118.2 15.4 118.1 15.8H109.3ZM109.2 13.1H114.6C114.2 11.8 113.3 11.1 111.9 11.1 110.5 11.1 109.6 11.8 109.2 13.1Z" class="a"/><path d="M124 15.8C124.5 17 125.5 17.6 127 17.6 128 17.6 128.8 17.3 129.4 16.6L132.4 18.4C131.2 20.1 129.4 20.9 127 20.9 124.9 20.9 123.2 20.3 122 19 120.7 17.8 120.1 16.2 120.1 14.4 120.1 12.5 120.7 10.9 121.9 9.7 123.2 8.4 124.8 7.8 126.7 7.8 128.5 7.8 130 8.4 131.2 9.7 132.4 10.9 133 12.5 133 14.4 133 14.9 133 15.4 132.9 15.8H124ZM124 13.1H129.3C128.9 11.8 128.1 11.1 126.7 11.1 125.2 11.1 124.3 11.8 124 13.1Z" class="a"/></svg>
