<svg width="350" height="63" viewBox="0 0 350 63" fill="none" xmlns="http://www.w3.org/2000/svg">
<g clipPath="url(#clip0_2400_578)">
<path fillRule="evenodd" clipRule="evenodd" d="M66.9136 16.5967C66.5776 16.9331 66.311 17.3329 66.1291 17.7731C65.9472 18.2134 65.8535 18.6854 65.8535 19.1622C65.8535 19.6389 65.9472 20.111 66.1291 20.5513C66.311 20.9915 66.5776 21.3913 66.9136 21.7277L74.1448 28.9999L74.2171 29.0807C74.2894 29.1534 74.4019 29.2746 74.5385 29.4362C74.8976 29.8587 75.2329 30.3011 75.5428 30.7614C75.9301 31.1441 76.2376 31.6006 76.4476 32.1042C76.6575 32.6078 76.7657 33.1484 76.7657 33.6945C76.7657 34.2405 76.6575 34.7811 76.4476 35.2847C76.2376 35.7883 75.9301 36.2448 75.5428 36.6276C75.2332 37.0854 74.8978 37.5251 74.5385 37.9447L74.2171 38.3083L74.1448 38.381L66.9136 45.6532C66.237 46.3336 65.8569 47.2564 65.8569 48.2187C65.8569 49.1809 66.237 50.1037 66.9136 50.7841C67.5901 51.4645 68.5078 51.8468 69.4646 51.8468C70.4214 51.8468 71.339 51.4645 72.0156 50.7841L79.2468 43.5119L86.4781 36.2397C86.8141 35.9034 87.0806 35.5036 87.2626 35.0633C87.4445 34.6231 87.5381 34.151 87.5381 33.6743C87.5381 33.1975 87.4445 32.7255 87.2626 32.2852C87.0806 31.8449 86.8141 31.4452 86.4781 31.1088L79.2468 23.8366L72.0156 16.5644C71.679 16.2286 71.2798 15.963 70.8409 15.7829C70.402 15.6027 69.932 15.5115 69.4579 15.5145C68.9838 15.5175 68.515 15.6146 68.0784 15.8004C67.6418 15.9861 67.2459 16.2567 66.9136 16.5967Z" fill="#104065"/>
<path fillRule="evenodd" clipRule="evenodd" d="M20.5933 16.5967C20.9293 16.9331 21.1959 17.3329 21.3778 17.7731C21.5597 18.2134 21.6534 18.6854 21.6534 19.1622C21.6534 19.6389 21.5597 20.111 21.3778 20.5513C21.1959 20.9915 20.9293 21.3913 20.5933 21.7277L13.3621 28.9999L13.2898 29.0807C13.2175 29.1534 13.105 29.2746 12.9684 29.4362C12.6093 29.8587 12.274 30.3011 11.964 30.7614C11.5768 31.1441 11.2692 31.6006 11.0593 32.1042C10.8494 32.6078 10.7412 33.1484 10.7412 33.6945C10.7412 34.2405 10.8494 34.7811 11.0593 35.2847C11.2692 35.7883 11.5768 36.2448 11.964 36.6276C12.2737 37.0854 12.6091 37.5251 12.9684 37.9447L13.2898 38.3083L13.3621 38.381L20.5933 45.6532C21.2699 46.3336 21.65 47.2564 21.65 48.2187C21.65 49.1809 21.2699 50.1037 20.5933 50.7841C19.9167 51.4645 18.9991 51.8468 18.0423 51.8468C17.0855 51.8468 16.1679 51.4645 15.4913 50.7841L8.26004 43.5119L1.0288 36.2397C0.692825 35.9034 0.426223 35.5036 0.244309 35.0633C0.0623942 34.6231 -0.03125 34.151 -0.03125 33.6743C-0.03125 33.1975 0.0623942 32.7255 0.244309 32.2852C0.426223 31.8449 0.692825 31.4452 1.0288 31.1088L8.26004 23.8366L15.4913 16.5644C15.8279 16.2286 16.2271 15.963 16.666 15.7829C17.1049 15.6027 17.5749 15.5115 18.049 15.5145C18.5231 15.5175 18.9919 15.6146 19.4285 15.8004C19.8651 15.9861 20.261 16.2567 20.5933 16.5967Z" fill="#104065"/>
<path d="M28.3145 22.6407V31.529C31.8738 32.1835 38.7033 33.2986 43.7572 33.2986C48.811 33.2986 55.6325 32.1835 59.1918 31.529V22.6407C55.6325 23.2952 48.803 24.4022 43.7572 24.4022C38.7114 24.4022 31.8738 23.2952 28.3145 22.6407Z" fill="#104065"/>
<path d="M43.7491 0C35.2243 0 28.3145 6.46418 28.3145 14.4232V22.6408C31.8738 23.2953 38.7033 24.4023 43.7572 24.4023C48.811 24.4023 55.6325 23.2953 59.1918 22.6408V14.4232C59.1918 6.4561 52.282 0 43.7491 0Z" fill="#FAD202"/>
<path d="M28.3145 39.6738V48.5621C31.8899 49.2085 38.6873 50.3155 43.717 50.3155C48.7467 50.3155 55.5361 49.2166 59.1115 48.5621V39.6738C55.5521 40.3202 48.7226 41.4353 43.6768 41.4353C38.631 41.4353 31.8658 40.3202 28.3145 39.6738Z" fill="#104065"/>
<path d="M43.758 50.3075C38.7283 50.3075 31.9309 49.2005 28.3555 48.5541C28.8376 56.1172 35.5305 62.1208 43.75 62.1208C51.9695 62.1208 58.6704 56.1172 59.1525 48.5541C55.5771 49.2086 48.7797 50.3075 43.758 50.3075Z" fill="#FAD202"/>
<path d="M43.7572 33.2824C38.7033 33.2824 31.8738 32.1673 28.3145 31.5128V39.6738C31.8658 40.3203 38.7033 41.4353 43.7572 41.4353C48.811 41.4353 55.6325 40.3203 59.1918 39.6738V31.5128C55.6325 32.1673 48.803 33.2824 43.7572 33.2824Z" fill="#FAD202"/>
<path d="M122.313 32.1432C122.313 32.7977 122.859 33.3471 123.92 33.7592C124.98 34.1713 126.402 34.5672 127.937 35.0116C129.541 35.4133 131.112 35.9373 132.637 36.5792C134.245 37.2758 135.624 38.416 136.614 39.8678C137.797 41.5075 138.394 43.5004 138.31 45.524C138.31 49.0685 137.005 51.7619 134.397 53.6042C131.531 55.4694 128.167 56.4083 124.755 56.2949C117.877 56.2949 113.201 53.6904 110.727 48.4814L119.211 43.6332C120.079 46.2189 121.927 47.5117 124.755 47.5117C127.101 47.5117 128.274 46.833 128.274 45.4755C128.274 44.821 127.712 44.2716 126.579 43.8595C125.283 43.3537 123.954 42.938 122.602 42.6151C121.004 42.174 119.434 41.6343 117.902 40.9991C116.317 40.2734 114.936 39.1627 113.884 37.767C112.773 36.225 112.207 34.3532 112.277 32.4502C112.204 30.9278 112.498 29.4101 113.134 28.0268C113.771 26.6436 114.731 25.436 115.933 24.5073C118.582 22.5729 121.796 21.5807 125.069 21.6873C127.642 21.6571 130.181 22.2885 132.444 23.5216C134.675 24.7138 136.529 26.5109 137.795 28.7091L129.439 33.234C128.368 31.3109 126.911 30.3493 125.069 30.3493C123.229 30.3089 122.313 30.923 122.313 32.1432Z" fill="#104065"/>
<path d="M172.167 51.3095C169.748 53.7587 166.66 55.4287 163.294 56.1068C159.929 56.785 156.439 56.4405 153.269 55.1173C150.099 53.7941 147.392 51.552 145.494 48.6766C143.595 45.8012 142.59 42.4226 142.607 38.971C142.56 36.6878 142.981 34.4194 143.846 32.3075C144.71 30.1956 145.997 28.2857 147.629 26.6971C150.902 23.4609 155.308 21.6473 159.898 21.6473C164.488 21.6473 168.894 23.4609 172.167 26.6971C173.8 28.2845 175.089 30.1942 175.953 32.3064C176.817 34.4186 177.238 36.6875 177.188 38.971C177.234 41.2635 176.812 43.5411 175.948 45.6632C175.085 47.7853 173.798 49.7069 172.167 51.3095ZM154.547 44.5463C155.986 45.935 157.903 46.7104 159.898 46.7104C161.892 46.7104 163.81 45.935 165.249 44.5463C166.634 43.0238 167.403 41.0348 167.403 38.971C167.403 36.9071 166.634 34.9181 165.249 33.3956C163.813 32.0014 161.894 31.2222 159.898 31.2222C157.901 31.2222 155.983 32.0014 154.547 33.3956C153.161 34.9181 152.393 36.9071 152.393 38.971C152.393 41.0348 153.161 43.0238 154.547 44.5463Z" fill="#104065"/>
<path d="M201.975 17.9704C197.937 17.6202 195.914 19.1501 195.909 22.5599H201.975V32.0138H195.893V55.3737H186.123V32.0138H181.752V22.5599H186.123C186.123 17.8411 187.462 14.2561 190.14 11.8051C192.818 9.35415 196.777 8.25794 202.015 8.5165L201.975 17.9704Z" fill="#104065"/>
<path d="M229.239 32.0139H222.514V43.6251C222.447 44.1593 222.567 44.7001 222.853 45.1554C223.139 45.6107 223.572 45.9523 224.08 46.122C225.769 46.5227 227.513 46.6347 229.239 46.4532V55.3415C223.02 55.9933 218.713 55.4034 216.319 53.5719C213.924 51.7404 212.741 48.4248 212.767 43.6251V32.0139H207.545V22.56H212.767V16.3302L222.554 13.3728V22.56H229.279L229.239 32.0139Z" fill="#104065"/>
<path d="M256.749 20.6773C258.842 20.6604 260.914 21.1035 262.82 21.9759C264.725 22.8482 266.418 24.1285 267.78 25.7275C270.829 29.0674 272.466 33.4692 272.344 38.0013C272.459 42.5516 270.824 46.9711 267.78 50.3398C266.406 51.9179 264.708 53.1784 262.804 54.0347C260.9 54.8911 258.834 55.3231 256.749 55.3011C252.57 55.3011 249.33 53.9678 247.027 51.3014V54.3799H237.24V8.43579H247.027V24.677C249.335 22.0106 252.576 20.6773 256.749 20.6773ZM249.18 43.8433C249.926 44.5633 250.808 45.1258 251.774 45.4977C252.74 45.8696 253.77 46.0434 254.804 46.0088C255.826 46.0449 256.844 45.8716 257.797 45.4993C258.751 45.127 259.618 44.5636 260.348 43.8433C261.776 42.2363 262.566 40.1566 262.566 38.0013C262.566 35.8461 261.776 33.7663 260.348 32.1593C259.619 31.4375 258.752 30.8731 257.799 30.5007C256.845 30.1283 255.826 29.9558 254.804 29.9938C253.77 29.9574 252.74 30.1304 251.773 30.5024C250.807 30.8744 249.925 31.4379 249.18 32.1593C247.79 33.7849 247.026 35.8576 247.026 38.0013C247.026 40.1451 247.79 42.2178 249.18 43.8433Z" fill="#FAD21E"/>
<path d="M287.618 41.9363C288.748 45.0014 291.359 46.534 295.452 46.534C296.612 46.5952 297.772 46.4039 298.852 45.973C299.933 45.5421 300.908 44.8818 301.711 44.0372L309.545 48.5621C306.331 53.0709 301.588 55.3253 295.315 55.3253C289.836 55.3253 285.443 53.685 282.138 50.4044C279.007 47.0588 277.258 42.6408 277.246 38.0464C277.234 33.4519 278.96 29.0248 282.074 25.6628C285.336 22.3445 289.511 20.6826 294.6 20.6772C296.808 20.6205 299.002 21.0355 301.038 21.895C303.074 22.7544 304.905 24.0386 306.411 25.6628C307.987 27.2934 309.221 29.226 310.039 31.3455C310.858 33.4651 311.244 35.7285 311.176 38.0012C311.185 39.3233 311.053 40.6426 310.782 41.9363H287.618ZM287.425 34.5914H301.454C300.5 31.16 298.194 29.4443 294.536 29.4443C290.754 29.4443 288.384 31.16 287.425 34.5914Z" fill="#FAD21E"/>
<path d="M326.45 41.9363C327.58 45.0014 330.191 46.534 334.284 46.534C335.444 46.5952 336.604 46.4039 337.685 45.973C338.765 45.5421 339.74 44.8818 340.543 44.0372L348.377 48.5621C345.163 53.0709 340.42 55.3253 334.147 55.3253C328.668 55.3253 324.275 53.685 320.97 50.4044C317.839 47.0588 316.09 42.6408 316.078 38.0464C316.066 33.4519 317.792 29.0248 320.906 25.6628C324.168 22.3445 328.344 20.6826 333.432 20.6772C335.64 20.6205 337.834 21.0355 339.87 21.895C341.906 22.7544 343.737 24.0386 345.243 25.6628C346.819 27.2934 348.053 29.226 348.871 31.3455C349.69 33.4651 350.076 35.7285 350.008 38.0012C350.017 39.3233 349.885 40.6426 349.614 41.9363H326.45ZM326.257 34.5914H340.286C339.327 31.16 337.021 29.4443 333.368 29.4443C329.565 29.4443 327.195 31.16 326.257 34.5914Z" fill="currentColor"/>
</g>
<defs>
<clipPath id="clip0_2400_578">
<rect width="350" height="62.1127" fill="white"/>
</clipPath>
</defs>
</svg>
