<svg width="694" height="446" viewBox="0 0 694 446" fill="none" xmlns="http://www.w3.org/2000/svg">
<path d="M600.758 114.27H123.989V419.614H600.758V114.27Z" fill="#E6E6E6"/>
<path d="M338.268 155.273H166.148V332.136H338.268V155.273ZM574.763 158.703H402.644V373.514H574.763V158.703Z" fill="white"/>
<path d="M572.469 441.815C589.498 441.815 603.302 439.843 603.302 437.41C603.302 434.978 589.498 433.006 572.469 433.006C555.441 433.006 541.637 434.978 541.637 437.41C541.637 439.843 555.441 441.815 572.469 441.815ZM264.21 441.914C281.239 441.914 295.043 439.942 295.043 437.509C295.043 435.076 281.239 433.104 264.21 433.104C247.182 433.104 233.378 435.076 233.378 437.509C233.378 439.942 247.182 441.914 264.21 441.914ZM70.762 436.493C109.843 436.493 141.525 434.976 141.525 433.104C141.525 431.233 109.843 429.716 70.762 429.716C31.682 429.716 0 431.233 0 433.104C0 434.976 31.681 436.493 70.762 436.493Z" fill="#E6E6E6"/>
<path d="M600.554 114H123.785V134.255H600.554V114Z" fill="#44C4EB"/>
<path d="M138.837 128.109C139.335 128.117 139.83 128.026 140.292 127.841C140.755 127.656 141.176 127.381 141.531 127.032C141.886 126.682 142.168 126.266 142.36 125.806C142.553 125.347 142.652 124.854 142.652 124.356C142.652 123.857 142.553 123.364 142.36 122.905C142.168 122.445 141.886 122.029 141.531 121.679C141.176 121.33 140.755 121.055 140.292 120.87C139.83 120.685 139.335 120.594 138.837 120.602C137.852 120.618 136.913 121.021 136.222 121.723C135.531 122.425 135.144 123.37 135.144 124.356C135.144 125.341 135.531 126.286 136.222 126.988C136.913 127.69 137.852 128.093 138.837 128.109ZM153.087 128.109C153.585 128.117 154.08 128.026 154.542 127.841C155.005 127.656 155.426 127.381 155.781 127.032C156.136 126.682 156.418 126.266 156.61 125.806C156.803 125.347 156.902 124.854 156.902 124.356C156.902 123.857 156.803 123.364 156.61 122.905C156.418 122.445 156.136 122.029 155.781 121.679C155.426 121.33 155.005 121.055 154.542 120.87C154.08 120.685 153.585 120.594 153.087 120.602C152.102 120.618 151.163 121.021 150.472 121.723C149.781 122.425 149.394 123.37 149.394 124.356C149.394 125.341 149.781 126.286 150.472 126.988C151.163 127.69 152.102 128.093 153.087 128.109ZM167.336 128.109C167.834 128.117 168.329 128.026 168.791 127.841C169.254 127.656 169.675 127.381 170.03 127.032C170.385 126.682 170.667 126.266 170.859 125.806C171.052 125.347 171.151 124.854 171.151 124.356C171.151 123.857 171.052 123.364 170.859 122.905C170.667 122.445 170.385 122.029 170.03 121.679C169.675 121.33 169.254 121.055 168.791 120.87C168.329 120.685 167.834 120.594 167.336 120.602C166.351 120.618 165.412 121.021 164.721 121.723C164.03 122.425 163.643 123.37 163.643 124.356C163.643 125.341 164.03 126.286 164.721 126.988C165.412 127.69 166.351 128.093 167.336 128.109Z" fill="#E6E6E6"/>
<path d="M536.816 216.322H535.773V187.76C535.773 185.589 535.345 183.439 534.515 181.434C533.684 179.428 532.466 177.605 530.931 176.07C529.396 174.535 527.574 173.317 525.568 172.486C523.562 171.656 521.413 171.228 519.242 171.228H458.728C454.343 171.228 450.138 172.97 447.038 176.07C443.938 179.17 442.196 183.375 442.196 187.76V344.457C442.196 348.842 443.938 353.047 447.038 356.147C450.138 359.247 454.343 360.989 458.728 360.989H519.242C521.413 360.989 523.562 360.562 525.568 359.731C527.574 358.9 529.396 357.682 530.931 356.147C532.466 354.612 533.684 352.789 534.514 350.784C535.345 348.778 535.773 346.628 535.773 344.457V236.654H536.816V216.322Z" fill="#3F3D56"/>
<path d="M519.231 175.529H511.332C511.695 176.42 511.833 177.386 511.735 178.343C511.637 179.299 511.305 180.217 510.769 181.016C510.232 181.814 509.508 182.468 508.659 182.92C507.811 183.372 506.864 183.609 505.902 183.61H471.234C470.272 183.609 469.325 183.373 468.476 182.921C467.195 182.238 466.212 181.104 465.718 179.739C465.225 178.374 465.255 176.873 465.803 175.529H458.426C456.805 175.528 455.199 175.848 453.701 176.468C452.203 177.088 450.842 177.998 449.696 179.145C448.549 180.291 447.64 181.652 447.019 183.15C446.399 184.648 446.08 186.254 446.08 187.875V344.342C446.08 345.963 446.399 347.569 447.019 349.067C447.64 350.565 448.549 351.926 449.696 353.072C450.842 354.219 452.203 355.128 453.701 355.749C455.199 356.369 456.805 356.688 458.426 356.688H519.231C522.505 356.687 525.645 355.386 527.961 353.072C530.276 350.756 531.576 347.616 531.577 344.342V187.875C531.577 186.254 531.258 184.648 530.637 183.15C530.017 181.653 529.107 180.291 527.961 179.145C526.815 177.999 525.454 177.089 523.956 176.469C522.458 175.848 520.852 175.529 519.231 175.529Z" fill="white"/>
<path d="M312.143 266.994H192.51V272.451H312.143V266.994Z" fill="#E6E6E6"/>
<path d="M312.143 284.613H192.51V290.069H312.143V284.613Z" fill="#4CA0F5"/>
<path d="M312.143 302.231H192.51V307.688H312.143V302.231ZM524.426 278.9H454.586V284.357H524.426V278.9ZM524.426 295.841H454.586V301.298H524.426V295.841ZM524.426 312.782H454.586V318.239H524.426V312.782Z" fill="#E6E6E6"/>
<path d="M531.728 397.517V385.877H520.088V397.517H531.728Z" fill="#3F3D56"/>
<path d="M512.975 397.517V385.877H501.335V397.517H512.975Z" fill="#4CA0F5"/>
<path d="M494.221 397.517V385.877H482.581V397.517H494.221ZM475.468 397.517V385.877H463.828V397.517H475.468ZM456.715 397.517V385.877H445.075V397.517H456.715Z" fill="#3F3D56"/>
<path d="M508.228 208.185H469.428V246.985H508.228V208.185Z" fill="#4CA0F5"/>
<path d="M236.906 300.752L236.403 301.756L234.897 294.223C234.897 294.223 232.888 286.188 236.906 286.188C240.923 286.188 239.919 294.223 239.919 294.223V299.748L236.906 300.752ZM302.8 299.724L303.302 300.728L304.809 293.195C304.809 293.195 306.818 285.159 302.8 285.159C298.782 285.159 299.786 293.195 299.786 293.195V298.719L302.8 299.724Z" fill="#EEA886"/>
<path d="M259.003 357.231L252.977 394.395L255.989 430.555L263.021 427.542L262.016 400.422L269.047 378.826L270.554 404.439L267.541 431.057L276.581 432.062L283.11 377.32L282.608 358.738L259.003 357.231Z" fill="#2F2E41"/>
<path d="M259.003 426.035L255.488 431.56V443.904C255.488 444.26 255.614 444.604 255.845 444.874C256.075 445.145 256.395 445.325 256.746 445.381C258.469 445.664 261.469 445.865 262.519 444.115C264.026 441.604 263.021 436.08 263.021 436.08C263.021 436.08 265.03 432.062 264.026 429.049C263.021 426.035 262.017 425.533 262.017 425.533L259.003 426.035ZM274.07 431.057L275.075 432.564C275.075 432.564 276.581 434.071 275.577 435.075C274.84 435.856 274.168 436.696 273.568 437.586C273.568 437.586 268.043 439.093 268.043 437.084V430.555L274.07 431.057Z" fill="#2F2E41"/>
<path d="M272.26 316.356C274.026 316.356 275.719 315.655 276.968 314.406C278.216 313.158 278.918 311.464 278.918 309.698C278.918 307.933 278.216 306.239 276.968 304.991C275.719 303.742 274.026 303.041 272.26 303.041C270.494 303.041 268.801 303.742 267.552 304.991C266.304 306.239 265.603 307.933 265.603 309.698C265.603 311.464 266.304 313.158 267.552 314.406C268.801 315.655 270.494 316.356 272.26 316.356Z" fill="#EEA886"/>
<path d="M267.792 311.78L267.29 321.322L276.33 321.825L275.828 312.282L267.792 311.78Z" fill="#EEA886"/>
<path d="M277.585 322.076L276.16 318.593C276.16 318.593 269.55 316.049 267.541 318.56L266.536 321.573L258.501 319.564L253.981 329.609L257.999 358.235C257.999 358.235 268.545 371.795 282.608 358.738L286.625 331.618L283.612 321.071L277.585 322.076Z" fill="#FFC655"/>
<path d="M282.608 323.08L283.612 321.071L293.657 315.044L299.787 296.899L304.53 298.932L299.181 320.569L284.616 334.128L282.608 323.08ZM259.505 320.569L258.501 319.565L247.954 313.036L240.421 297.969L234.395 299.978L240.923 318.56L256.994 331.618L259.505 320.569Z" fill="#FFC655"/>
<path d="M277.201 299.504L278.289 298.959L276.657 298.415V297.871C276.657 297.871 268.493 294.605 267.405 300.048C266 301.935 265.241 304.226 265.241 306.579C265.241 308.931 266 311.222 267.405 313.109V314.742L276.112 315.831L277.201 312.565C277.201 312.565 282.643 302.769 277.201 299.504Z" fill="#2F2E41"/>
<path d="M77.99 357.82L76.054 358.788C76.054 358.788 68.314 362.335 70.572 364.27C72.829 366.205 78.957 362.335 78.957 362.335L80.247 360.723L77.989 357.82H77.99Z" fill="#EEA886"/>
<path d="M134.601 357.339L128.62 397.487L119.59 425.543L114.753 423.286L119.267 384.91L106.368 373.945L107.335 357.821L134.601 357.339Z" fill="#2F2E41"/>
<path d="M114.108 424.253C114.108 424.253 119.59 421.351 119.913 425.543L119.268 429.736C119.268 429.736 121.203 437.153 114.753 435.54C108.303 433.928 112.818 429.091 112.818 429.091L114.108 424.253ZM110.561 370.398L106.368 373.945C106.368 373.945 106.368 395.874 109.271 399.099C112.173 402.324 130.555 418.771 131.2 419.416C131.845 420.061 134.747 412.966 134.747 412.966L117.333 392.649L118.623 380.072L110.561 370.398Z" fill="#2F2E41"/>
<path d="M132.812 411.999C132.812 411.999 137.972 411.031 137.972 414.579C138.036 417.383 138.251 420.182 138.617 422.963C138.617 422.963 139.907 434.251 135.714 432.638C131.522 431.026 129.91 419.738 129.91 419.738C130.3 418.8 130.978 418.01 131.845 417.481C133.135 416.836 132.812 411.999 132.812 411.999Z" fill="#2F2E41"/>
<path d="M116.688 309.447L117.656 321.379L115.076 325.894L107.981 319.122L107.336 310.092L116.688 309.447Z" fill="#EEA886"/>
<path d="M110.883 313.317C112.936 313.317 114.905 312.502 116.356 311.05C117.808 309.598 118.623 307.63 118.623 305.577C118.623 303.524 117.808 301.556 116.356 300.104C114.905 298.652 112.936 297.837 110.883 297.837C108.83 297.837 106.862 298.652 105.41 300.104C103.959 301.556 103.143 303.524 103.143 305.577C103.143 307.63 103.959 309.598 105.41 311.05C106.862 312.502 108.83 313.317 110.883 313.317Z" fill="#EEA886"/>
<path d="M114.108 321.057L117.333 311.705L123.137 318.154L133.78 359.11L125.717 363.948L122.17 358.788L121.525 365.56L105.723 362.335L104.433 319.121L107.656 314.582L114.108 321.057Z" fill="#D0CDE1"/>
<path d="M109.593 366.85L107.659 314.607L103.466 317.832L95.7261 322.992L100.886 341.374L102.498 360.723L109.593 366.85Z" fill="#FF7E55"/>
<path d="M97.984 323.314L95.726 322.991L89.276 342.018L76.376 358.143L81.214 363.303L96.048 348.791L101.531 336.859L97.984 323.314Z" fill="#FF7E55"/>
<path d="M133.202 358.116L132.762 360.234C132.762 360.234 130.749 368.506 133.666 367.934C136.584 367.362 137.345 360.155 137.345 360.155L136.879 358.143L133.202 358.116Z" fill="#EEA886"/>
<path d="M116.829 311.181L132.812 317.509L130.877 336.859L134.747 358.143L130.877 362.335L116.568 313.922L116.829 311.181Z" fill="#FF7E55"/>
<path d="M111.288 292.578L113.56 291.442V292.578L115.075 291.821V293.714C115.075 293.714 120.754 297.879 119.618 302.801C118.482 307.724 118.482 308.102 118.482 308.102C118.482 308.102 117.046 298.742 111.367 300.256C105.687 301.771 105.23 302.044 103.715 306.209L103.304 307.996C103.304 307.996 96.9002 293.335 111.288 292.578Z" fill="#2F2E41"/>
<path d="M130.555 317.509H133.135L137.327 340.084V359.755L132.168 358.788L127.975 329.119L130.555 317.509Z" fill="#FF7E55"/>
<path d="M97.482 365.249H2.396V431.326H97.482V365.249Z" fill="#4AA9F2"/>
<path d="M49.939 378.142C45.9545 378.142 42.0594 379.323 38.7464 381.536C35.4334 383.75 32.8514 386.897 31.327 390.578C29.4098 395.199 29.2806 400.368 30.9646 405.079C32.6486 409.789 36.0253 413.705 40.4374 416.063C44.8495 418.422 49.9812 419.054 54.8337 417.837C59.6862 416.62 63.9122 413.64 66.689 409.479C68.9028 406.166 70.0843 402.271 70.084 398.287C70.069 392.949 67.9417 387.834 64.1671 384.059C60.3924 380.284 55.2772 378.157 49.939 378.142ZM49.939 384.185C51.1347 384.185 52.3036 384.539 53.2978 385.203C54.2921 385.867 55.067 386.812 55.5247 387.916C55.9823 389.021 56.1021 390.236 55.8689 391.409C55.6357 392.582 55.0599 393.659 54.2145 394.504C53.369 395.35 52.2918 395.926 51.1191 396.159C49.9464 396.392 48.7308 396.272 47.6262 395.815C46.5216 395.357 45.5775 394.582 44.9134 393.588C44.2492 392.594 43.8948 391.425 43.895 390.229C43.9011 388.628 44.5398 387.094 45.6719 385.962C46.8041 384.83 48.3379 384.191 49.939 384.185ZM49.939 413.28C47.5516 413.269 45.203 412.676 43.0967 411.552C40.9905 410.428 39.1902 408.807 37.852 406.83C37.949 402.801 45.91 400.583 49.939 400.583C53.969 400.583 61.929 402.801 62.026 406.83C60.686 408.805 58.8853 410.425 56.7794 411.548C54.6736 412.672 52.3259 413.266 49.939 413.28Z" fill="white"/>
<path d="M311.84 175.602H192.576V244.044H311.84V175.602Z" fill="#E6E6E6"/>
<path d="M547.668 311.351L548.221 307.787C548.221 307.787 551.442 300.465 548.896 300.07C546.35 299.675 544.226 306.646 544.226 306.646L545.158 314.09L547.668 311.351Z" fill="#EEA886"/>
<path d="M573.735 331.556L550.979 326.985L548.335 310.411L541.637 309.894L541.964 331.323L561.735 341.689L573.735 331.556Z" fill="#575A89"/>
<path opacity="0.2" d="M573.735 331.556L550.979 326.985L548.335 310.411L541.637 309.894L541.964 331.323L561.735 341.689L573.735 331.556Z" fill="black"/>
<path d="M511.829 306.967H581.668V301.51H511.829V306.967Z" fill="#4CA0F5"/>
<path d="M543.222 310.129L543.227 306.522C543.227 306.522 545.298 298.796 542.721 298.792C540.145 298.789 539.105 306.002 539.105 306.002L541.157 313.218L543.222 310.129Z" fill="#EEA886"/>
<path d="M572.843 320.459L575.965 319.698C577.156 319.699 578.333 319.435 579.41 318.926C580.487 318.417 581.438 317.675 582.193 316.754C582.948 315.832 583.489 314.754 583.776 313.598C584.063 312.442 584.09 311.236 583.854 310.068C583.858 307.989 583.245 305.956 582.093 304.226C580.941 302.496 579.302 301.147 577.382 300.349C575.463 299.551 573.35 299.341 571.311 299.745C569.272 300.148 567.399 301.148 565.928 302.617C564.951 303.591 564.176 304.748 563.646 306.022C563.116 307.296 562.843 308.662 562.841 310.042C562.437 311.447 562.409 312.934 562.76 314.354C563.111 315.773 563.829 317.076 564.842 318.131C565.855 319.186 567.127 319.956 568.531 320.365C569.936 320.773 571.422 320.806 572.843 320.459ZM554.479 372.49L557.021 400.318L561.624 427.633L569.353 427.642L568.356 400.847L564.275 368.38L554.479 372.49Z" fill="#2F2E41"/>
<path d="M562.657 426.088L557.5 429.174C557.5 429.174 549.255 430.194 550.797 432.772C552.34 435.35 570.376 433.827 570.377 432.797C570.379 431.766 569.871 426.097 568.84 426.096L562.657 426.088ZM577.294 370.086C577.294 370.086 577.149 374.065 573.535 380.243L574.026 399.309L592.546 423.034L585.84 428.694L563.201 402.902L557.572 371.979L564.795 364.774L577.294 370.086Z" fill="#2F2E41"/>
<path d="M591 423.032C591 423.032 597.182 424.071 596.148 426.646C595.115 429.221 592.523 441.069 585.827 439.515C585.827 439.515 582.735 439.511 583.768 437.451C584.389 436.212 585.079 435.009 585.834 433.847L585.842 427.148L591 423.032Z" fill="#2F2E41"/>
<path d="M569.497 320.982C570.523 320.998 571.541 320.811 572.493 320.43C573.446 320.049 574.312 319.482 575.043 318.763C575.774 318.043 576.355 317.186 576.751 316.24C577.148 315.294 577.352 314.279 577.352 313.253C577.352 312.227 577.148 311.212 576.751 310.266C576.355 309.32 575.774 308.463 575.043 307.743C574.312 307.024 573.446 306.457 572.493 306.076C571.541 305.695 570.523 305.507 569.497 305.524C567.469 305.557 565.535 306.385 564.112 307.831C562.689 309.277 561.892 311.224 561.892 313.253C561.892 315.282 562.689 317.229 564.112 318.675C565.535 320.121 567.469 320.949 569.497 320.982Z" fill="#EEA886"/>
<path d="M573.097 318.411L573.086 327.17L564.842 327.16L565.883 318.402L573.097 318.411Z" fill="#EEA886"/>
<path d="M562.785 324.066L565.283 323.452L573.09 324.079C573.09 324.079 577.207 328.206 576.69 329.236C576.174 330.266 573.566 355.511 573.566 355.511L578.181 373.551L561.691 374.56L553.448 373.52L555.034 341.06C555.034 341.06 551.438 332.296 556.079 329.725C558.7 328.35 560.989 326.418 562.785 324.066Z" fill="#EDDAD3"/>
<path d="M572.057 326.138L548.872 325.079L543.739 309.099L537.04 309.605L540.62 330.736L561.737 337.977L572.057 326.138Z" fill="#EDDAD3"/>
<path d="M584.416 307.559C585.077 307.568 585.733 307.446 586.346 307.2C586.959 306.954 587.517 306.588 587.988 306.124C588.458 305.66 588.832 305.107 589.087 304.497C589.342 303.888 589.474 303.233 589.474 302.573C589.474 301.912 589.342 301.257 589.087 300.648C588.832 300.038 588.458 299.485 587.988 299.021C587.517 298.557 586.959 298.192 586.346 297.945C585.733 297.699 585.077 297.577 584.416 297.586C583.106 297.605 581.855 298.138 580.935 299.071C580.015 300.004 579.5 301.262 579.5 302.573C579.5 303.883 580.015 305.141 580.935 306.074C581.855 307.007 583.106 307.54 584.416 307.559Z" fill="#2F2E41"/>
<path d="M579.815 299.892C579.816 299.154 579.981 298.426 580.297 297.76C580.613 297.094 581.073 296.506 581.643 296.038C582.214 295.57 582.881 295.236 583.597 295.058C584.313 294.88 585.06 294.864 585.783 295.01C585.145 294.708 584.45 294.545 583.744 294.532C583.039 294.519 582.338 294.657 581.69 294.935C581.042 295.214 580.46 295.626 579.983 296.146C579.506 296.666 579.144 297.28 578.922 297.95C578.7 298.62 578.623 299.329 578.695 300.032C578.768 300.734 578.99 301.412 579.345 302.022C579.7 302.632 580.18 303.159 580.754 303.569C581.328 303.98 581.982 304.264 582.674 304.403C581.819 303.999 581.096 303.361 580.59 302.562C580.084 301.764 579.815 300.838 579.815 299.892ZM575.537 302.72L568.815 301.482L563.645 304.722C562.374 305.519 561.358 306.663 560.717 308.02C560.077 309.376 559.839 310.888 560.032 312.376L565.21 311.064L566.369 308.156L567.75 310.42L573.352 320.214L579.024 317.13L582.638 311.466L575.537 302.72Z" fill="#2F2E41"/>
<path d="M192.913 175.015L192.239 176.19L311.503 244.631L312.177 243.456L192.913 175.015Z" fill="white"/>
<path d="M311.505 175.019L192.236 243.451L192.91 244.627L312.18 176.194L311.505 175.019ZM470.209 207.65L469.25 208.608L507.876 247.233L508.834 246.275L470.209 207.65Z" fill="white"/>
<path d="M507.876 207.65L469.25 246.275L470.209 247.233L508.834 208.608L507.876 207.65Z" fill="white"/>
<path d="M79 240.146L78.512 239.049C78.146 239.049 77.78 238.927 77.414 238.805L76.561 239.659L74 237.829L74.487 236.732C74.244 236.366 74 236.122 73.877 235.756H72.658L72.17 232.585L73.268 232.098C73.268 231.732 73.39 231.366 73.512 231L72.658 230.146L74.488 227.585L75.585 228.073C75.951 227.829 76.195 227.585 76.561 227.464V226.244L79.731 225.756L80.219 226.854C80.585 226.854 80.951 226.976 81.317 227.098L82.17 226.244L84.731 228.073L84.244 229.171C84.487 229.537 84.731 229.781 84.854 230.146H86.073L86.561 233.317L85.463 233.805C85.463 234.171 85.341 234.537 85.219 234.903L86.073 235.756L84.243 238.317L83.146 237.829C82.78 238.073 82.536 238.317 82.17 238.439V239.659L79 240.146ZM77.17 237.829L77.414 237.951L78.878 238.317H79.122L79.487 239.293L81.195 239.049V237.951L81.439 237.829C81.927 237.585 82.292 237.342 82.659 237.098L82.902 236.976L83.878 237.342L84.853 235.878L84.122 235.146L84.244 234.903L84.609 233.439V233.195L85.585 232.829L85.341 231.122H84.244L84.122 230.878C83.9055 230.456 83.6609 230.049 83.39 229.659L83.268 229.415L83.634 228.439L82.17 227.464L81.439 228.195L81.195 228.073L79.731 227.707H79.488L79.122 226.732L77.414 226.976V228.073L77.17 228.195C76.683 228.439 76.317 228.683 75.95 228.927L75.707 229.049L74.731 228.683L73.756 230.146L74.487 230.878L74.366 231.122L74 232.585V232.829L73.024 233.195L73.268 234.903H74.365L74.488 235.146C74.731 235.634 74.975 236 75.219 236.366L75.341 236.61L74.975 237.585L76.439 238.561L77.17 237.829ZM79.365 236.366C78.634 236.366 78.025 236.122 77.415 235.756C75.829 234.659 75.463 232.464 76.561 231C77.658 229.415 79.853 229.049 81.317 230.146C82.049 230.634 82.537 231.488 82.658 232.342C82.78 233.195 82.658 234.171 82.048 234.903C81.561 235.634 80.707 236.122 79.853 236.244C79.731 236.366 79.488 236.366 79.366 236.366H79.365ZM79.365 230.268C78.512 230.268 77.78 230.634 77.292 231.366C76.927 231.976 76.682 232.585 76.805 233.317C76.926 234.049 77.292 234.537 77.902 235.024C78.512 235.39 79.122 235.634 79.853 235.512C80.585 235.39 81.073 235.024 81.561 234.415C81.926 233.805 82.171 233.195 82.048 232.464C81.927 231.732 81.561 231.244 80.951 230.756C80.341 230.512 79.853 230.268 79.366 230.268H79.365ZM54.732 243.805L53.756 241.244C52.7127 241.13 51.6882 240.884 50.707 240.512L48.757 242.341L43.39 238.561L44.488 236.122C43.878 235.268 43.268 234.415 42.781 233.439L40.098 233.317L39 226.732L41.561 225.756C41.683 224.659 41.927 223.683 42.293 222.707L40.463 220.756L44.243 215.39L46.683 216.488C47.537 215.878 48.39 215.268 49.366 214.78L49.488 212.098L55.95 211L56.926 213.561C58.023 213.683 58.999 213.927 59.975 214.293L61.925 212.463L67.292 216.244L66.194 218.683C66.804 219.537 67.414 220.39 67.901 221.366L70.584 221.488L71.682 228.073L69.121 229.049C69.0071 230.092 68.7611 231.117 68.389 232.098L70.219 234.049L66.438 239.415L64 238.317C63.146 238.927 62.293 239.537 61.317 240.024L61.195 242.707L54.732 243.805ZM50.463 239.293L50.829 239.415C51.927 239.78 53.146 240.146 54.244 240.146H54.61L55.463 242.463L60.098 241.732L60.219 239.293L60.585 239.171C61.683 238.683 62.658 238.073 63.635 237.341L63.878 237.098L66.195 238.073L68.878 234.293L67.171 232.463L67.293 232.098C67.658 231 68.024 229.78 68.024 228.683V228.317L70.341 227.463L69.61 222.829L67.17 222.707L67.049 222.341C66.561 221.244 65.951 220.268 65.219 219.293L64.976 219.049L65.951 216.732L62.171 214.049L60.341 215.756L59.976 215.634C58.878 215.268 57.658 214.902 56.561 214.902H56.195L55.342 212.585L50.707 213.317L50.585 215.756L50.219 215.878C49.122 216.366 48.146 216.976 47.171 217.707L46.927 217.951L44.61 216.976L41.927 220.756L43.634 222.585L43.512 222.951C43.146 224.049 42.781 225.268 42.781 226.366V226.732L40.463 227.585L41.195 232.22L43.635 232.341L43.756 232.707C44.244 233.805 44.854 234.78 45.586 235.756L45.829 236L44.854 238.317L48.634 241L50.464 239.293H50.463ZM55.342 235.024C53.878 235.024 52.292 234.537 50.952 233.683C47.537 231.244 46.805 226.61 49.244 223.195C51.683 219.78 56.317 219.049 59.732 221.488C63.146 223.927 63.878 228.561 61.561 231.976C59.976 233.927 57.658 235.024 55.341 235.024H55.342ZM55.342 221.122C53.39 221.122 51.439 222.098 50.098 223.805C49.122 225.146 48.756 226.854 49 228.561C49.244 230.268 50.22 231.732 51.561 232.707C54.366 234.78 58.391 234.049 60.463 231.244C61.439 229.902 61.805 228.195 61.561 226.488C61.317 224.78 60.341 223.317 59 222.341C57.902 221.488 56.683 221.122 55.342 221.122Z" fill="#A1D4FF"/>
<path d="M336.707 72.415C324.756 72.415 315 62.658 315 50.707H316.22C316.22 62.049 325.488 71.195 336.707 71.195C348.049 71.195 357.195 61.927 357.195 50.707C357.195 39.366 347.927 30.219 336.707 30.219V29C348.659 29 358.415 38.756 358.415 50.707C358.415 62.781 348.659 72.415 336.707 72.415ZM336.707 69.488C326.463 69.488 318.049 61.073 318.049 50.829C318.049 40.585 326.463 32.171 336.707 32.171C346.951 32.171 355.366 40.585 355.366 50.829H354.146C354.146 41.195 346.341 33.269 336.585 33.269C326.951 33.269 319.024 41.073 319.024 50.829C319.024 60.463 326.829 68.39 336.585 68.39V69.488H336.707Z" fill="#78C2FF"/>
<path d="M334.148 57.902L326.221 50.098L327.074 49.366L334.148 56.317L346.465 44L347.196 44.854L334.148 57.902Z" fill="#78C2FF"/>
<path d="M110.805 97.024H33L33.122 96.293C34.342 89.829 40.073 85.195 46.537 85.195C47.512 85.195 48.366 85.317 49.342 85.439C53.366 77.756 61.291 73 69.952 73C77.39 73 84.463 76.537 88.854 82.634C90.4752 82.1438 92.1603 81.8971 93.854 81.902C102.268 81.902 109.463 88 110.683 96.292L110.805 97.024ZM34.463 95.927H109.463C108 88.61 101.415 83.122 93.853 83.122C92.146 83.122 90.439 83.366 88.853 83.976L88.488 84.098L88.244 83.732C84.098 77.878 77.268 74.342 70.074 74.342C61.658 74.342 53.976 78.976 50.195 86.537L49.951 86.902L49.463 86.781C48.5064 86.5394 47.5237 86.4165 46.537 86.415C40.805 86.537 35.805 90.439 34.463 95.927Z" fill="#6AAFE8"/>
<path d="M126.294 154.707H77.147V91.781H78.245V153.488H126.294V154.707Z" fill="#78C2FF"/>
<path d="M77.7568 92.39C75.4388 92.39 73.4878 90.44 73.4878 88.122C73.4878 85.805 75.4388 83.854 77.7568 83.854C80.0738 83.854 82.0248 85.804 82.0248 88.122C82.0248 90.439 80.0738 92.39 77.7568 92.39ZM77.7568 84.951C77.3552 84.947 76.9569 85.0231 76.5851 85.1749C76.2133 85.3267 75.8755 85.5511 75.5915 85.835C75.3075 86.119 75.083 86.4567 74.9311 86.8284C74.7792 87.2001 74.7029 87.5984 74.7068 88C74.7029 88.4016 74.7792 88.7999 74.9311 89.1716C75.083 89.5434 75.3075 89.8811 75.5915 90.165C75.8755 90.4489 76.2133 90.6733 76.5851 90.8251C76.9569 90.9769 77.3552 91.053 77.7568 91.049C78.1582 91.0528 78.5563 90.9764 78.9279 90.8245C79.2994 90.6726 79.637 90.4481 79.9207 90.1643C80.2045 89.8804 80.4289 89.5427 80.5807 89.1711C80.7325 88.7995 80.8087 88.4014 80.8048 88C80.8087 87.5986 80.7325 87.2005 80.5807 86.8289C80.4289 86.4573 80.2045 86.1196 79.9207 85.8358C79.637 85.5519 79.2994 85.3274 78.9279 85.1755C78.5563 85.0236 78.1582 84.9473 77.7568 84.951Z" fill="#78C2FF"/>
<path d="M669.951 256.878H628V227H669.951V256.878ZM629.22 255.659H668.854V228.098H629.22V255.659Z" fill="#A1D4FF"/>
<path d="M648.977 245.049L628.245 227.976L628.977 227.122L648.977 243.585L668.977 227.122L669.709 227.976L648.977 245.049Z" fill="#A1D4FF"/>
<path d="M654.821 239.981L653.937 240.821L668.959 256.658L669.844 255.818L654.821 239.981ZM643.187 240.034L628.175 255.882L629.06 256.721L644.072 240.873L643.187 240.034Z" fill="#A1D4FF"/>
<path d="M549.169 62.683L548.925 62.561C521.364 48.415 525.022 21.22 525.022 20.854L525.144 20.366H525.632C543.193 20.366 548.681 14.756 548.803 14.634L549.291 14.146L549.657 14.634C549.657 14.634 555.266 20.366 572.827 20.366H573.315L573.437 20.854C573.437 21.098 577.217 48.414 549.535 62.561L549.169 62.683ZM526.12 21.585C525.754 25.244 524.657 48.659 549.169 61.463C573.681 48.781 572.583 25.366 572.217 21.585C556.974 21.463 550.754 17.195 549.169 15.854C547.583 17.195 541.364 21.464 526.12 21.585Z" fill="#6AAFE8"/>
<path d="M487.098 174.634H486V109.756H548.561V55.122H549.78V110.854H487.098V174.634Z" fill="#78C2FF"/>
<path d="M587.706 77.073H577.706V75.976H586.486V67.073H587.706V77.073ZM520.512 77.073H510.512V67.073H511.731V75.976H520.512V77.073ZM511.73 10H510.633V0H520.511V1.22H511.73V10ZM587.706 10H586.486V1.22H577.706V0H587.706V10ZM587.706 24.878H586.486V52.195H587.706V24.878ZM511.731 24.878H510.512V52.195H511.731V24.878Z" fill="#6AAFE8"/>
<path d="M549.17 55.732C546.853 55.732 544.902 53.781 544.902 51.463C544.902 49.146 546.853 47.195 549.17 47.195C551.487 47.195 553.438 49.146 553.438 51.463C553.438 53.903 551.487 55.732 549.17 55.732ZM549.17 48.415C548.768 48.4111 548.37 48.4873 547.999 48.6391C547.627 48.7909 547.29 49.0153 547.006 49.2991C546.722 49.5828 546.497 49.9204 546.345 50.2919C546.193 50.6635 546.117 51.0616 546.121 51.463C546.117 51.8646 546.193 52.2629 546.345 52.6347C546.497 53.0065 546.721 53.3443 547.005 53.6283C547.289 53.9123 547.627 54.1368 547.998 54.2887C548.37 54.4406 548.768 54.5169 549.17 54.513C549.571 54.5169 549.97 54.4406 550.341 54.2887C550.713 54.1368 551.051 53.9123 551.335 53.6283C551.619 53.3443 551.843 53.0065 551.995 52.6347C552.147 52.2629 552.223 51.8646 552.219 51.463C552.341 49.756 550.877 48.415 549.17 48.415Z" fill="#78C2FF"/>
<path d="M645.095 399.63C642.96 389.831 647.608 387.382 652.068 385.058C655.711 383.11 659.165 381.289 658.977 375.51C658.725 367.847 663.939 365.084 668.524 362.634C671.916 360.812 675.182 359.054 675.622 355.599C676.752 347.245 684.478 336.819 684.604 336.756L685.106 337.133C685.043 337.258 677.38 347.496 676.25 355.725C675.747 359.493 672.356 361.315 668.838 363.199C664.19 365.712 659.354 368.287 659.605 375.51C659.793 381.666 656.025 383.676 652.382 385.56C647.922 387.947 643.714 390.145 645.724 399.504L645.095 399.63Z" fill="url(#paint0_linear)"/>
<path d="M647.42 397.18H647.106C645.159 397.054 643.275 395.547 641.139 392.532L641.014 392.344L641.139 392.155C641.202 392.092 644.594 387.947 643.338 380.095C643.024 378.274 642.647 376.892 642.333 375.761C641.893 374.128 641.579 373.061 642.081 372.181C642.71 371.113 644.468 370.485 649.368 369.355C654.581 368.099 656.34 362.194 657.91 356.981C659.355 352.082 660.736 347.434 664.819 347.622C668.588 347.748 674.241 341.906 679.266 336.756C683.914 331.982 688.311 327.46 691.137 327.522C691.828 327.522 692.393 327.837 692.833 328.339C695.345 331.291 693.021 335.876 690.76 340.21C688.813 343.916 686.991 347.496 688.185 349.82C689.63 352.773 689.881 355.411 688.75 357.483C687.494 359.933 684.479 361.503 679.894 362.194C675.685 362.822 675.246 367.408 674.743 372.244C674.178 377.897 673.55 384.367 666.452 384.995C661.176 385.434 657.659 389.14 654.518 392.406C652.131 394.919 649.933 397.18 647.42 397.18ZM641.767 392.344C643.715 395.045 645.473 396.426 647.169 396.552C649.493 396.74 651.692 394.479 654.141 391.904C657.345 388.575 660.988 384.806 666.452 384.304C673.047 383.739 673.613 377.834 674.178 372.118C674.681 367.031 675.183 362.194 679.831 361.503C684.228 360.875 687.054 359.368 688.248 357.107C689.253 355.222 689.001 352.773 687.62 350.009C686.301 347.434 688.185 343.728 690.195 339.896C692.393 335.688 694.592 331.354 692.33 328.653C692.016 328.276 691.577 328.025 691.074 328.025C688.562 327.962 684.228 332.359 679.643 337.07C674.366 342.534 668.902 348.125 664.882 348.125H664.756C661.113 347.999 659.92 352.207 658.475 357.107C656.905 362.446 655.083 368.538 649.493 369.857C645.034 370.925 643.086 371.49 642.584 372.432C642.207 373.061 642.458 374.003 642.898 375.573C643.309 377.02 643.644 378.488 643.903 379.97C645.159 387.319 642.458 391.464 641.767 392.344Z" fill="url(#paint1_linear)"/>
<path d="M647.671 395.107H647.482C644.279 394.793 641.892 387.884 639.505 381.163C638.375 377.96 637.307 374.945 636.302 373.061C635.485 371.553 634.48 369.983 633.538 368.475C630.9 364.455 628.199 360.31 629.079 356.604C629.518 354.657 630.9 353.087 633.287 351.705C638.5 348.69 637.684 346.994 635.925 343.288C634.669 340.587 632.847 336.819 632.784 330.977C632.784 328.465 632.722 326.266 632.659 324.382C632.47 318.226 632.408 315.086 633.727 313.955C634.292 313.516 635.046 313.39 636.113 313.578C637.998 313.955 638.814 315.463 639.631 317.033C640.699 319.106 641.955 321.367 645.724 322.184C649.241 322.937 652.633 323.942 653.512 326.266C654.14 327.899 653.575 330.035 651.628 332.861C651.188 333.552 651 334.118 651.125 334.62C651.439 335.751 653.198 336.567 655.208 337.509C658.097 338.828 661.678 340.524 662.683 343.979C663.499 346.743 662.557 350.26 659.793 354.657C653.261 365.021 653.512 371.993 653.763 378.211C653.952 382.796 654.077 387.13 651.314 391.967C650.12 394.102 648.927 395.107 647.671 395.107ZM635.171 314.081C634.732 314.081 634.355 314.207 634.104 314.395C632.973 315.337 633.099 318.54 633.224 324.319C633.287 326.266 633.35 328.402 633.35 330.977C633.413 336.693 635.171 340.399 636.428 343.037C638.186 346.743 639.191 348.941 633.538 352.207C631.34 353.463 630.021 354.971 629.581 356.73C628.765 360.121 631.403 364.204 633.915 368.099C634.92 369.606 635.925 371.176 636.742 372.747C637.809 374.694 638.877 377.771 640.008 380.975C642.206 387.193 644.656 394.291 647.482 394.542C648.55 394.668 649.681 393.663 650.811 391.653C653.512 386.942 653.324 382.922 653.135 378.211C652.884 371.93 652.633 364.832 659.291 354.343C661.929 350.135 662.871 346.806 662.117 344.167C661.175 340.964 657.846 339.394 654.957 338.075C652.821 337.07 650.937 336.19 650.56 334.809C650.372 334.118 650.56 333.364 651.125 332.547C652.947 329.909 653.512 327.962 652.947 326.517C652.13 324.445 648.739 323.503 645.535 322.812C641.515 321.995 640.133 319.42 639.066 317.347C638.249 315.84 637.558 314.458 635.925 314.207C635.681 314.129 635.427 314.087 635.171 314.081Z" fill="url(#paint2_linear)"/>
<path d="M647.735 398.813L647.169 398.625C650.373 388.512 644.594 365.837 642.835 360.31C641.956 357.609 642.773 353.526 643.526 349.569C644.531 344.482 645.536 339.205 642.961 337.195C638.125 333.49 638.376 324.884 638.376 324.508H639.004C639.004 324.57 638.753 333.176 643.338 336.693C646.227 338.891 645.159 344.356 644.154 349.632C643.401 353.526 642.647 357.546 643.463 360.121C645.536 366.968 650.938 388.763 647.735 398.813Z" fill="url(#paint3_linear)"/>
<path d="M623.552 333.175C622.233 329.784 617.019 330.286 617.522 335.06C618.024 339.833 621.353 344.921 616.266 353.087C611.178 361.189 622.798 362.822 626.944 367.91C631.089 372.998 632.534 380.033 636.051 384.492C639.569 388.952 641.955 399.63 644.782 395.673C647.671 391.716 644.97 386.502 645.284 379.342C645.598 372.181 652.005 367.659 645.598 363.011C639.192 358.363 632.785 356.981 634.921 346.554C635.737 341.906 627.697 343.665 623.552 333.175Z" fill="url(#paint4_linear)"/>
<path d="M649.367 396.552C649.304 396.364 645.787 375.322 637.872 369.606C629.77 363.765 628.325 358.3 625.499 345.549L626.064 345.424C628.828 358.049 630.272 363.388 638.186 369.166C646.289 375.071 649.806 395.673 649.932 396.489L649.367 396.552Z" fill="white"/>
<path d="M642.206 395.798C642.206 395.798 644.593 389.957 640.259 381.666C635.988 373.375 632.471 374.631 642.835 368.287C653.198 361.943 642.897 341.843 651.691 339.268C660.485 336.693 668.148 304.22 674.806 308.365C681.526 312.511 672.544 328.465 677.381 333.238C682.154 338.012 682.783 344.105 672.921 349.004C663.06 353.903 679.956 372.747 666.577 378.462C653.198 384.241 657.03 406.727 642.206 395.798Z" fill="url(#paint5_linear)"/>
<path d="M646.29 401.954C646.29 401.891 644.845 394.416 649.368 384.743C654.016 374.945 656.214 364.204 655.272 356.039C654.769 351.642 657.596 349.883 660.36 348.187C663.06 346.554 665.824 344.858 665.699 340.462C665.573 336.504 667.206 327.271 667.269 326.894L667.834 327.02C667.834 327.146 666.138 336.567 666.264 340.462C666.452 345.172 663.5 346.994 660.674 348.69C657.973 350.323 655.397 351.893 655.9 355.913C656.842 364.204 654.581 375.071 649.933 384.995C645.473 394.416 646.855 401.702 646.855 401.828L646.29 401.954Z" fill="white"/>
<path d="M657.092 360.75C660.107 357.986 664.064 357.546 663.248 361.692C662.431 365.837 659.605 367.031 660.987 369.606C662.431 372.181 664.755 374.819 660.735 378.023C656.716 381.226 654.454 381.603 653.261 387.633C652.067 393.663 652.319 397.808 647.105 398.059C641.892 398.311 643.902 390.711 645.598 387.319C645.598 387.319 648.11 383.424 646.414 378.274C644.781 373.123 641.578 370.36 648.299 368.601C655.082 366.842 655.082 362.634 657.092 360.75Z" fill="white"/>
<path d="M647.545 401.891C647.545 401.137 647.169 383.739 650.435 380.849C653.764 377.834 654.392 372.558 654.455 369.669C654.58 365.9 659.417 363.702 659.605 363.576L659.856 364.141C659.794 364.141 655.146 366.34 655.02 369.669C654.894 373.312 654.078 378.274 650.749 381.226C647.671 383.99 648.048 401.64 648.048 401.828L647.545 401.891Z" fill="url(#paint6_linear)"/>
<path d="M659.731 394.793L654.392 415.27H642.332L636.931 394.793H659.731Z" fill="url(#paint7_linear)"/>
<path d="M659.731 394.793C659.731 394.793 647.86 396.992 647.86 415.27H642.269L636.868 394.793H659.731Z" fill="url(#paint8_linear)"/>
<defs>
<linearGradient id="paint0_linear" x1="644.552" y1="368.219" x2="685.09" y2="368.219" gradientUnits="userSpaceOnUse">
<stop stop-color="#3076A1"/>
<stop offset="1" stop-color="#639C38"/>
</linearGradient>
<linearGradient id="paint1_linear" x1="641.032" y1="362.309" x2="693.959" y2="362.309" gradientUnits="userSpaceOnUse">
<stop stop-color="#3076A1"/>
<stop offset="1" stop-color="#639C38"/>
</linearGradient>
<linearGradient id="paint2_linear" x1="628.871" y1="354.302" x2="663.01" y2="354.302" gradientUnits="userSpaceOnUse">
<stop stop-color="#3076A1"/>
<stop offset="1" stop-color="#639C38"/>
</linearGradient>
<linearGradient id="paint3_linear" x1="638.361" y1="361.684" x2="648.712" y2="361.684" gradientUnits="userSpaceOnUse">
<stop stop-color="#3076A1"/>
<stop offset="1" stop-color="#639C38"/>
</linearGradient>
<linearGradient id="paint4_linear" x1="614.933" y1="363.736" x2="648.35" y2="363.736" gradientUnits="userSpaceOnUse">
<stop stop-color="#3076A1"/>
<stop offset="1" stop-color="#639C38"/>
</linearGradient>
<linearGradient id="paint5_linear" x1="637.308" y1="439.449" x2="665.422" y2="330.113" gradientUnits="userSpaceOnUse">
<stop stop-color="#3076A1"/>
<stop offset="1" stop-color="#639C38"/>
</linearGradient>
<linearGradient id="paint6_linear" x1="647.527" y1="382.772" x2="659.881" y2="382.772" gradientUnits="userSpaceOnUse">
<stop stop-color="#3076A1"/>
<stop offset="1" stop-color="#639C38"/>
</linearGradient>
<linearGradient id="paint7_linear" x1="636.919" y1="405.045" x2="659.758" y2="405.045" gradientUnits="userSpaceOnUse">
<stop stop-color="#FF9340"/>
<stop offset="1" stop-color="#FFCE45"/>
</linearGradient>
<linearGradient id="paint8_linear" x1="636.919" y1="405.045" x2="659.758" y2="405.045" gradientUnits="userSpaceOnUse">
<stop stop-color="#C97332"/>
<stop offset="1" stop-color="#FFCE45"/>
</linearGradient>
</defs>
</svg>
