<svg width="600" height="431" viewBox="0 0 600 431" fill="none" xmlns="http://www.w3.org/2000/svg">
<path d="M425.747 377.241H215.501C211.159 377.241 207.617 373.7 207.617 369.36V345.033C207.617 340.693 211.159 337.152 215.501 337.152H425.747C430.089 337.152 433.631 340.693 433.631 345.033V369.36C433.631 373.7 430.089 377.241 425.747 377.241Z" fill="url(#paint0_linear_2751_12030)"/>
<path d="M480.479 129.515C479.45 129.172 478.765 128.83 478.765 128.83C479.336 128.601 479.907 128.373 480.479 128.145C488.934 124.147 503.903 109.985 519.557 67.1554C536.468 21.128 562.52 35.7471 562.52 35.7471C548.923 42.2572 551.436 72.866 531.098 108.043C513.501 138.424 487.334 131.799 480.479 129.515Z" fill="#609A3E"/>
<path d="M480.479 129.519C479.45 129.176 478.765 128.833 478.765 128.833C479.336 128.605 479.907 128.376 480.479 128.148C493.505 124.836 509.616 116.613 517.843 100.28C524.127 87.8312 533.611 61.7909 533.726 61.5625L534.983 62.0193C534.868 62.2478 525.384 88.4023 519.1 100.851C510.644 117.641 493.847 126.092 480.479 129.519Z" fill="url(#paint1_linear_2751_12030)"/>
<path d="M542.069 137.854C500.134 160.583 482.423 127.233 481.052 124.606C480.937 124.492 480.938 124.492 480.938 124.492C482.194 124.72 483.451 124.834 484.594 124.948C516.816 127.347 536.013 90.1139 558.637 76.6369C582.061 62.5888 600.001 80.1774 600.001 80.1774C577.833 72.7537 585.603 114.098 542.069 137.854Z" fill="#609A3E"/>
<path d="M509.961 131.685C499.448 132.142 489.279 128.83 480.938 124.604C480.823 124.49 480.823 124.49 480.823 124.49C482.08 124.718 483.337 124.832 484.48 124.946C492.021 128.373 500.819 130.771 509.846 130.429C521.387 129.972 531.442 124.946 539.669 115.467C565.607 85.4291 574.291 88.056 574.634 88.1702L574.405 88.8555L574.177 89.5407C573.72 89.4265 565.036 88.2844 540.698 116.495C532.356 125.974 521.958 131.114 509.961 131.685Z" fill="url(#paint2_linear_2751_12030)"/>
<path d="M504.018 359.425H137.23C128.318 359.425 121.233 352.229 121.233 343.435V15.9897C121.233 7.08113 128.432 0 137.23 0H504.018C512.93 0 520.014 7.19535 520.014 15.9897V343.435C520.129 352.229 512.93 359.425 504.018 359.425Z" fill="url(#paint3_linear_2751_12030)"/>
<path d="M207.044 236.075C212.072 222.027 207.273 206.837 196.075 198.271C193.332 196.215 190.247 194.502 186.934 193.246C176.65 189.477 165.795 191.19 157.225 196.672C151.283 200.555 146.599 206.266 143.97 213.347C143.742 214.032 143.513 214.718 143.285 215.517C142.371 218.715 141.914 222.027 142.028 225.225C142.257 238.702 150.598 251.38 164.081 256.291C181.563 262.458 200.76 253.435 207.044 236.075ZM167.052 248.296C156.997 244.641 150.598 235.162 150.484 224.997C150.484 222.598 150.712 220.086 151.512 217.687C151.626 217.116 151.855 216.659 152.083 216.088C154.026 210.72 157.568 206.494 162.024 203.639C168.423 199.527 176.536 198.271 184.306 201.126C186.819 202.04 189.105 203.296 191.161 204.895C199.503 211.406 203.159 222.827 199.388 233.334C194.475 246.24 180.078 252.979 167.052 248.296Z" fill="white"/>
<path d="M161.91 203.634L157.34 196.553C165.795 191.071 176.765 189.358 187.048 193.127C190.476 194.383 193.562 196.096 196.19 198.152L191.048 204.776C188.991 203.177 186.706 201.921 184.192 201.007C176.422 198.266 168.309 199.408 161.91 203.634Z" fill="#1A598C"/>
<path d="M151.397 217.692L143.284 215.407C143.513 214.722 143.741 214.037 143.97 213.237C146.598 206.156 151.283 200.446 157.224 196.562L161.795 203.644C157.339 206.499 153.796 210.839 151.854 216.093C151.74 216.664 151.625 217.121 151.397 217.692Z" fill="#2273B5"/>
<path d="M142.028 225.108C142.028 221.91 142.371 218.598 143.285 215.4L151.398 217.685C150.712 220.083 150.37 222.596 150.37 224.994L142.028 225.108Z" fill="#3D96E0"/>
<path d="M301.083 230.825C303.826 216.206 296.627 201.929 284.172 195.191C281.201 193.592 277.888 192.335 274.346 191.65C263.605 189.594 253.093 193.021 245.551 199.759C240.295 204.442 236.639 210.838 235.153 218.376C235.039 219.061 234.925 219.86 234.81 220.546C234.353 223.858 234.468 227.17 235.039 230.368C237.438 243.731 247.722 254.809 261.891 257.436C280.173 260.977 297.655 248.984 301.083 230.825ZM263.491 249.327C252.978 247.385 245.208 239.048 243.38 228.997C242.923 226.599 242.923 224.086 243.152 221.688C243.266 221.117 243.266 220.546 243.38 219.975C244.409 214.378 247.265 209.581 251.15 206.041C256.749 200.901 264.633 198.389 272.746 199.987C275.374 200.444 277.888 201.358 280.173 202.614C289.428 207.64 294.913 218.376 292.856 229.34C290.343 242.931 277.202 251.84 263.491 249.327Z" fill="white"/>
<path d="M251.265 206.039L245.666 199.871C253.207 193.019 263.72 189.706 274.461 191.762C278.003 192.447 281.316 193.59 284.287 195.303L280.288 202.612C278.003 201.356 275.603 200.442 272.861 199.985C264.748 198.387 256.864 200.899 251.265 206.039Z" fill="#4B59C7"/>
<path d="M243.268 221.682L234.927 220.654C235.041 219.968 235.155 219.169 235.27 218.484C236.641 211.06 240.411 204.664 245.668 199.867L251.267 206.035C247.382 209.575 244.525 214.372 243.497 219.968C243.382 220.539 243.268 221.111 243.268 221.682Z" fill="#6F5BE0"/>
<path d="M235.154 230.482C234.583 227.284 234.469 223.972 234.926 220.66L243.267 221.688C242.924 224.201 243.038 226.713 243.495 228.998L235.154 230.482Z" fill="#B487FE"/>
<path d="M376.498 195.074C363.357 188.107 347.589 190.734 337.42 200.556C334.906 202.955 332.849 205.696 331.135 208.894C325.993 218.488 326.107 229.566 330.335 238.817C333.306 245.213 338.334 250.695 344.961 254.236C345.647 254.578 346.332 254.921 347.018 255.264C350.103 256.634 353.302 257.548 356.502 257.891C369.985 259.604 383.582 253.094 390.324 240.416C399.008 224.084 392.838 203.754 376.498 195.074ZM382.897 236.419C377.869 245.898 367.585 250.81 357.53 249.553C355.13 249.211 352.731 248.639 350.446 247.497C349.989 247.269 349.417 247.041 348.96 246.812C343.933 244.185 340.162 240.074 337.991 235.277C334.791 228.424 334.791 220.087 338.562 212.891C339.819 210.493 341.419 208.437 343.247 206.61C350.903 199.3 362.672 197.244 372.499 202.498C384.839 209.008 389.41 224.198 382.897 236.419Z" fill="white"/>
<path d="M337.991 235.273L330.335 238.814C326.107 229.563 325.993 218.598 331.135 208.89C332.849 205.692 335.02 202.951 337.42 200.553L343.247 206.606C341.419 208.433 339.819 210.489 338.562 212.888C334.677 220.083 334.791 228.306 337.991 235.273Z" fill="#1A598C"/>
<path d="M350.447 247.499L347.019 255.151C346.334 254.808 345.648 254.466 344.963 254.123C338.221 250.583 333.308 245.1 330.337 238.705L337.993 235.164C340.164 239.961 343.934 244.073 348.962 246.699C349.419 247.042 349.99 247.271 350.447 247.499Z" fill="#2273B5"/>
<path d="M356.501 257.888C353.302 257.432 350.103 256.632 347.018 255.262L350.445 247.609C352.731 248.637 355.13 249.323 357.53 249.665L356.501 257.888Z" fill="#3788CC"/>
<path d="M209.102 274.107H142.029V279.247H209.102V274.107Z" fill="#C4C4C4"/>
<path d="M192.191 285.074H142.029V290.214H192.191V285.074Z" fill="#C4C4C4"/>
<path d="M271.719 274.107H234.697V279.247H271.719V274.107Z" fill="#C4C4C4"/>
<path d="M289.544 285.074H234.697V290.214H289.544V285.074Z" fill="#C4C4C4"/>
<path d="M374.442 274.107H333.307V279.247H374.442V274.107Z" fill="#C4C4C4"/>
<path d="M380.955 285.074H333.307V290.214H380.955V285.074Z" fill="#C4C4C4"/>
<path d="M486.079 54.4785H437.288V59.3896H486.079V54.4785Z" fill="#B8D6FF"/>
<path d="M493.277 69.5566H437.288V74.4677H493.277V69.5566Z" fill="#B8D6FF"/>
<path d="M466.311 84.6309H437.288V89.542H466.311V84.6309Z" fill="#B8D6FF"/>
<path d="M481.965 99.707H437.288V104.618H481.965V99.707Z" fill="#B8D6FF"/>
<path d="M355.36 309.742H142.029V314.768H355.36V309.742Z" fill="white"/>
<path d="M372.5 321.393H142.029V326.418H372.5V321.393Z" fill="white"/>
<path d="M291.601 333.041H142.029V338.066H291.601V333.041Z" fill="white"/>
<path d="M253.094 309.742H142.029V314.768H253.094V309.742Z" fill="#FFA347"/>
<path d="M262.006 321.393H142.029V326.418H262.006V321.393Z" fill="#FFA347"/>
<path d="M219.957 333.041H142.029V338.066H219.957V333.041Z" fill="#FFA347"/>
<path d="M216.644 146.42H173.224V151.788H216.644V146.42Z" fill="#D6D6D6"/>
<path d="M227.27 136.824H162.711V142.192H227.27V136.824Z" fill="#D6D6D6"/>
<path d="M206.246 63.3861C206.246 69.5536 201.219 74.5789 195.048 74.5789C188.878 74.5789 183.851 69.5536 183.851 63.3861C183.851 57.2187 188.878 52.1934 195.048 52.1934C201.219 52.1934 206.246 57.2187 206.246 63.3861Z" fill="url(#paint4_linear_2751_12030)"/>
<path d="M215.273 99.9352V121.293C209.102 124.148 202.132 125.633 194.934 125.633C187.735 125.633 180.765 124.034 174.595 121.293V99.9352C174.595 88.7424 183.736 79.6055 194.934 79.6055C206.246 79.6055 215.273 88.7424 215.273 99.9352Z" fill="url(#paint5_linear_2751_12030)"/>
<path d="M369.758 46.8262H265.206V53.5647H369.758V46.8262Z" fill="white"/>
<path d="M421.52 46.8262H380.956V53.5647H421.52V46.8262Z" fill="white"/>
<path d="M314.34 31.5234H265.206V38.2619H314.34V31.5234Z" fill="white"/>
<path d="M266.691 73.0938H265.777V152.928H266.691V73.0938Z" fill="#BDE1FF"/>
<path d="M288.974 73.0938H288.06V152.928H288.974V73.0938Z" fill="#BDE1FF"/>
<path d="M311.254 73.0938H310.34V152.928H311.254V73.0938Z" fill="#BDE1FF"/>
<path d="M333.421 73.0938H332.507V152.928H333.421V73.0938Z" fill="#BDE1FF"/>
<path d="M355.702 73.0938H354.788V152.928H355.702V73.0938Z" fill="#BDE1FF"/>
<path d="M377.985 73.0938H377.071V152.928H377.985V73.0938Z" fill="#BDE1FF"/>
<path d="M400.15 73.0938H399.236V152.928H400.15V73.0938Z" fill="#BDE1FF"/>
<path d="M422.433 73.0938H421.519V152.928H422.433V73.0938Z" fill="#BDE1FF"/>
<path d="M266.235 126.433L281.432 111.357L288.745 118.667L304.857 102.563L317.654 115.355L333.994 99.0223L345.192 110.215L373.758 81.6621L395.125 103.02L408.037 90.1138L421.977 104.048V152.93H266.235V126.433Z" fill="#4AAFFF"/>
<path d="M266.235 136.484L278.347 124.377L286.003 132.029L294.916 123.121L311.598 139.91L332.508 119.009L339.936 126.433L361.531 104.961L381.185 124.606L421.977 83.832V152.93H266.235V136.484Z" fill="#6F5BE0"/>
<path d="M275.146 66.3574H265.776V68.299H275.146V66.3574Z" fill="#BDE1FF"/>
<path d="M294.457 66.3574H288.059V68.299H294.457V66.3574Z" fill="#BDE1FF"/>
<path d="M318.225 66.3574H310.341V68.299H318.225V66.3574Z" fill="#BDE1FF"/>
<path d="M338.334 66.3574H332.507V68.299H338.334V66.3574Z" fill="#BDE1FF"/>
<path d="M359.702 66.3574H354.789V68.299H359.702V66.3574Z" fill="#BDE1FF"/>
<path d="M386.554 66.3574H377.07V68.299H386.554V66.3574Z" fill="#BDE1FF"/>
<path d="M405.866 66.3574H399.238V68.299H405.866V66.3574Z" fill="#BDE1FF"/>
<path d="M425.746 66.3574H421.519V68.299H425.746V66.3574Z" fill="#BDE1FF"/>
<path opacity="0.73" d="M546.866 347.547H445.857C439.344 347.547 434.088 342.294 434.088 335.784V190.963C434.088 184.453 439.344 179.199 445.857 179.199H546.866C553.379 179.199 558.636 184.453 558.636 190.963V335.898C558.636 342.294 553.379 347.547 546.866 347.547Z" fill="white"/>
<path d="M467.111 206.723H463.454V320.135H467.111V206.723Z" fill="#D6D6D6"/>
<path d="M487.792 206.723H484.136V320.135H487.792V206.723Z" fill="#D6D6D6"/>
<path d="M508.473 206.723H504.816V320.135H508.473V206.723Z" fill="#D6D6D6"/>
<path d="M529.156 206.723H525.5V320.135H529.156V206.723Z" fill="#D6D6D6"/>
<path d="M468.71 263.371H461.854V309.398H468.71V263.371Z" fill="url(#paint6_linear_2751_12030)"/>
<path d="M489.392 224.656H482.536V270.684H489.392V224.656Z" fill="url(#paint7_linear_2751_12030)"/>
<path d="M510.074 250.467H503.218V296.494H510.074V250.467Z" fill="url(#paint8_linear_2751_12030)"/>
<path d="M530.754 245.213H523.898V291.24H530.754V245.213Z" fill="url(#paint9_linear_2751_12030)"/>
<path d="M194.932 127.004C187.619 127.004 180.649 125.52 174.022 122.55C155.968 114.327 144.313 96.2813 144.313 76.5226C144.313 48.655 166.938 26.041 194.818 26.041C222.698 26.041 245.323 48.655 245.323 76.5226C245.323 96.2813 233.668 114.327 215.614 122.55C209.33 125.52 202.245 127.004 194.932 127.004ZM194.932 28.6679C168.537 28.6679 147.056 50.1397 147.056 76.5226C147.056 95.2534 158.025 112.385 175.165 120.152C181.335 123.007 188.077 124.377 194.932 124.377C201.788 124.377 208.53 122.893 214.7 120.152C231.725 112.385 242.809 95.2534 242.809 76.5226C242.809 50.1397 221.327 28.6679 194.932 28.6679Z" fill="url(#paint10_linear_2751_12030)"/>
<path d="M58.9606 249.668C58.9606 249.668 68.3302 228.425 57.4751 230.252C57.4751 230.252 53.8187 233.336 49.9337 239.503C47.0771 244.186 41.1354 256.749 41.2497 260.861C41.4782 265.087 44.4491 268.285 47.7627 275.023C47.7627 275.023 54.5043 287.586 54.7328 289.071L61.8172 285.416C61.8172 285.416 55.7612 273.424 51.5334 262.802L58.9606 249.668Z" fill="#6F5BE0"/>
<path d="M4.1135 313.283L147.515 288.842L143.401 264.4L0 288.842L4.1135 313.283Z" fill="url(#paint11_linear_2751_12030)"/>
<path d="M147.03 285.943L154.689 284.639L151.541 266.174L143.882 267.479L147.03 285.943Z" fill="#2D3038"/>
<path d="M113.121 429.32H114.835C114.835 429.32 114.264 422.696 115.864 422.581C117.463 422.467 121.577 428.063 123.976 428.863C126.376 429.662 138.831 430.462 138.945 428.178C139.059 425.893 134.146 424.98 132.66 424.294C131.175 423.609 123.862 416.528 122.491 415.614C121.234 414.815 118.949 408.876 118.949 408.876L111.979 408.533C111.979 408.533 111.636 414.015 111.179 416.985C111.064 418.013 110.95 419.041 110.836 419.726C110.95 422.239 113.121 429.32 113.121 429.32Z" fill="#EEA886"/>
<path d="M68.4442 427.951H69.9296V421.783C71.1865 421.898 75.3 425.781 76.5569 426.923C77.8138 428.065 79.5278 427.951 84.8982 428.293C90.2686 428.636 90.7256 425.438 89.9258 424.296C89.1259 423.154 86.3836 422.697 84.8982 422.012C83.4128 421.327 77.8138 414.931 76.3284 413.446C74.843 411.961 73.9288 407.621 73.9288 407.621L67.6443 408.192C67.6443 408.192 67.6443 412.19 66.9587 415.387C66.8445 415.616 66.8445 415.959 66.7302 416.187C65.8161 419.842 68.4442 427.951 68.4442 427.951Z" fill="#EEA886"/>
<path d="M91.6394 287.242C91.6394 287.242 94.0389 292.839 94.2675 294.323C94.496 295.694 99.9807 309.171 101.695 318.194C102.609 323.562 105.351 340.579 105.58 342.749C105.922 346.404 107.636 354.627 107.979 358.396C108.093 360.452 118.491 392.888 121.005 409.677C121.005 409.677 115.063 410.591 110.493 409.335C110.493 409.335 101.352 391.86 96.3242 367.076C93.2391 352.115 90.611 344.234 88.2115 338.067C85.8119 331.899 72.4431 314.539 71.0719 312.597C69.7007 310.656 60.9024 299.806 69.2437 288.156C77.4707 276.506 91.6394 287.242 91.6394 287.242Z" fill="#1D3B54"/>
<path d="M61.8167 336.924C62.6166 341.95 61.8167 348.574 60.217 366.962C58.6174 385.35 62.9594 407.621 62.9594 407.621C68.4441 409.449 74.7286 407.621 74.7286 407.621C74.6143 406.365 74.7286 362.736 74.7286 358.853C74.7286 354.97 75.8712 350.516 76.0997 346.061C76.3283 342.978 77.6994 337.381 79.2991 331.671C79.7562 329.957 80.2132 328.244 80.7846 326.531C81.0131 325.617 81.3559 324.704 81.5844 323.79C83.8697 316.024 86.8405 285.986 86.8405 285.986C86.8405 285.986 70.158 272.509 62.0453 285.186C53.9325 297.864 58.046 307.001 58.3888 308.6C58.6174 310.541 61.0169 331.899 61.8167 336.924Z" fill="#1D3B54"/>
<path d="M68.6729 309.857C68.7871 310.2 77.1284 328.588 79.2994 331.786C79.7565 330.073 80.2135 328.36 80.7848 326.647C80.7848 326.647 69.0156 310.314 68.6729 309.857Z" fill="#122536"/>
<path d="M68.4442 427.951H69.9296V421.784C71.1865 421.898 75.3 425.781 76.5569 426.924C77.8138 428.066 79.5278 427.952 84.8982 428.294C90.2686 428.637 90.7256 425.439 89.9258 424.297C89.1259 423.155 86.3836 422.698 84.8982 422.013C79.185 422.355 72.1006 414.246 68.787 414.246C66.9587 414.246 66.9587 415.274 66.9587 415.388C66.8445 415.617 66.8445 415.959 66.7302 416.188C65.8161 419.842 68.4442 427.951 68.4442 427.951Z" fill="#172F42"/>
<path d="M113.121 429.323H114.835C114.835 429.323 114.264 422.699 115.864 422.585C117.463 422.47 121.577 428.067 123.976 428.866C126.376 429.666 138.831 430.465 138.945 428.181C139.059 425.897 134.146 424.983 132.66 424.298C127.518 424.298 119.177 418.701 116.663 417.559C114.035 416.417 111.293 417.102 111.293 417.102C111.179 418.13 111.064 419.158 110.95 419.843C110.95 422.242 113.121 429.323 113.121 429.323Z" fill="#172F42"/>
<path d="M76.8996 216.888C76.8996 216.888 74.2715 223.969 76.3283 229.337C76.3283 229.337 66.5016 228.651 66.1588 227.509C65.816 226.367 66.5016 215.86 65.2447 212.662C63.8735 209.692 76.8996 216.888 76.8996 216.888Z" fill="#EEA886"/>
<path d="M77.9283 226.938C77.9283 226.938 83.7558 228.994 86.2696 229.565C88.8976 230.136 94.3823 232.763 93.9252 242.471C93.4682 252.179 91.8685 260.631 91.2972 264.857C90.7258 269.083 91.0686 279.704 91.9828 284.844C91.9828 284.844 78.1568 288.384 61.8171 284.844C61.8171 284.844 64.6737 276.049 64.6737 273.765C64.5594 271.481 55.0755 252.75 54.6184 249.781C54.1614 246.811 52.2189 233.791 56.5609 230.822C60.903 227.966 64.4451 228.309 66.3876 227.053C68.2159 225.682 75.186 226.025 77.9283 226.938Z" fill="#6F5BE0"/>
<path d="M55.6465 300.147C79.2991 306.429 98.1526 300.147 98.1526 300.147C96.4387 296.607 95.1818 293.066 94.2677 289.754C93.5821 287.356 93.125 284.957 92.7822 282.787C90.8398 269.881 93.3536 260.059 93.3536 260.059C90.6112 237.559 56.6748 230.935 53.9325 238.016C51.1902 245.097 59.1887 275.706 59.6457 278.333C59.9885 280.846 55.6465 300.147 55.6465 300.147Z" fill="#6F5BE0"/>
<path d="M68.4446 188.564C72.3296 187.193 82.9561 185.823 85.6985 202.041C88.4408 218.373 82.4991 218.602 76.4431 218.145C70.3871 217.688 60.7889 206.724 60.1034 203.297C59.3035 200.099 57.2468 192.447 68.4446 188.564Z" fill="#EEA886"/>
<path d="M83.5268 194.846C83.5268 194.846 80.3274 201.813 75.9854 204.211C75.9854 204.211 73.3573 211.635 67.5299 214.605C67.5299 214.605 52.2185 204.44 61.1311 192.448C70.0437 180.341 82.4984 189.935 83.5268 194.846Z" fill="#E8734D"/>
<path d="M76.3281 201.81C75.9854 201.01 73.7001 199.64 72.6717 201.924C71.6433 204.208 75.2998 208.32 76.3281 208.091C77.3565 207.863 77.6993 205.007 76.3281 201.81Z" fill="#EEA886"/>
<path d="M61.7026 194.274C61.3598 193.702 51.1904 189.02 49.1336 198.842C47.0769 208.664 57.2463 220.085 59.0746 224.996C60.9028 229.908 58.2747 241.443 58.2747 241.443C58.2747 241.443 64.445 235.618 66.2732 229.451C68.3299 222.598 69.0155 205.695 61.7026 194.274Z" fill="#E8734D"/>
<path d="M61.1309 193.932C61.1309 193.932 64.216 196.33 64.673 200.213C64.673 200.213 65.2444 197.244 63.9875 195.302C62.7306 193.475 61.1309 193.932 61.1309 193.932Z" fill="#E54242"/>
<path d="M94.153 289.639C93.4674 287.241 93.0103 284.842 92.6675 282.672C92.6675 282.672 91.0678 279.36 90.6108 277.761C90.0395 276.162 86.1545 256.746 86.1545 256.746C86.1545 256.746 82.041 275.02 94.153 289.639Z" fill="#1D3B54"/>
<path d="M111.636 290.783C111.636 290.783 114.721 293.753 115.635 294.095C116.664 294.438 118.492 292.725 125.576 292.154C126.147 292.154 127.29 292.611 127.062 293.524C126.833 294.324 123.748 296.494 122.491 296.836C121.234 297.179 115.064 299.578 111.979 298.435C109.008 297.179 106.951 293.41 106.951 293.41L111.636 290.783Z" fill="#EEA886"/>
<path d="M87.8693 230.135C87.8693 230.135 95.9821 233.333 96.4391 244.64C96.8962 255.947 97.3532 261.771 97.8103 263.485C98.2673 265.198 99.0672 272.165 101.124 276.391C103.066 280.502 116.092 293.408 116.092 293.408L109.808 299.347C109.808 299.347 91.7543 281.187 90.6117 277.875C89.469 274.563 85.0127 251.492 84.6699 247.609C84.3271 244.297 80.2136 230.363 87.8693 230.135Z" fill="#6F5BE0"/>
<path opacity="0.1" d="M317.767 255.949C317.767 299.235 282.688 334.298 239.382 334.298C196.076 334.298 160.997 299.235 160.997 255.949C160.997 212.663 196.076 177.6 239.382 177.6C282.688 177.6 317.767 212.663 317.767 255.949Z" fill="#B8B8B8"/>
<path opacity="0.3" d="M188.764 200.328C188.764 200.328 286.459 188.222 305.884 291.241C311.483 280.733 314.683 268.741 314.683 255.949C314.683 214.376 280.975 180.684 239.383 180.684C219.843 180.798 202.133 188.222 188.764 200.328Z" fill="#869AC2"/>
<path d="M239.384 165.949C189.679 165.949 149.344 206.266 149.344 255.948C149.344 305.63 189.679 345.947 239.384 345.947C289.089 345.947 329.424 305.63 329.424 255.948C329.424 206.266 289.089 165.949 239.384 165.949ZM239.384 331.328C197.792 331.328 163.97 297.635 163.97 255.948C163.97 214.375 197.677 180.568 239.384 180.568C280.976 180.568 314.798 214.261 314.798 255.948C314.684 297.635 280.976 331.328 239.384 331.328Z" fill="#3F444F"/>
<path d="M577.833 412.416C577.833 412.416 578.519 417.327 578.633 418.127C578.747 418.812 586.746 417.67 586.746 417.67L587.431 411.845C587.431 411.845 578.861 411.731 577.833 412.416Z" fill="#5C544D"/>
<path d="M578.519 417.559C578.519 417.559 576.005 420.529 573.492 421.785C570.978 423.042 567.207 423.613 565.722 424.983C564.693 425.897 561.837 430.123 572.12 430.009C582.404 429.894 587.318 430.58 588.346 428.981C589.489 427.382 586.746 417.217 586.746 417.217C586.746 417.217 584.461 418.016 578.519 417.559Z" fill="#1C1E26"/>
<path d="M520.244 412.416C520.244 412.416 520.93 417.327 521.044 418.127C521.158 418.812 529.157 417.67 529.157 417.67L529.842 411.845C529.842 411.845 521.273 411.731 520.244 412.416Z" fill="#5C544D"/>
<path d="M520.929 417.556C520.929 417.556 518.415 420.526 515.901 421.782C513.388 423.039 504.361 424.181 502.875 425.437C501.847 426.351 500.019 430.348 514.53 429.891C524.814 429.663 529.727 430.462 530.756 428.863C531.898 427.264 529.156 417.1 529.156 417.1C529.156 417.1 526.985 418.128 520.929 417.556Z" fill="#1C1E26"/>
<path d="M574.977 285.188C574.977 285.188 579.204 297.408 578.747 307.916C578.176 318.423 580.918 329.959 582.061 341.037C583.318 353.372 588.46 382.382 588.688 389.006C588.917 395.63 587.888 416.531 587.888 416.531L577.49 416.76C577.49 416.76 568.806 365.935 566.521 360.796C564.236 355.656 553.038 318.652 552.695 314.426C552.352 310.2 574.977 285.188 574.977 285.188Z" fill="#20284D"/>
<path d="M531.442 287.356C531.442 287.356 525.729 316.251 525.043 322.761C524.243 329.271 523.786 354.055 523.444 358.053C523.101 362.05 520.93 410.819 518.987 416.872H532.242C532.242 416.872 542.411 381.466 542.411 364.677C542.411 347.888 550.296 328.243 555.323 317.165C560.351 306.086 572.006 305.858 575.091 285.3C574.977 285.186 535.67 280.846 531.442 287.356Z" fill="#20284D"/>
<path d="M558.294 188.561C558.294 188.561 547.896 184.792 542.983 192.444C538.183 200.096 538.64 215.401 543.897 217.342C549.153 219.284 557.037 218.256 559.779 213.459C562.522 208.662 564.921 201.695 564.807 197.127C564.807 192.444 561.036 189.817 558.294 188.561Z" fill="#EEA886"/>
<path d="M545.726 216.774C545.726 216.774 546.183 219.401 545.497 220.658C544.812 221.914 558.638 222.028 558.638 222.028C558.638 222.028 559.78 214.947 561.837 209.008C564.008 203.069 545.726 216.774 545.726 216.774Z" fill="#EEA886"/>
<path d="M561.837 209.007C561.837 209.007 560.923 210.491 557.038 209.92C553.153 209.349 548.354 204.324 546.754 203.753C545.154 203.182 545.154 202.268 545.154 202.268L544.126 203.753L542.412 203.867C542.412 203.867 544.012 199.413 541.612 197.585C539.212 195.758 544.126 183.081 556.581 187.306C556.581 187.306 566.179 189.819 565.836 195.073C565.379 200.441 564.008 206.494 561.837 209.007Z" fill="#FCCCA2"/>
<path d="M544.696 220.54C544.696 220.54 544.696 218.028 545.953 217.799C547.096 217.571 558.865 216.429 560.236 217V219.855C560.236 219.969 557.38 221.568 544.696 220.54Z" fill="#E2D2CA"/>
<path d="M545.383 200.441C545.612 199.527 547.897 197.014 548.811 199.755C549.725 202.496 547.44 206.037 546.183 205.809C544.926 205.466 544.812 202.725 545.383 200.441Z" fill="#EEA886"/>
<path d="M544.697 220.542C544.697 220.542 538.298 222.712 530.871 225.796C530.871 225.796 522.301 228.879 521.387 238.016C520.93 242.813 515.56 268.511 514.531 270.681C513.503 272.851 501.619 307.685 501.277 308.485C500.82 309.17 510.989 313.282 511.675 312.939C512.36 312.597 523.101 281.188 524.244 278.79C524.244 278.79 530.414 259.945 530.643 257.09C530.643 257.09 530.871 265.084 531.1 267.369C531.442 269.653 525.615 313.282 525.729 314.538C525.843 315.794 552.353 317.279 562.979 316.137C573.606 314.995 582.176 312.711 582.176 312.711C582.176 312.711 573.834 278.219 574.063 274.336C574.634 265.998 577.491 250.351 577.491 250.351L586.175 265.998L575.091 293.409L577.605 301.746C577.605 301.746 598.173 271.823 598.858 269.082C599.544 266.341 597.83 262.914 596.801 260.63C595.659 258.346 588.574 241.214 586.86 238.816C585.146 236.417 582.404 226.709 575.548 224.082C569.835 221.798 560.237 219.971 560.237 219.971L544.697 220.542Z" fill="#313D75"/>
<path d="M530.528 324.247L482.08 312.369L490.764 279.818L539.212 291.696L530.528 324.247Z" fill="#C4C4C4"/>
<path d="M496.934 315.566C496.934 315.566 495.563 317.736 494.991 318.307C494.534 318.879 496.248 319.335 496.934 318.65C497.848 318.079 496.934 315.566 496.934 315.566Z" fill="#C98462"/>
<path d="M506.989 322.99C506.989 322.99 507.789 322.19 508.018 321.619C508.018 321.619 508.246 320.591 508.475 319.906C508.589 319.678 508.589 319.449 508.703 319.335C508.932 318.878 509.617 317.85 509.846 316.48C510.074 315.109 510.646 309.17 510.646 309.17L506.875 308.257L503.904 307.686C503.904 307.686 497.391 313.967 497.048 315.109C497.048 315.224 496.934 315.338 496.934 315.452C496.706 316.48 497.048 317.394 497.048 317.965C497.048 318.193 497.048 320.249 497.62 320.591C498.305 321.163 498.991 321.277 499.562 321.048C499.562 321.048 500.933 322.076 502.19 321.962C502.19 321.962 503.447 322.876 504.932 322.419C504.818 322.647 506.189 323.447 506.989 322.99Z" fill="#DE9D7D"/>
<path d="M521.729 285.185C521.729 285.185 513.159 310.312 511.559 312.938C511.559 312.938 505.275 311.682 501.161 308.484L510.645 281.416L521.729 285.185Z" fill="#313D75"/>
<defs>
<linearGradient id="paint0_linear_2751_12030" x1="320.643" y1="413.223" x2="320.643" y2="315.862" gradientUnits="userSpaceOnUse">
<stop stop-color="#D5E4FF"/>
<stop offset="1" stop-color="#EDFFFE"/>
</linearGradient>
<linearGradient id="paint1_linear_2751_12030" x1="483.934" y1="139.116" x2="524.404" y2="74.0216" gradientUnits="userSpaceOnUse">
<stop offset="0.00518135" stop-color="#3C6127"/>
<stop offset="1" stop-color="#639C38"/>
</linearGradient>
<linearGradient id="paint2_linear_2751_12030" x1="490.675" y1="136.839" x2="566.102" y2="77.1195" gradientUnits="userSpaceOnUse">
<stop offset="0.00518135" stop-color="#3C6127"/>
<stop offset="1" stop-color="#639C38"/>
</linearGradient>
<linearGradient id="paint3_linear_2751_12030" x1="461.153" y1="447.97" x2="213.476" y2="-25.439" gradientUnits="userSpaceOnUse">
<stop stop-color="#D5E4FF"/>
<stop offset="1" stop-color="#EDFFFE"/>
</linearGradient>
<linearGradient id="paint4_linear_2751_12030" x1="195.06" y1="33.8915" x2="195.06" y2="153.939" gradientUnits="userSpaceOnUse">
<stop stop-color="#40D5E6"/>
<stop offset="1" stop-color="#5577FF"/>
</linearGradient>
<linearGradient id="paint5_linear_2751_12030" x1="194.961" y1="33.8927" x2="194.961" y2="153.94" gradientUnits="userSpaceOnUse">
<stop stop-color="#40D5E6"/>
<stop offset="1" stop-color="#5577FF"/>
</linearGradient>
<linearGradient id="paint6_linear_2751_12030" x1="465.311" y1="250.685" x2="465.311" y2="354.988" gradientUnits="userSpaceOnUse">
<stop stop-color="#FFC05C"/>
<stop offset="1" stop-color="#FF3857"/>
</linearGradient>
<linearGradient id="paint7_linear_2751_12030" x1="485.992" y1="250.688" x2="485.992" y2="354.991" gradientUnits="userSpaceOnUse">
<stop stop-color="#FFC05C"/>
<stop offset="1" stop-color="#FF3857"/>
</linearGradient>
<linearGradient id="paint8_linear_2751_12030" x1="506.672" y1="250.686" x2="506.672" y2="354.989" gradientUnits="userSpaceOnUse">
<stop stop-color="#FFC05C"/>
<stop offset="1" stop-color="#FF3857"/>
</linearGradient>
<linearGradient id="paint9_linear_2751_12030" x1="527.351" y1="250.686" x2="527.351" y2="354.991" gradientUnits="userSpaceOnUse">
<stop stop-color="#FFC05C"/>
<stop offset="1" stop-color="#FF3857"/>
</linearGradient>
<linearGradient id="paint10_linear_2751_12030" x1="194.96" y1="43.4512" x2="194.96" y2="162.144" gradientUnits="userSpaceOnUse">
<stop stop-color="#D3DAE0"/>
<stop offset="1" stop-color="white"/>
</linearGradient>
<linearGradient id="paint11_linear_2751_12030" x1="-0.0436488" y1="288.852" x2="147.562" y2="288.852" gradientUnits="userSpaceOnUse">
<stop stop-color="#FF9F55"/>
<stop offset="1" stop-color="#FFD255"/>
</linearGradient>
</defs>
</svg>
