<svg width="211" height="63" viewBox="0 0 211 63" fill="none" xmlns="http://www.w3.org/2000/svg">
<path d="M202.651 62.4556H7.79425C3.50741 62.4556 0 58.9482 0 54.6613V7.89581C0 3.60898 3.50741 0.101562 7.79425 0.101562H202.651C206.937 0.101562 210.445 3.60898 210.445 7.89581V54.6613C210.445 58.9482 206.937 62.4556 202.651 62.4556Z" fill="black"/>
<path d="M202.651 1.34864C206.267 1.34864 209.198 4.27928 209.198 7.89581V54.6613C209.198 58.2779 206.267 61.2085 202.651 61.2085H7.79425C4.17772 61.2085 1.24708 58.2779 1.24708 54.6613V7.89581C1.24708 4.27928 4.17772 1.34864 7.79425 1.34864H202.651ZM202.651 0.101562H7.79425C3.50741 0.101562 0 3.60898 0 7.89581V54.6613C0 58.9482 3.50741 62.4556 7.79425 62.4556H202.651C206.937 62.4556 210.445 58.9482 210.445 54.6613V7.89581C210.445 3.60898 206.937 0.101562 202.651 0.101562Z" fill="#A6A6A6"/>
<path d="M73.9207 16.0658C73.9207 17.3753 73.531 18.4197 72.7516 19.1835C71.8786 20.1032 70.7251 20.5709 69.3221 20.5709C67.9659 20.5709 66.8279 20.1032 65.877 19.1679C64.9262 18.2326 64.4585 17.0635 64.4585 15.6917C64.4585 14.3043 64.9262 13.1508 65.877 12.2155C66.8279 11.2802 67.9659 10.8125 69.3221 10.8125C69.9924 10.8125 70.6315 10.9372 71.2395 11.2022C71.8475 11.4672 72.3307 11.8102 72.7048 12.2466L71.8786 13.0728C71.2551 12.3402 70.4133 11.966 69.3221 11.966C68.34 11.966 67.4827 12.309 66.7656 13.0105C66.0485 13.6964 65.69 14.6005 65.69 15.7073C65.69 16.8141 66.0485 17.7182 66.7656 18.4041C67.4827 19.09 68.34 19.4485 69.3221 19.4485C70.3665 19.4485 71.2395 19.1056 71.941 18.4041C72.3931 17.952 72.6581 17.3129 72.7204 16.5023H69.3221V15.3799H73.8584C73.8895 15.6138 73.9207 15.8476 73.9207 16.0658Z" fill="white" stroke="white" stroke-width="0.2" stroke-miterlimit="10"/>
<path d="M81.1071 12.1692H76.8514V15.131H80.6862V16.2534H76.8514V19.2152H81.1071V20.3687H75.6511V11.0156H81.1071V12.1692Z" fill="white" stroke="white" stroke-width="0.2" stroke-miterlimit="10"/>
<path d="M86.1731 20.3687H84.9728V12.1692H82.3539V11.0156H88.7763V12.1692H86.1575V20.3687H86.1731Z" fill="white" stroke="white" stroke-width="0.2" stroke-miterlimit="10"/>
<path d="M93.4369 20.3687V11.0156H94.6372V20.3687H93.4369Z" fill="white" stroke="white" stroke-width="0.2" stroke-miterlimit="10"/>
<path d="M99.9699 20.3687H98.7696V12.1692H96.1508V11.0156H102.573V12.1692H99.9544V20.3687H99.9699Z" fill="white" stroke="white" stroke-width="0.2" stroke-miterlimit="10"/>
<path d="M114.747 19.1523C113.827 20.1032 112.689 20.5709 111.318 20.5709C109.946 20.5709 108.808 20.1032 107.888 19.1523C106.968 18.2015 106.516 17.0479 106.516 15.6917C106.516 14.3355 106.968 13.1664 107.888 12.2311C108.808 11.2802 109.946 10.8125 111.318 10.8125C112.674 10.8125 113.812 11.2802 114.747 12.2311C115.667 13.182 116.134 14.3355 116.134 15.6917C116.119 17.0635 115.667 18.217 114.747 19.1523ZM108.777 18.3729C109.463 19.0744 110.32 19.4174 111.318 19.4174C112.315 19.4174 113.173 19.0744 113.859 18.3729C114.544 17.6714 114.903 16.7829 114.903 15.6917C114.903 14.6005 114.56 13.712 113.859 13.0105C113.173 12.309 112.315 11.966 111.318 11.966C110.32 11.966 109.463 12.309 108.777 13.0105C108.091 13.712 107.732 14.6005 107.732 15.6917C107.732 16.7829 108.091 17.6714 108.777 18.3729Z" fill="white" stroke="white" stroke-width="0.2" stroke-miterlimit="10"/>
<path d="M117.818 20.3687V11.0156H119.283L123.835 18.2955H123.881L123.835 16.4872V11.0156H125.035V20.3687H123.788L119.033 12.7459H118.987L119.033 14.5542V20.3687H117.818Z" fill="white" stroke="white" stroke-width="0.2" stroke-miterlimit="10"/>
<path d="M106.22 34.0063C102.557 34.0063 99.5635 36.7966 99.5635 40.6314C99.5635 44.4506 102.557 47.2565 106.22 47.2565C109.883 47.2565 112.876 44.4506 112.876 40.6314C112.876 36.7966 109.883 34.0063 106.22 34.0063ZM106.22 44.6532C104.209 44.6532 102.479 43.0009 102.479 40.6314C102.479 38.2464 104.209 36.6096 106.22 36.6096C108.231 36.6096 109.961 38.2464 109.961 40.6314C109.961 43.0009 108.215 44.6532 106.22 44.6532ZM91.6913 34.0063C88.028 34.0063 85.0351 36.7966 85.0351 40.6314C85.0351 44.4506 88.028 47.2565 91.6913 47.2565C95.3546 47.2565 98.3476 44.4506 98.3476 40.6314C98.3476 36.7966 95.3546 34.0063 91.6913 34.0063ZM91.6913 44.6532C89.6804 44.6532 87.9501 43.0009 87.9501 40.6314C87.9501 38.2464 89.6804 36.6096 91.6913 36.6096C93.7023 36.6096 95.4326 38.2464 95.4326 40.6314C95.4326 43.0009 93.7023 44.6532 91.6913 44.6532ZM74.4193 36.0484V38.8543H81.1535C80.9509 40.4288 80.4209 41.5979 79.6258 42.3929C78.6438 43.375 77.1161 44.4506 74.4349 44.4506C70.2883 44.4506 67.0459 41.1146 67.0459 36.9681C67.0459 32.8216 70.2883 29.4856 74.4349 29.4856C76.664 29.4856 78.3008 30.3586 79.5011 31.4965L81.4809 29.5168C79.7973 27.9112 77.5682 26.6797 74.4193 26.6797C68.7451 26.6797 63.975 31.2939 63.975 36.9837C63.975 42.6579 68.7451 47.2877 74.4193 47.2877C77.4902 47.2877 79.7973 46.29 81.6056 44.4038C83.4606 42.5488 84.0374 39.9299 84.0374 37.8255C84.0374 37.1708 83.9906 36.5628 83.8815 36.064H74.4193V36.0484ZM145.051 38.2308C144.505 36.7499 142.822 34.0063 139.377 34.0063C135.963 34.0063 133.126 36.6875 133.126 40.6314C133.126 44.3415 135.932 47.2565 139.704 47.2565C142.744 47.2565 144.505 45.4015 145.222 44.3259L142.962 42.8138C142.214 43.9206 141.185 44.6532 139.704 44.6532C138.223 44.6532 137.163 43.9673 136.493 42.6423L145.363 38.979L145.051 38.2308ZM136.009 40.4443C135.932 37.8878 137.989 36.5784 139.47 36.5784C140.624 36.5784 141.606 37.1552 141.933 37.9814L136.009 40.4443ZM128.808 46.8668H131.723V27.3812H128.808V46.8668ZM124.037 35.4872H123.928C123.274 34.7078 122.027 34.0063 120.437 34.0063C117.116 34.0063 114.076 36.9213 114.076 40.6626C114.076 44.3726 117.116 47.2721 120.437 47.2721C122.011 47.2721 123.274 46.5706 123.928 45.76H124.022V46.7109C124.022 49.2518 122.666 50.608 120.483 50.608C118.706 50.608 117.599 49.3298 117.147 48.2542L114.606 49.3142C115.339 51.0757 117.272 53.2269 120.483 53.2269C123.897 53.2269 126.781 51.216 126.781 46.3212V34.4116H124.022V35.4872H124.037ZM120.686 44.6532C118.675 44.6532 116.991 42.9697 116.991 40.6626C116.991 38.3243 118.675 36.6252 120.686 36.6252C122.666 36.6252 124.225 38.3399 124.225 40.6626C124.24 42.9697 122.681 44.6532 120.686 44.6532ZM158.706 27.3812H151.738V46.8668H154.653V39.4778H158.722C161.949 39.4778 165.113 37.1396 165.113 33.4295C165.113 29.7194 161.918 27.3812 158.706 27.3812ZM158.769 36.7655H154.638V30.078H158.769C160.951 30.078 162.183 31.8863 162.183 33.4139C162.183 34.9416 160.951 36.7655 158.769 36.7655ZM176.758 33.9751C174.653 33.9751 172.471 34.9104 171.567 36.9525L174.155 38.0281C174.7 36.9525 175.729 36.594 176.805 36.594C178.301 36.594 179.844 37.4981 179.86 39.1037V39.3064C179.33 39.0102 178.208 38.5581 176.82 38.5581C174.03 38.5581 171.208 40.0858 171.208 42.9385C171.208 45.5418 173.484 47.2253 176.041 47.2253C177.989 47.2253 179.081 46.3524 179.751 45.3235H179.844V46.8356H182.65V39.3687C182.666 35.9081 180.078 33.9751 176.758 33.9751ZM176.399 44.6532C175.448 44.6532 174.123 44.17 174.123 43.0009C174.123 41.5044 175.776 40.9276 177.21 40.9276C178.488 40.9276 179.096 41.2082 179.86 41.5823C179.642 43.375 178.083 44.6532 176.399 44.6532ZM192.892 34.396L189.556 42.845H189.462L186.002 34.396H182.869L188.059 46.2121L185.098 52.7748H188.137L196.134 34.396H192.892ZM166.703 46.8668H169.618V27.3812H166.703V46.8668Z" fill="white"/>
<path d="M16.2753 11.8552C15.8232 12.3385 15.5582 13.0867 15.5582 14.0376V48.5194C15.5582 49.4859 15.8232 50.2341 16.2753 50.7018L16.3844 50.8109L35.6986 31.5123V31.2785V31.0447L16.3844 11.7461L16.2753 11.8552Z" fill="url(#paint0_linear_3525_798)"/>
<path d="M42.1364 37.9512L35.6984 31.5131V31.2793V31.0455L42.1364 24.6074L42.2767 24.6854L49.8995 29.019C52.0819 30.2505 52.0819 32.277 49.8995 33.524L42.2767 37.8577L42.1364 37.9512Z" fill="url(#paint1_linear_3525_798)"/>
<path d="M42.2756 37.8576L35.6972 31.2793L16.2739 50.7026C16.991 51.4664 18.1757 51.5599 19.5163 50.7961L42.2756 37.8576Z" fill="url(#paint2_linear_3525_798)"/>
<path d="M42.2769 24.7011L19.5021 11.7626C18.1614 10.9988 16.9767 11.0923 16.2596 11.8562L35.6985 31.2794L42.2769 24.7011Z" fill="url(#paint3_linear_3525_798)"/>
<path opacity="0.2" d="M42.1355 37.7168L19.501 50.5773C18.2383 51.2944 17.1004 51.2476 16.3833 50.5929L16.2742 50.702L16.3833 50.8111C17.1159 51.4659 18.2383 51.5126 19.501 50.7956L42.2758 37.8571L42.1355 37.7168Z" fill="black"/>
<path opacity="0.12" d="M16.2747 50.4832C15.8226 49.9999 15.5576 49.2517 15.5576 48.3008V48.5346C15.5576 49.5011 15.8226 50.2493 16.2747 50.717L16.3838 50.6079L16.2747 50.4832Z" fill="black"/>
<path opacity="0.12" d="M49.8993 33.3058L42.1206 37.7174L42.2609 37.8576L49.8837 33.524C50.9749 32.9005 51.5205 32.0899 51.5205 31.2793C51.4425 32.012 50.8969 32.7446 49.8993 33.3058Z" fill="black"/>
<path opacity="0.25" d="M19.5023 11.979L49.8999 29.2511C50.882 29.8123 51.4432 30.5294 51.5367 31.2776C51.5367 30.467 50.9911 29.6408 49.8999 29.0329L19.5023 11.7608C17.3199 10.5293 15.5428 11.5581 15.5428 14.0523V14.2861C15.5428 11.7764 17.3355 10.7475 19.5023 11.979Z" fill="white"/>
<defs>
<linearGradient id="paint0_linear_3525_798" x1="33.9834" y1="13.6786" x2="7.82213" y2="39.8399" gradientUnits="userSpaceOnUse">
<stop stop-color="#00A0FF"/>
<stop offset="0.00657445" stop-color="#00A1FF"/>
<stop offset="0.2601" stop-color="#00BEFF"/>
<stop offset="0.5122" stop-color="#00D2FF"/>
<stop offset="0.7604" stop-color="#00DFFF"/>
<stop offset="1" stop-color="#00E3FF"/>
</linearGradient>
<linearGradient id="paint1_linear_3525_798" x1="52.7435" y1="31.2815" x2="15.0241" y2="31.2815" gradientUnits="userSpaceOnUse">
<stop stop-color="#FFE000"/>
<stop offset="0.4087" stop-color="#FFBD00"/>
<stop offset="0.7754" stop-color="#FFA500"/>
<stop offset="1" stop-color="#FF9C00"/>
</linearGradient>
<linearGradient id="paint2_linear_3525_798" x1="38.7011" y1="34.8586" x2="3.22432" y2="70.3354" gradientUnits="userSpaceOnUse">
<stop stop-color="#FF3A44"/>
<stop offset="1" stop-color="#C31162"/>
</linearGradient>
<linearGradient id="paint3_linear_3525_798" x1="11.3762" y1="0.377096" x2="27.2182" y2="16.2189" gradientUnits="userSpaceOnUse">
<stop stop-color="#32A071"/>
<stop offset="0.0685" stop-color="#2DA771"/>
<stop offset="0.4762" stop-color="#15CF74"/>
<stop offset="0.8009" stop-color="#06E775"/>
<stop offset="1" stop-color="#00F076"/>
</linearGradient>
</defs>
</svg>
