<svg width="80" height="80" viewBox="0 0 80 80" fill="none" xmlns="http://www.w3.org/2000/svg">
    <g clip-path="url(#clip0_3077_655)">
        <path d="M61.86 78H19C17.6739 78 16.4022 77.4732 15.4645 76.5355C14.5268 75.5979 14 74.3261 14 73V8C14 6.67392 14.5268 5.40215 15.4645 4.46447C16.4022 3.52678 17.6739 3 19 3H48.15L66.86 21.71V73C66.86 74.3261 66.3332 75.5979 65.3955 76.5355C64.4579 77.4732 63.1861 78 61.86 78V78Z" stroke="#FFD702" stroke-width="5" stroke-linecap="round" stroke-linejoin="round"/>
        <path d="M48.1499 3V16.71C48.1499 18.0361 48.6767 19.3079 49.6143 20.2455C50.552 21.1832 51.8238 21.71 53.1499 21.71H66.8599L48.1499 3Z" stroke="#FFD702" stroke-width="5" stroke-linecap="round" stroke-linejoin="round"/>
    </g>
    <defs>
        <clipPath id="clip0_3077_655">
            <rect width="80" height="80" fill="white"/>
        </clipPath>
    </defs>
</svg>
