<svg version="1.1" viewBox="0 0 512 512" xmlns="http://www.w3.org/2000/svg">
<path d="m107.64 340.65c-36.088 136.08 35.823 194.51 148.68 86.921 106.77 104.52 186.44 58.151 148.68-85.417 157.24-44.794 127.29-139.56 0-170.8 38.086-152.06-49.307-186.02-149.19-86.921-98.87-99.099-187.26-67.139-148.18 85.417-137.46 39.208-149.45 126.1 0 170.8zm176.79 19.103c-9.0437 12.052-18.595 23.107-28.127 33.655-9.5516-10.548-19.084-21.603-28.127-33.655 19.901 0.6076 38.814 0.69336 56.255 0zm-103.47-27.131c-15.568-2.0119-30.139-4.5316-44.203-7.5397 4.5316-13.556 9.5516-27.639 15.568-41.703 8.119 16.231 17.711 32.651 28.635 49.242zm-44.222-145.71c14.064-3.0081 28.635-5.5181 44.203-7.5299-10.74 16.655-20.307 33.234-28.635 49.731-6.524-14.572-11.563-28.625-15.568-42.201zm165.31-11.026c17.306 25.715 32.608 52.388 46.215 79.87-12.557 25.825-28.122 52.493-46.215 79.87-31.063 1.6671-61.57 1.7332-91.453 0-17.555-25.734-33.043-52.323-46.215-79.87 12.684-26.305 28.264-52.949 46.215-79.87 29.153-1.9356 59.637-1.9356 91.453 0zm58.774 52.752c-9.0576-17.495-18.549-34.185-28.635-49.744 15.568 2.0119 30.139 4.5316 44.203 7.5397-4.5121 14.064-9.5516 28.121-15.568 42.204zm0 54.262c6.0357 14.064 11.056 28.114 15.568 41.69-14.064 3.0081-28.635 5.5278-44.203 7.5397 10.378-16.233 20.033-32.62 28.635-49.229zm-88.425 127.6c14.572-15.568 28.635-33.167 42.699-52.758 23.615-2.0119 46.215-5.5278 67.33-10.548 30.037 127.54-24.563 146.52-110.03 63.306zm126.12-91.433c-6.524-20.607-14.572-41.703-24.611-63.306 10.04-21.603 18.586-42.699 24.602-63.306 56.274 16.076 90.661 40.699 89.92 63.306-1.0983 33.485-55.993 53.117-89.91 63.306zm-15.607-154.74c-21.095-4.5316-43.715-8.0475-67.33-10.548-13.556-19.591-28.127-37.171-42.699-52.758 80.451-77.76 141.91-71.404 110.03 63.306zm-98.465-12.56c-17.862-0.77571-36.712-0.69034-56.255 0 9.0437-12.052 18.595-23.107 28.127-33.655 9.5516 10.548 19.084 22.111 28.127 33.655zm-44.222-50.746c-14.572 15.568-28.635 33.147-42.699 52.758-23.615 2.0119-46.215 5.5278-67.33 10.548-28.935-119.81 19.255-151.27 110.03-63.306zm-126.09 218.06c-56.274-16.076-89.425-40.702-89.92-63.316-0.55202-25.242 39.67-49.043 89.91-63.286 6.524 20.607 14.572 41.703 24.611 63.306-10.04 21.603-18.586 43.197-24.602 63.296zm16.085 28.118c21.095 4.5316 43.715 8.0475 67.33 10.548 13.556 19.591 28.127 37.171 42.699 52.758-88.795 83.878-139.73 62.238-110.03-63.306zm102.69-50.999c-31.078-17.917-31.078-62.952-1.53e-5 -80.869s70.136 4.6008 70.136 40.434-39.058 58.351-70.136 40.434z"/>
</svg>