<svg width="35" height="36" viewBox="0 0 35 36" fill="none" xmlns="http://www.w3.org/2000/svg">
<g opacity="0.3">
<path d="M24.3836 21.3623C28.669 15.2601 27.2357 6.8104 21.1844 2.49003C15.133 -1.83034 6.75366 -0.386087 2.46929 5.71714C-1.81509 11.8193 -0.382871 20.2681 5.66952 24.5884C9.9887 27.672 15.6992 27.9095 20.2548 25.1965L30.1534 35.1184C31.2222 36.2529 33.0005 36.2983 34.1256 35.2206C35.2507 34.1438 35.2957 32.3506 34.2279 31.2161C34.1942 31.18 34.1614 31.1469 34.1256 31.1129L24.3836 21.3623ZM13.4182 22.2873C8.63633 22.2884 4.75941 18.382 4.75633 13.5599C4.75531 8.73779 8.62916 4.82829 13.4121 4.82623C18.1879 4.82416 22.0628 8.72437 22.072 13.5403C22.0802 18.3634 18.2084 22.2791 13.4244 22.2873C13.4223 22.2873 13.4213 22.2873 13.4182 22.2873Z" fill="#104065"/>
</g>
</svg>
