<svg width="524" height="402" viewBox="0 0 524 402" fill="none" xmlns="http://www.w3.org/2000/svg">
<path d="M0.791016 354.825H523.876V354.565H0.791016V354.825ZM273.016 12.262C271.502 12.2639 270.051 12.8661 268.981 13.9365C267.911 15.007 267.309 16.4583 267.307 17.972V301.935C267.309 303.449 267.911 304.9 268.981 305.97C270.051 307.041 271.502 307.643 273.016 307.645H475.031C476.545 307.643 477.996 307.041 479.067 305.971C480.137 304.9 480.739 303.449 480.741 301.935V17.972C480.739 16.4582 480.137 15.0069 479.067 13.9365C477.996 12.866 476.545 12.2639 475.031 12.262H273.016ZM475.031 307.907H273.016C271.433 307.905 269.915 307.275 268.796 306.155C267.677 305.036 267.048 303.518 267.046 301.935V17.972C267.048 16.3891 267.678 14.8717 268.797 13.7522C269.916 12.6327 271.433 12.0026 273.016 12H475.031C476.614 12.0024 478.132 12.6324 479.251 13.7518C480.37 14.8713 481 16.389 481.002 17.972V301.935C481 303.518 480.371 305.036 479.251 306.155C478.132 307.275 476.614 307.905 475.031 307.907ZM183.281 364.789H210.479V364.528H183.281V364.789ZM55.672 361.95H112.272V361.688H55.672V361.95ZM154.703 374.504H182.235V374.242H154.703V374.504ZM270.94 372.745H311.565V372.484H270.94V372.745ZM320.879 372.745H332.067V372.484H320.879V372.745ZM414.39 368.329H471.464V368.068H414.39V368.329Z" fill="#ECECEC"/>
<path d="M399.444 345.281H447.204V214.014H399.444V345.281ZM190.92 345.281H438.032V354.564H190.92V345.281Z" fill="#F0F0F0"/>
<path d="M399.444 345.281H181.751V214.014H399.444V345.281Z" fill="#F5F5F5"/>
<path d="M400.28 270.948H181.75V222.901H400.28V270.948ZM400.28 327.756H181.75V279.709H400.28V327.756Z" fill="#F0F0F0"/>
<path d="M399.444 270.948H407.706V222.901H399.444V270.948ZM399.444 327.756H407.706V279.709H399.444V327.756Z" fill="#E7E7E7"/>
<path d="M175.386 205.939H399.443V214.015H175.386V205.939Z" fill="#F0F0F0"/>
<path d="M453.877 205.939H399.442V214.015H453.877V205.939Z" fill="#E7E7E7"/>
<path d="M123.416 354.564H130.783V114.807H123.416V354.564Z" fill="#F0F0F0"/>
<path d="M121.889 352.894L121.689 351.867C121.767 351.85 123.699 351.423 125.168 348.821C127.084 345.43 128.248 338.206 122.922 323.053C114.717 299.709 119.614 280.869 129.372 243.337C131.071 236.799 132.998 229.389 134.997 221.39C142.495 191.399 135.559 172.797 129.986 157.849C125.659 146.246 122.243 137.081 126.617 126.464L127.583 126.863C123.367 137.1 126.72 146.095 130.967 157.484C136.591 172.567 143.588 191.337 136.013 221.644C134.012 229.648 132.085 237.06 130.385 243.6C120.68 280.927 115.809 299.663 123.91 322.706C129.387 338.287 128.097 345.817 126.049 349.389C124.33 352.389 121.988 352.874 121.889 352.894Z" fill="#F0F0F0"/>
<path d="M113.768 354.564H140.431L133.017 350.195H121.181L113.768 354.564Z" fill="#F0F0F0"/>
<path d="M74.3526 145.34H179.847L168.238 56.687H85.9616L74.3516 145.34H74.3526Z" fill="#F5F5F5"/>
<path d="M230.821 159.953H287.147L279.733 205.939H238.235L230.821 159.953Z" fill="#F0F0F0"/>
<path d="M253.449 174.916C268.807 169.358 280.572 161.011 267.41 144.122C254.249 127.235 233.855 127.306 220.114 134.782C202.598 144.311 206.11 171.871 206.11 171.871C206.11 171.871 238.092 180.475 253.449 174.916Z" fill="#E1E1E1"/>
<path d="M268.383 159.528C256.632 151.53 248.301 142.264 261.935 132.495C275.57 122.726 292.379 127.733 302.483 136.81C315.362 148.38 307.929 168.688 307.929 168.688C307.929 168.688 280.134 167.525 268.383 159.528Z" fill="#E7E7E7"/>
<path d="M247.7 139.257C261.446 138.423 272.973 134.838 266.465 119.948C259.955 105.059 243.48 100.896 230.571 103.445C214.115 106.694 210.238 127.282 210.238 127.282C210.238 127.282 233.953 140.091 247.7 139.257Z" fill="#F0F0F0"/>
<path d="M264.946 130.473C253.511 126.796 244.545 121.276 253.264 110.102C261.983 98.928 276.803 98.972 287.16 103.917C300.362 110.22 299.187 128.452 299.187 128.452C299.187 128.452 276.38 134.149 264.946 130.473Z" fill="#ECECEC"/>
<path d="M243.515 111.398C254.922 115.16 265.419 115.975 264.951 101.81C264.484 87.645 252.479 78.955 241.196 76.853C226.815 74.175 217.028 89.605 217.028 89.605C217.028 89.605 232.108 107.636 243.515 111.398Z" fill="#F5F5F5"/>
<path d="M272.467 105.321C264.302 105.877 257.234 104.643 259.935 95.371C262.636 86.098 272.03 82.39 279.832 82.908C289.778 83.568 293.633 95.406 293.633 95.406C293.633 95.406 280.633 104.764 272.467 105.321Z" fill="#FAFAFA"/>
<path d="M465.174 389.966C465.174 396.509 374.359 401.812 262.333 401.812C150.307 401.812 59.4932 396.509 59.4932 389.966C59.4932 383.424 150.307 378.121 262.333 378.121C374.359 378.121 465.174 383.424 465.174 389.966Z" fill="#104065"/>
<path d="M439.413 229.944H83.9727V217.188H439.413V229.944Z" fill="#3E4A61"/>
<path opacity="0.3" d="M179.098 229.944H83.9727V217.188H179.098V229.944Z" fill="#3E4A61"/>
<path d="M180.619 229.945H172.34L176.676 389.774H184.562L188.899 229.945H180.619Z" fill="#3E4A61"/>
<path opacity="0.3" d="M176.677 389.774H180.62V233.378L172.475 234.867L176.677 389.774Z" fill="#3E4A61"/>
<path d="M102.185 229.945H93.9053L98.2423 389.774H106.128L110.464 229.945H102.185Z" fill="#3E4A61"/>
<path opacity="0.3" d="M98.2421 389.774H102.185V233.378L94.0391 234.867L98.2421 389.774Z" fill="#3E4A61"/>
<path d="M421.198 229.945H412.919L417.255 389.774H425.141L429.478 229.945H421.198Z" fill="#3E4A61"/>
<path opacity="0.3" d="M417.256 389.774H421.199V233.378L413.054 234.867L417.256 389.774Z" fill="#3E4A61"/>
<path d="M342.764 229.945H334.484L338.821 389.774H346.707L351.043 229.945H342.764Z" fill="#3E4A61"/>
<path opacity="0.3" d="M338.821 389.774H342.764V233.378L334.618 234.867L338.821 389.774Z" fill="white"/>
<path d="M252.688 148.92H168.121C165.086 148.92 163.123 151.403 163.76 154.439L175.022 208.16C175.659 211.195 178.663 213.678 181.698 213.678H266.266C269.301 213.678 271.264 211.195 270.628 208.16L259.365 154.439C258.729 151.403 255.724 148.92 252.688 148.92Z" fill="#1A2E35"/>
<path d="M182.481 210.614C180.495 210.614 178.385 208.854 177.966 206.849L166.703 153.128C166.529 152.3 166.668 151.557 167.094 151.032C167.493 150.54 168.136 150.269 168.904 150.269H253.471C255.456 150.269 257.567 152.028 257.988 154.035L269.25 207.755C269.423 208.582 269.284 209.327 268.859 209.85C268.453 210.349 267.828 210.614 267.048 210.614H182.481Z" fill="white"/>
<path opacity="0.4" d="M246.287 206.316L235.616 155.419C235.553 155.117 235.558 154.805 235.631 154.505C235.703 154.206 235.842 153.926 236.036 153.687C236.231 153.447 236.476 153.254 236.754 153.122C237.033 152.989 237.337 152.92 237.645 152.92H251.367C252.347 152.92 253.195 153.608 253.396 154.567L264.067 205.466C264.13 205.768 264.125 206.08 264.053 206.379C263.98 206.679 263.841 206.958 263.647 207.198C263.453 207.437 263.207 207.63 262.929 207.762C262.651 207.895 262.347 207.964 262.038 207.964H248.316C247.84 207.964 247.379 207.8 247.009 207.5C246.64 207.2 246.385 206.782 246.287 206.316Z" fill="#007CFF"/>
<path d="M173.747 157.336L173.284 155.128H190.231L190.693 157.336H173.747Z" fill="#007CFF"/>
<path d="M181.57 162.811L181.107 160.603H210.813L211.277 162.811H181.57ZM183.133 168.287L182.671 166.08H215.964L216.427 168.287H183.133ZM184.698 173.763L184.235 171.556H211.044L211.507 173.763H184.698Z" fill="#ECECEC"/>
<path d="M178.896 182.649L178.434 180.442H189.154L189.616 182.649H178.896Z" fill="#007CFF"/>
<path d="M186.719 188.124L186.257 185.917H199.317L199.781 188.124H186.719ZM202.909 188.124L202.446 185.917H215.508L215.97 188.124H202.909ZM188.284 193.6L187.821 191.393H231.971L232.434 193.6H188.284ZM189.848 199.076L189.386 196.869H223.047L223.511 199.076H189.848Z" fill="#ECECEC"/>
<path d="M292.172 213.356H180.896C177.86 213.356 175.898 215.08 176.534 217.188H298.849C298.212 215.08 295.208 213.356 292.172 213.356Z" fill="#1A2E35"/>
<path opacity="0.1" d="M144.333 135.337L133.662 84.44C133.599 84.1381 133.604 83.8259 133.676 83.5261C133.749 83.2263 133.888 82.9464 134.082 82.707C134.277 82.4675 134.522 82.2745 134.801 82.142C135.079 82.0095 135.384 81.9409 135.692 81.941H222.109C223.091 81.941 223.937 82.629 224.138 83.588L234.809 134.486C234.873 134.788 234.868 135.1 234.795 135.399C234.722 135.699 234.584 135.979 234.39 136.218C234.195 136.457 233.95 136.65 233.671 136.783C233.393 136.915 233.089 136.984 232.78 136.984H146.361C145.886 136.984 145.424 136.821 145.055 136.521C144.686 136.221 144.431 135.803 144.333 135.337Z" fill="#007CFF"/>
<path d="M175.051 83.619H156.913L156.506 81.667H174.644L175.051 83.619Z" fill="#007CFF"/>
<path opacity="0.4" d="M172.1 86.73H164.82L164.412 84.78H171.693L172.1 86.73ZM184.216 86.73H172.998L172.591 84.78H183.809L184.216 86.73ZM189.107 89.843H165.469L165.062 87.891H188.7L189.107 89.843ZM186.098 92.956H166.117L165.71 91.003H185.691L186.098 92.956ZM199.352 126.028H186.633L187.04 127.981H199.759L199.352 126.028Z" fill="#007CFF"/>
<path d="M183.492 121.756H164.863L164.456 119.805H183.085L183.492 121.756Z" fill="#007CFF"/>
<path opacity="0.4" d="M190.988 129.141H173.661L174.068 131.093H191.395L190.988 129.141ZM185.732 126.028H173.013L173.42 127.981H186.139L185.732 126.028ZM197.801 122.917H172.363L172.77 124.869H198.208L197.801 122.917Z" fill="#007CFF"/>
<path d="M174.415 69.1H153.884L153.479 67.149H174.009L174.415 69.1Z" fill="#007CFF"/>
<path opacity="0.4" d="M184.547 76.484H161.913L162.32 78.437H184.954L184.547 76.484ZM180.017 73.373H161.264L161.671 75.325H180.424L180.017 73.373ZM181.27 70.26H160.615L161.022 72.212H181.677L181.27 70.261V70.26Z" fill="#007CFF"/>
<path d="M174.178 98.019H159.915L159.508 96.068H173.771L174.178 98.018V98.019Z" fill="#007CFF"/>
<path opacity="0.4" d="M196.588 105.404H168.713L169.12 107.355H196.995L196.588 105.404ZM179.612 102.292H168.063L168.47 104.244H180.019L179.612 102.292ZM192.145 102.292H180.597L181.004 104.244H192.552L192.145 102.292ZM192.853 99.18H167.415L167.822 101.131H193.26L192.853 99.18ZM192.803 114.74H170.659L171.066 116.692H193.21L192.803 114.74ZM176.45 111.628H170.011L170.418 113.579H176.857L176.45 111.628ZM186.529 111.628H177.337L177.744 113.579H186.936L186.529 111.628ZM194.799 108.516H169.361L169.768 110.468H195.206L194.799 108.516ZM214.842 107.995H205.726L205.319 106.043H214.435L214.842 107.995ZM230.01 107.995H215.967L215.56 106.043H229.603L230.01 107.995ZM235.969 111.107H206.376L205.969 109.155H235.562L235.969 111.107ZM232.04 114.219H207.024L206.618 112.268H231.633L232.04 114.219ZM243.24 95.613H214.902L215.309 97.564H243.647L243.24 95.613ZM237.732 92.5H214.253L214.66 94.452H238.139L237.732 92.5Z" fill="#007CFF"/>
<path d="M233.487 89.3879H207.628L208.035 91.3399H233.894L233.487 89.3879Z" fill="#007CFF"/>
<path opacity="0.4" d="M244.518 126.668H209.619L210.026 128.619H244.925L244.518 126.668ZM223.429 123.556H208.971L209.378 125.507H223.836L223.429 123.556ZM239.119 123.556H224.661L225.068 125.507H239.526L239.119 123.556ZM240.17 120.443H208.322L208.729 122.395H240.577L240.17 120.443ZM239.29 136.005H211.565L211.972 137.956H239.697L239.29 136.005ZM218.979 132.892H210.917L211.325 134.844H219.386L218.979 132.892ZM231.598 132.892H220.09L220.497 134.844H232.005L231.598 132.892ZM242.116 129.78H210.269L210.676 131.732H242.523L242.116 129.78ZM157.298 138.418H135.604L136.011 140.37H157.705L157.298 138.418ZM150.88 135.306H134.956L135.363 137.258H151.287L150.88 135.306ZM167.933 135.306H152.009L152.416 137.258H168.339L167.933 135.306ZM166.154 132.194H134.307L134.714 134.145H166.561L166.154 132.194Z" fill="#007CFF"/>
<path d="M409.792 196.869H396.362L397.926 217.188H408.228L409.792 196.869Z" fill="#007CFF"/>
<path opacity="0.4" d="M409.792 196.869H396.362L397.926 217.188H408.228L409.792 196.869Z" fill="white"/>
<path d="M117.056 182.757H136.366L129.774 217.188H110.464L117.056 182.757Z" fill="#1A2E35"/>
<path d="M141.651 173.527H114.375L122.009 217.188H149.285L141.651 173.527Z" fill="#4BA3F4"/>
<path d="M112.762 173.527H114.375L122.009 217.188H120.396L112.762 173.527Z" fill="#007CFF"/>
<path opacity="0.3" d="M112.762 173.527H114.375L122.009 217.188H120.396L112.762 173.527Z" fill="#4BA3F4"/>
<path d="M125.931 212.521L119.929 178.193H137.73L143.731 212.521H125.931Z" fill="white"/>
<path opacity="0.6" d="M142.887 212.521L136.885 178.193H137.73L143.732 212.521H142.887Z" fill="#007CFF"/>
<path d="M276.738 117.676C277.126 118.514 276.996 119.399 276.448 119.653C275.9 119.906 275.141 119.432 274.753 118.593C274.365 117.755 274.495 116.869 275.043 116.616C275.591 116.363 276.349 116.836 276.738 117.676Z" fill="#1A2E35"/>
<path d="M277.073 119.363C277.073 119.363 277.404 125.082 276.385 128.386C278.508 129.084 280.738 127.285 280.738 127.285L277.073 119.363Z" fill="#FF5551"/>
<path d="M276.84 110.802C276.751 110.873 276.643 110.914 276.529 110.92C274.139 111.054 273.127 112.726 273.085 112.797C273.013 112.922 272.895 113.012 272.756 113.05C272.617 113.087 272.469 113.067 272.344 112.995C272.22 112.923 272.129 112.805 272.092 112.666C272.054 112.527 272.074 112.379 272.146 112.254C272.199 112.162 273.472 110.005 276.47 109.837C276.585 109.832 276.698 109.862 276.794 109.925C276.89 109.987 276.963 110.079 277.004 110.186C277.045 110.293 277.051 110.41 277.022 110.52C276.993 110.631 276.929 110.73 276.84 110.802Z" fill="#1A2E35"/>
<path d="M307.548 116.412C310.781 127.61 314.386 136.311 318.798 141.25C318.798 141.25 318.877 150.052 303.882 154.238C287.393 158.841 293.717 148.253 293.717 148.253C302.117 143.591 301.289 136.561 294.992 133.885L307.548 116.412Z" fill="#FF8C7B"/>
<path d="M322.292 139.11C321.994 135.013 321.614 130.348 319.086 130.23C316.305 130.1 300.197 137.297 296.754 142.372C293.313 147.448 300.033 152.415 300.033 152.415L322.292 139.11Z" fill="#1A2E35"/>
<path d="M289.31 202.46L275.398 202.002L275.645 213.655C275.645 213.655 287.785 212.406 288.32 209.215L289.31 202.46Z" fill="#FF8C7B"/>
<path d="M268.044 207.72L266.585 213.679L275.646 213.656L275.399 202.001L268.044 207.72Z" fill="#FF8C7B"/>
<path d="M345.159 154.026L344.869 157.015C344.774 157.976 344.64 158.924 344.519 159.874C344.27 161.77 343.98 163.661 343.649 165.545C343.02 169.32 342.203 173.073 341.27 176.852C340.29 180.617 339.21 184.414 337.792 188.227C337.069 190.141 336.319 192.055 335.414 194.004C334.516 195.954 333.541 197.912 332.272 199.914C331.984 200.406 331.629 200.918 331.288 201.423C330.944 201.945 330.58 202.453 330.196 202.947C329.793 203.463 329.44 203.958 328.964 204.485L328.282 205.259C328.061 205.51 327.833 205.765 327.507 206.071C325.082 208.459 322.595 209.9 320.262 210.942C315.596 212.992 311.363 213.775 307.258 214.235C305.214 214.478 303.199 214.572 301.214 214.616C299.249 214.667 297.283 214.634 295.322 214.517C293.378 214.43 291.449 214.241 289.532 214.017C287.583 213.778 285.645 213.463 283.722 213.073L284.058 202.142C290.774 200.808 297.805 199.437 303.831 197.428C305.276 196.962 306.695 196.417 308.081 195.795C309.386 195.228 310.566 194.599 311.45 193.973C312.33 193.345 312.902 192.74 312.972 192.487L313.281 192.006C313.405 191.85 313.538 191.577 313.671 191.361C313.806 191.149 313.943 190.889 314.079 190.617C314.216 190.35 314.359 190.101 314.493 189.791C315.589 187.467 316.658 184.546 317.515 181.492C318.371 178.414 319.184 175.198 319.832 171.892C320.543 168.604 321.105 165.23 321.682 161.85L322.478 156.765L323.193 151.815L345.159 154.026Z" fill="#007CFF"/>
<path opacity="0.2" d="M345.159 154.026L344.869 157.015C344.774 157.976 344.64 158.924 344.519 159.874C344.27 161.77 343.98 163.661 343.649 165.545C343.02 169.32 342.203 173.073 341.27 176.852C340.29 180.617 339.21 184.414 337.792 188.227C337.069 190.141 336.319 192.055 335.414 194.004C334.516 195.954 333.541 197.912 332.272 199.914C331.984 200.406 331.629 200.918 331.288 201.423C330.944 201.945 330.58 202.453 330.196 202.947C329.793 203.463 329.44 203.958 328.964 204.485L328.282 205.259C328.061 205.51 327.833 205.765 327.507 206.071C325.082 208.459 322.595 209.9 320.262 210.942C315.596 212.992 311.363 213.775 307.258 214.235C305.214 214.478 303.199 214.572 301.214 214.616C299.249 214.667 297.283 214.634 295.322 214.517C293.378 214.43 291.449 214.241 289.532 214.017C287.583 213.778 285.645 213.463 283.722 213.073L284.058 202.142C290.774 200.808 297.805 199.437 303.831 197.428C305.276 196.962 306.695 196.417 308.081 195.795C309.386 195.228 310.566 194.599 311.45 193.973C312.33 193.345 312.902 192.74 312.972 192.487L313.281 192.006C313.405 191.85 313.538 191.577 313.671 191.361C313.806 191.149 313.943 190.889 314.079 190.617C314.216 190.35 314.359 190.101 314.493 189.791C315.589 187.467 316.658 184.546 317.515 181.492C318.371 178.414 319.184 175.198 319.832 171.892C320.543 168.604 321.105 165.23 321.682 161.85L322.478 156.765L323.193 151.815L345.159 154.026Z" fill="black"/>
<path d="M283.385 167.884C286.753 181.884 291.104 205.354 292.1 236.039H353.358C353.697 228.467 352.417 185.863 346.251 155.004C343.908 143.272 332.399 135.683 320.724 138.305L320.432 138.371C312.791 140.112 301.81 142.919 295.351 145.373L295.088 145.473C286.113 148.922 281.135 158.537 283.385 167.884Z" fill="#FFC655"/>
<path opacity="0.2" d="M287.366 187.496C287.852 190.433 288.338 193.545 288.79 196.812C293.801 191.58 295.391 175.553 295.391 175.553L287.366 187.496Z" fill="black"/>
<path d="M236.481 203.214L222.621 201.915L222.163 213.562C222.163 213.562 229.302 215.908 235.083 209.896L236.481 203.214Z" fill="#FF8C7B"/>
<path d="M215.97 205.354L211.507 213.356L222.163 213.562L222.621 201.915L215.97 205.354Z" fill="#FF8C7B"/>
<path d="M306.371 162.559C305.405 164.397 304.55 166.012 303.589 167.688C302.654 169.345 301.693 170.988 300.706 172.616C298.74 175.883 296.686 179.096 294.546 182.252C290.244 188.586 285.624 194.773 280.204 200.709C277.508 203.691 274.552 206.581 271.11 209.353C270.698 209.702 270.219 210.043 269.773 210.384C269.309 210.729 268.928 211.043 268.25 211.466C267.638 211.873 267.024 212.24 266.409 212.564C265.789 212.914 265.182 213.205 264.562 213.48C262.088 214.563 259.678 215.228 257.363 215.666C252.712 216.484 248.395 216.418 244.261 215.96C242.196 215.684 240.177 215.369 238.196 214.881C237.204 214.654 236.22 214.391 235.245 214.094C234.241 213.806 233.356 213.476 232.231 213.084L233.964 202.287C240.531 201.394 247.633 200.252 252.529 198.04C253.751 197.518 254.804 196.91 255.577 196.287C255.965 195.984 256.322 195.704 256.564 195.415C256.645 195.321 256.962 195.039 257.211 194.809C257.471 194.565 257.729 194.358 257.991 194.086C260.091 192.05 262.207 189.614 264.278 187.025C268.401 181.814 272.306 176.026 276.067 170.115C277.95 167.156 279.786 164.142 281.613 161.122L284.317 156.573L286.923 152.113L306.371 162.559Z" fill="#FFC655"/>
<path d="M289.558 380.933H278.105L272.349 354.411H283.801L289.558 380.933Z" fill="#FF8C7B"/>
<path d="M277.468 378.478H290.335C290.804 378.478 291.209 378.803 291.31 379.261L293.573 389.441C293.807 390.496 292.978 391.495 291.896 391.478C287.404 391.4 285.221 391.137 279.563 391.137C276.082 391.137 271.615 391.498 266.808 391.498C262.105 391.498 261.372 386.745 263.341 386.314C272.165 384.385 272.784 381.722 275.609 379.182C276.121 378.726 276.783 378.475 277.468 378.478Z" fill="#2D314F"/>
<path opacity="0.2" d="M283.805 354.418H272.348L275.542 369.104L286.777 368.089L283.805 354.418Z" fill="black"/>
<path d="M303.879 102.963C308.01 113.552 310.965 119.54 308.21 127.23C304.064 138.799 289.173 139.963 281.962 130.821C275.472 122.593 269.807 106.657 277.99 97.897C286.053 89.267 299.749 92.373 303.879 102.963Z" fill="#FF8C7B"/>
<path d="M283.768 118.823C282.048 121.128 280.738 122.87 280.738 122.87C280.738 122.87 277.211 114.114 278.561 110.1C276.843 106.699 273.381 111.71 272.074 105.087C270.767 98.463 276.42 91.349 278.561 89.877C278.862 90.369 278.846 92.254 278.846 92.254C278.846 92.254 287.309 84.711 299.36 85.769C298.532 86.597 298.21 88.851 298.21 88.851C298.21 88.851 310.628 90.982 313.45 97.973C311.671 97.113 310.322 96.869 310.322 96.869C310.322 96.869 313.879 101.284 312.837 108.091C311.794 114.899 311.303 122.417 311.425 125.384C311.548 128.353 303.392 134.032 298.425 127.96C293.457 121.89 283.768 118.823 283.768 118.823Z" fill="#1A2E35"/>
<path d="M288.952 116.543C289.668 119.134 289.306 121.926 288.423 123.973C287.094 127.052 284.367 126.351 283.011 123.619C281.789 121.158 281.008 116.592 283.174 114.403C285.306 112.248 288.133 113.58 288.952 116.543Z" fill="#FF8C7B"/>
<path d="M310.46 236.04C310.46 236.04 257.274 255.323 255.707 280.844C252.818 327.847 272.045 365.062 272.045 365.062L289.662 363.177C289.662 363.177 286.53 348.05 284.19 305.467C281.248 251.96 372.061 306.721 353.358 236.04H310.46Z" fill="#2D314F"/>
<path d="M267.164 358.575C267.08 358.584 269.968 366.395 269.968 366.395L291.965 364.242L290.861 357.126L267.164 358.575Z" fill="#2D314F"/>
<path d="M240.08 382.232H228.628L225.281 355.709H236.734L240.08 382.232Z" fill="#FF8C7B"/>
<path d="M228.537 378.474L241.044 378.456C241.513 378.456 241.918 378.782 242.021 379.238L244.296 389.415C244.533 390.469 243.733 391.472 242.652 391.454C238.14 391.384 231.62 391.129 225.95 391.137C219.319 391.145 218.048 391.508 210.273 391.52C205.57 391.526 204.258 386.774 206.226 386.341C215.184 384.369 218.044 384.155 225.779 379.37C226.62 378.85 227.548 378.476 228.537 378.474Z" fill="#2D314F"/>
<path opacity="0.2" d="M225.284 355.717L227.105 370.162L238.465 369.387L236.742 355.717H225.284Z" fill="black"/>
<path d="M292.1 236.04C292.1 236.04 204.946 243.77 205.886 287.538C206.865 333.065 223.872 363.772 223.872 363.772H240.889C240.889 363.772 237.664 340.156 238.235 295.333C238.407 281.906 265.539 277.469 292.037 275.903C314.928 274.549 336.353 261.502 345.246 240.367L347.066 236.04H292.1Z" fill="#2D314F"/>
<path d="M219.892 359.195C219.815 359.202 222.81 367.063 222.81 367.063L243.349 365.595L242.152 358.475L219.892 359.195Z" fill="#2D314F"/>
<path d="M314.971 186.845L303.917 229.457C301.091 240.372 299.663 251.602 299.667 262.877V282.684C299.667 287.686 303.354 291.74 307.901 291.74H364.589C369.137 291.74 372.822 287.686 372.822 282.684V262.877C372.822 251.574 374.254 240.326 377.073 229.457L386.838 191.813C388.338 186.03 384.389 180.274 378.92 180.274H322.889C319.212 180.274 315.98 182.956 314.971 186.845Z" fill="#007CFF"/>
<path d="M244.472 271.109L246.328 281.675C247.304 287.233 252.193 291.74 257.248 291.74H320.259C325.314 291.74 328.62 287.233 327.644 281.675L325.788 271.109C324.678 264.784 319.115 259.656 313.363 259.656H252.875C247.123 259.656 243.361 264.784 244.472 271.109Z" fill="#007CFF"/>
<path d="M326.326 302.352H293.318L290.095 291.739H329.549L326.326 302.352ZM315.718 381.245H303.925V302.352H315.718V381.245Z" fill="#007CFF"/>
<path opacity="0.7" d="M315.719 381.246H303.926V304.247L315.719 305.447V381.246Z" fill="white"/>
<path opacity="0.7" d="M312.842 381.246H310.024V304.867L312.842 305.155V381.246Z" fill="white"/>
<path d="M336.939 393.437H282.705C281.254 393.437 280.647 391.584 281.818 390.725L290.427 384.415C294.559 381.385 299.549 379.752 304.672 379.752H314.972C320.096 379.752 325.086 381.385 329.218 384.415L337.826 390.725C338.995 391.584 338.39 393.437 336.939 393.437Z" fill="#007CFF"/>
<path d="M297.489 61.549H256V32H297.489V61.549ZM257.206 60.343H296.403V33.085H257.206V60.343Z" fill="#A1D4FF"/>
<path d="M276.746 49.85L256.243 32.965L256.967 32.121L276.746 48.403L296.526 32.121L297.249 32.965L276.746 49.85Z" fill="#A1D4FF"/>
<path d="M282.526 44.838L281.651 45.668L296.509 61.331L297.384 60.501L282.526 44.838ZM271.02 44.89L256.173 60.564L257.048 61.393L271.895 45.72L271.02 44.89Z" fill="#A1D4FF"/>
<path d="M39.468 199.936C27.648 199.936 18 190.287 18 178.468H19.206C19.206 189.684 28.372 198.73 39.468 198.73C50.684 198.73 59.73 189.564 59.73 178.468C59.73 167.252 50.564 158.206 39.468 158.206V157C51.288 157 60.936 166.649 60.936 178.468C60.936 190.408 51.288 199.936 39.468 199.936ZM39.468 197.041C29.337 197.041 21.015 188.72 21.015 178.589C21.015 168.458 29.337 160.136 39.468 160.136C49.599 160.136 57.921 168.458 57.921 178.589H56.715C56.715 169.061 48.995 161.221 39.347 161.221C29.82 161.221 21.98 168.94 21.98 178.589C21.98 188.117 29.699 195.956 39.347 195.956V197.041H39.468Z" fill="#78C2FF"/>
<path d="M36.9357 185.584L29.0957 177.865L29.9407 177.141L36.9357 184.016L49.1167 171.835L49.8407 172.679L36.9357 185.584Z" fill="#78C2FF"/>
<path d="M109.559 28.825L109.076 27.74C108.714 27.74 108.353 27.619 107.991 27.498L107.147 28.343L104.614 26.533L105.096 25.448C104.855 25.086 104.614 24.845 104.493 24.483H103.287L102.805 21.347L103.89 20.865C103.89 20.503 104.011 20.141 104.131 19.78L103.287 18.935L105.096 16.403L106.182 16.885C106.544 16.644 106.785 16.403 107.147 16.282V15.076L110.282 14.594L110.765 15.679C111.127 15.679 111.488 15.799 111.85 15.92L112.694 15.076L115.227 16.885L114.745 17.97C114.986 18.332 115.227 18.574 115.348 18.935H116.554L117.036 22.071L115.951 22.554C115.951 22.915 115.83 23.277 115.71 23.639L116.554 24.483L114.745 27.016L113.659 26.534C113.297 26.774 113.056 27.016 112.694 27.137V28.343L109.559 28.825ZM107.75 26.534L107.991 26.654L109.438 27.016H109.679L110.041 27.981L111.73 27.74V26.654L111.971 26.534C112.453 26.292 112.815 26.051 113.177 25.81L113.418 25.69L114.383 26.051L115.348 24.604L114.624 23.88L114.745 23.639L115.107 22.192V21.951L116.071 21.589L115.83 19.9H114.745L114.624 19.659C114.41 19.2415 114.168 18.8386 113.901 18.453L113.78 18.212L114.142 17.247L112.694 16.282L111.971 17.006L111.73 16.885L110.282 16.523H110.041L109.679 15.558L107.991 15.8V16.885L107.75 17.005C107.267 17.247 106.905 17.488 106.544 17.729L106.302 17.849L105.337 17.489L104.373 18.935L105.096 19.659L104.976 19.9L104.614 21.348V21.588L103.649 21.951L103.89 23.639H104.976L105.096 23.88C105.337 24.363 105.579 24.725 105.82 25.086L105.94 25.328L105.579 26.292L107.026 27.257L107.75 26.534ZM109.92 25.086C109.197 25.086 108.594 24.846 107.991 24.483C106.423 23.398 106.061 21.227 107.147 19.78C108.232 18.212 110.403 17.85 111.85 18.935C112.574 19.418 113.056 20.262 113.177 21.106C113.297 21.951 113.177 22.916 112.574 23.639C112.091 24.363 111.247 24.845 110.403 24.966C110.282 25.086 110.041 25.086 109.92 25.086ZM109.92 19.056C109.076 19.056 108.353 19.418 107.87 20.141C107.508 20.744 107.267 21.348 107.388 22.071C107.508 22.795 107.87 23.277 108.473 23.76C109.076 24.121 109.679 24.363 110.403 24.242C111.127 24.122 111.609 23.76 112.091 23.157C112.453 22.554 112.694 21.951 112.574 21.227C112.453 20.503 112.091 20.021 111.488 19.538C110.885 19.298 110.403 19.056 109.92 19.056ZM85.558 32.443L84.593 29.911C83.5614 29.7984 82.5483 29.5551 81.578 29.187L79.648 30.996L74.342 27.257L75.427 24.845C74.824 24.001 74.221 23.157 73.739 22.192L71.085 22.071L70 15.558L72.533 14.593C72.653 13.508 72.895 12.543 73.256 11.578L71.447 9.648L75.187 4.342L77.598 5.427C78.442 4.824 79.287 4.221 80.252 3.739L80.372 1.085L86.764 0L87.729 2.533C88.815 2.653 89.779 2.895 90.744 3.256L92.674 1.447L97.981 5.187L96.895 7.598C97.498 8.442 98.101 9.287 98.584 10.252L101.237 10.372L102.323 16.885L99.79 17.85C99.6774 18.8816 99.4341 19.8947 99.066 20.865L100.875 22.795L97.136 28.101L94.724 27.016C93.88 27.619 93.036 28.222 92.071 28.704L91.951 31.358L85.558 32.443ZM81.337 27.981L81.699 28.101C82.784 28.463 83.99 28.825 85.076 28.825H85.438L86.282 31.117L90.865 30.393L90.985 27.981L91.347 27.861C92.433 27.378 93.397 26.775 94.363 26.051L94.603 25.81L96.895 26.775L99.549 23.035L97.86 21.227L97.98 20.865C98.343 19.78 98.704 18.573 98.704 17.488V17.126L100.996 16.282L100.272 11.699L97.86 11.579L97.74 11.216C97.257 10.131 96.654 9.166 95.93 8.201L95.69 7.96L96.654 5.669L92.915 3.015L91.106 4.704L90.744 4.584C89.659 4.221 88.453 3.859 87.367 3.859H87.006L86.161 1.568L81.578 2.292L81.458 4.704L81.096 4.824C80.01 5.307 79.046 5.91 78.081 6.634L77.839 6.874L75.548 5.91L72.895 9.649L74.583 11.458L74.463 11.819C74.101 12.905 73.739 14.111 73.739 15.196V15.558L71.447 16.403L72.171 20.986L74.583 21.106L74.703 21.468C75.186 22.553 75.789 23.518 76.513 24.483L76.754 24.724L75.789 27.016L79.528 29.669L81.337 27.981ZM86.161 23.759C84.714 23.759 83.146 23.277 81.82 22.433C78.443 20.021 77.719 15.438 80.131 12.061C82.543 8.684 87.126 7.96 90.503 10.372C93.88 12.784 94.603 17.367 92.313 20.744C90.744 22.674 88.453 23.759 86.161 23.759ZM86.161 10.01C84.231 10.01 82.301 10.975 80.975 12.664C80.01 13.99 79.649 15.679 79.89 17.367C80.131 19.056 81.096 20.503 82.422 21.468C85.197 23.518 89.177 22.795 91.227 20.021C92.192 18.694 92.553 17.006 92.312 15.317C92.071 13.629 91.106 12.181 89.78 11.217C88.694 10.372 87.488 10.01 86.161 10.01Z" fill="#A1D4FF"/>
</svg>
