<svg width="655" height="495" viewBox="0 0 655 495" fill="none" xmlns="http://www.w3.org/2000/svg">
<path d="M148.587 385.58H474.708V155.462C474.708 149.191 469.643 144.004 463.251 144.004H159.924C153.653 144.004 148.467 149.07 148.467 155.462V385.58H148.587Z" fill="url(#paint0_linear)"/>
<path d="M160.045 341.679H462.647V155.824H160.045V341.679Z" fill="url(#paint1_linear)"/>
<path d="M128.325 156.668H51.3779L51.4979 155.945C52.7049 149.552 58.3729 144.969 64.7649 144.969C65.7299 144.969 66.5749 145.09 67.5389 145.211C71.5189 137.612 79.3589 132.909 87.9219 132.909C95.2789 132.909 102.274 136.406 106.616 142.437C108.219 141.952 109.886 141.708 111.561 141.713C119.883 141.713 126.998 147.743 128.204 155.945L128.325 156.668ZM52.8249 155.583H126.998C125.551 148.346 119.038 142.919 111.561 142.919C109.872 142.919 108.184 143.16 106.616 143.763L106.254 143.884L106.013 143.522C101.912 137.733 95.1579 134.235 88.0429 134.235C79.7199 134.235 72.1229 138.818 68.3829 146.296L68.1429 146.658L67.6599 146.537C66.7134 146.298 65.7411 146.176 64.7649 146.175C59.0969 146.296 54.1519 150.155 52.8249 155.583ZM410.907 61.992L410.665 61.872C383.408 47.881 387.026 20.986 387.026 20.624L387.147 20.141H387.629C404.997 20.141 410.424 14.594 410.545 14.473L411.027 13.99L411.389 14.473C411.389 14.473 416.937 20.141 434.304 20.141H434.787L434.907 20.624C434.907 20.865 438.646 47.881 411.268 61.871L410.907 61.991V61.992ZM388.112 21.347C387.75 24.966 386.665 48.122 410.907 60.786C435.149 48.243 434.063 25.086 433.701 21.347C418.625 21.227 412.474 17.006 410.907 15.679C409.339 17.006 403.188 21.227 388.112 21.347Z" fill="#6AAFE8"/>
<path d="M560.34 420.797C556.239 401.982 565.164 397.279 573.727 392.816C580.722 389.077 587.356 385.58 586.994 374.484C586.511 359.77 596.522 354.463 605.326 349.76C611.839 346.262 618.11 342.885 618.954 336.252C621.125 320.211 635.96 300.19 636.201 300.07L637.166 300.793C637.045 301.035 622.331 320.693 620.161 336.493C619.196 343.729 612.683 347.227 605.929 350.845C597.004 355.669 587.717 360.614 588.2 374.484C588.562 386.304 581.325 390.163 574.33 393.781C565.767 398.364 557.686 402.585 561.546 420.556L560.34 420.797Z" fill="url(#paint2_linear)"/>
<path d="M564.802 416.093H564.199C560.46 415.852 556.842 412.958 552.741 407.169L552.5 406.807L552.741 406.445C552.862 406.324 559.375 398.364 556.962 383.288C556.359 379.791 555.636 377.137 555.033 374.967C554.189 371.831 553.585 369.78 554.55 368.092C555.756 366.042 559.133 364.836 568.541 362.665C578.551 360.253 581.928 348.915 584.943 338.905C587.717 329.498 590.371 320.573 598.21 320.935C605.446 321.176 616.301 309.959 625.95 300.07C634.874 290.904 643.317 282.22 648.744 282.341C650.071 282.341 651.156 282.944 652.001 283.908C656.825 289.577 652.362 298.381 648.021 306.703C644.282 313.819 640.784 320.694 643.076 325.156C645.85 330.824 646.332 335.89 644.161 339.87C641.749 344.574 635.96 347.589 627.156 348.915C619.075 350.122 618.231 358.926 617.266 368.213C616.18 379.067 614.974 391.49 601.346 392.696C591.215 393.54 584.461 400.656 578.43 406.927C573.847 411.752 569.626 416.093 564.802 416.093ZM553.947 406.807C557.686 411.993 561.063 414.646 564.32 414.887C568.782 415.249 573.003 410.907 577.707 405.963C583.858 399.57 590.853 392.334 601.346 391.369C614.009 390.284 615.095 378.947 616.18 367.971C617.145 358.202 618.11 348.915 627.035 347.589C635.478 346.383 640.905 343.488 643.196 339.146C645.126 335.528 644.644 330.824 641.99 325.518C639.458 320.573 643.076 313.457 646.935 306.1C651.156 298.019 655.378 289.698 651.036 284.511C650.433 283.788 649.588 283.305 648.624 283.305C643.799 283.185 635.477 291.627 626.673 300.673C616.542 311.166 606.049 321.9 598.331 321.9H598.089C591.094 321.658 588.803 329.739 586.029 339.146C583.014 349.398 579.516 361.097 568.782 363.63C560.219 365.68 556.48 366.765 555.515 368.574C554.792 369.78 555.274 371.59 556.118 374.605C556.721 376.776 557.445 379.55 558.048 383.047C560.46 397.158 555.274 405.118 553.947 406.807Z" fill="url(#paint3_linear)"/>
<path d="M565.284 412.113H564.922C558.771 411.51 554.188 398.244 549.605 385.339C547.434 379.188 545.384 373.399 543.454 369.78C541.886 366.886 539.956 363.871 538.147 360.976C533.082 353.257 527.896 345.297 529.584 338.181C530.428 334.443 533.082 331.427 537.665 328.774C547.675 322.985 546.107 319.729 542.73 312.613C540.318 307.427 536.821 300.19 536.7 288.974C536.7 284.15 536.579 279.928 536.459 276.31C536.097 264.491 535.976 258.46 538.509 256.289C539.595 255.445 541.042 255.204 543.092 255.566C546.71 256.289 548.278 259.184 549.846 262.199C551.896 266.179 554.309 270.521 561.545 272.089C568.299 273.536 574.812 275.466 576.5 279.928C577.706 283.064 576.621 287.165 572.882 292.592C572.038 293.919 571.676 295.004 571.917 295.969C572.52 298.14 575.897 299.708 579.757 301.517C585.305 304.05 592.179 307.306 594.109 313.939C595.677 319.246 593.868 326 588.561 334.443C576.018 354.343 576.5 367.73 576.983 379.67C577.344 388.474 577.586 396.796 572.279 406.083C569.987 410.184 567.696 412.113 565.284 412.113ZM541.283 256.531C540.439 256.531 539.715 256.772 539.233 257.134C537.062 258.943 537.303 265.094 537.544 276.19C537.665 279.928 537.785 284.029 537.785 288.974C537.906 299.949 541.283 307.065 543.695 312.13C547.072 319.246 549.002 323.467 538.147 329.739C533.926 332.151 531.393 335.046 530.549 338.423C528.981 344.935 534.047 352.775 538.871 360.252C540.801 363.147 542.73 366.162 544.298 369.177C546.348 372.916 548.399 378.826 550.57 384.977C554.791 396.917 559.495 410.545 564.922 411.028C566.972 411.269 569.143 409.339 571.314 405.48C576.5 396.435 576.138 388.716 575.777 379.67C575.294 367.609 574.812 353.981 587.596 333.84C592.662 325.759 594.471 319.367 593.023 314.301C591.214 308.15 584.822 305.135 579.274 302.602C575.174 300.673 571.555 298.984 570.832 296.331C570.47 295.004 570.832 293.557 571.917 291.989C575.415 286.924 576.5 283.185 575.415 280.411C573.847 276.431 567.334 274.622 561.183 273.295C553.464 271.727 550.811 266.782 548.761 262.802C547.193 259.908 545.866 257.254 542.73 256.772C542.262 256.623 541.774 256.542 541.283 256.531Z" fill="url(#paint4_linear)"/>
<path d="M565.405 419.229L564.32 418.867C570.471 399.45 559.375 355.911 555.998 345.297C554.309 340.111 555.877 332.272 557.325 324.674C559.254 314.904 561.184 304.773 556.239 300.914C546.952 293.798 547.435 277.275 547.435 276.551H548.641C548.641 276.672 548.159 293.195 556.963 299.949C562.511 304.17 560.46 314.663 558.531 324.794C557.083 332.272 555.636 339.991 557.204 344.935C561.184 358.082 571.556 399.932 565.405 419.229Z" fill="url(#paint5_linear)"/>
<path d="M518.971 293.195C516.439 286.682 506.428 287.647 507.393 296.813C508.358 305.979 514.75 315.749 504.981 331.427C495.212 346.986 517.524 350.122 525.484 359.891C533.444 369.66 536.218 383.168 542.972 391.731C549.726 400.294 554.309 420.797 559.736 413.199C565.284 405.601 560.098 395.59 560.701 381.841C561.304 368.092 573.606 359.408 561.304 350.483C549.002 341.558 536.701 338.905 540.801 318.884C542.369 309.959 526.931 313.336 518.971 293.195Z" fill="url(#paint6_linear)"/>
<path d="M568.54 414.887C568.419 414.525 561.665 374.122 546.469 363.147C530.91 351.931 528.136 341.438 522.709 316.955L523.794 316.713C529.101 340.955 531.875 351.207 547.072 362.303C562.63 373.64 569.384 413.199 569.625 414.767L568.54 414.887Z" fill="white"/>
<path d="M554.792 413.44C554.792 413.44 559.375 402.224 551.053 386.304C542.852 370.383 536.098 372.796 555.998 360.614C575.898 348.433 556.118 309.839 573.003 304.894C589.888 299.949 604.602 237.595 617.387 245.555C630.292 253.515 613.045 284.15 622.332 293.316C631.498 302.482 632.704 314.181 613.768 323.588C594.833 332.995 627.276 369.177 601.587 380.153C575.898 391.248 583.255 434.426 554.792 413.44Z" fill="url(#paint7_linear)"/>
<path d="M562.632 425.26C562.632 425.139 559.858 410.787 568.541 392.213C577.466 373.399 581.687 352.775 579.878 337.096C578.913 328.653 584.341 325.277 589.647 322.02C594.834 318.884 600.14 315.628 599.899 307.186C599.658 299.587 602.794 281.858 602.914 281.134L604 281.376C604 281.617 600.743 299.708 600.984 307.186C601.346 316.231 595.678 319.729 590.25 322.985C585.064 326.121 580.119 329.136 581.084 336.855C582.893 352.775 578.552 373.64 569.627 392.696C561.064 410.787 563.717 424.777 563.717 425.018L562.632 425.26Z" fill="white"/>
<path d="M583.375 346.142C589.164 340.835 596.762 339.991 595.194 347.951C593.626 355.911 588.199 358.202 590.852 363.147C593.626 368.092 598.089 373.157 590.37 379.308C582.651 385.459 578.309 386.183 576.018 397.761C573.726 409.339 574.209 417.299 564.198 417.782C554.188 418.264 558.047 403.671 561.304 397.158C561.304 397.158 566.128 389.681 562.872 379.791C559.736 369.901 553.585 364.594 566.49 361.217C579.515 357.84 579.515 349.76 583.375 346.142Z" fill="white"/>
<path d="M565.043 425.139C565.043 423.692 564.319 390.284 570.591 384.736C576.983 378.947 578.189 368.816 578.31 363.268C578.551 356.031 587.838 351.81 588.2 351.569L588.682 352.654C588.561 352.654 579.636 356.875 579.395 363.268C579.154 370.263 577.586 379.791 571.194 385.459C565.284 390.766 566.008 424.656 566.008 425.018L565.043 425.139Z" fill="url(#paint8_linear)"/>
<path d="M588.44 411.51L578.189 450.828H555.032L544.66 411.51H588.44Z" fill="url(#paint9_linear)"/>
<path d="M588.441 411.51C588.441 411.51 565.646 415.732 565.646 450.828H554.912L544.54 411.51H588.441Z" fill="url(#paint10_linear)"/>
<path d="M180.549 308.874H150.035V312.372H180.549V308.874Z" fill="#1487E3"/>
<path d="M143.644 213.715H95.0391V151.482H96.1241V212.509H143.644V213.715ZM349.519 172.709H348.434V108.546H410.305V54.514H411.511V109.632H349.519V172.709ZM549.604 244.108H485.2V243.023H548.398V205.635H549.604V244.108Z" fill="#78C2FF"/>
<path d="M68.0232 296.09C68.0232 296.09 66.6962 315.387 70.4352 317.799C72.8472 319.246 82.2552 324.191 82.0132 325.035C81.7722 326 76.7062 333.237 76.7062 333.237C76.7062 333.237 58.6162 321.297 58.0122 317.558C57.4092 313.94 58.8562 289.215 61.3892 288.13C63.1992 287.285 64.2842 288.009 66.5752 289.698C69.8322 292.11 68.0232 296.09 68.0232 296.09Z" fill="#FF7E55"/>
<path d="M65.8511 436.958C65.8511 436.958 65.2481 440.818 65.2481 441.421C65.1281 442.024 58.9771 441.059 58.9771 441.059L58.4941 436.355C58.4941 436.476 65.1271 436.355 65.8511 436.958Z" fill="#424773"/>
<path d="M65.3682 440.939C65.3682 440.939 67.2982 443.351 69.2282 444.315C71.1582 445.401 74.1732 445.763 75.2582 446.848C76.1032 447.572 78.2742 450.949 70.3132 450.828C62.4742 450.708 58.6152 451.311 57.7702 449.984C56.9262 448.657 58.9762 440.577 58.9762 440.577C58.9762 440.577 60.7862 441.3 65.3682 440.939Z" fill="#292C47"/>
<path d="M96.968 436.958C96.968 436.958 96.365 440.818 96.365 441.421C96.245 442.024 90.093 441.059 90.093 441.059L89.611 436.355C89.491 436.476 96.124 436.355 96.968 436.958Z" fill="#424773"/>
<path d="M96.3637 440.939C96.3637 440.939 98.2937 443.351 100.223 444.315C102.153 445.401 109.148 446.245 110.233 447.21C111.078 447.934 112.404 451.069 101.309 450.828C93.4687 450.587 89.6087 451.311 88.7647 449.984C87.9207 448.657 89.9717 440.577 89.9717 440.577C89.9717 440.577 91.7807 441.421 96.3637 440.939ZM68.1437 336.372C68.1437 336.372 62.3537 345.659 62.7167 353.981C63.1987 362.303 62.2337 371.348 61.2687 380.032C60.3037 389.801 57.6507 410.063 57.5307 415.249C57.4097 420.435 57.7707 440.094 57.7707 440.094L67.9027 439.974C67.9027 439.974 71.5207 400.294 73.2087 396.193C74.8977 392.093 82.1337 362.303 82.3747 359.047C82.6167 355.79 68.1437 336.372 68.1437 336.372Z" fill="#292C47"/>
<path d="M98.7769 337.578C98.7769 337.578 101.069 360.373 101.672 365.439C102.275 370.504 101.913 392.816 102.154 395.952C102.395 399.208 100.225 432.978 99.6219 439.491L88.5259 439.371C88.5259 439.371 87.8019 411.993 87.8019 398.605C87.8019 385.339 84.4249 369.78 80.4449 360.976C76.5849 352.172 67.5399 351.931 65.1279 335.649C65.1279 335.89 95.5209 332.392 98.7779 337.578H98.7769Z" fill="#292C47"/>
<path d="M74.2941 258.219C74.2941 258.219 81.2891 253.636 86.1141 258.581C90.9371 263.526 93.3501 275.225 89.8521 277.516C86.3541 279.808 80.4451 280.411 77.5501 277.275C74.7761 274.139 71.7611 269.315 71.0371 265.817C70.3141 262.32 72.4851 259.666 74.2941 258.219Z" fill="#EEA886"/>
<path d="M87.5609 278.36C87.5609 278.36 87.4409 283.185 88.0439 284.27C88.5259 285.356 77.9129 285.356 77.9129 285.356C77.9129 285.356 77.0679 279.687 75.3799 274.863C73.6909 270.039 87.5609 278.36 87.5609 278.36Z" fill="#EEA886"/>
<path d="M75.62 274.742C75.62 274.742 76.5851 275.707 79.4801 274.622C82.2541 273.416 84.907 268.712 86.113 267.988C87.199 267.265 87.0781 266.541 87.0781 266.541L88.163 267.506L89.49 267.265C89.49 267.265 87.44 264.008 88.887 262.199C90.334 260.39 84.425 251.345 75.741 256.892C75.741 256.892 68.987 260.631 70.193 264.611C71.278 268.712 73.449 273.174 75.62 274.742Z" fill="#754836"/>
<path d="M88.646 284.15C88.646 284.15 88.646 282.22 87.681 281.979C86.837 281.737 77.791 280.893 76.585 281.376V283.667C76.585 283.667 78.755 284.994 88.645 284.15H88.646Z" fill="#E2D2CA"/>
<path d="M86.3547 265.214C85.9927 264.611 83.8217 263.043 83.5807 265.214C83.4607 267.506 85.7507 269.918 86.5957 269.436C87.6807 268.953 87.1987 266.782 86.3547 265.214Z" fill="#EEA886"/>
<path d="M72.2447 259.425C72.2447 259.425 62.3547 262.079 75.1387 274.38L72.2447 259.425Z" fill="#754836"/>
<path d="M161.009 312.251L150.878 312.13C151.722 311.648 153.169 310.683 152.807 310.321C152.325 309.718 149.551 311.045 148.345 311.166C147.259 311.286 145.45 311.166 144.124 311.648L140.867 312.975L143.762 315.628C143.762 315.628 149.068 316.352 150.636 316.472C153.169 316.593 160.888 313.698 161.009 313.216C161.37 312.492 161.009 312.251 161.009 312.251Z" fill="#EEA886"/>
<path d="M101.793 286.923C95.4012 285.838 88.5262 284.149 88.5262 284.149L76.5862 283.667C76.5862 283.667 65.6112 286.079 61.2692 288.009C60.9072 288.25 60.9072 297.778 59.7012 300.311L63.3192 307.909C63.3192 307.909 65.3692 322.985 65.8522 329.618C66.0932 332.633 61.6312 358.323 61.6312 358.323C61.6312 358.323 66.4552 359.77 74.6562 360.614C82.8582 361.458 103.24 360.252 103.361 359.287C103.481 358.323 99.3812 323.347 99.2612 321.538C99.0192 318.764 100.104 305.859 100.104 305.859C101.672 307.909 110.597 315.748 114.939 318.161C118.075 319.97 125.673 318.884 127.844 318.643C132.668 318.161 146.056 317.196 146.297 316.713C146.538 316.472 145.573 311.527 144.97 311.407C144.488 311.286 127.241 310.442 122.899 310.562C121.09 310.683 115.422 304.291 115.422 304.291C115.422 304.291 105.411 288.491 101.793 286.923Z" fill="#FF7E55"/>
<path d="M28.0996 238.44H59.8196V266.179L54.8746 261.355H28.1006V238.44H28.0996Z" fill="#FFCB55"/>
<path d="M538.509 165.352H507.754V134.597H538.509V165.352ZM508.719 164.267H537.423V135.562H508.719V164.267ZM615.216 145.814H544.781V138.336H615.216V145.814ZM545.746 144.728H614.13V139.301H545.746V144.728ZM615.215 180.79H507.754V173.312H615.215V180.79ZM508.719 179.825H614.129V174.397H508.719V179.825ZM576.138 195.262H507.754V187.785H576.138V195.262ZM508.719 194.177H575.052V188.75H508.719V194.177ZM592.42 160.166H544.659V152.688H592.42V160.166ZM545.745 159.08H591.455V153.653H545.745V159.08Z" fill="#6AAFE8"/>
<path d="M627.397 211.665H495.453V118.195H627.397V211.665ZM496.539 210.58H626.432V119.16H496.539V210.58ZM449.019 76.224H439.129V75.138H447.813V66.334H449.019V76.224ZM382.566 76.224H372.676V66.334H373.882V75.138H382.566V76.223V76.224ZM373.881 9.89H372.796V0H382.565V1.206H373.881V9.89ZM449.019 9.89H447.813V1.206H439.129V0H449.019V9.89ZM449.019 24.604H447.812V51.62H449.019V24.604ZM373.882 24.604H372.676V51.62H373.882V24.604Z" fill="#6AAFE8"/>
<path d="M95.6409 152.085C93.3499 152.085 91.4199 150.155 91.4199 147.864C91.4199 145.572 93.3499 143.643 95.6409 143.643C97.9329 143.643 99.8619 145.572 99.8619 147.864C99.8619 150.155 97.9319 152.085 95.6419 152.085H95.6409ZM95.6409 144.728C95.2439 144.724 94.8501 144.8 94.4826 144.95C94.115 145.1 93.7811 145.322 93.5004 145.602C93.2196 145.883 92.9977 146.217 92.8475 146.585C92.6974 146.952 92.622 147.346 92.6259 147.743C92.6219 148.14 92.6972 148.534 92.8473 148.902C92.9974 149.269 93.2193 149.603 93.5001 149.884C93.7808 150.165 94.1148 150.387 94.4824 150.537C94.85 150.687 95.2439 150.762 95.6409 150.758C96.038 150.762 96.4318 150.687 96.7994 150.537C97.1671 150.387 97.501 150.165 97.7818 149.884C98.0626 149.603 98.2845 149.269 98.4346 148.902C98.5847 148.534 98.6599 148.14 98.6559 147.743C98.6598 147.346 98.5845 146.952 98.4343 146.585C98.2842 146.217 98.0622 145.883 97.7815 145.602C97.5007 145.322 97.1668 145.1 96.7993 144.95C96.4317 144.8 96.0379 144.724 95.6409 144.728ZM410.908 55.1171C408.616 55.1171 406.687 53.187 406.687 50.897C406.687 48.605 408.616 46.675 410.908 46.675C413.199 46.675 415.129 48.605 415.129 50.896C415.129 53.308 413.199 55.1171 410.908 55.1171ZM410.908 47.8811C410.511 47.877 410.117 47.9523 409.749 48.1024C409.382 48.2525 409.048 48.4744 408.767 48.7552C408.486 49.036 408.264 49.3699 408.114 49.7375C407.964 50.1051 407.889 50.499 407.893 50.896C407.889 51.2931 407.964 51.687 408.114 52.0546C408.264 52.4222 408.486 52.7561 408.767 53.0369C409.048 53.3177 409.382 53.5396 409.749 53.6897C410.117 53.8398 410.511 53.9151 410.908 53.911C411.305 53.9149 411.699 53.8396 412.066 53.6894C412.434 53.5393 412.768 53.3174 413.048 53.0366C413.329 52.7559 413.551 52.422 413.701 52.0544C413.851 51.6869 413.927 51.2931 413.923 50.896C414.044 49.208 412.596 47.8811 410.908 47.8811ZM549.002 206.358C546.711 206.358 544.781 204.429 544.781 202.137C544.781 199.845 546.711 197.916 549.002 197.916C551.294 197.916 553.224 199.845 553.224 202.137C553.224 204.429 551.294 206.358 549.002 206.358ZM549.002 199.001C548.605 198.997 548.211 199.073 547.844 199.223C547.476 199.373 547.142 199.595 546.861 199.875C546.581 200.156 546.359 200.49 546.209 200.858C546.058 201.225 545.983 201.619 545.987 202.016C545.983 202.413 546.058 202.807 546.208 203.175C546.358 203.542 546.58 203.876 546.861 204.157C547.142 204.438 547.476 204.66 547.843 204.81C548.211 204.961 548.605 205.036 549.002 205.032C549.399 205.036 549.793 204.961 550.161 204.81C550.528 204.66 550.862 204.438 551.143 204.157C551.424 203.876 551.646 203.542 551.796 203.175C551.946 202.807 552.022 202.413 552.018 202.016C552.018 200.449 550.691 199.001 549.002 199.001Z" fill="#78C2FF"/>
<path d="M123.622 34.7349H94.6768V5.78894H123.622V34.7349ZM95.7618 33.5289H122.416V6.87494H95.7618V33.5289Z" fill="#A1D4FF"/>
<path d="M109.753 13.629H108.547V27.137H109.753V13.629Z" fill="#A1D4FF"/>
<path d="M115.903 19.7801H102.396V20.9861H115.903V19.7791V19.7801ZM565.526 69.7101H524.036V40.1631H565.526V69.7121V69.7101ZM525.242 68.5051H564.44V41.2481H525.242V68.5051Z" fill="#A1D4FF"/>
<path d="M544.782 58.012L524.279 41.127L525.003 40.283L544.782 56.565L564.562 40.283L565.286 41.127L544.782 58.012Z" fill="#A1D4FF"/>
<path d="M550.562 53L549.688 53.83L564.545 69.493L565.42 68.663L550.562 53ZM539.056 53.053L524.209 68.726L525.085 69.555L539.931 53.882L539.056 53.052V53.053ZM195.986 99.38L195.504 98.295C195.142 98.295 194.78 98.174 194.419 98.053L193.574 98.898L191.042 97.088L191.524 96.003C191.283 95.641 191.042 95.4 190.921 95.038H189.715L189.232 91.902L190.318 91.42C190.318 91.058 190.438 90.696 190.559 90.335L189.715 89.49L191.524 86.958L192.609 87.44C192.971 87.199 193.212 86.958 193.574 86.837V85.631L196.71 85.148L197.192 86.234C197.554 86.234 197.916 86.354 198.278 86.475L199.122 85.631L201.655 87.44L201.173 88.525C201.414 88.887 201.655 89.128 201.776 89.49H202.982L203.464 92.626L202.379 93.109C202.379 93.47 202.258 93.832 202.137 94.194L202.982 95.038L201.173 97.571L200.087 97.088C199.725 97.33 199.484 97.571 199.122 97.692V98.898L195.986 99.38ZM194.177 97.089L194.419 97.209L195.866 97.571H196.107L196.469 98.536L198.157 98.295V97.209L198.399 97.089C198.881 96.847 199.243 96.606 199.605 96.365L199.846 96.245L200.811 96.606L201.776 95.159L201.052 94.435L201.173 94.194L201.534 92.747V92.505L202.499 92.144L202.258 90.455H201.173L201.052 90.214C200.811 89.731 200.569 89.37 200.328 89.008L200.208 88.767L200.569 87.802L199.122 86.837L198.399 87.561L198.157 87.44L196.71 87.078H196.469L196.107 86.113L194.419 86.355V87.44L194.177 87.56C193.695 87.802 193.333 88.043 192.971 88.284L192.73 88.404L191.765 88.043L190.8 89.49L191.524 90.214L191.403 90.455L191.042 91.902V92.144L190.077 92.505L190.318 94.194H191.403L191.524 94.435C191.765 94.918 192.006 95.279 192.248 95.641L192.368 95.882L192.006 96.847L193.454 97.812L194.177 97.088V97.089ZM196.348 95.641C195.625 95.641 195.022 95.401 194.419 95.038C192.851 93.953 192.489 91.782 193.574 90.335C194.66 88.767 196.831 88.405 198.278 89.49C199.002 89.973 199.484 90.817 199.605 91.661C199.725 92.505 199.605 93.471 199.002 94.194C198.519 94.918 197.675 95.4 196.831 95.521C196.71 95.641 196.469 95.641 196.348 95.641ZM196.348 89.611C195.504 89.611 194.78 89.973 194.298 90.696C193.936 91.299 193.695 91.903 193.815 92.626C193.936 93.35 194.298 93.832 194.901 94.315C195.504 94.676 196.107 94.918 196.831 94.797C197.554 94.677 198.037 94.315 198.519 93.712C198.881 93.109 199.122 92.505 199.002 91.782C198.881 91.058 198.519 90.576 197.916 90.093C197.313 89.853 196.831 89.611 196.348 89.611ZM171.986 102.998L171.021 100.465C169.989 100.353 168.976 100.11 168.006 99.742L166.076 101.551L160.77 97.812L161.855 95.4C161.252 94.556 160.649 93.711 160.167 92.747L157.513 92.626L156.428 86.113L158.96 85.148C159.081 84.063 159.322 83.098 159.684 82.133L157.875 80.203L161.614 74.897L164.026 75.982C164.87 75.379 165.714 74.776 166.679 74.294L166.8 71.64L173.192 70.555L174.157 73.088C175.242 73.208 176.207 73.45 177.172 73.811L179.102 72.002L184.409 75.742L183.323 78.153C183.926 78.997 184.529 79.842 185.012 80.806L187.665 80.927L188.75 87.44L186.218 88.405C186.105 89.4366 185.862 90.4497 185.494 91.42L187.303 93.35L183.564 98.656L181.152 97.571C180.308 98.174 179.464 98.777 178.499 99.259L178.378 101.913L171.986 102.998ZM167.765 98.536L168.127 98.656C169.212 99.018 170.418 99.38 171.504 99.38H171.865L172.71 101.672L177.293 100.948L177.413 98.536L177.775 98.416C178.861 97.933 179.825 97.33 180.79 96.606L181.032 96.365L183.323 97.33L185.976 93.59L184.288 91.782L184.409 91.42C184.77 90.335 185.132 89.128 185.132 88.043V87.681L187.424 86.837L186.7 82.254L184.288 82.134L184.167 81.771C183.685 80.686 183.082 79.721 182.358 78.756L182.117 78.515L183.082 76.224L179.343 73.57L177.534 75.259L177.172 75.138C176.087 74.776 174.881 74.414 173.795 74.414H173.433L172.589 72.123L168.006 72.847L167.885 75.259L167.524 75.379C166.438 75.862 165.473 76.465 164.508 77.189L164.267 77.429L161.976 76.465L159.322 80.204L161.011 82.013L160.89 82.374C160.528 83.46 160.167 84.666 160.167 85.751V86.113L157.875 86.957L158.599 91.541L161.011 91.661L161.131 92.023C161.614 93.108 162.217 94.073 162.941 95.038L163.182 95.279L162.217 97.571L165.956 100.224L167.765 98.536ZM172.589 94.314C171.142 94.314 169.574 93.832 168.247 92.988C164.87 90.576 164.147 85.993 166.559 82.616C168.971 79.239 173.554 78.515 176.931 80.927C180.308 83.339 181.032 87.922 178.74 91.299C177.172 93.229 174.881 94.314 172.589 94.314ZM172.589 80.565C170.659 80.565 168.73 81.53 167.403 83.219C166.438 84.545 166.076 86.234 166.317 87.922C166.559 89.611 167.524 91.058 168.85 92.023C171.624 94.073 175.604 93.35 177.655 90.576C178.619 89.249 178.981 87.561 178.74 85.872C178.499 84.183 177.534 82.736 176.207 81.772C175.122 80.927 173.916 80.565 172.589 80.565Z" fill="#A1D4FF"/>
<path d="M21.468 109.029C9.648 109.029 0 99.38 0 87.561H1.206C1.206 98.777 10.372 107.822 21.468 107.822C32.684 107.822 41.73 98.656 41.73 87.561C41.73 76.344 32.564 67.299 21.468 67.299V66.092C33.288 66.092 42.936 75.742 42.936 87.561C42.936 99.501 33.288 109.029 21.468 109.029ZM21.468 106.134C11.337 106.134 3.015 97.812 3.015 87.681C3.015 77.551 11.337 69.228 21.468 69.228C31.599 69.228 39.921 77.55 39.921 87.681H38.715C38.715 78.153 30.995 70.314 21.347 70.314C11.819 70.314 3.98 78.033 3.98 87.681C3.98 97.209 11.699 105.049 21.347 105.049V106.134H21.468Z" fill="#78C2FF"/>
<path d="M18.9357 94.676L11.0957 86.957L11.9407 86.234L18.9357 93.108L31.1167 80.928L31.8407 81.771L18.9357 94.676Z" fill="#78C2FF"/>
<path d="M474.709 350.725H148.708L113.009 484.116H510.408L474.709 350.725Z" fill="url(#paint11_linear)"/>
<path d="M161.011 374.122H181.031C181.876 374.122 182.479 374.725 182.358 375.449L180.428 384.133C180.308 384.615 179.705 385.097 179.102 385.097H158.719C157.875 385.097 157.272 384.374 157.392 383.65L159.684 374.966C159.804 374.484 160.407 374.122 161.011 374.122ZM190.197 374.122H205.393L203.343 385.097H187.905L190.197 374.122ZM212.991 374.122H228.067L226.499 385.097H211.062L212.991 374.122ZM235.667 374.122H250.743L249.657 385.097H234.22L235.667 374.122ZM258.34 374.122H273.536L272.813 385.097H257.375L258.34 374.122ZM281.134 374.122H296.21L295.969 385.097H280.531L281.134 374.122ZM462.889 374.122H440.095L442.627 385.097H465.784L462.889 374.122ZM432.616 374.122H417.42L419.47 385.097H434.908L432.616 374.122ZM409.822 374.122H394.746L396.314 385.097H411.752L409.822 374.122ZM387.149 374.122H371.952L373.158 385.097H388.596L387.149 374.122ZM364.472 374.122H349.275L349.999 385.097H365.437L364.472 374.122ZM341.678 374.122H326.603L326.844 385.097H342.281L341.678 374.122ZM303.81 374.122H318.885L319.247 385.097H303.81V374.122ZM154.377 393.299H185.976L184.167 404.636H151.965L154.377 393.299ZM467.835 393.299H428.638L430.929 404.636H470.729L467.835 393.299ZM420.798 393.299H405.239L406.928 404.636H422.968L420.798 393.299ZM397.399 393.299H381.72L383.046 404.636H398.966L397.399 393.299ZM373.881 393.299H358.322L359.166 404.636H375.087L373.881 393.299ZM350.484 393.299H334.805L335.287 404.636H351.207L350.484 393.299ZM149.673 413.561H181.996L179.584 424.777H146.658L149.673 413.561ZM190.077 413.561H206.238L204.308 424.777H187.785L190.077 413.561ZM214.319 413.561H335.649L336.011 424.777H212.51L214.319 413.561ZM343.729 413.561H359.891L360.735 424.777H344.333L343.729 413.561ZM367.971 413.561H384.132L385.459 424.777H369.056L367.971 413.561ZM392.213 413.561H408.374L410.183 424.777H393.66L392.213 413.561ZM416.455 413.561H432.737L434.908 424.777H418.385L416.455 413.561ZM440.818 413.561H473.141L476.036 424.777H443.11L440.818 413.561ZM326.965 393.299H311.527V404.636H327.327L326.965 393.299ZM303.567 393.299H287.888L287.405 404.636H303.446L303.567 393.299ZM280.049 393.299H264.37L263.525 404.636H279.446L280.049 393.299ZM256.652 393.299H240.973L239.646 404.636H255.567L256.652 393.299ZM233.134 393.299H217.455L215.767 404.636H231.687L233.134 393.299ZM209.614 393.299H194.056L191.765 404.636H207.685L209.614 393.299ZM161.732 367.248L164.265 357.358H171.622L169.21 367.248H161.732ZM178.981 357.358H193.695L191.645 367.248H176.689L178.981 357.358ZM201.052 357.358H215.766L214.077 367.248H199.122L201.052 357.358ZM223.124 357.358H237.838L236.511 367.248H221.556L223.124 357.358ZM245.193 357.358H259.907L258.943 367.248H243.987L245.193 357.358ZM267.264 357.358H281.978L281.496 367.248H266.42L267.264 357.358ZM289.334 357.358H304.049L303.928 367.248H288.973L289.334 357.358ZM311.407 357.358H326.121L326.362 367.248H311.407V357.358ZM333.479 357.358H348.072L348.796 367.248H333.84L333.479 357.358ZM355.429 357.358H370.143L371.228 367.248H356.273L355.429 357.358ZM377.499 357.358H392.213L393.66 367.248H378.705L377.499 357.358ZM399.57 357.358H414.284L416.093 367.248H401.138L399.57 357.358ZM421.642 357.358H436.356L438.527 367.248H423.571L421.642 357.358ZM443.713 357.358H458.427L460.96 367.248H446.004L443.713 357.358Z" fill="white"/>
<path d="M500.036 494.488H123.381C117.592 494.488 113.009 489.784 113.009 484.116H510.408C510.408 489.784 505.705 494.488 500.036 494.488Z" fill="url(#paint12_linear)"/>
<path d="M357.841 441.059C357.48 438.768 355.429 436.958 353.017 436.958H270.281C267.869 436.958 265.818 438.647 265.457 441.059L260.27 472.417C260.153 473.116 260.19 473.833 260.379 474.516C260.568 475.2 260.904 475.834 261.364 476.374C261.823 476.914 262.395 477.347 263.04 477.642C263.684 477.938 264.386 478.089 265.095 478.085H358.203C358.912 478.089 359.613 477.938 360.258 477.642C360.902 477.346 361.474 476.913 361.933 476.373C362.393 475.833 362.729 475.199 362.918 474.516C363.107 473.833 363.144 473.116 363.027 472.417L357.841 441.059Z" fill="#4D78EB"/>
<path d="M214.2 171.623H180.551V175.121H214.2V171.623ZM247.969 197.674H223.606V201.172H247.969V197.674Z" fill="#E0E0E0"/>
<path d="M267.869 197.674H251.708V201.172H267.869V197.674ZM197.072 262.923H180.911V266.42H197.072V262.923Z" fill="#1487E3"/>
<path d="M310.081 197.674H271.125V201.172H310.081V197.674ZM205.997 249.897H180.911V253.395H205.997V249.897ZM231.085 275.948H215.768V279.446H231.085V275.948Z" fill="#E0E0E0"/>
<path d="M211.183 275.948H180.911V279.446H211.183V275.948Z" fill="#1487E3"/>
<path d="M197.675 288.974H180.911V292.472H197.675V288.974Z" fill="#E0E0E0"/>
<path d="M244.592 171.623H220.712V175.121H244.592V171.623Z" fill="#78C2FF"/>
<path d="M244.592 210.579H220.712V214.077H244.592V210.579Z" fill="#1487E3"/>
<path d="M219.024 223.605H208.772V227.103H219.024V223.605Z" fill="#E0E0E0"/>
<path d="M221.556 236.751H198.641V240.249H221.556V236.751Z" fill="#78C2FF"/>
<path d="M256.774 236.751H225.055V240.249H256.774V236.751ZM204.791 223.726H180.911V227.223H204.791V223.726ZM195.143 236.751H180.911V240.249H195.143V236.751Z" fill="#1487E3"/>
<path d="M237.236 223.726H223.849V227.223H237.236V223.726ZM194.661 301.879H181.273V305.376H194.661V301.879Z" fill="#FF8761"/>
<path d="M204.671 197.674H180.791V201.172H204.671V197.674ZM225.778 262.923H201.897V266.42H225.778V262.923ZM226.14 288.974H202.26V292.472H226.14V288.974ZM268.593 288.974H244.713V292.472H268.593V288.974ZM214.923 210.579H180.791V214.077H214.923V210.579ZM364.475 171.623H340.595V175.121H364.475V171.623ZM279.205 301.879H255.325V305.376H279.205V301.879ZM387.994 171.623H371.953V175.121H387.994V171.623ZM442.146 184.649H426.105V188.147H442.146V184.649Z" fill="#78C2FF"/>
<path d="M281.618 171.623H251.104V175.121H281.618V171.623ZM400.417 184.649H369.903V188.147H400.417V184.649ZM363.027 197.674H332.514V201.172H363.027V197.674ZM323.348 210.579H292.834V214.077H323.348V210.579Z" fill="#1487E3"/>
<path d="M388.597 197.674H366.888V201.172H388.597V197.674Z" fill="#78C2FF"/>
<path d="M334.685 171.623H304.172V175.121H334.685V171.623ZM287.287 210.579H269.438V214.077H287.287V210.579ZM273.175 263.164H255.325V266.662H273.175V263.164Z" fill="#FF8761"/>
<path d="M298.504 171.623H287.286V175.121H298.504V171.623ZM262.321 210.579H251.104V214.077H262.321V210.579ZM418.99 184.649H407.773V188.147H418.99V184.649Z" fill="#E0E0E0"/>
<path d="M198.038 184.649H180.55V188.147H198.038V184.649ZM240.853 250.018H227.104V253.516H240.853V250.018ZM207.928 184.649H202.26V188.147H207.928V184.649Z" fill="#1487E3"/>
<path d="M364.475 184.649H317.921V188.147H364.475V184.649ZM319.851 288.974H273.297V292.472H319.851V288.974Z" fill="#E0E0E0"/>
<path d="M217.816 184.649H212.027V188.147H217.816V184.649Z" fill="#FF8761"/>
<path d="M313.579 184.649H298.383V188.147H313.579V184.649Z" fill="#1487E3"/>
<path d="M328.897 197.674H313.7V201.172H328.897V197.674ZM250.502 301.879H235.306V305.376H250.502V301.879Z" fill="#FF8761"/>
<path d="M294.403 184.649H261.96V188.147H294.403V184.649ZM250.743 263.164H231.808V266.662H250.743V263.164ZM240.13 288.974H230.602V292.472H240.13V288.974Z" fill="#1487E3"/>
<path d="M257.377 184.649H246.16V188.147H257.377V184.649Z" fill="#78C2FF"/>
<path d="M219.867 197.674H208.65V201.172H219.867V197.674ZM222.039 250.018H210.822V253.516H222.039V250.018Z" fill="#FF8761"/>
<path d="M241.938 184.649H222.521V188.147H241.938V184.649Z" fill="#1487E3"/>
<path opacity="0.76" d="M507.151 322.382H366.162C364.884 322.378 363.659 321.869 362.755 320.965C361.851 320.061 361.342 318.836 361.338 317.558V219.866C361.342 218.588 361.851 217.363 362.755 216.459C363.659 215.555 364.884 215.046 366.162 215.042H507.151C508.429 215.046 509.654 215.555 510.558 216.459C511.462 217.363 511.972 218.588 511.976 219.866V317.558C511.972 318.836 511.462 320.061 510.558 320.965C509.654 321.869 508.429 322.378 507.151 322.382Z" fill="white"/>
<path d="M495.696 277.637H471.454C470.368 277.637 469.645 276.793 469.645 275.828V272.089C469.645 271.004 470.489 270.28 471.454 270.28H495.696C496.781 270.28 497.505 271.124 497.505 272.089V275.828C497.505 276.793 496.781 277.637 495.696 277.637ZM495.696 291.627H471.454C470.368 291.627 469.645 290.783 469.645 289.818V286.079C469.645 284.994 470.489 284.27 471.454 284.27H495.696C496.781 284.27 497.505 285.114 497.505 286.079V289.818C497.505 290.783 496.781 291.627 495.696 291.627ZM495.696 305.618H471.454C470.368 305.618 469.645 304.773 469.645 303.809V300.07C469.645 298.984 470.489 298.261 471.454 298.261H495.696C496.781 298.261 497.505 299.105 497.505 300.07V303.809C497.505 304.773 496.781 305.618 495.696 305.618ZM456.014 253.515C449.743 236.148 433.099 225.414 415.611 225.897C411.39 226.017 407.048 226.861 402.827 228.309C390.043 232.892 380.876 243.023 377.138 255.083C374.484 263.405 374.484 272.571 377.62 281.496C377.982 282.34 378.223 283.185 378.585 284.029C380.273 287.888 382.444 291.386 384.977 294.401C395.832 307.186 413.923 312.613 430.687 306.582C452.517 298.984 463.733 275.225 456.014 253.515ZM427.431 296.934C421.467 299.068 414.994 299.334 408.874 297.696C402.755 296.059 397.28 292.595 393.178 287.768C391.249 285.476 389.56 282.823 388.354 280.049C388.113 279.446 387.872 278.722 387.63 278.119C385.218 271.486 385.218 264.611 387.269 258.34C390.043 249.294 396.917 241.696 406.566 238.319C409.637 237.254 412.847 236.644 416.094 236.51C429.24 236.148 441.662 244.108 446.366 257.134C452.034 273.295 443.592 291.145 427.431 296.934Z" fill="#4AAFFF"/>
<path d="M387.149 258.219L377.259 255.083C380.998 243.023 390.164 232.892 402.948 228.309C407.169 226.741 411.511 226.017 415.732 225.897L416.094 236.269C412.958 236.389 409.702 236.992 406.566 238.078C396.797 241.575 389.923 249.294 387.149 258.219Z" fill="#1A598C"/>
<path d="M388.354 280.049L378.826 284.149C378.464 283.305 378.102 282.461 377.861 281.617C374.725 272.812 374.725 263.526 377.379 255.204L387.269 258.34C385.339 264.611 385.339 271.486 387.63 278.119C387.751 278.722 387.992 279.325 388.354 280.049Z" fill="#2273B5"/>
<path d="M385.217 294.522C382.52 291.448 380.359 287.941 378.825 284.15L388.353 280.049C389.559 282.944 391.248 285.476 393.177 287.768L385.217 294.522Z" fill="#3788CC"/>
<path d="M430.807 292.23C430.807 292.23 428.757 288.733 432.013 279.205C435.149 270.039 445.762 270.883 449.139 276.793C452.516 282.702 451.431 286.32 446.365 292.833C441.42 299.467 432.857 295.245 430.807 292.23ZM455.652 454.808C455.652 454.808 456.135 458.668 456.255 459.271C456.376 459.874 462.165 458.909 462.165 458.909L462.648 454.326C462.527 454.205 456.376 454.205 455.652 454.808Z" fill="#EEA886"/>
<path d="M456.134 458.667C456.134 458.667 454.325 460.959 452.516 462.044C450.707 463.009 447.933 463.492 446.848 464.577C446.124 465.301 444.074 468.557 451.431 468.557C458.788 468.437 462.406 469.04 463.25 467.713C464.094 466.507 462.044 458.426 462.044 458.426C462.044 458.426 460.356 459.029 456.134 458.667Z" fill="#414773"/>
<path d="M415.248 454.808C415.248 454.808 415.73 458.668 415.851 459.271C415.972 459.874 421.761 458.909 421.761 458.909L422.243 454.326C422.243 454.205 415.972 454.205 415.248 454.808Z" fill="#EEA886"/>
<path d="M415.851 458.668C415.851 458.668 414.042 460.959 412.233 462.045C410.424 463.01 403.911 463.854 402.826 464.939C402.102 465.663 400.775 468.799 411.268 468.437C418.625 468.196 422.243 468.919 423.088 467.593C423.932 466.387 421.881 458.306 421.881 458.306C421.881 458.306 419.469 458.909 415.851 458.668Z" fill="#414773"/>
<path d="M453.601 358.202C453.601 358.202 456.616 367.489 456.134 375.449C455.772 383.409 457.701 392.213 458.425 400.535C459.269 409.822 462.887 431.893 463.008 436.838C463.129 441.783 462.405 457.703 462.405 457.703L455.169 457.823C455.169 457.823 449.138 419.35 447.57 415.37C446.003 411.39 438.163 383.409 437.922 380.273C437.922 377.137 453.601 358.202 453.601 358.202Z" fill="#2D314F"/>
<path d="M423.691 357.237C423.691 357.237 419.349 381.721 418.746 386.665C418.263 391.61 417.901 410.304 417.66 413.44C417.419 416.455 415.972 453.482 414.524 457.944H422.605C422.605 457.944 430.927 431.049 430.927 418.385C430.927 405.721 436.354 390.766 439.972 382.324C443.47 373.881 451.551 373.76 453.842 358.202C453.601 358.202 426.585 352.293 423.691 357.237Z" fill="#2D314F"/>
<path d="M433.701 294.763C433.701 294.763 434.666 297.416 433.701 299.346C432.737 301.276 445.28 300.07 445.28 300.07C445.28 300.07 444.677 296.21 446.365 292.954C448.054 289.697 433.701 294.763 433.701 294.763Z" fill="#EEA886"/>
<path d="M454.204 360.132C454.204 360.132 449.741 364.715 423.208 359.408L423.57 357.117L453.601 358.202L454.204 360.132Z" fill="#2B3B57"/>
<path d="M431.772 299.829C431.772 299.829 427.188 300.311 425.862 300.552C424.535 300.793 415.61 298.984 413.801 298.743C411.992 298.502 404.153 293.195 403.911 292.592C403.67 291.989 399.208 280.652 398.966 278.119C398.725 275.707 394.625 276.913 394.986 278.602C395.589 281.738 396.554 289.456 396.916 291.627C397.399 294.039 398.725 299.467 399.57 300.19C400.293 300.914 407.288 306.221 414.163 308.512C421.038 310.804 426.224 314.06 426.224 314.06H459.994C459.994 314.06 473.14 295.246 473.381 292.472C473.622 289.698 464.215 270.762 462.285 268.471C460.355 266.059 457.702 269.194 457.702 269.194C457.702 269.194 463.37 285.838 464.094 288.13C464.818 290.542 457.461 300.914 455.531 300.914C453.481 300.914 448.295 300.311 446.003 300.19C443.712 300.07 441.299 299.105 441.299 299.105L431.772 299.829Z" fill="#EEA886"/>
<path d="M417.178 312.372C417.178 312.372 421.278 315.146 421.64 319.849C422.002 324.553 423.57 332.03 424.293 334.563C425.017 337.096 423.69 355.669 423.449 356.996C423.208 358.323 449.621 361.459 453.601 358.323C453.601 358.323 454.686 341.076 455.169 336.131C455.651 331.186 457.943 319.367 458.666 317.678C459.39 316.11 468.556 303.205 468.918 301.517C468.918 301.517 464.214 293.919 460.837 293.919C460.837 293.919 455.41 300.19 453.721 300.552C451.912 300.793 441.178 298.864 441.178 298.864C441.178 298.864 439.972 300.431 433.701 298.622C433.701 298.622 426.223 299.467 425.017 299.587C423.57 299.828 413.318 298.261 413.318 298.261C413.318 298.261 409.217 305.135 409.941 308.633L417.178 312.372Z" fill="#FFC655"/>
<path d="M399.208 279.687C399.208 279.687 398.243 275.345 399.449 274.019C400.052 273.295 401.62 271.365 401.74 271.124C401.861 270.883 403.549 269.918 403.549 269.436C403.549 268.953 401.982 268.471 400.534 269.677C399.087 271.004 398.243 271.245 397.76 271.124C397.157 271.004 396.434 266.3 396.313 265.214C396.192 264.008 395.831 260.993 395.107 261.234C394.383 261.476 394.383 262.802 394.383 262.802C394.383 262.802 393.539 260.511 392.936 260.993C392.333 261.476 392.454 262.561 392.454 262.561C392.454 262.561 391.368 261.234 391.127 262.199C390.886 263.164 391.127 264.008 391.127 264.008C391.127 264.008 390.041 263.405 389.921 264.853C389.8 266.3 390.283 270.642 391.006 272.089C391.73 273.657 394.624 277.637 394.986 279.205C395.348 280.773 399.208 279.687 399.208 279.687ZM458.666 271.968C458.666 271.968 455.53 266.662 454.445 266.179C453.359 265.697 451.912 265.455 450.585 264.491C449.259 263.526 447.57 262.802 447.57 262.44C447.691 262.079 449.259 262.199 450.947 262.923C452.636 263.646 453.359 263.285 453.48 262.923C453.601 262.561 452.636 259.908 452.033 259.305C451.55 258.702 447.932 255.083 448.535 254.48C449.138 253.998 451.43 255.928 451.792 256.289C451.792 256.289 449.982 252.43 450.706 252.189C451.43 251.948 452.756 253.395 452.756 253.395C452.756 253.395 452.636 250.018 456.133 255.445C456.133 255.445 455.41 253.636 456.495 254.239C457.581 254.842 458.666 258.219 459.028 259.908C459.39 261.596 460.958 267.023 462.284 268.35C463.611 269.797 458.666 271.968 458.666 271.968Z" fill="#EEA886"/>
<path d="M446.365 292.833C446.365 292.833 444.677 292.954 441.179 291.748C437.682 290.542 437.44 284.391 436.596 285.115C435.028 286.562 433.581 285.597 432.978 284.753C432.978 284.753 434.667 282.461 433.943 281.376C433.099 280.29 431.893 279.446 431.893 279.446C431.893 279.446 434.425 267.506 445.642 272.933C458.788 279.325 446.365 292.833 446.365 292.833Z" fill="#353A3D"/>
<path d="M433.701 299.225L434.063 297.537C434.063 297.537 441.299 297.416 445.159 298.019L445.521 300.07C445.641 300.07 440.576 302.241 433.701 299.225Z" fill="#D4D8E8"/>
<path d="M435.509 283.667C436.112 282.582 438.524 281.858 438.886 284.873C439.127 287.285 434.544 289.818 434.544 287.647C434.423 285.476 435.026 284.391 435.509 283.667Z" fill="#EEA886"/>
<path d="M398.967 278.722C398.967 278.722 396.313 278.843 395.107 279.928C395.107 279.928 394.987 280.652 395.348 281.255C395.348 281.255 397.64 280.17 399.328 280.049C399.328 279.928 399.328 278.964 398.967 278.722Z" fill="#E55353"/>
<path d="M395.952 279.325C395.711 279.928 395.952 280.531 396.555 280.773C397.158 281.014 397.761 280.773 398.002 280.17C398.243 279.567 398.002 278.964 397.399 278.722C396.796 278.481 396.193 278.843 395.952 279.325Z" fill="#353A3D"/>
<path d="M332.152 187.061C332.152 187.061 335.891 193.333 337.459 194.418C339.63 195.865 338.303 197.192 337.218 197.192C336.253 197.192 331.067 197.554 329.861 196.227C328.775 194.901 328.172 191.041 327.087 190.076C326.001 189.111 324.916 185.011 327.569 184.046C329.981 183.202 332.152 187.061 332.152 187.061Z" fill="#6069A8"/>
<path d="M330.584 184.287C330.584 184.287 334.805 191.644 335.529 192.73C336.253 193.815 334.202 193.815 332.876 193.333C331.549 192.85 328.293 187.543 327.81 186.579C327.207 185.373 327.69 184.167 327.69 184.167L330.584 184.287Z" fill="#202338"/>
<path d="M326.241 188.267L327.206 195.745H327.689L327.568 190.318L326.241 188.267ZM295.366 187.061C295.366 187.061 299.105 193.333 300.673 194.418C302.844 195.865 301.517 197.192 300.432 197.192C299.467 197.192 294.281 197.554 293.075 196.227C291.989 194.901 291.386 191.041 290.301 190.076C289.215 189.111 288.13 184.89 290.783 184.046C293.195 183.322 295.366 187.061 295.366 187.061Z" fill="#6069A8"/>
<path d="M293.919 184.287C293.919 184.287 297.899 191.644 298.743 192.73C299.466 193.815 297.416 193.815 296.089 193.333C294.763 192.85 291.506 187.543 291.024 186.579C290.421 185.373 290.903 184.167 290.903 184.167L293.919 184.287Z" fill="#202338"/>
<path d="M289.337 188.267L290.422 195.745H290.905L290.784 190.318L289.337 188.267Z" fill="#6069A8"/>
<path d="M278.844 129.773L312.493 145.09C312.493 145.09 316.232 146.296 316.714 150.517C318.041 163.543 327.81 184.167 327.81 184.167C330.946 185.734 330.705 184.408 330.705 184.408C328.775 178.136 326.363 152.085 325.519 141.592C325.277 139.421 325.277 137.854 325.157 137.371C325.157 137.009 324.795 136.647 324.192 136.165C319.609 132.426 300.553 124.707 300.553 124.707C286.201 124.104 278.844 129.773 278.844 129.773Z" fill="#202338"/>
<path d="M272.451 136.286C273.536 145.331 286.441 144.366 286.441 144.366H302.12C302.12 144.366 298.019 153.532 296.451 161.251C294.763 169.453 290.783 184.046 290.783 184.046C290.783 184.046 291.024 184.528 293.919 184.287C293.919 184.287 306.221 159.683 310.924 153.532C311.889 152.206 314.904 144.969 315.387 140.628C315.507 139.18 315.507 138.095 314.904 137.612C314.301 137.13 313.095 136.286 311.407 135.2C306.462 132.064 297.899 127.361 293.195 126.275C286.803 124.828 276.672 122.175 276.672 122.175C276.672 122.175 271.486 127.24 272.451 136.286Z" fill="#202338"/>
<path d="M283.184 66.334C283.184 66.334 280.772 61.871 281.978 57.168C283.184 52.464 287.526 47.64 294.039 49.811C300.552 51.981 305.738 57.047 301.878 62.836C298.019 68.626 305.376 71.279 303.446 74.052C301.517 76.826 302.24 79.722 303.085 80.324C303.929 80.927 306.462 83.219 306.22 85.993C305.979 88.646 293.677 78.033 293.677 78.033C293.677 78.033 286.923 64.645 283.184 66.333V66.334Z" fill="#464240"/>
<path d="M302.844 123.381C302.844 123.381 301.879 128.084 276.793 122.175C276.793 122.175 285.235 119.401 302.844 123.381Z" fill="#EB4747"/>
<path d="M276.551 123.501C276.189 124.225 275.828 124.949 275.345 125.672C284.511 125.913 293.677 126.155 302.844 126.516C301.396 121.692 301.879 115.059 302.12 110.114C302.482 103.963 305.859 99.742 305.497 93.591C307.306 93.832 307.668 93.953 309.477 94.194C306.703 86.234 305.738 82.374 297.054 79.359C294.281 78.394 292.351 78.153 289.336 78.394C279.325 79.239 276.31 79.359 271.365 88.404C279.084 89.611 277.757 92.384 280.17 99.983C281.255 103.722 282.461 107.822 281.858 111.802C281.255 115.662 276.551 120.004 276.551 123.501Z" fill="#325BB3"/>
<path d="M292.471 81.168C288.37 80.445 289.214 78.153 289.214 78.153C289.214 78.153 289.456 76.827 289.456 75.259V73.932C289.456 73.208 289.456 72.605 289.335 71.882C288.973 69.108 296.813 70.796 296.813 70.796C296.813 70.796 296.33 76.344 297.416 78.033C298.622 79.721 296.571 82.013 292.471 81.168Z" fill="#EEA886"/>
<path d="M284.633 78.153C284.633 78.153 292.834 87.681 295.97 89.853C295.97 89.853 299.467 86.716 297.297 78.273C297.297 78.394 293.317 76.344 284.633 78.153ZM284.873 55.238C284.873 55.238 280.531 63.56 284.873 71.278C289.094 79.118 297.537 67.902 298.019 66.575C298.502 65.248 301.396 57.771 295.728 55.479C290.059 53.309 286.079 52.946 284.873 55.238Z" fill="#EEA886"/>
<path d="M286.32 58.133C286.32 58.133 283.426 61.992 283.064 64.886C283.064 64.886 281.858 59.459 285.235 54.273C288.612 49.087 297.054 54.032 298.14 56.083C299.225 58.133 302.602 59.942 297.054 68.987C296.934 68.987 286.923 61.992 286.32 58.133Z" fill="#464240"/>
<path d="M293.194 72.1229C293.194 72.1229 292.471 73.6909 289.576 75.2589V73.9319C289.576 73.9319 291.506 73.6909 293.194 72.1219V72.1229Z" fill="#A77860"/>
<path d="M249.898 116.024C249.898 116.024 247.847 116.989 246.883 116.506C245.918 116.144 244.47 116.024 243.988 116.024C243.385 116.024 241.335 115.3 241.455 116.144C241.455 116.868 244.712 117.471 245.315 117.712C245.918 117.953 243.385 119.401 243.144 120.004C242.903 120.607 245.797 124.828 247.486 123.622C249.174 122.416 250.018 120.124 250.38 119.883C250.742 119.763 251.586 119.039 251.586 119.039L249.898 116.024Z" fill="#EEA886"/>
<path d="M243.385 119.642C243.385 119.642 238.561 123.622 238.561 124.104C238.44 124.587 238.682 124.949 239.164 124.587C239.646 124.225 243.868 120.848 243.868 120.848C243.868 120.848 239.043 126.517 238.923 126.878C238.802 127.12 239.285 127.602 239.526 127.481C239.767 127.361 244.833 121.933 244.833 121.933C244.833 121.933 240.37 127.24 240.37 127.602C240.37 127.964 240.853 128.326 241.214 127.964C241.576 127.602 246.039 122.898 246.039 122.898C246.039 122.898 243.023 126.999 243.265 127.361C243.385 127.602 243.747 128.084 244.471 126.999C245.194 125.913 247.245 123.622 247.245 123.622L243.385 119.642Z" fill="#EEA886"/>
<path d="M300.552 144.366H286.441C286.441 144.366 273.415 145.452 272.45 136.286C271.365 127.24 276.671 122.175 276.671 122.175C276.671 122.175 283.546 123.984 289.456 125.431C292.471 124.828 296.089 124.346 300.31 124.466C300.31 124.466 325.638 132.788 324.914 137.251C325.035 137.251 314.421 131.582 300.552 144.366Z" fill="#FF7E55"/>
<path d="M291.385 128.567L318.28 128.205L304.652 135.08L291.385 128.567Z" fill="#5E5853"/>
<path d="M299.707 125.19C299.707 125.19 293.677 127.481 286.32 125.431L285.958 122.657L301.154 123.501L299.707 125.19Z" fill="#325BB3"/>
<path d="M304.652 135.08L291.385 129.893V128.567L305.737 133.753L304.652 135.08Z" fill="#91887F"/>
<path d="M299.709 126.517C299.588 127.481 300.673 128.205 301.518 127.843L303.085 127.12C303.568 126.878 303.809 126.396 303.689 125.913C303.085 121.813 301.638 106.013 303.689 103.36C304.412 102.395 304.895 101.43 305.136 100.707C306.462 104.204 308.151 108.667 308.875 111.079L321.538 127.964L325.76 129.049C320.453 116.265 316.232 109.511 316.232 109.511C315.387 107.34 312.975 100.586 310.925 94.556C309.598 90.816 308.392 87.319 307.669 85.39C307.307 84.425 306.704 83.58 305.859 83.098C303.93 81.892 300.673 80.083 297.658 78.636C297.538 78.636 297.417 78.515 297.417 78.515C302.965 86.957 300.794 110.958 299.709 126.517C299.709 126.396 299.709 126.396 299.709 126.517ZM278.723 79.118C276.914 79.359 272.451 83.701 270.039 88.164C267.265 93.229 264.612 98.898 262.441 100.707C258.582 104.204 247.968 116.386 247.486 116.024C247.245 115.903 250.38 119.642 250.863 119.883C251.104 120.004 268.351 104.928 270.039 102.636C271.607 100.465 275.828 91.42 277.155 91.541C277.276 91.781 278.844 95.038 280.291 99.983C280.291 100.104 280.291 100.104 280.412 100.224C281.376 103.601 281.376 107.34 280.773 111.441C280.411 114.576 277.999 119.642 276.673 122.175C276.552 122.416 276.552 123.019 276.673 123.501C276.793 123.743 276.914 123.984 277.155 123.984L282.221 125.913L283.427 126.396C284.271 126.758 285.236 126.517 285.839 126.034C286.442 125.672 286.804 125.069 286.924 124.225C288.01 115.541 289.457 106.616 290.663 103.239C295.729 88.525 288.733 77.55 288.733 77.55C288.733 77.55 280.291 78.515 278.723 79.118Z" fill="#EDDAD3"/>
<path d="M304.652 135.08L312.733 113.25L338.422 113.732L330.824 133.753L304.652 135.08Z" fill="#6E6760"/>
<path d="M320.934 122.898C320.09 124.466 320.331 126.155 321.417 126.758C322.502 127.24 323.95 126.517 324.794 124.949C325.638 123.381 325.397 121.692 324.311 121.089C323.226 120.486 321.658 121.33 320.934 122.898Z" fill="#807066"/>
<path d="M293.798 63.44C293.798 63.44 295.487 65.972 293.919 68.263C292.351 70.434 294.281 72.605 294.643 75.017C295.004 77.309 288.25 83.581 295.728 86.717C303.206 89.852 305.497 84.666 303.688 81.771C301.758 78.877 300.432 76.585 300.311 72.605C300.07 68.505 298.743 62.112 293.798 63.439V63.44Z" fill="#464240"/>
<path d="M239.889 32.684H271.608V60.424L266.784 55.6H239.889V32.684Z" fill="#78C2FF"/>
<defs>
<linearGradient id="paint0_linear" x1="138.716" y1="264.826" x2="501.054" y2="264.826" gradientUnits="userSpaceOnUse">
<stop stop-color="#40D5E6"/>
<stop offset="1" stop-color="#5577FF"/>
</linearGradient>
<linearGradient id="paint1_linear" x1="160.084" y1="248.787" x2="462.602" y2="248.787" gradientUnits="userSpaceOnUse">
<stop stop-color="#404B61"/>
<stop offset="0.486" stop-color="#3C4860"/>
<stop offset="1" stop-color="#2F3E5C"/>
</linearGradient>
<linearGradient id="paint2_linear" x1="559.296" y1="360.484" x2="637.134" y2="360.484" gradientUnits="userSpaceOnUse">
<stop stop-color="#3076A1"/>
<stop offset="1" stop-color="#639C38"/>
</linearGradient>
<linearGradient id="paint3_linear" x1="552.535" y1="349.137" x2="654.163" y2="349.137" gradientUnits="userSpaceOnUse">
<stop stop-color="#3076A1"/>
<stop offset="1" stop-color="#639C38"/>
</linearGradient>
<linearGradient id="paint4_linear" x1="529.185" y1="333.761" x2="594.738" y2="333.761" gradientUnits="userSpaceOnUse">
<stop stop-color="#3076A1"/>
<stop offset="1" stop-color="#639C38"/>
</linearGradient>
<linearGradient id="paint5_linear" x1="547.406" y1="347.937" x2="567.281" y2="347.937" gradientUnits="userSpaceOnUse">
<stop stop-color="#3076A1"/>
<stop offset="1" stop-color="#639C38"/>
</linearGradient>
<linearGradient id="paint6_linear" x1="502.422" y1="351.876" x2="566.587" y2="351.876" gradientUnits="userSpaceOnUse">
<stop stop-color="#3076A1"/>
<stop offset="1" stop-color="#639C38"/>
</linearGradient>
<linearGradient id="paint7_linear" x1="545.385" y1="497.255" x2="599.37" y2="287.315" gradientUnits="userSpaceOnUse">
<stop stop-color="#3076A1"/>
<stop offset="1" stop-color="#639C38"/>
</linearGradient>
<linearGradient id="paint8_linear" x1="565.008" y1="388.428" x2="588.729" y2="388.428" gradientUnits="userSpaceOnUse">
<stop stop-color="#3076A1"/>
<stop offset="1" stop-color="#639C38"/>
</linearGradient>
<linearGradient id="paint9_linear" x1="544.639" y1="431.196" x2="588.493" y2="431.196" gradientUnits="userSpaceOnUse">
<stop stop-color="#FF9340"/>
<stop offset="1" stop-color="#FFCE45"/>
</linearGradient>
<linearGradient id="paint10_linear" x1="544.639" y1="431.196" x2="588.493" y2="431.196" gradientUnits="userSpaceOnUse">
<stop stop-color="#C97332"/>
<stop offset="1" stop-color="#FFCE45"/>
</linearGradient>
<linearGradient id="paint11_linear" x1="311.682" y1="337.847" x2="311.682" y2="538.75" gradientUnits="userSpaceOnUse">
<stop stop-color="#40D5E6"/>
<stop offset="1" stop-color="#5577FF"/>
</linearGradient>
<linearGradient id="paint12_linear" x1="-71.1892" y1="489.281" x2="326.193" y2="489.281" gradientUnits="userSpaceOnUse">
<stop stop-color="#40D5E6"/>
<stop offset="1" stop-color="#5577FF"/>
</linearGradient>
</defs>
</svg>
