<svg width="80" height="80" viewBox="0 0 80 80" fill="none" xmlns="http://www.w3.org/2000/svg">
    <g clip-path="url(#clip0_3077_671)">
        <path d="M72 14H7C4.23858 14 2 16.2386 2 19V61.86C2 64.6214 4.23858 66.86 7 66.86H72C74.7614 66.86 77 64.6214 77 61.86V19C77 16.2386 74.7614 14 72 14Z" stroke="#FFD702" stroke-width="5" stroke-linecap="round" stroke-linejoin="round"/>
        <path d="M11.9004 26.3203C13.2811 26.3203 14.4004 25.201 14.4004 23.8203C14.4004 22.4396 13.2811 21.3203 11.9004 21.3203C10.5197 21.3203 9.40039 22.4396 9.40039 23.8203C9.40039 25.201 10.5197 26.3203 11.9004 26.3203Z" fill="#FFD702"/>
        <path d="M21.9004 26.3203C23.2811 26.3203 24.4004 25.201 24.4004 23.8203C24.4004 22.4396 23.2811 21.3203 21.9004 21.3203C20.5197 21.3203 19.4004 22.4396 19.4004 23.8203C19.4004 25.201 20.5197 26.3203 21.9004 26.3203Z" fill="#FFD702"/>
        <path d="M31.9004 26.3203C33.2811 26.3203 34.4004 25.201 34.4004 23.8203C34.4004 22.4396 33.2811 21.3203 31.9004 21.3203C30.5197 21.3203 29.4004 22.4396 29.4004 23.8203C29.4004 25.201 30.5197 26.3203 31.9004 26.3203Z" fill="#FFD702"/>
        <path d="M26.1501 35.1104C26.1622 34.7348 26.3158 34.3776 26.5801 34.1104C26.7068 33.9706 26.8611 33.8584 27.0331 33.781C27.2052 33.7036 27.3914 33.6625 27.5801 33.6604C27.9951 33.6342 28.4039 33.7705 28.7201 34.0404C28.8686 34.1816 28.9854 34.3526 29.063 34.5422C29.1406 34.7318 29.1771 34.9357 29.1701 35.1404L29.2801 46.1404C29.2011 47.953 29.6604 49.7484 30.6001 51.3004C31.0897 51.9561 31.7394 52.4752 32.4871 52.8079C33.2347 53.1405 34.0553 53.2757 34.8701 53.2004C36.1096 53.2609 37.3398 52.9585 38.4101 52.3304C39.2978 51.7577 39.9752 50.9118 40.3401 49.9204C40.751 48.7793 40.951 47.573 40.9301 46.3604V35.1704C40.927 34.9745 40.9646 34.7801 41.0403 34.5994C41.116 34.4187 41.2283 34.2556 41.3701 34.1204C41.5084 33.9806 41.6737 33.8704 41.8559 33.7965C42.0382 33.7225 42.2335 33.6865 42.4301 33.6904C42.8327 33.6861 43.2207 33.8406 43.5101 34.1204C43.6552 34.2536 43.7704 34.416 43.848 34.5971C43.9255 34.7781 43.9638 34.9735 43.9601 35.1704V46.3604C44.1017 48.9531 43.3028 51.5097 41.7101 53.5604C40.2101 55.3271 37.9501 56.2104 34.9301 56.2104C33.2267 56.2787 31.5426 55.8289 30.1001 54.9204C28.8138 54.0422 27.8154 52.8038 27.2301 51.3604C26.5663 49.7143 26.2267 47.9554 26.2301 46.1804L26.1201 35.1804L26.1501 35.1104Z" fill="#FFD702" stroke="#FFD702" stroke-width="1.5" stroke-miterlimit="10"/>
        <path d="M51.3196 55.4696C51.122 55.4741 50.9257 55.4372 50.7432 55.3615C50.5607 55.2857 50.396 55.1727 50.2596 55.0296C50.1159 54.8912 50.0019 54.7249 49.9245 54.5409C49.8472 54.357 49.8081 54.1592 49.8096 53.9596V34.9596C49.8217 34.584 49.9753 34.2268 50.2396 33.9596C50.3624 33.8137 50.5154 33.6961 50.6881 33.6149C50.8607 33.5338 51.0489 33.4911 51.2396 33.4896C51.4503 33.4809 51.6606 33.5145 51.8581 33.5883C52.0556 33.6622 52.2363 33.7748 52.3896 33.9196C52.5328 34.0601 52.6456 34.2284 52.7213 34.4141C52.797 34.5999 52.8338 34.7991 52.8296 34.9996V53.9996C52.8312 54.1992 52.7921 54.397 52.7147 54.5809C52.6373 54.7649 52.5233 54.9312 52.3796 55.0696C52.2391 55.2045 52.0728 55.3095 51.8906 55.3783C51.7084 55.447 51.5142 55.4781 51.3196 55.4696Z" fill="#FFD702" stroke="#FFD702" stroke-width="1.5" stroke-miterlimit="10"/>
    </g>
    <defs>
        <clipPath id="clip0_3077_671">
            <rect width="80" height="80" fill="white"/>
        </clipPath>
    </defs>
</svg>
